<svg width="120" height="120" viewBox="0 0 120 120" fill="none" xmlns="http://www.w3.org/2000/svg">
<path d="M62.0118 117.479C24.4054 117.479 5.85181 98.2594 5.85181 61.1523C5.85181 24.0452 26.4105 9.00652 62.0118 9.00652C97.6131 9.00652 118.841 23.8826 118.841 61.1523C118.841 98.422 99.6221 117.479 62.0118 117.479Z" fill="#EDECFA"/>
<path d="M20.9834 76.4427C20.3989 85.3962 17.3215 94.1717 12.1886 101.53C11.3447 102.738 10.4466 103.911 9.55245 105.08C9.29697 105.413 9.03373 105.761 8.93308 106.172C8.75115 106.938 9.18084 107.712 9.64923 108.347C11.9486 111.483 15.4363 113.542 19.0247 115.044C26.1163 118.005 33.8466 119.077 41.515 119.635C43.7137 119.794 45.9589 119.91 48.0918 119.364C50.5769 118.729 52.8144 117.185 54.2892 115.087C56.4763 111.978 57.2853 108.061 57.5834 104.271C57.6608 103.292 48.955 97.5665 46.2918 94.7368C42.8157 91.0401 38.8402 76.853 37.2956 76.2994C34.5047 75.3046 33.986 76.8607 31.0247 76.9885C28.0634 77.1162 24.9976 76.7678 22.4079 75.3317C21.7266 74.9523 20.7241 74.5652 20.3021 75.2233" fill="#FF5B00"/>
<path d="M93.6603 37.4156C93.6874 37.4891 93.6951 37.6052 93.6912 37.6904C93.6912 37.7485 93.6835 37.7988 93.6796 37.8491V38.031L93.6409 37.853C93.5829 37.8065 93.579 37.8181 93.6022 37.9381C93.6216 38.0426 93.6564 38.1897 93.6371 38.2091C93.5596 38.2904 93.5751 38.7859 93.4938 38.8362L93.4783 38.5072V38.4646V38.4956C93.4628 38.5691 93.428 38.6039 93.4977 38.8478C93.5325 39.0878 93.5325 39.2039 93.4977 39.2272C93.4977 39.3123 93.4822 39.3007 93.4629 39.2272C93.3816 39.2465 93.3467 39.6104 93.2035 39.1923C93.1919 39.1575 93.1764 39.1885 93.1687 39.2194C93.1145 39.4246 93.0255 39.3549 92.9248 39.2349C92.7738 39.0491 92.6538 39.0878 92.53 39.0917C92.4758 39.0917 92.4293 39.0336 92.3867 38.6194C92.3713 38.4839 92.3441 38.3136 92.317 38.3755C92.3054 38.4026 92.259 38.3291 92.317 38.5962C92.3635 38.8362 92.3557 39.0143 92.317 38.9833C92.2357 38.9097 92.1777 38.9833 92.1119 38.9833C92.0422 38.9833 92.0035 38.8285 91.9377 38.3291C91.9222 38.2207 91.9028 38.1085 91.8757 37.9226C91.8448 38.1356 91.8177 38.3252 91.7906 38.5149C91.8099 38.5072 91.8293 38.5149 91.8448 38.4956C91.8641 38.4723 91.868 38.3291 91.9067 38.4839C91.93 38.5846 91.9571 38.7704 91.9648 38.8826C91.9764 39.0491 91.9532 39.0994 91.9184 39.0491C91.8758 38.9872 91.8332 38.8052 91.7945 38.6078C91.779 38.8981 91.7287 38.991 91.6474 38.9717C91.4422 38.933 91.2254 38.8556 91.0667 39.0878C91.0048 39.1807 90.9816 39.0956 90.8693 38.4491V38.3949V38.4414C90.8267 38.3872 90.7454 38.1975 90.8383 38.6504C90.908 38.9949 90.9197 39.1962 90.8538 39.111C90.7377 38.9601 90.6913 39.1846 90.6061 39.2156C90.5558 39.2349 90.5364 39.4362 90.4241 39.0414C90.3893 38.9175 90.3816 38.9988 90.3777 39.0607C90.3467 39.4401 90.2306 39.3278 90.1029 39.173C90.0603 39.1226 90.0254 39.0762 90.01 39.1768C89.9712 39.4401 89.8551 39.3743 89.7622 39.3201C89.5029 39.1691 89.3248 39.4439 89.0538 39.2349C88.9067 39.1226 88.8642 39.5562 88.6629 39.1343C88.6048 39.471 88.4074 39.1381 88.3145 39.3239C88.2758 39.3975 88.2371 39.5872 88.09 39.0336C88.0203 38.7743 88.028 39.0026 88.0319 39.0762C88.0667 39.5872 87.9583 39.5291 87.8654 39.533C87.8267 39.533 87.788 39.3975 87.7493 39.2117C87.7648 39.1575 87.7803 39.0917 87.7183 38.871C87.7067 38.8285 87.6757 38.7936 87.668 38.813C87.637 38.9097 87.7183 39.0723 87.7416 39.2039C87.7261 39.351 87.6719 39.3433 87.6719 39.5407C87.6719 39.7265 87.5442 39.2117 87.5597 39.4014C87.5751 39.6297 87.5403 39.6491 87.5055 39.6762C87.4938 39.6839 87.4822 39.6878 87.4629 39.6994C87.3777 39.3626 87.3429 39.0568 87.2732 38.7394V38.6891V38.7317C87.2384 38.6891 87.1687 38.4181 87.1571 38.5149C87.1416 38.6581 87.219 38.7704 87.25 38.902C87.3312 39.2543 87.2848 39.3743 87.3622 39.6917C87.2809 39.6685 87.2267 39.2659 87.1648 39.1265L87.1571 39.173L87.1416 39.0646L87.1067 39.022C87.2771 40.0633 87.0564 39.7072 86.9596 39.8039C86.8551 39.4207 86.9209 39.3859 86.8629 39.1226C86.8474 39.0491 86.8125 38.9214 86.8048 38.9097C86.7777 38.8749 86.8048 38.9988 86.8203 39.0646C86.89 39.4323 86.7119 38.9291 86.77 39.2852C86.8087 39.5059 86.859 39.7807 86.8319 39.8775C86.7661 39.7497 86.7351 39.3278 86.6577 39.3123C86.6228 39.1846 86.5919 39.0723 86.5532 38.991C86.5028 38.8439 86.4874 38.8672 86.4951 38.991C86.4693 39.0297 86.4796 39.1639 86.5261 39.3936C86.5145 39.2465 86.5068 39.1265 86.499 39.0026L86.5532 39.0143L86.6538 39.3201C86.7003 39.502 86.739 39.7226 86.7119 39.7343C86.6499 39.7652 86.6616 40.0555 86.588 40.0323C86.4758 39.9936 86.3867 40.0517 86.3016 40.133C86.2784 40.1523 86.2629 40.133 86.2087 39.9433C86.1313 39.6723 86.1196 39.6568 86.1351 39.8233C86.1661 40.1059 86.1738 40.2801 86.0538 39.9936C86.019 39.9085 86.0267 39.9743 86.0267 40.0207C86.0345 40.4504 85.8564 40.1485 85.779 40.2414C85.7712 40.2491 85.7364 40.1523 85.7132 40.102C85.6822 40.0401 85.6551 39.8349 85.6319 39.8659C85.628 39.8736 85.6822 40.0478 85.7132 40.1136C85.7132 40.1678 85.7287 40.2685 85.7209 40.2723C85.5661 40.3304 85.4268 40.4581 85.2448 40.3962C85.09 40.3459 84.9583 40.3614 84.8693 40.551C84.8345 40.6246 84.8074 40.7601 84.6603 40.2646L84.6526 40.2143V40.253C84.6216 40.2762 84.6526 40.5085 84.5635 40.3536C84.49 40.2297 84.4745 40.3807 84.459 40.5007C84.4474 40.5859 84.428 40.6517 84.4009 40.6943C84.339 40.7949 84.3351 40.7872 84.1687 40.1639C84.1532 40.0091 84.2035 39.9936 84.1029 39.6297C84.1145 39.8078 84.1183 39.9355 84.1609 40.1446C84.2074 40.5549 84.13 40.6168 84.0642 40.6672C83.9674 40.7407 83.948 41.0968 83.7429 40.7717L83.5455 40.9188C83.5261 41.1201 83.3983 40.9381 83.3209 40.9188C83.2551 40.8994 83.1545 40.4581 83.0925 40.1678L83.0848 40.1252V40.1523C83.0848 40.2181 83.0732 40.2723 83.1119 40.431C83.2009 40.8104 83.2977 41.2014 83.1003 40.8065C83.0887 40.7794 83.0693 40.7717 83.0693 40.7949C83.1003 41.3252 82.8138 40.8065 82.7828 41.1239C82.7828 41.1433 82.7713 41.1472 82.7596 41.1356C82.6977 41.0736 82.57 40.8646 82.5777 40.9652C82.6009 41.2168 82.5041 41.062 82.4925 41.1859C82.477 41.3872 82.268 40.9188 82.2835 41.2285C82.2835 41.2943 82.2255 41.1239 82.1906 41.0155C82.1442 40.8762 82.1171 40.7485 82.0977 40.6285C82.0784 40.5123 82.0513 40.3614 82.0009 40.3226C81.9739 40.3033 81.9854 40.3962 82.028 40.5704C82.1712 41.1626 82.1867 41.3601 82.0628 41.3175C81.9428 41.2749 81.8229 41.2439 81.7377 41.3175C81.6835 41.3639 81.5596 41.0659 81.4745 40.9614L81.459 40.9343L81.4783 40.9807C81.5519 41.1975 81.5906 41.3717 81.5674 41.4181C81.548 41.453 81.4977 41.3214 81.4513 41.1626L81.4396 41.1123V41.151C81.3816 41.093 81.3003 40.6788 81.2383 40.6672L81.1958 40.5201L81.188 40.4736V40.5085C81.188 40.5085 81.1958 40.5472 81.1996 40.5626C81.2151 40.6014 81.2267 40.6401 81.2422 40.6749C81.2577 40.7291 81.2809 40.791 81.2925 40.8375C81.428 41.422 81.4203 41.4259 81.1532 40.822C81.3351 41.3872 81.3506 41.6233 81.2422 41.4801C81.0254 41.1975 81.0254 41.6775 80.7274 41.0968C80.6074 41.1704 80.4061 40.9691 80.2551 40.9304C80.0732 40.8839 79.8719 40.7949 79.7054 40.8143C79.4693 40.8414 79.2022 40.7678 78.7416 40.0788C78.6177 39.6181 78.6448 39.4788 78.7029 39.4285C78.8151 39.3317 78.8887 39.1188 79.0513 39.1614C79.0745 39.1691 79.0977 39.1691 79.1015 39.1265C79.1519 38.6039 79.4151 38.6968 79.6474 38.7162C79.9222 38.7356 80.1545 38.6349 80.3829 38.5072C80.6887 38.3407 81.068 38.4297 81.339 38.1549C81.5325 37.9614 81.8229 38.093 81.9738 37.7485C82.0009 37.6865 82.0513 37.7097 82.0977 37.7059C82.4229 37.6788 82.6861 37.4504 82.9609 37.2375C82.9958 37.2104 83.0306 37.2026 83.0732 37.1988C83.3828 37.1755 83.6345 36.9317 83.9016 36.7497C84.0525 36.6491 84.2228 36.6297 84.3777 36.5485C84.5983 36.4285 84.8229 36.3162 85.0474 36.2078C85.3029 36.0839 85.5738 36.0259 85.81 35.8168C85.9416 35.6968 86.1158 35.7549 86.2513 35.6426C86.379 35.5381 86.5415 35.6039 86.6499 35.4143C86.6848 35.3523 86.7351 35.3368 86.7816 35.333C87.0371 35.3136 87.2461 35.0736 87.4822 34.9459C87.6758 34.8452 87.8848 34.8104 88.0745 34.6826C88.3261 34.5123 88.6164 34.5433 88.8796 34.4194C89.2628 34.2336 89.6809 34.2452 90.0835 34.1794C90.3042 34.1446 90.5016 33.9394 90.7455 34.0401C91.0977 34.191 91.3958 33.9704 91.7558 34.2065C91.9106 34.3072 92.0538 34.2917 92.1971 34.2917C92.3403 34.2917 92.5028 34.4659 92.6499 34.4814C92.8009 34.4968 92.9635 34.6323 93.1222 34.7368C93.1803 34.7755 93.2422 34.6788 93.3042 35.2285C93.3313 35.2826 93.3622 35.3291 93.3739 35.511C93.3777 35.5923 93.3661 35.6272 93.3506 35.5962C93.3196 35.542 93.3119 35.4143 93.2964 35.3097C93.1764 35.1317 93.157 35.1743 93.1996 35.6852C93.2267 36.053 93.2848 36.4594 93.2964 36.8117V36.8543L93.3003 36.8272C93.4203 37.0981 93.5364 37.0246 93.6603 37.791C93.668 37.7988 93.6758 37.8026 93.6796 37.791C93.6719 37.7097 93.6603 37.6246 93.6525 37.5472C93.6409 37.431 93.6448 37.342 93.6758 37.4117L93.6603 37.4156ZM80.2745 40.4117V40.4233L80.2861 40.4465L80.2745 40.4078V40.4117ZM80.6964 40.5162L80.6809 40.5007L80.6926 40.5356V40.5162H80.6964ZM80.9519 40.9614V40.9768L80.9635 41.0039L80.9519 40.9652V40.9614ZM81.068 40.8685L81.0177 40.7097V40.6672L81.0138 40.6981C81.0138 40.7175 81.0177 40.7368 81.0255 40.7562L81.068 40.8762L81.0874 40.911L81.068 40.8646V40.8685ZM80.8319 39.142C80.8203 39.1188 80.8125 39.1343 80.8048 39.1343C80.8319 39.1962 80.859 39.2659 80.8822 39.3162C80.8938 39.3394 80.9016 39.3278 80.9093 39.3317C80.8822 39.2272 80.8551 39.1846 80.8319 39.142ZM81.4513 40.6168L81.4435 40.6091L81.4629 40.6594L81.4551 40.613L81.4513 40.6168ZM81.6371 40.5433C81.6293 40.5162 81.6138 40.4852 81.6022 40.4543C81.61 40.4968 81.6177 40.5356 81.6254 40.582C81.6409 40.6439 81.6526 40.671 81.6603 40.6672C81.6526 40.6285 81.6487 40.5897 81.6371 40.5472V40.5433ZM81.788 40.3226C81.788 40.3226 81.7725 40.2878 81.7648 40.2839C81.7493 40.2723 81.7493 40.2955 81.7648 40.3381C81.7686 40.3497 81.7764 40.3459 81.7803 40.3497V40.3226H81.788ZM81.4009 39.0065C81.4009 39.0065 81.3854 38.9717 81.3777 38.9678C81.3622 38.9562 81.3622 38.9794 81.3777 39.0259C81.3816 39.0375 81.3893 39.0375 81.3932 39.0414V39.0104L81.4009 39.0065ZM82.3183 40.4581L82.3106 40.4504L82.3261 40.5046L82.3183 40.4581ZM82.4229 40.3072L82.4074 40.2568L82.4151 40.2994L82.4229 40.3072ZM82.5738 40.2336C82.5661 40.2104 82.5467 40.1988 82.5467 40.2181C82.5467 40.2452 82.5622 40.3072 82.5777 40.3536C82.5971 40.4194 82.6087 40.4426 82.6125 40.4233C82.6125 40.3768 82.6048 40.3149 82.5738 40.2336ZM82.8719 40.0091C82.7984 39.9665 82.8177 40.1678 82.7906 40.2065L82.7713 40.1755L82.7906 40.222C82.8719 40.342 82.9222 40.3536 82.8719 40.0091ZM83.2009 40.0633C83.1738 39.9588 83.1467 39.893 83.139 39.9201C83.1274 39.9588 83.139 40.071 83.1816 40.2143C83.2048 40.2955 83.2358 40.3885 83.2435 40.3614C83.2551 40.3188 83.2164 40.1678 83.2009 40.0633ZM83.5145 39.9123L83.5067 39.9046L83.5222 39.9549L83.5145 39.9123ZM83.6654 40.071C83.6461 40.0517 83.6655 40.1446 83.6926 40.2414L83.7429 40.4001C83.7506 40.4504 83.7119 40.3885 83.7506 40.5085V40.4117C83.739 40.3652 83.739 40.3265 83.7274 40.2762C83.7119 40.2026 83.6887 40.0904 83.6654 40.071ZM83.6654 39.6491C83.6887 39.8078 83.7235 39.9588 83.7893 40.1485C83.7738 39.9704 83.7351 39.8194 83.6654 39.6491ZM84.0448 39.9743V40.0014L84.0525 40.0439V40.0168L84.0448 39.9743ZM83.9248 39.3046V39.3472L83.9326 39.3897V39.3626L83.9248 39.3085V39.3046ZM83.8164 37.551C83.8164 37.551 83.8242 37.5433 83.8242 37.5394C83.8203 37.5162 83.8164 37.493 83.8125 37.4736C83.8125 37.462 83.797 37.4426 83.797 37.4465C83.7932 37.4697 83.7971 37.5123 83.8164 37.5549V37.551ZM84.3971 39.6414C84.3816 39.6026 84.3622 39.533 84.3584 39.5291C84.3429 39.5214 84.3351 39.5407 84.3274 39.5523C84.3428 39.6375 84.3584 39.6801 84.37 39.6801C84.3816 39.6801 84.3893 39.6568 84.4009 39.6452L84.3971 39.6414ZM84.5558 39.7885L84.5403 39.7343L84.548 39.7846H84.5558V39.7885ZM84.7919 39.6336V39.653L84.7996 39.6723L84.7919 39.6336ZM84.3467 37.3072L84.3584 37.3265L84.3506 37.2878V37.3072H84.3467ZM84.9816 39.5794C84.8771 39.2736 84.8461 39.2697 84.8848 39.5562V39.5949L84.8887 39.5678C84.8887 39.4594 84.9777 39.6955 84.9816 39.5794ZM85.2951 39.5678V39.5833L85.3028 39.6065L85.2951 39.5678ZM85.57 39.1033C85.57 39.1033 85.5583 39.0878 85.5583 39.0955C85.5583 39.142 85.5699 39.1846 85.5854 39.2039C85.5893 39.2078 85.5854 39.1846 85.5854 39.173C85.5815 39.1497 85.5738 39.1188 85.57 39.1033ZM85.6977 39.262H85.6899L85.7054 39.3123L85.6977 39.262ZM85.9184 39.1343C85.8874 39.1304 85.8642 39.1149 85.8525 39.1265C85.8332 39.142 85.81 39.1691 85.8719 39.3665C85.9106 39.4943 85.9261 39.4633 85.9222 39.3859C85.9222 39.3201 85.9222 39.2504 85.9184 39.1343ZM86.1042 39.1768V39.2078C86.1119 39.2581 86.0771 39.2001 86.1042 39.3123V39.2194V39.173V39.1768ZM86.1971 39.1188C86.1971 39.1188 86.1816 39.0917 86.1777 39.0917C86.1661 39.0994 86.17 39.1343 86.1893 39.1691C86.1971 39.1807 86.2009 39.1768 86.2009 39.1691C86.2009 39.1652 86.2009 39.1381 86.1971 39.1188ZM86.348 39.5872C86.348 39.5872 86.3442 39.6065 86.3442 39.6181C86.3519 39.6336 86.3557 39.6491 86.3635 39.6607C86.3674 39.6607 86.3751 39.6685 86.3751 39.6607C86.3751 39.6181 86.3635 39.591 86.3519 39.591L86.348 39.5872ZM86.2745 37.4581C86.2551 37.3691 86.2319 37.3149 86.2164 37.3033C86.2164 37.3033 86.2164 37.3381 86.2203 37.3614C86.2357 37.4426 86.2551 37.5201 86.2745 37.5394C86.2783 37.5433 86.2745 37.4852 86.2745 37.4581ZM86.0616 36.3781C86.0345 36.2581 86.0113 36.1962 86.0035 36.2233C85.9958 36.2426 85.9997 36.3123 86.0113 36.3781C86.0267 36.4594 86.0577 36.5407 86.0655 36.5175C86.0732 36.502 86.0655 36.4207 86.0655 36.382L86.0616 36.3781ZM86.3055 36.7033L86.29 36.6762L86.2977 36.7188L86.3055 36.7033ZM86.9093 38.9872L86.89 38.9175C86.89 38.9175 86.8822 38.9291 86.8861 38.9485C86.89 39.0065 86.9016 39.0452 86.9132 39.0375C86.9132 39.0375 86.9132 39.0026 86.9132 38.9872H86.9093ZM87.2848 38.2362C87.2732 38.1743 87.2616 38.1355 87.2577 38.1704C87.2577 38.1897 87.2655 38.2517 87.2732 38.2943C87.2848 38.3639 87.2964 38.3872 87.3003 38.3678C87.2964 38.3252 87.2887 38.2826 87.2848 38.2362ZM87.1493 37.4156L87.13 37.3459C87.13 37.3459 87.1222 37.3614 87.1261 37.3768C87.1261 37.4349 87.1416 37.4697 87.1532 37.4659C87.1532 37.4659 87.1532 37.4349 87.1532 37.4156H87.1493ZM87.1958 37.2723L87.188 37.2839L87.1996 37.311L87.1919 37.2723H87.1958ZM87.3274 37.0168C87.3119 36.9549 87.2964 36.9355 87.2964 36.982C87.3003 37.0865 87.3235 37.2104 87.3661 37.3381C87.3661 37.253 87.3583 37.1523 87.3274 37.0168ZM87.85 38.9794V39.0143V39.0607V39.0259V38.9794ZM87.85 38.5304L87.8345 38.4801C87.8345 38.4801 87.8345 38.5033 87.8306 38.5149C87.8345 38.5381 87.8384 38.573 87.8422 38.5807C87.8616 38.6194 87.8616 38.6001 87.85 38.5343V38.5304ZM87.5712 37.0904C87.5557 37.0555 87.5519 37.071 87.5635 37.1407C87.5635 37.1562 87.579 37.191 87.579 37.191C87.579 37.1872 87.579 37.1678 87.579 37.1562C87.5751 37.133 87.5713 37.0981 87.5674 37.0943L87.5712 37.0904ZM88.1403 38.8052C88.0861 38.5923 88.0435 38.542 88.0009 38.4839C87.9816 38.4297 87.9584 38.3639 87.939 38.3252C87.9235 38.2904 87.9274 38.3446 87.9429 38.3949C87.9622 38.4491 87.9816 38.4762 88.0009 38.511C88.0435 38.5652 88.1132 38.9523 88.1403 38.8052ZM87.9351 37.7097C87.9313 37.6865 87.9235 37.6594 87.9196 37.6439C87.9003 37.5859 87.8925 37.5936 87.908 37.671C87.908 37.6904 87.9196 37.7175 87.9274 37.7252C87.9312 37.733 87.9351 37.7175 87.9351 37.7136V37.7097ZM87.5364 35.7433V35.7897L87.4783 35.782L87.4668 35.7549L87.4822 35.7975C87.5248 35.8943 87.5519 35.9291 87.5442 35.7897V35.7394L87.5364 35.7433ZM88.1829 38.3678C88.1674 38.333 88.148 38.2749 88.1442 38.2826C88.1287 38.3175 88.1441 38.4143 88.1635 38.5381C88.179 38.6156 88.1906 38.6465 88.1906 38.6039C88.1906 38.5304 88.1829 38.4491 88.1829 38.3678ZM88.4499 38.2362V38.2672V38.3136V38.2826V38.2362ZM88.5932 38.2207V38.2633C88.5932 38.3175 88.5932 38.3639 88.5932 38.4297C88.5932 38.4839 88.5932 38.5575 88.628 38.6156C88.6319 38.6233 88.628 38.5536 88.628 38.5072C88.6203 38.4336 88.6087 38.3523 88.597 38.2749V38.2207H88.5932ZM88.7054 38.2401C88.6977 38.1859 88.6861 38.151 88.6784 38.1781C88.6784 38.1975 88.6784 38.2439 88.6784 38.2749C88.69 38.3368 88.7016 38.3678 88.7054 38.3446C88.7054 38.3252 88.7054 38.2826 88.7054 38.2401ZM89.0383 36.9355C89.0383 36.9355 89.0422 36.9123 89.0383 36.893C89.0306 36.8272 89.0151 36.7885 89.0074 36.7923C89.0074 36.7923 88.9996 36.8117 89.0074 36.831C89.0151 36.8968 89.0267 36.9317 89.0383 36.9355ZM89.2164 37.6285C89.2319 37.853 89.2319 38.0078 89.2822 38.2749C89.3312 38.2388 89.3093 38.0233 89.2164 37.6285ZM89.557 38.3446C89.5338 38.2865 89.5261 38.3097 89.53 38.3833C89.5377 38.4685 89.5571 38.5304 89.5764 38.5768C89.5996 38.6272 89.6112 38.631 89.6035 38.5459C89.5919 38.4607 89.5725 38.391 89.5532 38.3407L89.557 38.3446ZM89.9829 38.4801C89.9713 38.4181 89.9596 38.391 89.9558 38.4181C89.948 38.4491 89.9441 38.4878 89.9441 38.5381C89.9441 38.5768 89.9558 38.6194 89.9674 38.6233C89.9867 38.631 89.9945 38.5846 89.9829 38.4801ZM90.3042 38.4336C90.2771 38.2981 90.2654 38.271 90.2616 38.302C90.2577 38.3407 90.2461 38.3756 90.2538 38.4375C90.2654 38.542 90.2887 38.573 90.2964 38.542C90.3041 38.5149 90.3042 38.453 90.3042 38.4336ZM90.668 38.3872C90.6448 38.2826 90.6138 38.1278 90.5829 38.0814C90.5519 38.0349 90.5674 38.1626 90.5829 38.271C90.6061 38.4143 90.6332 38.5381 90.6642 38.5536C90.6797 38.5614 90.6835 38.5072 90.6642 38.3872H90.668ZM91.1867 38.6581L91.179 38.6736L91.1906 38.7007L91.1829 38.6543L91.1867 38.6581ZM91.1248 38.1665L91.117 38.2555V38.3059L91.1209 38.2672C91.1209 38.2207 91.1519 38.2904 91.1248 38.1665ZM91.2448 38.3175V38.3368L91.2525 38.3562L91.2448 38.3175ZM90.8577 35.5459C90.8577 35.4994 90.8886 35.5691 90.8616 35.4414L90.8538 35.5381V35.5846V35.5459H90.8577ZM91.2719 37.853C91.2642 37.8297 91.2486 37.853 91.2486 37.8646C91.2796 38.1123 91.3222 38.3291 91.3996 38.5265C91.357 38.2633 91.3338 38.0388 91.268 37.853H91.2719ZM91.6242 37.8491C91.5429 37.7059 91.508 37.8375 91.4267 37.8414C91.5622 38.151 91.5777 37.9226 91.6242 37.8491ZM91.5467 36.5059C91.5312 36.4517 91.5235 36.4439 91.5235 36.4904C91.5235 36.5059 91.5274 36.5446 91.5313 36.5639C91.5468 36.6181 91.5545 36.622 91.5545 36.5833C91.5545 36.5601 91.5506 36.5252 91.5467 36.5097V36.5059ZM92.0345 37.9226L91.9996 37.8762C91.9106 37.671 91.957 38.0117 91.9725 38.1743C91.988 38.3794 92.0229 38.6039 92.1003 38.6891C92.0461 38.3756 91.988 38.0814 92.0035 37.8801C92.0151 37.8994 92.0383 38.031 92.0383 37.9226H92.0345ZM92.139 38.0117C92.1351 37.9923 92.1274 37.9575 92.1274 37.9536C92.1235 37.9536 92.1196 37.9614 92.1196 37.9768C92.1196 38.0349 92.1312 38.0697 92.139 38.062C92.139 38.062 92.139 38.0272 92.139 38.0117ZM92.4177 36.6956C92.4177 36.6956 92.4293 36.742 92.4332 36.7497C92.4371 36.7575 92.4409 36.742 92.4448 36.7381C92.4409 36.7149 92.4371 36.6878 92.4332 36.6723C92.4177 36.6104 92.4099 36.622 92.4216 36.6956H92.4177ZM92.4603 38.0272C92.4022 37.8259 92.3751 37.8878 92.3442 38.0194C92.41 38.1859 92.4603 38.3097 92.4758 38.1704C92.4758 38.151 92.468 38.0504 92.4603 38.031V38.0272ZM92.7893 38.7472L92.7777 38.6968C92.7545 38.5962 92.7312 38.4878 92.7119 38.3988C92.6887 38.3059 92.6577 38.2285 92.6616 38.3562C92.6616 38.4568 92.6887 38.5807 92.7158 38.631C92.739 38.6775 92.7584 38.6852 92.7816 38.7085L92.7932 38.7433L92.7893 38.7472ZM92.3635 35.3717C92.3519 35.3368 92.3403 35.302 92.3287 35.2749C92.3132 35.2401 92.3054 35.2594 92.317 35.3214C92.3209 35.3562 92.3403 35.4026 92.348 35.4104C92.3558 35.4181 92.3596 35.3872 92.3635 35.3717ZM92.8861 38.1046C92.8551 38.0388 92.8358 38.0465 92.828 38.1317C92.828 38.1704 92.8396 38.2478 92.8512 38.2594C92.8783 38.2904 92.8822 38.2014 92.8861 38.1046ZM92.7777 37.2336C92.7467 37.2994 92.739 37.3885 92.7545 37.5626C92.7545 37.5704 92.7777 37.6168 92.7855 37.613C92.8126 37.5936 92.7971 37.4504 92.7777 37.2336ZM93.0719 38.511C93.0719 38.511 93.0603 38.4955 93.0603 38.5033C93.0603 38.5459 93.0603 38.5885 93.0758 38.6078C93.0758 38.6117 93.0797 38.5885 93.0835 38.5768C93.0835 38.5536 93.0797 38.5226 93.0758 38.511H93.0719ZM93.4706 39.1497L93.4629 39.1188V39.1575L93.4706 39.1497ZM93.4009 38.0543C93.3196 38.0891 93.3196 38.3252 93.3622 38.6852V38.7278L93.3661 38.7007C93.3467 38.4026 93.3816 38.2943 93.4009 38.0504V38.0543Z" fill="#62D9EB"/>
<path d="M93.703 39.1381C93.6991 39.173 93.6952 39.2427 93.703 39.3085C93.7107 39.3859 93.73 39.4633 93.7455 39.4633C93.7688 39.4672 93.761 39.3665 93.7455 39.2427C93.7339 39.1769 93.7146 39.0762 93.7068 39.1343L93.703 39.1381Z" fill="#62D9EB"/>
<path d="M93.4782 35.4375C93.4782 35.4375 93.4589 35.4491 93.4589 35.4839C93.4589 35.5769 93.4821 35.6233 93.4976 35.6465C93.513 35.6736 93.5285 35.6775 93.5246 35.5962C93.513 35.4607 93.4937 35.4452 93.4782 35.4375Z" fill="#62D9EB"/>
<path d="M93.7416 37.7329C93.7454 37.8065 93.7532 37.8839 93.7764 37.9265C93.7919 37.9265 93.7919 37.8568 93.7842 37.7755C93.7803 37.7291 93.7687 37.6555 93.761 37.6362C93.7377 37.5858 93.7416 37.6633 93.7455 37.7329H93.7416Z" fill="#62D9EB"/>
<path d="M98.1045 57.2852C98.0929 57.3665 98.0271 57.4633 97.969 57.5252C97.9264 57.5717 97.8916 57.6026 97.8529 57.6413C97.8142 57.6878 97.7793 57.7381 97.7406 57.7846C97.7599 57.7265 97.7793 57.6684 97.8025 57.6104C97.76 57.5252 97.7445 57.5291 97.6941 57.6452C97.6516 57.7459 97.6013 57.8852 97.5625 57.8852C97.4116 57.8852 97.1019 58.2762 96.9625 58.2452C97.0283 58.1562 97.0903 58.0672 97.1561 57.9781L97.1871 57.9472L97.1599 57.9665C97.0903 58.0091 97.0245 58.0091 96.9509 58.2568C96.8426 58.4736 96.7613 58.5626 96.6993 58.5472C96.6413 58.613 96.6296 58.5897 96.6529 58.5123C96.5329 58.4581 96.2425 58.702 96.3354 58.2607C96.3432 58.222 96.3006 58.2336 96.2735 58.2491C96.0684 58.3575 95.9909 58.2259 95.9445 58.0478C95.8709 57.773 95.689 57.6994 95.5225 57.5949C95.449 57.5484 95.4296 57.4633 95.6541 57.111C95.7277 56.9949 95.8051 56.8401 95.7277 56.8633C95.6967 56.8749 95.6851 56.7781 95.5729 57.0297C95.4722 57.2542 95.3406 57.3781 95.3135 57.3239C95.2554 57.2001 95.1316 57.2039 95.0387 57.1459C94.9458 57.0839 95.0039 56.9368 95.2593 56.4994C95.3135 56.4026 95.3677 56.3059 95.4567 56.1394C95.2709 56.2749 95.1083 56.391 94.9419 56.511C94.969 56.5226 94.9922 56.5459 95.0232 56.542C95.0619 56.542 95.1664 56.4375 95.1084 56.5846C95.0735 56.6813 94.9806 56.8439 94.9109 56.9368C94.8142 57.0723 94.7483 57.0917 94.7367 57.022C94.7212 56.9368 94.7909 56.7626 94.8761 56.5807C94.6593 56.782 94.5316 56.8091 94.4348 56.7239C94.1948 56.511 93.9703 56.2671 93.5948 56.2942C93.4477 56.3059 93.4787 56.2246 93.7922 55.6478L93.827 55.6052L93.7961 55.6401C93.7806 55.5626 93.8077 55.3497 93.6103 55.7678C93.4593 56.0852 93.3316 56.2439 93.3084 56.1201C93.2658 55.9033 93.0451 56.0272 92.9174 55.9768C92.8361 55.9459 92.6658 56.0775 92.8051 55.6904C92.8477 55.5665 92.7819 55.6246 92.7316 55.6633C92.4219 55.9149 92.3484 55.7252 92.298 55.4968C92.2826 55.4233 92.267 55.3575 92.1741 55.4155C91.9341 55.5704 91.8335 55.4155 91.7522 55.2955C91.5316 54.951 91.098 54.9859 90.9122 54.591C90.8116 54.3781 90.4361 54.6491 90.4903 54.1652C90.1651 54.351 90.1612 53.9368 89.9096 53.9833C89.809 54.0026 89.6115 54.0994 89.8438 53.5691C89.9522 53.3252 89.7897 53.4917 89.7393 53.5459C89.3987 53.9407 89.3058 53.8013 89.1896 53.7162C89.1432 53.6813 89.1935 53.5536 89.2825 53.3833C89.3445 53.3601 89.4142 53.3252 89.5032 53.1162C89.5226 53.0736 89.5071 53.0233 89.4838 53.031C89.3716 53.0697 89.3522 53.2594 89.2825 53.3755C89.1548 53.4646 89.089 53.4104 88.938 53.5459C88.7987 53.6736 89.0309 53.1975 88.8993 53.3446C88.7445 53.5188 88.6903 53.4994 88.6245 53.4878C88.6013 53.4839 88.5819 53.4762 88.5509 53.4646C88.698 53.151 88.8916 52.9033 89.0425 52.6207L89.0735 52.582L89.0425 52.613C89.0309 52.551 89.1509 52.2994 89.0619 52.3536C88.9342 52.4388 88.9458 52.5897 88.8838 52.7097C88.7174 53.031 88.5703 53.0697 88.4193 53.3639C88.3342 53.271 88.5741 52.942 88.6051 52.7872C88.5896 52.7949 88.5742 52.8026 88.5587 52.8104C88.578 52.7794 88.6013 52.7523 88.6206 52.7213C88.6206 52.6981 88.6129 52.6594 88.609 52.6594C88.0245 53.5381 88.0167 53.0852 87.8232 53.062C87.9896 52.6981 88.098 52.7368 88.2258 52.5007C88.2606 52.4349 88.3187 52.3149 88.3187 52.2994C88.3109 52.2491 88.2567 52.3613 88.218 52.4194C88.0206 52.7368 88.1871 52.222 87.9858 52.5278C87.8619 52.7136 87.7148 52.9536 87.6064 52.9923C87.6219 52.8413 87.9083 52.5201 87.827 52.4388C87.8851 52.3188 87.9277 52.2104 87.9471 52.1213C87.9974 51.9704 87.9625 51.9781 87.8774 52.0672C87.8154 52.0672 87.7238 52.1691 87.6025 52.373C87.7032 52.2607 87.7883 52.1717 87.8735 52.0788C87.8929 52.0981 87.9122 52.1175 87.9316 52.1368C87.8929 52.2375 87.858 52.342 87.8193 52.4426C87.7341 52.613 87.6141 52.7988 87.5716 52.7833C87.4709 52.7484 87.258 52.9575 87.1883 52.8723C87.0761 52.7407 86.9212 52.6942 86.7509 52.671C86.7083 52.6633 86.7006 52.6323 86.7858 52.4581C86.9058 52.2026 86.898 52.1794 86.7897 52.3071C86.6077 52.5278 86.4799 52.6517 86.5535 52.3459C86.5767 52.2568 86.538 52.3072 86.4993 52.342C86.1703 52.6439 86.1858 52.2684 86.0193 52.2607C86.0039 52.2607 86.0348 52.1601 86.0464 52.102C86.058 52.0323 86.1858 51.8697 86.1316 51.8697C86.1199 51.8697 86.0503 52.0401 86.0348 52.1136C85.9961 52.1523 85.9342 52.2336 85.9187 52.2259C85.6787 52.1175 85.4077 52.071 85.2258 51.8581C85.0748 51.6801 84.9006 51.5639 84.6335 51.6026C84.5329 51.6181 84.3858 51.6801 84.6103 51.2155L84.6412 51.173L84.6142 51.2001C84.5561 51.1846 84.4051 51.3665 84.4206 51.1807C84.4322 51.0259 84.289 51.1149 84.1729 51.1768C84.0877 51.2233 84.0103 51.2465 83.9445 51.2465C83.7857 51.2504 83.7896 51.2465 84.0954 50.6775C84.1999 50.5613 84.2774 50.6001 84.4516 50.2633C84.32 50.391 84.2193 50.4801 84.0993 50.6581C83.8206 50.9717 83.6735 50.9368 83.5574 50.9097C83.3793 50.8671 83.058 51.0762 83.0774 50.6697L82.7174 50.573C82.5277 50.6852 82.5238 50.4452 82.4464 50.3562C82.3806 50.2788 82.6283 49.8955 82.7948 49.6517L82.8219 49.6168L82.7987 49.6362C82.7406 49.6749 82.6864 49.702 82.5974 49.8452C82.3922 50.1742 82.1793 50.5226 82.2683 50.0775C82.2761 50.0465 82.2606 50.0233 82.2413 50.0426C81.8309 50.4142 81.9238 49.8026 81.618 49.973C81.5986 49.9846 81.5832 49.973 81.5793 49.9536C81.5561 49.853 81.5793 49.5975 81.5058 49.671C81.32 49.853 81.3316 49.6594 81.2155 49.7291C81.0258 49.8413 81.1767 49.342 80.929 49.5549C80.8787 49.6013 80.9483 49.431 80.9987 49.3304C81.0645 49.1988 81.138 49.0904 81.2155 48.9936C81.289 48.9007 81.3896 48.7807 81.3625 48.7071C81.3509 48.6723 81.2812 48.7381 81.1845 48.8852C80.8515 49.4001 80.6967 49.5355 80.5884 49.3846C80.48 49.2375 80.3677 49.102 80.2013 49.0671C80.0967 49.0439 80.2051 48.7381 80.1974 48.591V48.5562L80.1858 48.6026C80.0851 48.8117 79.9845 48.9549 79.9148 48.9588C79.8645 48.9588 79.9148 48.831 79.9961 48.6878L80.027 48.6452L80 48.6762C79.9767 48.5755 80.2399 48.2426 80.1741 48.1768C80.1974 48.1304 80.2206 48.0878 80.2477 48.0452L80.2787 48.0104L80.2516 48.0336C80.2516 48.0336 80.2245 48.0646 80.2167 48.0762C80.1974 48.111 80.1819 48.1497 80.1664 48.1884C80.1393 48.2388 80.1122 48.2968 80.0851 48.3355C79.7406 48.831 79.729 48.8271 79.9341 48.1884C79.6632 48.7188 79.4735 48.8736 79.4696 48.6801C79.458 48.2968 79.04 48.5833 79.1948 47.9407C78.9897 47.8671 78.9316 47.5459 78.7883 47.3755C78.6142 47.1704 78.4632 46.9188 78.2542 46.7678C77.96 46.551 77.7083 46.2413 77.7974 45.382C78.0683 44.9871 78.2154 44.9252 78.3277 44.9523C78.5406 45.0026 78.8116 44.9484 78.9548 45.1304C78.9742 45.1536 78.9974 45.1768 79.04 45.1575C79.5509 44.8904 79.7638 45.2001 80.0116 45.4323C80.3058 45.7071 80.658 45.8697 81.0219 46.0052C81.5096 46.191 81.8735 46.613 82.4154 46.6942C82.8025 46.7523 83.0271 47.1123 83.4838 47.031C83.5651 47.0155 83.6077 47.0813 83.6619 47.1201C84.0606 47.4026 84.5522 47.5071 85.0438 47.6194C85.1019 47.6349 85.1561 47.662 85.2025 47.6968C85.5819 47.9678 86.0696 48.0375 86.5264 48.1613C86.7819 48.231 86.9987 48.3704 87.2425 48.4594C87.5948 48.5833 87.9432 48.7071 88.2916 48.831C88.6864 48.9742 89.0503 49.1833 89.4916 49.2452C89.7393 49.2801 89.9019 49.4736 90.1419 49.5162C90.3703 49.5549 90.5174 49.7484 90.7845 49.7097C90.8735 49.6981 90.9432 49.7291 91.0013 49.7678C91.3226 49.9807 91.7445 49.9923 92.1161 50.1084C92.4219 50.2052 92.6929 50.3601 93.0103 50.4336C93.4322 50.5304 93.7574 50.8013 94.1599 50.933C94.7483 51.1265 95.2438 51.4904 95.7742 51.7846C96.0683 51.9472 96.4477 51.9588 96.6722 52.2375C96.9974 52.6478 97.5045 52.733 97.7948 53.2091C97.9187 53.4142 98.1083 53.5226 98.2825 53.6426C98.4606 53.7626 98.5496 54.0336 98.7161 54.1613C98.8903 54.2968 99.0064 54.5407 99.138 54.7497C99.1845 54.8271 99.3277 54.8039 99.049 55.2839C99.049 55.3497 99.0606 55.4117 98.9561 55.5626C98.9096 55.6284 98.8748 55.6478 98.8709 55.6052C98.8671 55.5394 98.9406 55.431 98.9871 55.3381C98.9484 55.0981 98.9019 55.1175 98.6193 55.5472C98.4141 55.8568 98.2206 56.2207 98.0077 56.4994L97.9806 56.5342L98.0038 56.5149C97.9806 56.8284 98.178 56.8672 97.8374 57.5678C97.8374 57.5794 97.849 57.5871 97.8606 57.5871C97.9032 57.5175 97.9419 57.4439 97.9845 57.3781C98.0464 57.2813 98.1084 57.2117 98.1006 57.293L98.1045 57.2852ZM79.2683 47.0697H79.2528V47.1007L79.2722 47.0697H79.2683ZM79.6671 47.5459V47.5226L79.6477 47.5536L79.6671 47.5459ZM79.578 48.0684H79.5587V48.1033L79.5819 48.0684H79.578ZM79.7948 48.1226C79.8219 48.0723 79.8451 48.0259 79.8722 47.9794L79.9032 47.9484L79.8761 47.9678C79.8761 47.9678 79.849 47.9988 79.8374 48.0142C79.818 48.053 79.8025 48.0917 79.7832 48.1304L79.7755 48.173L79.7909 48.1226H79.7948ZM81.0025 46.8181C81.0064 46.791 80.9871 46.7949 80.9793 46.7871C80.9561 46.8491 80.929 46.9188 80.9135 46.973C80.9058 47.0001 80.9251 47.0001 80.929 47.0078C80.9909 46.9188 80.9948 46.8646 81.0025 46.8142V46.8181ZM80.4645 48.3355V48.3239L80.4374 48.3742L80.4645 48.3394V48.3355ZM80.747 48.4671C80.7625 48.4439 80.7703 48.4052 80.7819 48.3781C80.7548 48.413 80.7277 48.4439 80.7045 48.4826C80.6696 48.533 80.658 48.5639 80.6735 48.5678C80.6967 48.5368 80.7238 48.5059 80.747 48.471V48.4671ZM81.1109 48.4749C81.1109 48.4749 81.1187 48.4362 81.1187 48.4284C81.1109 48.4052 81.0916 48.4207 81.0761 48.4633C81.0722 48.4749 81.08 48.4788 81.0839 48.4865C81.0916 48.4826 81.1032 48.4788 81.1109 48.4749ZM81.769 47.271C81.769 47.271 81.7806 47.2323 81.7767 47.2246C81.769 47.2013 81.7496 47.2168 81.7303 47.2633C81.7264 47.2749 81.7342 47.2788 81.738 47.2865C81.7496 47.2826 81.7574 47.2749 81.769 47.271ZM81.6219 49.071V49.0594L81.5948 49.1097L81.6219 49.071ZM81.8735 49.0749L81.8967 49.0246L81.8696 49.0594V49.071L81.8735 49.0749ZM82.1135 49.1717C82.1212 49.1484 82.1135 49.1213 82.0942 49.1368C82.0748 49.1562 82.0399 49.2104 82.0167 49.253C81.9819 49.311 81.9819 49.3381 82.0013 49.3304C82.04 49.2994 82.0825 49.253 82.1135 49.1717ZM82.6593 49.311C82.6051 49.2142 82.4619 49.3652 82.3922 49.3613L82.3999 49.3226L82.3845 49.373C82.3845 49.5278 82.4309 49.582 82.6593 49.311ZM83.0077 49.6633C83.0619 49.5704 83.0851 49.5046 83.0503 49.5123C83 49.5278 82.9303 49.613 82.8567 49.7407C82.818 49.8142 82.7754 49.9033 82.8103 49.8955C82.8606 49.8839 82.9419 49.7446 83.0038 49.6594L83.0077 49.6633ZM83.5109 49.8684V49.8568L83.4838 49.9071L83.5109 49.8723V49.8684ZM83.5651 50.1162C83.5574 50.0852 83.4993 50.1626 83.4567 50.2517C83.4335 50.302 83.4103 50.3523 83.3832 50.4026C83.3522 50.4413 83.3561 50.3678 83.3058 50.4801C83.329 50.4568 83.3561 50.4375 83.3793 50.4142C83.4103 50.3794 83.4374 50.3484 83.4683 50.3097C83.5109 50.2478 83.5728 50.151 83.5651 50.1201V50.1162ZM83.9096 49.8375C83.809 49.9652 83.7238 50.093 83.6503 50.2826C83.778 50.151 83.8516 50.0155 83.9096 49.8375ZM84.1032 50.4104L84.08 50.4297L84.0529 50.4646L84.0761 50.4452L84.1032 50.4104ZM84.5058 49.8568L84.4748 49.8878L84.4477 49.9188L84.4748 49.8994L84.5096 49.853L84.5058 49.8568ZM85.7948 48.5949C85.7948 48.5949 85.8064 48.5949 85.8142 48.5949C85.8258 48.5755 85.8413 48.5562 85.8529 48.5368C85.8567 48.5252 85.8606 48.502 85.8529 48.502C85.8296 48.5097 85.8025 48.5484 85.7909 48.591L85.7948 48.5949ZM84.8038 50.5265C84.8193 50.4878 84.8503 50.422 84.8464 50.4142C84.8348 50.3949 84.8077 50.4026 84.7922 50.3988C84.7419 50.4684 84.7264 50.5149 84.7419 50.5226C84.7613 50.5342 84.7845 50.5265 84.8077 50.5265H84.8038ZM84.8812 50.7742L84.9045 50.7239L84.8735 50.7665L84.8812 50.7742ZM85.2954 50.8942L85.2761 50.902V50.9252L85.2954 50.8904V50.8942ZM86.6154 48.9201V48.9433L86.6348 48.9084L86.6154 48.9201ZM85.5742 51.0375C85.6903 50.7355 85.6555 50.7007 85.4735 50.933L85.4425 50.9639L85.4696 50.9484C85.5587 50.8788 85.4774 51.1188 85.5742 51.0413V51.0375ZM85.969 51.3239H85.9496V51.3549L85.969 51.3239ZM86.6735 51.2697C86.6735 51.2697 86.6735 51.2465 86.6619 51.2542C86.627 51.2852 86.6038 51.3239 86.6077 51.351C86.6077 51.3588 86.6271 51.3394 86.6387 51.3317C86.6503 51.3084 86.6658 51.2852 86.6735 51.2697ZM86.7083 51.4981L86.7006 51.4904L86.6813 51.5368L86.7083 51.4942V51.4981ZM87.08 51.6181C87.0451 51.5871 87.0296 51.5562 87.0025 51.5523C86.9677 51.5446 86.9174 51.5407 86.84 51.7342C86.7897 51.8581 86.8284 51.8504 86.8903 51.7962C86.9406 51.7497 86.9909 51.7033 87.08 51.622V51.6181ZM87.2735 51.8194L87.2503 51.8388C87.2193 51.8813 87.2232 51.8078 87.1729 51.9162C87.1961 51.8968 87.2232 51.8775 87.2464 51.8542L87.2774 51.8194H87.2735ZM87.4322 51.8659V51.831C87.409 51.8233 87.3896 51.8504 87.3858 51.893C87.3858 51.9046 87.3935 51.9084 87.4013 51.9046C87.409 51.9046 87.4206 51.8775 87.4322 51.8659ZM87.2542 52.3265C87.2542 52.3265 87.2348 52.3342 87.2232 52.342C87.2193 52.3575 87.2154 52.373 87.2116 52.3884C87.2193 52.3884 87.2193 52.4078 87.2309 52.3962C87.2619 52.3652 87.2735 52.3381 87.2542 52.3265ZM88.8064 50.7897C88.849 50.7084 88.8683 50.6542 88.8529 50.631C88.8529 50.631 88.8258 50.6542 88.8142 50.6736C88.7716 50.7433 88.7329 50.8168 88.7445 50.8478C88.7445 50.8555 88.7832 50.8091 88.8064 50.7897ZM89.3754 49.8491C89.4374 49.7407 89.4567 49.6749 89.4219 49.6865C89.3987 49.6942 89.3483 49.7446 89.3135 49.7988C89.267 49.8684 89.2438 49.9536 89.2748 49.9459C89.298 49.942 89.3483 49.8801 89.3754 49.8491ZM89.418 50.2942V50.2633L89.3987 50.2981H89.418V50.2942ZM88.4116 52.431C88.4232 52.4078 88.4309 52.3884 88.4387 52.3652C88.4271 52.3691 88.4193 52.3652 88.4077 52.3807C88.369 52.4271 88.3535 52.462 88.3729 52.4697C88.3767 52.4697 88.3961 52.4465 88.4077 52.431H88.4116ZM89.449 52.253C89.4838 52.1988 89.4954 52.1601 89.4683 52.1833C89.449 52.1988 89.418 52.2491 89.3948 52.2878C89.36 52.3459 89.3522 52.3768 89.3716 52.3652C89.3987 52.3304 89.4258 52.2955 89.4529 52.2568L89.449 52.253ZM89.9058 51.5523C89.9135 51.5291 89.9251 51.5097 89.9329 51.4865C89.9213 51.4904 89.9135 51.4904 89.9019 51.502C89.8632 51.5446 89.8477 51.5794 89.8671 51.5871C89.8709 51.5871 89.8903 51.5639 89.9019 51.5484L89.9058 51.5523ZM90.0722 51.4942H90.0567V51.5252L90.0761 51.4942H90.0722ZM90.4245 51.4323C90.4515 51.3742 90.4477 51.3471 90.4167 51.382C90.3471 51.4594 90.2812 51.5678 90.2348 51.6955C90.3006 51.6375 90.3664 51.5601 90.4283 51.4323H90.4245ZM89.5961 53.2904L89.569 53.3136L89.538 53.3523L89.5651 53.3291L89.5961 53.2904ZM89.9329 52.973L89.9522 52.9226C89.9483 52.9226 89.9329 52.9342 89.9213 52.942C89.9096 52.9613 89.8903 52.9923 89.8864 53.0001C89.8787 53.0426 89.898 53.0349 89.9329 52.973ZM90.6645 51.6994C90.6722 51.6568 90.6528 51.6684 90.618 51.7265C90.6103 51.742 90.5987 51.7768 90.5987 51.7768C90.6064 51.7768 90.618 51.7613 90.6296 51.7536C90.6412 51.7342 90.6606 51.7033 90.6606 51.6994H90.6645ZM90.0877 53.4297C90.1767 53.2284 90.1612 53.1549 90.1535 53.0736C90.169 53.0155 90.1922 52.9497 90.1961 52.9033C90.1999 52.8646 90.1651 52.9033 90.1496 52.9575C90.1341 53.0155 90.138 53.0504 90.1341 53.093C90.1457 53.1665 89.9406 53.5071 90.0877 53.4259V53.4297ZM90.649 52.4659C90.6606 52.4465 90.6722 52.4194 90.6761 52.4039C90.6954 52.342 90.68 52.3459 90.6451 52.4117C90.6374 52.4271 90.6258 52.4581 90.6296 52.4659C90.6296 52.4736 90.6451 52.4659 90.649 52.4659ZM91.6167 50.7084L91.5857 50.7433C91.5625 50.7239 91.5393 50.7046 91.5161 50.6852V50.6542L91.5045 50.6968C91.4812 50.8052 91.489 50.8517 91.5819 50.7471L91.6167 50.7084ZM90.4671 53.1549C90.4748 53.1162 90.4941 53.0542 90.4825 53.0581C90.4399 53.0697 90.378 53.151 90.32 53.2594C90.2813 53.3291 90.2735 53.3601 90.3045 53.333C90.3587 53.2788 90.4129 53.2168 90.4671 53.1588V53.1549ZM90.8967 53.302L90.8735 53.3213L90.8464 53.3562L90.8696 53.3368L90.8967 53.302ZM91.0864 53.4181L91.0554 53.4491C91.0167 53.4878 90.978 53.5188 90.9354 53.5652C90.9006 53.6078 90.8464 53.662 90.8425 53.7278C90.8425 53.7394 90.8928 53.6852 90.9199 53.6504C90.9625 53.5923 91.009 53.5226 91.0554 53.4568L91.0864 53.4142V53.4181ZM91.2141 53.5342C91.2451 53.4878 91.2529 53.4491 91.2296 53.4646C91.2103 53.4762 91.1832 53.511 91.1599 53.5342C91.129 53.5884 91.1213 53.6233 91.1445 53.6078C91.1638 53.6001 91.1909 53.5652 91.218 53.5304L91.2141 53.5342ZM92.5767 52.8917C92.5767 52.8917 92.5999 52.8801 92.6116 52.8646C92.6464 52.8104 92.658 52.7717 92.6426 52.7639C92.6387 52.7639 92.6193 52.7755 92.6116 52.791C92.5767 52.8452 92.5651 52.8801 92.5767 52.8955V52.8917ZM92.298 53.5536C92.1548 53.7278 92.0426 53.8401 91.9148 54.0839C92.0026 54.102 92.1303 53.9252 92.298 53.5536ZM92.2129 54.3781C92.2245 54.3162 92.1974 54.3239 92.1509 54.382C92.0967 54.4517 92.0812 54.5175 92.0696 54.5678C92.058 54.6259 92.0735 54.6375 92.1277 54.5678C92.1741 54.4942 92.2013 54.4284 92.2129 54.3742V54.3781ZM92.6541 54.8581C92.6851 54.8039 92.689 54.773 92.6619 54.7884C92.6309 54.8039 92.5961 54.831 92.5612 54.862C92.5303 54.8891 92.5148 54.9317 92.5303 54.9472C92.5496 54.9704 92.5922 54.9433 92.6541 54.8581ZM93.0954 55.1097C93.1574 54.9859 93.1651 54.9588 93.1341 54.9781C93.0993 55.0013 93.0606 55.0168 93.0258 55.0672C92.9677 55.1562 92.9716 55.1988 93.0064 55.1794C93.0374 55.1639 93.0799 55.1213 93.0954 55.1097ZM93.5909 55.3962C93.6335 55.2994 93.7071 55.1562 93.6993 55.0942C93.6916 55.0323 93.6219 55.1407 93.5677 55.2375C93.4942 55.3652 93.4438 55.4813 93.4748 55.5201C93.4903 55.5394 93.529 55.5007 93.5909 55.3962ZM94.0709 56.0581L94.0516 56.0659V56.0968L94.0709 56.0581ZM94.3342 55.6362C94.3109 55.6555 94.2838 55.6749 94.2606 55.6942L94.2296 55.7368L94.2567 55.7097C94.2877 55.6749 94.28 55.7523 94.3342 55.6362ZM94.3806 55.853L94.3612 55.8607V55.8839L94.3806 55.8491V55.853ZM95.8051 53.4413C95.8361 53.4026 95.8284 53.4839 95.8826 53.3678C95.8555 53.391 95.8322 53.4104 95.8051 53.4336L95.7742 53.4684L95.8012 53.4413H95.8051ZM94.7406 55.5278C94.7445 55.5046 94.7135 55.5046 94.7058 55.5201C94.5742 55.733 94.4774 55.9304 94.4425 56.1471C94.5664 55.911 94.6941 55.7213 94.7406 55.5278ZM95.1974 55.8336C95.1935 55.6555 95.058 55.7252 94.9496 55.6555C94.9071 56.0039 95.089 55.8491 95.1974 55.8336ZM96.0142 54.7536C96.0335 54.6994 96.0257 54.6878 95.9948 54.7188C95.9832 54.7304 95.9638 54.7652 95.9561 54.7807C95.9367 54.8349 95.9445 54.8465 95.9755 54.8155C95.9871 54.7962 96.0064 54.7691 96.0142 54.7536ZM95.6735 56.2478C95.6735 56.2246 95.6658 56.2052 95.6619 56.182C95.6851 55.9497 95.5187 56.2478 95.4219 56.3833C95.3019 56.5536 95.1974 56.751 95.2361 56.8826C95.3793 56.5962 95.5032 56.3252 95.658 56.1859C95.658 56.213 95.6 56.3291 95.6735 56.2478ZM95.747 56.4065C95.747 56.4065 95.7703 56.3562 95.7703 56.3523C95.7703 56.3484 95.7548 56.3523 95.7432 56.3639C95.7045 56.4104 95.6929 56.4452 95.7122 56.4452C95.7161 56.4452 95.7354 56.422 95.747 56.4065ZM96.9935 55.6439C96.9935 55.6439 96.9742 55.6865 96.978 55.6981C96.978 55.7059 96.9897 55.6981 96.9974 55.6981C97.0051 55.6788 97.0206 55.6555 97.0245 55.6401C97.0438 55.5781 97.0322 55.582 96.9935 55.6439ZM96.1535 56.6968C96.2116 56.4955 96.138 56.5188 96.0064 56.5884C95.9832 56.7704 95.96 56.9097 96.0761 56.8168C96.0916 56.8052 96.1458 56.7201 96.1535 56.6968ZM96.0954 57.5291L96.1148 57.4826C96.1535 57.3859 96.1961 57.2852 96.2271 57.1962C96.258 57.1072 96.2696 57.0181 96.1883 57.1188C96.1225 57.1962 96.0722 57.3123 96.0722 57.3743C96.0722 57.4284 96.0916 57.4517 96.1032 57.4904L96.0954 57.5291ZM97.7987 54.5833C97.8064 54.5484 97.818 54.5097 97.8219 54.4788C97.8258 54.4362 97.8026 54.4478 97.7755 54.502C97.76 54.533 97.7483 54.5833 97.7522 54.5949C97.7522 54.6065 97.7832 54.5872 97.7987 54.5794V54.5833ZM96.6529 57.1226C96.6567 57.0452 96.6258 57.0336 96.56 57.0917C96.5329 57.1188 96.498 57.1884 96.5019 57.2078C96.5174 57.2581 96.5832 57.1884 96.649 57.1226H96.6529ZM97.0903 56.3639C97.0051 56.3872 96.9355 56.4491 96.8425 56.5962C96.8387 56.6039 96.8348 56.6581 96.8464 56.6581C96.8929 56.6659 96.9664 56.542 97.0903 56.3601V56.3639ZM96.6219 57.5949C96.6219 57.5949 96.6219 57.5717 96.6103 57.5794C96.5755 57.6104 96.5561 57.6452 96.56 57.6723C96.56 57.6801 96.5793 57.6607 96.587 57.6568C96.5987 57.6375 96.6141 57.6104 96.618 57.5988L96.6219 57.5949ZM96.7264 58.431L96.7341 58.4001L96.7109 58.431H96.7264ZM97.3574 57.5291C97.2296 57.4865 97.0748 57.6684 96.889 57.982L96.8619 58.0168L96.8851 57.9975C97.0554 57.7497 97.1754 57.6994 97.3574 57.5291Z" fill="#62D9EB"/>
<path d="M97.0361 58.6517C97.0051 58.671 96.9586 58.7252 96.9238 58.7833C96.8812 58.8491 96.858 58.9226 96.8735 58.9381C96.9006 58.9613 96.9586 58.8762 97.0167 58.7678C97.0399 58.7059 97.0864 58.6168 97.0361 58.6517Z" fill="#62D9EB"/>
<path d="M99.1534 55.5936C99.1534 55.5936 99.1185 55.5859 99.0992 55.613C99.0411 55.6865 99.0372 55.7368 99.0411 55.7717C99.0411 55.8065 99.0605 55.822 99.1069 55.7562C99.1766 55.64 99.165 55.613 99.1495 55.5936H99.1534Z" fill="#62D9EB"/>
<path d="M98.0041 57.5988C97.9615 57.6568 97.919 57.7265 97.9229 57.7768C97.9461 57.7884 97.9886 57.7381 98.0312 57.6646C98.0544 57.6259 98.0893 57.5562 98.0893 57.5368C98.0931 57.4788 98.0467 57.5407 98.008 57.5988H98.0041Z" fill="#62D9EB"/>
<path d="M9.94697 17.093C10.0089 17.0349 10.1289 16.973 10.2141 16.9381C10.276 16.911 10.3263 16.8956 10.3805 16.8723C10.4425 16.8414 10.5005 16.8143 10.5625 16.7833C10.5083 16.822 10.4541 16.8646 10.396 16.9033C10.3689 16.9768 10.3844 16.973 10.4967 16.8994C10.5973 16.8336 10.7289 16.7368 10.756 16.7446C10.8644 16.7756 11.3638 16.5356 11.4412 16.582C11.3328 16.6362 11.2244 16.6943 11.116 16.7485L11.0734 16.7678L11.1044 16.7601C11.1857 16.7407 11.2321 16.7523 11.4567 16.582C11.685 16.4388 11.8089 16.3885 11.8399 16.4117C11.9289 16.373 11.9212 16.3923 11.8515 16.4465C11.9018 16.5123 12.2812 16.3807 11.9096 16.6943C11.8786 16.7214 11.9134 16.7214 11.9483 16.7136C12.1767 16.671 12.1379 16.7833 12.0489 16.9265C11.9134 17.1472 11.9947 17.2362 12.0451 17.3446C12.0683 17.3949 12.0218 17.4607 11.6154 17.6852C11.4799 17.7588 11.3173 17.8594 11.3909 17.8556C11.4218 17.8556 11.3638 17.9291 11.6192 17.7588C11.8476 17.6078 12.0334 17.5381 12.0102 17.5846C11.9638 17.6891 12.0605 17.7085 12.0876 17.7704C12.1109 17.8323 11.9676 17.933 11.476 18.2156C11.3715 18.2775 11.2631 18.3433 11.085 18.4478C11.3134 18.382 11.5147 18.3201 11.716 18.262C11.7044 18.2504 11.7044 18.2272 11.6773 18.2233C11.6463 18.2194 11.5031 18.2775 11.6425 18.173C11.7354 18.1072 11.9173 18.0027 12.0296 17.9446C12.196 17.8594 12.2541 17.8594 12.2154 17.9136C12.1689 17.9794 11.9947 18.0994 11.8051 18.2194C12.1031 18.1072 12.2154 18.111 12.227 18.1923C12.2541 18.3975 12.2502 18.622 12.5405 18.6685C12.6528 18.6878 12.5792 18.742 11.9483 19.1214L11.8941 19.1485L11.9405 19.1291C11.898 19.191 11.7315 19.3459 12.1651 19.0672C12.4941 18.8543 12.6992 18.7614 12.6334 18.8581C12.5173 19.0285 12.7612 18.9781 12.8192 19.0401C12.858 19.0788 13.0709 19.013 12.6992 19.2762C12.5831 19.3614 12.6683 19.3304 12.7341 19.311C13.1328 19.1794 13.0592 19.3343 12.9354 19.5162C12.8967 19.5743 12.8618 19.6285 12.9702 19.6014C13.2528 19.5278 13.2218 19.6594 13.1947 19.7678C13.1212 20.0659 13.458 20.1201 13.3225 20.4491C13.2489 20.6272 13.7096 20.4917 13.3379 20.8478C13.7018 20.7665 13.4192 21.0801 13.636 21.0917C13.725 21.0956 13.9302 21.0607 13.3999 21.4168C13.1522 21.5833 13.3844 21.4865 13.4579 21.4517C13.9805 21.2194 13.9496 21.3394 13.9767 21.4246C13.9883 21.4594 13.8605 21.5485 13.6786 21.6568C13.6167 21.6646 13.5431 21.6762 13.3341 21.8156C13.2915 21.8427 13.2644 21.8852 13.2876 21.8814C13.396 21.8736 13.5431 21.7343 13.6708 21.6607C13.8257 21.6181 13.8373 21.6723 14.0425 21.5949C14.236 21.5252 13.7328 21.8388 13.9302 21.7536C14.1625 21.6491 14.1934 21.6762 14.2321 21.6956C14.2438 21.7033 14.2515 21.7149 14.2709 21.7265C13.9457 21.9356 13.636 22.0865 13.3263 22.2723L13.276 22.2956L13.3186 22.2801C13.2838 22.3304 13.0205 22.4969 13.125 22.4698C13.276 22.431 13.3728 22.3149 13.5044 22.2336C13.8489 22.0207 13.9844 22.0207 14.2941 21.8272C14.2941 21.9123 13.8876 22.1136 13.7599 22.2259C13.7754 22.2259 13.7909 22.2181 13.8102 22.2181C13.7754 22.2375 13.7367 22.2569 13.7018 22.2762C13.6902 22.2917 13.667 22.3265 13.667 22.3265C14.7044 21.773 14.3947 22.1136 14.5186 22.1678C14.147 22.4117 14.0928 22.3614 13.8373 22.5162C13.7638 22.5588 13.6399 22.6362 13.6321 22.6517C13.605 22.6904 13.7212 22.6168 13.7908 22.5781C14.1547 22.373 13.6786 22.733 14.0347 22.5394C14.2554 22.4194 14.5263 22.2685 14.6347 22.2607C14.5186 22.373 14.085 22.5588 14.0928 22.6362C13.9689 22.7136 13.8605 22.7872 13.787 22.853C13.6476 22.9575 13.6747 22.9575 13.8025 22.9072C13.8489 22.9175 13.987 22.8569 14.2167 22.7252C14.0657 22.791 13.9418 22.8414 13.8179 22.8956C13.8179 22.8762 13.8179 22.8568 13.8179 22.8414C13.9147 22.7717 14.0154 22.702 14.1121 22.6323C14.2902 22.5201 14.507 22.4039 14.5263 22.4233C14.5728 22.4698 14.8747 22.3498 14.8709 22.4233C14.8631 22.5433 14.9444 22.6052 15.0489 22.6556C15.076 22.6672 15.0605 22.6943 14.8747 22.8104C14.6115 22.9807 14.5999 23.0001 14.7663 22.9227C15.0528 22.791 15.2347 22.7214 14.9676 22.9343C14.8902 22.9962 14.9521 22.9652 15.0025 22.9498C15.4515 22.7833 15.1805 23.062 15.2967 23.1007C15.3083 23.1007 15.2154 23.1743 15.1689 23.213C15.1109 23.2633 14.9057 23.3639 14.9444 23.3717C14.9521 23.3717 15.1224 23.2594 15.1844 23.2052C15.2424 23.182 15.3431 23.1317 15.347 23.1433C15.4476 23.2672 15.6141 23.3562 15.5986 23.5459C15.5831 23.7085 15.6335 23.8285 15.8541 23.8439C15.9393 23.8517 16.0902 23.8323 15.6025 24.142L15.5521 24.1652L15.5908 24.1498C15.6218 24.173 15.8579 24.0607 15.7186 24.2001C15.6024 24.3123 15.7689 24.2736 15.8967 24.2465C15.9896 24.2272 16.0631 24.2233 16.1134 24.2349C16.2334 24.2581 16.2257 24.2659 15.6102 24.6336C15.4515 24.6994 15.4244 24.6607 15.0644 24.8814C15.2502 24.8117 15.3818 24.7614 15.5947 24.6491C16.0167 24.4633 16.0979 24.5175 16.1637 24.5601C16.2644 24.6259 16.6437 24.5252 16.3495 24.831L16.547 24.9704C16.7637 24.9239 16.6012 25.102 16.5934 25.1833C16.5895 25.253 16.1444 25.493 15.8502 25.6478L15.8038 25.671L15.8347 25.6633C15.9044 25.6439 15.9625 25.6323 16.125 25.5433C16.5044 25.3343 16.8954 25.1136 16.5238 25.431C16.4967 25.4543 16.4928 25.4736 16.5199 25.462C17.0773 25.2568 16.5857 25.6981 16.9263 25.6285C16.9495 25.6246 16.9534 25.6323 16.9418 25.6478C16.8915 25.7291 16.6979 25.9149 16.7986 25.8762C17.0618 25.7717 16.9186 25.9149 17.0502 25.8878C17.2631 25.8414 16.8141 26.1859 17.1392 26.0698C17.2089 26.0465 17.0425 26.1588 16.9341 26.2246C16.7947 26.3136 16.667 26.3794 16.5431 26.4375C16.4231 26.4956 16.2683 26.5652 16.2373 26.6272C16.2218 26.6581 16.3186 26.6194 16.4928 26.5265C17.0928 26.2014 17.2979 26.1278 17.2747 26.2594C17.2515 26.391 17.2438 26.511 17.3367 26.5691C17.3986 26.6078 17.1044 26.8168 17.0115 26.9291L16.9844 26.9523L17.027 26.9214C17.2437 26.782 17.4179 26.693 17.4721 26.7046C17.5108 26.7123 17.3831 26.8014 17.2244 26.8943L17.1702 26.9214L17.2128 26.9059C17.1625 26.9833 16.7405 27.1885 16.7366 27.2504C16.6902 27.2814 16.6399 27.3085 16.5895 27.3356L16.5431 27.3588L16.578 27.3472C16.578 27.3472 16.6166 27.3317 16.636 27.3201C16.6747 27.2969 16.7096 27.2698 16.7483 27.2465C16.8025 27.2156 16.8644 27.173 16.9109 27.1498C17.5031 26.8401 17.5109 26.8478 16.9186 27.2891C17.4838 26.9407 17.7276 26.8594 17.5999 27.0065C17.3406 27.2969 17.8476 27.1575 17.2902 27.6143C17.387 27.7072 17.2089 27.9588 17.1973 28.1136C17.1818 28.3033 17.1199 28.5162 17.1663 28.671C17.2321 28.8878 17.2012 29.1665 16.5392 29.7975C16.067 30.0452 15.9199 30.0607 15.8541 30.022C15.7341 29.9446 15.4979 29.9368 15.5212 29.7743C15.5212 29.751 15.5212 29.7317 15.4786 29.7394C14.9212 29.8478 14.9792 29.573 14.9599 29.3562C14.9367 29.0969 14.7896 28.9072 14.6192 28.7368C14.3908 28.5085 14.418 28.1252 14.0773 27.9627C13.8373 27.8465 13.9225 27.5369 13.5315 27.5136C13.4618 27.5098 13.4734 27.4556 13.4618 27.4169C13.365 27.1304 13.0786 26.9639 12.7999 26.7898C12.765 26.7704 12.7457 26.7394 12.7379 26.7046C12.6489 26.4298 12.3431 26.2904 12.0915 26.1123C11.9521 26.0156 11.8941 25.8685 11.7741 25.7562C11.6038 25.6014 11.4334 25.4427 11.267 25.2839C11.0773 25.102 10.9573 24.8775 10.6786 24.7498C10.5238 24.6762 10.5392 24.502 10.3921 24.4246C10.2528 24.351 10.2799 24.1807 10.0554 24.1614C9.98182 24.1536 9.95473 24.1188 9.93537 24.0762C9.84634 23.8594 9.54828 23.7704 9.3586 23.6156C9.20376 23.4878 9.11084 23.3214 8.92891 23.2091C8.68891 23.0581 8.6386 22.7949 8.43344 22.6207C8.13537 22.3691 8.02697 22.0052 7.84117 21.6839C7.74052 21.5098 7.46955 21.4285 7.50052 21.1769C7.5431 20.8091 7.23344 20.6543 7.35344 20.2401C7.40377 20.062 7.34182 19.9459 7.29537 19.8259C7.24892 19.702 7.36891 19.4852 7.33795 19.3536C7.30311 19.2181 7.38827 19.0168 7.43472 18.8349C7.45407 18.7691 7.33407 18.7575 7.86827 18.4517C7.91472 18.4014 7.94957 18.3549 8.12764 18.2581C8.20893 18.2156 8.24763 18.2117 8.22054 18.2427C8.17796 18.293 8.05021 18.3588 7.94957 18.4207C7.81408 18.6065 7.86054 18.6027 8.36376 18.3317C8.72763 18.1343 9.11859 17.8981 9.47085 17.7278L9.51343 17.7085L9.48248 17.7162C9.71473 17.4878 9.59861 17.422 10.3302 16.9536C10.338 16.942 10.3341 16.9381 10.3263 16.9343C10.2489 16.9807 10.1676 17.0272 10.0902 17.0698C9.97794 17.1317 9.88504 17.1704 9.94697 17.1123V17.093ZM16.6399 28.2336H16.6554L16.6786 28.2143L16.6399 28.2336ZM16.6786 27.8001L16.6631 27.8194L16.6979 27.8001H16.6786ZM17.1044 27.4246H17.1199L17.1431 27.4014L17.1044 27.4246ZM16.9844 27.3433C16.9341 27.3743 16.8799 27.4052 16.8257 27.4362L16.7831 27.4556L16.818 27.4439C16.8373 27.4362 16.8605 27.4246 16.876 27.4169C16.9186 27.3936 16.9534 27.3665 16.996 27.3394L17.0308 27.3085L16.9844 27.3433ZM15.1999 28.102C15.1805 28.1214 15.196 28.1214 15.196 28.1291C15.2579 28.0865 15.3238 28.0401 15.3741 28.0014C15.3973 27.982 15.3857 27.9781 15.3857 27.9704C15.2773 28.0285 15.2386 28.0672 15.1999 28.102ZM16.6437 27.0607V27.0723L16.6902 27.0375L16.6437 27.0607ZM16.5315 26.9098C16.5044 26.9252 16.4734 26.9523 16.4424 26.9717C16.485 26.9523 16.5276 26.933 16.5702 26.9098C16.6322 26.8788 16.6592 26.8556 16.6515 26.8517C16.6089 26.871 16.5702 26.8865 16.5276 26.9136L16.5315 26.9098ZM16.2683 26.8362C16.2683 26.8362 16.2334 26.8633 16.2334 26.8672C16.2218 26.8865 16.2489 26.8788 16.2876 26.8478C16.2993 26.8401 16.2953 26.8362 16.2992 26.8285C16.2876 26.8285 16.2799 26.8285 16.2683 26.8323V26.8362ZM14.956 27.6181C14.956 27.6181 14.9212 27.6452 14.9173 27.653C14.9057 27.6723 14.9328 27.6646 14.9754 27.6336C14.987 27.6259 14.9831 27.6181 14.987 27.6143C14.9754 27.6143 14.9637 27.6181 14.9521 27.622L14.956 27.6181ZM16.307 26.2904V26.302L16.3534 26.2672L16.307 26.2904ZM16.1289 26.2401L16.0786 26.271L16.125 26.2478L16.1328 26.2362L16.1289 26.2401ZM16.0244 26.1239C16.0012 26.1394 15.9934 26.1627 16.0128 26.1549C16.0437 26.1433 16.1018 26.1123 16.1483 26.0814C16.2141 26.0427 16.2334 26.0233 16.2141 26.0233C16.1637 26.0388 16.1018 26.0659 16.0205 26.1201L16.0244 26.1239ZM15.7263 25.9188C15.6992 26.0039 15.9044 25.9188 15.9547 25.9304L15.9237 25.9575L15.9702 25.9227C16.0786 25.8065 16.0825 25.7562 15.7263 25.9188ZM15.7147 25.5898C15.6102 25.6478 15.5483 25.6943 15.5792 25.6943C15.6257 25.6943 15.7341 25.6401 15.8812 25.5549C15.9625 25.5085 16.0554 25.4465 16.0205 25.4465C15.9741 25.4465 15.8231 25.5356 15.7147 25.5859V25.5898ZM15.4902 25.3459L15.4825 25.3575L15.5328 25.3265L15.4863 25.3498L15.4902 25.3459ZM15.6218 25.1485C15.6063 25.1717 15.6992 25.1252 15.7921 25.0672C15.8463 25.0323 15.8967 25.0014 15.9509 24.9665C16.0012 24.9433 15.9431 24.9975 16.0631 24.9239C16.0283 24.9356 15.9973 24.9472 15.9624 24.9588C15.916 24.9781 15.8734 24.9975 15.827 25.0207C15.7534 25.0594 15.6412 25.1214 15.6257 25.1485H15.6218ZM15.1767 25.2956C15.3393 25.2181 15.4902 25.1368 15.6721 25.0091C15.4863 25.0827 15.3393 25.1756 15.1767 25.2956ZM15.4321 24.8272L15.4631 24.8194L15.5096 24.7962L15.4786 24.8078L15.436 24.8272H15.4321ZM14.7547 25.1678L14.7973 25.1485L14.8399 25.1291L14.8089 25.1369L14.7547 25.1639V25.1678ZM12.9392 25.8801C12.9392 25.8801 12.9315 25.8801 12.9237 25.8762C12.9005 25.8878 12.8773 25.8994 12.8541 25.911C12.8425 25.9188 12.8231 25.9381 12.827 25.9381C12.8502 25.9381 12.8928 25.911 12.9354 25.8801H12.9392ZM14.9986 24.6104C14.9599 24.6375 14.8902 24.6801 14.8902 24.6878C14.8863 24.7033 14.9096 24.7033 14.9212 24.711C15.0063 24.6685 15.0489 24.6375 15.045 24.6298C15.0373 24.6181 15.0141 24.6181 14.9986 24.6143V24.6104ZM15.1147 24.4091L15.0644 24.4439L15.1147 24.4169V24.4091ZM14.8941 24.2427H14.9134L14.9289 24.2194L14.8941 24.2427ZM12.5638 25.4852L12.5792 25.4659L12.5405 25.4891H12.5638V25.4852ZM14.7896 24.0839C14.4954 24.2891 14.4992 24.3201 14.7896 24.1807L14.8321 24.1652L14.8012 24.173C14.6889 24.2078 14.9134 24.0452 14.7896 24.0839ZM14.7005 23.7936H14.716L14.7354 23.7743L14.7005 23.7936ZM14.147 23.7046C14.147 23.7046 14.1315 23.7239 14.1431 23.7201C14.1896 23.7046 14.2321 23.6775 14.2515 23.6543C14.2554 23.6504 14.2283 23.6581 14.2167 23.662C14.1934 23.6775 14.1625 23.693 14.147 23.7046ZM14.2786 23.5265V23.5343L14.3289 23.5033L14.2786 23.5304V23.5265ZM14.0889 23.3678C14.0889 23.3988 14.0812 23.422 14.1005 23.4336C14.1238 23.4452 14.1547 23.4569 14.3444 23.3252C14.4644 23.2401 14.4334 23.2401 14.3483 23.271C14.2786 23.2981 14.2089 23.3252 14.0889 23.3678ZM14.0889 23.182L14.1199 23.1704C14.1702 23.1433 14.1199 23.1975 14.2283 23.1278C14.1973 23.1394 14.1625 23.1472 14.1315 23.1588L14.085 23.182H14.0889ZM14.0038 23.1162C14.0038 23.1162 13.9767 23.1394 13.9805 23.1433C13.9922 23.151 14.027 23.1356 14.0579 23.1046C14.0696 23.093 14.0618 23.093 14.0541 23.093C14.0463 23.093 14.0231 23.1085 14.0038 23.1162ZM14.4528 22.8027C14.4528 22.8027 14.4721 22.8027 14.4838 22.7988C14.4992 22.7872 14.5108 22.7756 14.5225 22.7678C14.5225 22.7639 14.5302 22.7523 14.5147 22.7562C14.4722 22.7717 14.445 22.7949 14.4489 22.8065L14.4528 22.8027ZM12.258 23.6736C12.1728 23.7278 12.1186 23.7665 12.1147 23.7859C12.1147 23.7859 12.1496 23.7743 12.1728 23.7627C12.2502 23.7201 12.3315 23.6698 12.3431 23.6427C12.347 23.6349 12.2889 23.662 12.258 23.6736ZM11.1934 24.2775C11.0734 24.3472 11.0154 24.3936 11.0463 24.3898C11.0696 24.3898 11.1431 24.3588 11.205 24.3239C11.2863 24.2775 11.3638 24.2233 11.3367 24.2194C11.3173 24.2194 11.236 24.2581 11.1973 24.2736L11.1934 24.2775ZM11.4683 23.933L11.445 23.9562L11.4876 23.933H11.4721H11.4683ZM13.6825 22.5085C13.6592 22.5239 13.636 22.5394 13.6167 22.551C13.6283 22.551 13.6321 22.551 13.6515 22.5433C13.7096 22.5162 13.7444 22.493 13.7367 22.4852C13.7367 22.4852 13.7018 22.5007 13.6825 22.5085ZM12.8037 22.4504C12.7418 22.4852 12.707 22.5123 12.7418 22.5007C12.765 22.493 12.8231 22.462 12.8696 22.4349C12.9354 22.3962 12.9625 22.3768 12.9392 22.3807C12.8967 22.4039 12.8541 22.4233 12.8076 22.4465L12.8037 22.4504ZM11.987 22.8917C11.9638 22.9072 11.9444 22.9188 11.9212 22.9343C11.9328 22.9343 11.9367 22.9343 11.956 22.9265C12.0141 22.8994 12.0489 22.8762 12.0412 22.8685C12.0412 22.8685 12.0063 22.8839 11.9909 22.8917H11.987ZM11.8244 22.9072H11.8399L11.8631 22.8878L11.8244 22.9072ZM11.5263 22.8878C11.4683 22.9265 11.4489 22.9498 11.4992 22.9265C11.6076 22.8801 11.7276 22.8104 11.8515 22.7252C11.7663 22.7562 11.6618 22.8027 11.5302 22.8878H11.5263ZM13.4154 21.6414L13.4502 21.6298L13.4967 21.6065L13.4579 21.6181L13.4115 21.6414H13.4154ZM12.9508 21.8156L12.9005 21.8504C12.9005 21.8504 12.9238 21.8465 12.9392 21.8427C12.9625 21.831 12.9973 21.8117 13.0012 21.8039C13.036 21.773 13.0167 21.7768 12.9508 21.8156ZM11.538 22.6401C11.5031 22.671 11.5263 22.6672 11.5921 22.6285C11.6076 22.6207 11.6425 22.5936 11.6386 22.5936C11.6347 22.5936 11.6154 22.6014 11.5999 22.6052C11.5767 22.6168 11.5418 22.6362 11.538 22.6401ZM13.156 21.4439C12.9509 21.5794 12.9121 21.6375 12.8618 21.6994C12.8115 21.7381 12.7496 21.7846 12.7147 21.8194C12.6838 21.8465 12.7418 21.8194 12.7844 21.7885C12.8347 21.7498 12.8541 21.7227 12.8889 21.6878C12.9315 21.6298 13.3147 21.413 13.156 21.4439ZM12.0799 22.0633C12.0567 22.0788 12.0296 22.0943 12.018 22.1059C11.9638 22.1485 11.9754 22.1485 12.0489 22.1059C12.0683 22.0943 12.0954 22.0749 12.0992 22.0672C12.1031 22.0594 12.0876 22.0672 12.0838 22.0672L12.0799 22.0633ZM10.156 23.2091L10.2025 23.1898C10.2025 23.1898 10.2102 23.2285 10.2102 23.2478L10.187 23.271L10.2296 23.2401C10.3186 23.1627 10.3496 23.1239 10.2063 23.1859L10.156 23.2091ZM12.6876 21.5794C12.6567 21.6065 12.5986 21.6491 12.6102 21.6491C12.6489 21.6491 12.7496 21.5988 12.8657 21.5291C12.9431 21.4827 12.9702 21.4594 12.9276 21.4788C12.8541 21.5098 12.7689 21.5446 12.6876 21.5794ZM12.4747 21.3898L12.5057 21.3781L12.5522 21.3588L12.5212 21.3704L12.4747 21.3936V21.3898ZM12.4167 21.2698L12.4593 21.2504C12.5134 21.2272 12.5637 21.2117 12.6296 21.1846C12.6837 21.1614 12.7612 21.1304 12.8115 21.0801C12.8192 21.0723 12.7457 21.1033 12.7031 21.1265C12.6296 21.1614 12.5483 21.2078 12.4709 21.2465L12.4167 21.2736V21.2698ZM12.4051 21.1575C12.3509 21.1846 12.3199 21.2117 12.347 21.2078C12.3663 21.2039 12.4128 21.1807 12.4476 21.1652C12.5057 21.1304 12.5366 21.1072 12.5096 21.111C12.4902 21.111 12.4438 21.1343 12.4051 21.1536V21.1575ZM10.965 21.3898C10.965 21.3898 10.9379 21.3936 10.9225 21.4052C10.8605 21.4401 10.8218 21.4672 10.8296 21.4749C10.8296 21.4749 10.8528 21.4749 10.8721 21.4633C10.9341 21.4285 10.9689 21.4052 10.9689 21.3898H10.965ZM11.627 20.9446C11.8515 20.8401 12.0141 20.7743 12.2734 20.6156C12.2218 20.5846 12.0063 20.6943 11.627 20.9446ZM12.2618 20.3407C12.2115 20.3872 12.2386 20.3833 12.3122 20.3485C12.3973 20.3059 12.4554 20.2594 12.498 20.2246C12.5444 20.182 12.5405 20.1704 12.4593 20.213C12.3741 20.2594 12.3083 20.302 12.2618 20.3446V20.3407ZM12.2734 19.8994C12.2154 19.9343 12.1883 19.9575 12.2192 19.9498C12.2541 19.942 12.2967 19.9304 12.3431 19.911C12.3818 19.8956 12.4244 19.8685 12.4244 19.853C12.4244 19.8336 12.3741 19.8452 12.2734 19.8956V19.8994ZM12.1263 19.6285C11.9947 19.7098 11.9715 19.7291 12.0063 19.7214C12.045 19.7098 12.0876 19.7059 12.1457 19.6749C12.2502 19.6207 12.2734 19.5859 12.2386 19.5936C12.2076 19.5975 12.1457 19.6246 12.1263 19.6323V19.6285ZM11.9638 19.3227C11.867 19.3885 11.7121 19.4814 11.6773 19.5278C11.6386 19.5743 11.7663 19.5046 11.8709 19.4427C12.0102 19.3614 12.1302 19.2839 12.1341 19.2491C12.1341 19.2298 12.0838 19.2491 11.9638 19.3188V19.3227ZM12.0722 18.7381H12.0915L12.1186 18.7149L12.0722 18.7381ZM11.5883 19.0052C11.6193 18.9936 11.6502 18.9859 11.6812 18.9743L11.7315 18.9472L11.6928 18.9627C11.6463 18.982 11.7083 18.9239 11.5883 19.0014V19.0052ZM11.7044 18.831H11.7238L11.7392 18.8078L11.7044 18.831ZM8.99473 20.3833C8.94828 20.4065 9.00633 20.3446 8.88633 20.4259C8.92117 20.4143 8.95214 20.4027 8.98698 20.391L9.03343 20.3717L8.99473 20.3872V20.3833ZM11.2167 19.0091C11.1973 19.0246 11.2244 19.0323 11.236 19.0207C11.4799 18.8852 11.6889 18.7536 11.8631 18.5988C11.6076 18.7536 11.3831 18.8736 11.2167 19.0091ZM11.0928 18.6956C10.9728 18.831 11.1199 18.8039 11.1509 18.8775C11.4218 18.622 11.1818 18.7072 11.0928 18.6956ZM9.74957 19.3575C9.69925 19.3962 9.69537 19.4039 9.74182 19.3846C9.75731 19.3768 9.79602 19.3575 9.8115 19.3459C9.86182 19.3072 9.86568 19.2994 9.8231 19.3149C9.79987 19.3304 9.76506 19.3459 9.74957 19.3536V19.3575ZM11.0309 18.2968C11.0309 18.2968 11.0076 18.3317 10.9921 18.3472C10.8141 18.5175 11.1431 18.3239 11.3057 18.2388C11.5108 18.1343 11.7237 18.0027 11.7857 17.8981C11.4837 18.0878 11.205 18.2698 10.9921 18.3433C11.0076 18.3239 11.1354 18.2465 11.027 18.293L11.0309 18.2968ZM11.085 18.1652L11.0309 18.2001C11.0309 18.2039 11.0425 18.2001 11.0579 18.1962C11.116 18.1691 11.1508 18.1459 11.1354 18.142C11.1354 18.142 11.1005 18.1575 11.0812 18.1652H11.085ZM9.64893 18.5098C9.64893 18.5098 9.69151 18.4788 9.69925 18.471C9.70699 18.4633 9.69149 18.471 9.68375 18.4672C9.6644 18.4788 9.63731 18.4943 9.62183 18.5059C9.56763 18.5485 9.57538 18.5485 9.64893 18.5059V18.5098ZM10.9883 17.871C10.8063 18.0143 10.876 18.0065 11.0192 17.9794C11.1625 17.8439 11.2786 17.7472 11.1238 17.7936C11.1044 17.8014 11.0037 17.8556 10.9844 17.871H10.9883ZM11.6076 17.2556L11.5612 17.2865C11.4683 17.3523 11.3638 17.4181 11.2825 17.4801C11.1973 17.542 11.1276 17.6039 11.2554 17.5459C11.356 17.4994 11.4721 17.422 11.5186 17.3756C11.5573 17.333 11.5573 17.3136 11.5767 17.2827L11.6076 17.2556ZM8.32504 19.1601C8.29407 19.1833 8.25924 19.2104 8.23601 19.2336C8.20505 19.2646 8.22827 19.2607 8.28634 19.222C8.31731 19.2027 8.35989 19.1678 8.36764 19.1562C8.37538 19.1446 8.34054 19.1562 8.32119 19.1562L8.32504 19.1601ZM10.9186 17.4607C10.8605 17.5188 10.876 17.5343 10.965 17.4994C11.0037 17.4839 11.0773 17.4375 11.0889 17.422C11.1121 17.3833 11.0154 17.422 10.9225 17.4607H10.9186ZM10.0747 17.9523C10.1521 17.9523 10.245 17.9175 10.4154 17.8207C10.4231 17.8168 10.4618 17.7743 10.4541 17.7743C10.427 17.7588 10.2838 17.8401 10.0708 17.9523H10.0747ZM11.267 17.1123C11.267 17.1123 11.2515 17.1278 11.267 17.1278C11.3134 17.1123 11.3522 17.0852 11.3676 17.0659C11.3715 17.062 11.3483 17.0698 11.3328 17.0736C11.3096 17.0852 11.2825 17.1007 11.267 17.1123ZM11.7702 16.462L11.7431 16.4852L11.7818 16.4659H11.7741L11.7702 16.462ZM10.6863 17.0272C10.7521 17.0814 10.9883 16.973 11.3405 16.7717L11.3831 16.7523L11.3521 16.7601C11.0579 16.9149 10.9341 16.9304 10.6825 17.0272H10.6863Z" fill="#62D9EB"/>
<path d="M11.6733 16.2607C11.7081 16.2491 11.7817 16.2181 11.8475 16.1833C11.9249 16.1407 11.9946 16.0904 11.9907 16.0749C11.9907 16.0517 11.8862 16.1059 11.7701 16.1755C11.7081 16.2181 11.6152 16.2762 11.6772 16.2607H11.6733Z" fill="#62D9EB"/>
<path d="M8.01562 18.1691C8.01562 18.1691 8.03498 18.1807 8.06595 18.1652C8.15885 18.1188 8.19757 18.0839 8.21692 18.0568C8.24015 18.0297 8.24014 18.0142 8.15885 18.0568C8.02724 18.1304 8.01562 18.1536 8.01562 18.1691Z" fill="#62D9EB"/>
<path d="M10.2409 16.8723C10.3145 16.8336 10.3919 16.791 10.4229 16.7523C10.4151 16.7368 10.3493 16.7717 10.268 16.8181C10.2216 16.8452 10.1519 16.8878 10.1364 16.9033C10.0939 16.9459 10.1713 16.9033 10.2409 16.8723Z" fill="#62D9EB"/>
<path d="M115.972 109.934C116.1 109.915 116.247 109.954 116.627 110.019C116.247 110.356 116.058 110.612 115.806 110.759C114.223 111.645 112.643 112.594 110.975 113.31C109.121 114.13 107.243 114.955 105.176 115.249C104.987 115.292 104.774 115.419 104.584 115.501C104.309 115.605 104.058 115.776 103.763 115.837C102.71 116.027 101.611 116.174 100.558 116.345C100.009 116.43 99.4395 116.472 98.9324 116.639C97.7944 117.018 96.6756 117.123 95.4718 117.041C94.8408 116.999 94.1866 117.188 93.5324 117.231C92.224 117.316 90.9156 117.44 89.6111 117.44C87.4163 117.421 85.2021 117.421 83.0111 117.188C80.7737 116.937 78.4976 116.767 76.326 116.07C75.0176 115.648 73.6898 115.183 72.3621 114.908C70.9918 114.657 69.7879 114.088 68.6072 113.434C68.1659 113.201 67.5737 113.244 67.1517 113.012C65.6111 112.148 64.1363 111.219 62.6382 110.333C62.3208 110.143 61.9647 110.016 61.6666 109.807C61.1169 109.47 60.5711 109.09 60.0215 108.73C59.8744 108.626 59.7699 108.456 59.5995 108.394C57.6602 107.445 55.9492 106.156 54.3699 104.705C53.9286 104.283 53.2937 104.074 52.8098 103.69C51.966 103.017 51.1647 102.277 50.3634 101.538C49.624 100.841 48.8653 100.168 48.1686 99.4285C47.704 98.9213 47.3053 98.3523 46.8834 97.8026C45.5324 95.9872 44.1621 94.1755 42.8344 92.3407C42.4124 91.7484 42.1376 91.0749 41.8434 90.4013C41.3363 89.2633 40.8524 88.1252 40.4111 86.9639C39.9892 85.911 39.6718 84.8349 39.2731 83.7781C38.5144 81.6491 37.7324 79.5162 36.9544 77.3252C31.7247 78.0839 26.6421 77.453 21.6021 75.6607C21.5827 75.8078 21.4976 75.9975 21.5169 76.1872C21.6873 77.6194 21.5595 79.0555 21.2847 80.4491C20.7582 83.3368 20.1892 86.2478 19.4924 89.1394C18.9659 91.2917 18.3118 93.4401 17.1505 95.3601C16.2873 96.7536 15.633 98.271 14.4718 99.471C14.344 99.5988 14.2627 99.7885 14.2202 99.9549C13.7131 101.705 12.3853 102.928 11.4795 104.426C11.1427 104.976 10.4266 105.312 9.87692 105.754C9.01369 105.161 8.92853 105.014 9.20337 104.445C10.2563 102.359 11.2472 100.249 12.3659 98.2013C13.1672 96.7691 14.1156 95.4181 15.1066 93.8775C15.4434 93.1381 15.8885 92.2323 16.2679 91.2839C16.6279 90.3975 16.984 89.511 17.2589 88.6052C18.0602 86.031 19.0937 83.5033 19.4963 80.8013C19.624 79.9149 19.7905 79.0091 19.8563 78.1033C19.984 76.5201 20.0886 74.9601 20.0653 73.3807C20.0228 71.3368 19.9182 69.2891 19.3917 67.2839C19.055 65.933 18.7995 64.5626 18.3776 63.2542C17.9556 61.9265 17.4292 60.6375 16.8795 59.3523C16.6279 58.7601 15.9311 58.0865 15.5711 57.4323C14.3905 57.0104 14.1776 55.9149 13.7982 54.8813C13.504 54.0607 13.2718 53.4491 12.8498 52.7291C12.4898 52.1794 12.0679 51.6762 11.6885 51.1265C10.8679 49.9884 9.95821 48.9743 8.67305 48.3201C8.06144 48.0026 7.55435 47.4994 7.00854 47.0775C5.63822 45.982 4.24466 44.9059 2.93628 43.7446C1.37628 42.3123 0.954345 40.4117 1.24854 38.4104C1.41886 37.2297 2.17756 36.2388 3.1453 35.542C5.04207 34.1717 7.0666 33.2426 9.4937 33.6646C10.1479 33.7923 10.8021 33.7691 11.4331 33.8349C11.7698 33.8775 12.1066 33.9394 12.4047 34.0865C13.9647 34.7601 15.5672 35.4143 17.0885 36.1962C18.0369 36.7033 18.8808 37.4194 19.8718 38.1162C19.8911 37.462 19.8911 36.8078 19.9144 36.1768C19.9995 33.0336 20.0614 29.8904 20.1466 26.751C20.1892 25.3381 20.104 23.8826 20.3557 22.4891C20.6924 20.6117 20.1853 18.7768 20.3363 16.8994C20.4214 15.8233 20.2085 14.6852 20.4214 13.6323C20.6963 12.3472 20.7389 10.9536 21.5169 9.77296C22.3608 8.46457 23.0769 7.05167 24.1956 6.16522C24.935 5.95619 25.4808 5.78586 26.0305 5.65812C27.424 5.38328 28.6472 5.74328 29.7001 6.71102C30.0176 6.98586 30.2924 7.32264 30.6292 7.65941C31.1789 7.09038 31.2214 6.49812 31.1982 5.86715C31.1363 4.22199 31.7672 2.9136 33.2034 2.0078C33.7298 1.69038 34.1944 1.24909 34.6782 0.869733C35.3518 0.320056 36.1337 0.0490881 37.0201 0.0684429C37.2292 0.0684429 37.4615 0.068443 37.6744 0.0490881C39.8266 -0.287686 41.4718 1.14457 41.975 3.23489C42.1027 3.76135 42.1453 4.31102 42.2498 4.8607C42.2924 5.06973 42.3776 5.26328 42.4589 5.49167C42.606 5.40651 42.7337 5.38715 42.7957 5.30199C43.7015 4.07877 45.095 3.74199 46.4459 3.50973C48.153 3.19231 49.566 3.84651 50.7698 5.11231C52.0356 6.39748 52.1634 8.04264 52.415 9.64522C52.5195 10.2568 52.5001 10.8878 52.5853 11.4994C52.6046 11.7936 52.7324 12.0491 52.8602 12.4478C53.5995 12.1304 54.2537 11.8555 54.904 11.5613C56.8434 10.6555 59.6692 12.0026 60.1569 13.8375C60.4085 14.8517 60.8963 15.8194 61.295 16.8762C62.224 17.3407 63.1724 17.9097 63.7608 18.8813C63.8653 19.071 64.0124 19.2413 64.0976 19.4504C64.3918 20.1046 64.7285 20.7588 64.8989 21.4555C65.1311 22.2994 65.2163 23.1859 65.3634 24.0491C65.3827 24.2581 65.4253 24.471 65.4911 24.8504C65.9557 24.5136 66.335 24.2388 66.7337 23.9446C67.6821 23.6697 68.6731 23.333 69.7492 23.4181C70.3802 23.4801 70.9724 23.5226 71.5647 23.8207C74.0963 25.1291 75.3389 27.173 75.2537 30.022C75.2344 30.8659 75.126 31.7097 75.1066 32.5304C75.0872 32.8246 75.1492 33.1226 75.1686 33.4168C75.1879 33.7768 75.2537 34.133 75.2537 34.493C75.2111 35.5265 75.1685 36.5368 75.064 37.551C74.9169 39.3007 74.7272 41.0504 74.5143 42.7807C74.2627 44.8246 73.9879 46.853 73.7324 48.8775C73.713 48.9394 73.7324 49.0246 73.7131 49.0865C73.144 51.6801 73.2485 54.2968 73.3105 56.9097C73.3105 57.6065 73.3531 58.3033 73.3105 58.9962C73.2679 59.8168 73.353 60.5988 73.5853 61.3807C73.775 62.0117 73.713 62.6891 73.8369 63.3433C74.0885 64.5239 74.3014 65.7278 74.7234 66.8426C75.2305 68.1278 75.9273 69.351 76.6202 70.5549C77.8434 72.7072 79.5311 74.4762 81.3234 76.1639C81.6834 76.5007 82.0627 76.7755 82.4421 77.0697C83.495 77.8517 84.486 78.7149 85.6047 79.4117C86.7002 80.0659 87.8615 80.6543 89.0653 81.0762C90.0795 81.413 91.1943 81.4981 92.2705 81.6259C93.4937 81.773 94.7363 81.9201 95.9595 81.9626C96.8653 82.0246 97.7944 82.0246 98.6808 81.8775C100.241 81.6452 101.781 81.3278 103.299 80.9717C104.081 80.782 104.816 80.4452 105.556 80.1704C108.467 79.0749 111.25 77.7239 113.824 75.951C114.393 75.5484 115.005 75.2349 115.787 74.7704C115.725 75.1497 115.744 75.4013 115.64 75.5523C114.165 77.4723 112.287 78.8852 110.073 79.853C108.83 80.4026 107.607 80.9291 106.318 81.3278C104.735 81.8349 103.241 82.613 101.51 82.6788C100.667 82.7214 99.8227 83.1626 99.0021 83.4375C97.0821 84.0917 95.0808 83.9639 93.1182 83.8401C91.7673 83.7549 90.4395 83.4607 89.1118 83.2284C87.4666 82.9536 85.9685 82.2143 84.5789 81.3317C83.5259 80.6775 82.6163 79.791 81.5827 79.1175C80.7389 78.5678 79.9569 78.022 79.3066 77.2633C78.8653 76.7136 78.4202 76.1872 77.9556 75.6801C77.7853 75.4904 77.5531 75.4052 77.3015 75.2388C75.4473 77.813 73.6318 80.3214 71.8395 82.8104C71.797 82.791 71.7544 82.7484 71.735 82.7252C71.3324 83.0852 70.9531 83.4413 70.5737 83.8207C70.5544 83.8013 70.5544 83.7781 70.5311 83.7588C69.7918 84.3084 69.0756 84.9394 68.2743 85.4039C67.2408 86.0349 66.1646 86.5846 65.0692 87.0917C63.3814 87.893 61.6511 88.6091 59.9673 89.391C58.3414 90.173 56.6769 90.7846 54.904 91.1407C54.2924 91.2684 53.6808 91.3497 53.0692 91.373C51.064 91.5007 49.0627 91.8568 47.0382 91.4349C46.4692 91.3072 45.9002 91.3072 45.0757 91.2026C46.0898 92.1317 46.4034 93.3549 47.4176 94.133C48.1143 94.6401 48.7027 95.2943 49.295 95.9252C50.1156 96.8117 50.8356 97.8026 51.6989 98.6233C52.6473 99.5291 53.7234 100.288 54.7376 101.132C55.5195 101.786 56.5298 102.123 57.184 102.967C57.3543 103.199 57.7531 103.284 58.0279 103.45C58.2795 103.597 58.5118 103.768 58.744 103.934C59.6072 104.608 60.3466 105.39 61.4421 105.75C62.073 105.959 62.5608 106.551 63.1299 106.93C65.704 108.637 68.4253 110.05 71.3324 111.041C71.7118 111.169 72.0485 111.401 72.4279 111.568C74.1582 112.284 75.9698 112.621 77.8279 112.938C78.2498 113.023 78.6292 113.275 79.0511 113.341C81.0757 113.658 83.0808 114.014 85.1247 114.204C86.6653 114.351 88.2447 114.266 89.8279 114.289C90.2305 114.289 90.6292 114.27 91.0318 114.247C92.8666 114.161 94.7015 114.142 96.517 113.995C97.7828 113.89 99.0486 113.616 100.291 113.426C101.031 113.298 101.766 113.279 102.463 113.132C103.516 112.923 104.53 112.625 105.563 112.373C107.607 111.866 109.655 111.339 111.722 110.856C113.135 110.519 114.571 110.225 115.984 109.927L115.972 109.934ZM73.7905 78.6375C74.9518 77.3291 75.9001 75.9162 76.4885 74.2517C75.7298 72.6684 74.4834 71.3407 74.0227 69.6104C73.8524 69.0413 73.4111 68.5342 73.2021 67.9652C72.9272 67.2065 72.8421 66.4052 72.5711 65.6659C71.8743 63.9162 71.7273 62.0581 71.7273 60.2659C71.7079 57.5678 71.5182 54.8659 71.9169 52.1678C72.0447 51.2388 72.064 50.2904 72.1686 49.3613C72.2731 48.4555 72.4627 47.5459 72.5711 46.6633C72.6137 46.2839 72.6563 45.8813 72.6756 45.502C72.7801 44.3639 72.8459 43.2026 73.055 42.0646C73.264 40.9265 72.9931 39.7226 73.624 38.6272C73.7286 38.4375 73.6666 38.1201 73.624 37.8878C73.3298 36.6026 73.3492 35.3368 73.5815 34.4078C73.5389 33.3936 73.4537 32.7007 73.4769 32.0233C73.5195 31.0749 73.624 30.1459 73.6666 29.1975C73.686 28.9652 73.624 28.6904 73.5388 28.4581C73.2021 27.5717 72.8421 26.7084 72.5247 25.9265C71.9982 25.6517 71.5956 25.462 71.1969 25.253C69.1298 24.4517 66.4744 24.2001 65.6305 27.5291C65.6305 28.1213 65.5879 28.6672 65.6305 29.1936C65.735 30.4788 65.9247 31.7446 65.9905 33.0104C66.1182 35.2052 66.1802 37.3962 66.2653 39.591C66.2847 40.3304 66.2653 41.0465 66.3079 41.7859C66.3505 42.9239 66.455 44.0426 66.455 45.1807C66.455 45.2852 66.4357 45.3704 66.4124 45.4749C66.3505 45.7923 66.2034 46.0865 66.095 46.4465C65.0614 45.9201 64.744 45.1381 64.6202 44.2323C64.5776 43.9149 64.6202 43.5781 64.5776 43.2413C64.4498 41.4259 64.3027 39.591 64.1982 37.7794C64.1363 36.7884 64.1788 35.8168 64.1556 34.8259C64.113 33.413 64.0279 31.9768 63.9466 30.5639C63.9273 29.9717 63.8188 29.3833 63.8614 28.8143C64.0085 26.5768 64.2215 24.3433 63.5673 22.1717C63.2073 20.9484 62.8085 19.7252 61.9414 18.7536C60.5905 17.9097 58.926 17.213 57.2576 19.493C56.9827 20.062 56.3711 20.8207 56.2666 21.6452C56.0769 23.1859 56.077 24.7884 56.1621 26.3291C56.224 27.6801 56.6034 29.0078 56.7118 30.3355C56.8163 31.6865 56.7311 33.0568 56.7543 34.4078C56.8163 36.3472 56.9247 38.2865 56.9634 40.2297C56.9827 41.6426 57.006 43.0788 56.9634 44.511C56.9014 45.862 56.7544 47.2091 56.646 48.5601C56.6034 49.0246 56.4563 49.4039 55.9066 49.6981C55.7169 49.3807 55.4653 49.1059 55.3995 48.7923C55.2718 48.1614 55.2292 47.4839 55.2098 46.8297C55.2098 45.9665 55.295 45.0994 55.2718 44.2362C55.1866 42.1691 54.9776 40.0826 54.9544 38.0155C54.935 36.5175 54.8692 35.0194 54.7453 33.5252C54.5363 30.951 54.5557 28.3381 54.4705 25.7446C54.366 22.9613 54.2614 20.1975 54.1531 17.4143C53.7505 17.0117 53.4989 16.5936 53.2898 16.1717C52.9298 15.4749 52.3608 15.1188 51.6021 14.8865C50.5492 14.5497 49.4924 14.7162 48.4395 14.6968C47.6576 14.6968 47.0073 14.991 46.5195 15.5601C46.3492 16.1097 46.1169 16.6362 46.0124 17.1626C45.9272 17.7317 45.9931 18.3433 45.9505 18.9123C45.8886 19.8607 45.9079 20.8091 45.5711 21.7188C45.4008 22.1407 45.486 22.6672 45.5092 23.1317C45.5286 23.4917 45.7182 23.8478 45.7182 24.2078C45.8034 26.213 45.8885 28.2143 45.9079 30.2194C45.9505 32.2439 45.9079 34.2491 45.7608 36.2736C45.6137 38.3175 45.6989 40.3652 45.7415 42.4323C45.7608 44.751 45.8692 47.093 45.9505 49.4349C45.9699 50.1084 45.9931 50.8052 45.4434 51.4401C44.8124 51.0801 44.6421 50.4684 44.5995 49.8568C44.4292 47.7472 44.2628 45.6375 44.1582 43.5317C44.1157 42.6878 44.3053 41.8439 44.3053 41.0001C44.2628 39.2697 44.135 37.5201 44.1157 35.7704C44.1157 34.3575 44.2434 32.9446 44.3247 31.5317C44.3672 30.7923 44.5144 30.0762 44.495 29.3368C44.4098 27.502 44.3479 25.6672 44.0924 23.8749C43.9027 22.6517 43.5234 21.3665 42.0872 20.9639C41.5182 20.7936 40.8447 20.8168 40.2331 20.8594C38.526 21.0065 37.113 21.7226 36.3311 23.3059C35.824 24.2968 35.5105 25.3923 35.1505 26.3213C35.2782 26.9136 35.5105 27.3549 35.4447 27.7536C35.3169 28.8297 35.8472 29.9484 35.2743 31.0013C35.2318 31.0865 35.2743 31.2104 35.2743 31.3188C35.3789 34.2065 35.464 37.0981 35.2124 39.9859C35.1931 40.1136 35.255 40.2607 35.2743 40.4078C35.6111 41.8207 35.5918 43.2336 35.5492 44.6697C35.5299 45.7652 35.5492 46.8646 35.464 47.9368C35.4214 48.5484 35.255 49.1601 35.0847 49.7523C34.7672 50.871 34.4111 51.9665 34.0937 52.9149C34.7479 53.9484 36.0331 54.413 35.6769 55.8878C34.686 55.4233 33.757 55.0865 32.9363 54.5601C31.775 53.8439 30.6602 52.9768 29.5415 52.1755C28.7208 51.5833 27.8963 50.9717 27.0757 50.3833C23.9557 48.5059 20.7505 48.2736 17.4989 49.942C16.1286 50.9755 15.5363 52.9381 16.0008 54.413C16.6124 55.7213 18.153 57.2388 19.7324 57.111C21.0408 57.3626 22.1788 57.8272 23.464 58.2723C24.4976 58.6323 27.0911 59.2013 29.2434 60.7807C30.9505 62.2555 32.4718 64.1562 33.4821 66.0336C33.8189 66.6646 34.2215 67.2568 34.6202 67.8684C34.9995 68.4375 35.464 68.9872 35.7815 69.5755C36.6021 71.1355 37.384 72.6955 37.744 74.4491C37.7866 74.6581 37.8718 74.871 37.9956 75.0607C38.735 76.0942 38.944 77.3368 39.2808 78.5213C39.575 79.071 39.8305 79.6168 40.0395 80.1859C40.3569 80.9446 40.6085 81.7033 40.9259 82.4426C41.6847 84.1304 42.7414 85.7097 42.8227 87.2736C43.4537 88.3072 43.8989 89.0465 44.2976 89.7007H45.246C46.175 89.7201 47.1234 89.8052 48.0524 89.7626C50.0343 89.6581 52.0589 89.6155 54.0215 89.3407C55.6473 89.1084 57.2498 88.6439 58.8098 88.1601C60.0331 87.7575 61.1944 87.1691 62.3518 86.662C63.9544 85.9652 65.6847 85.5665 67.1402 84.533C67.8989 83.9833 68.8898 83.6697 69.5247 82.9923C70.7672 81.7265 72.4782 80.9252 73.2563 79.1949C73.3608 78.9859 73.6163 78.8349 73.7827 78.6452L73.7905 78.6375ZM60.0834 16.4852C59.5995 15.5794 59.2395 14.7123 58.7131 13.9536C58.4615 13.5743 57.8498 12.8581 57.3853 12.7304C56.0343 12.3936 54.6872 12.6259 53.7582 13.9536C54.3698 14.9678 54.9388 15.9162 55.593 17.0117C55.6124 17.2439 55.6782 17.6233 55.7401 18.3394C56.944 16.8413 58.4808 16.7988 60.0834 16.4852ZM49.7053 13.0672C50.3789 13.0246 51.0757 13.0672 51.7105 13.0672C51.6679 12.0955 51.7105 11.2749 51.6253 10.4504C51.4356 8.46844 51.1608 6.50586 49.1169 5.53812H46.5853C45.2769 6.00264 43.6976 6.16909 42.7879 8.06973C42.8073 8.7007 42.873 9.54457 42.9156 10.4117C42.9776 11.0039 43.0201 11.573 43.0201 12.142C43.0201 12.7962 43.0008 13.4504 42.9776 14.1239C42.9776 14.5884 42.9156 15.0723 42.9776 15.5368C43.1247 16.7601 43.3376 17.9833 43.5698 19.2065C43.5892 19.3768 43.7789 19.5007 44.0111 19.7988C44.1582 18.9355 44.2008 18.2388 44.3711 17.5613C44.7311 16.1678 45.1724 14.8401 46.4808 13.9768C47.4718 13.3226 48.5673 13.133 49.7092 13.071L49.7053 13.0672ZM41.8163 18.8233C41.7737 17.3484 41.7311 15.8504 41.7118 14.3717C41.6924 13.4233 41.7969 12.4749 41.7311 11.5226C41.6266 10.0246 41.5415 8.50715 41.2473 7.05167C40.9724 5.78586 40.7634 4.43489 39.9195 3.36264C39.455 2.77038 38.9479 2.22457 38.1698 2.13941C36.6524 1.96909 35.1311 2.01167 33.9079 3.13038C33.4008 3.59489 32.9789 4.14457 32.495 4.6478C32.4524 5.30199 32.2627 5.89038 32.073 6.48264C31.9879 6.81941 31.864 7.17941 31.864 7.53554C31.8834 8.61167 31.9918 9.70715 32.0111 10.7833C32.0537 12.9355 32.0111 15.0839 32.0537 17.2362C32.0731 18.4594 32.2008 19.6401 32.286 20.8439C32.3711 21.773 32.6227 22.6981 32.4563 23.5846C32.2472 24.8078 32.3711 25.9884 32.4989 27.1691C32.5608 27.8659 32.6885 28.5626 32.7505 29.2555C32.8124 30.0762 32.7079 30.9433 32.855 31.7446C32.9169 32.0813 32.9595 32.3988 32.9401 32.7162C32.9208 34.0439 32.3286 35.2672 31.8215 36.6375C31.504 36.4284 31.2098 36.3201 31.1053 36.1304C30.9582 35.8555 30.8963 35.4994 30.8963 35.182C30.8537 34.3381 30.9582 33.4749 30.8343 32.6504C30.6873 31.702 30.6447 30.7536 30.8343 30.0994C30.7724 29.0852 30.7298 28.3691 30.6872 27.653C30.6253 26.7239 30.5595 25.8181 30.5169 24.9123C30.5169 24.6801 30.5363 24.471 30.5595 24.2581C30.6021 23.5188 30.7918 22.7833 30.6872 22.0865C30.455 20.5884 30.3698 19.133 30.455 17.6155C30.5402 16.3497 30.4743 15.0839 30.4743 13.8181C30.4743 13.671 30.5789 13.5239 30.5595 13.3768C30.5402 12.7652 30.5169 12.173 30.455 11.5613C30.4124 11.1588 30.2847 10.7601 30.2847 10.3807C30.2653 9.66457 29.9905 9.09554 29.3982 8.69296C28.9144 8.37554 28.4498 8.01941 27.9853 7.67877C27.8382 7.65941 27.7337 7.65941 27.6253 7.61683C25.1788 6.85812 23.1118 8.37554 22.2911 10.3149C22.0821 10.7562 21.8266 11.2207 21.6989 11.7084C21.5711 12.3007 21.5285 12.9123 21.4898 13.5239C21.4705 13.8413 21.5092 14.1781 21.5324 14.5149C21.575 15.022 21.7647 15.5484 21.6602 16.013C21.4279 17.1936 21.5982 18.3549 21.6602 19.5123C21.7647 21.2194 21.5324 22.9304 21.7027 24.6568C21.7221 24.8272 21.7027 25.0168 21.6834 25.2065C21.6214 26.4297 21.513 27.6723 21.4743 28.9188C21.3466 32.271 21.8769 35.6465 21.0718 38.9368C21.6408 39.5678 22.3995 40.0555 22.655 40.7523C22.9298 41.4491 23.8356 42.0801 23.2473 43.0517H23.0769C22.5272 43.0517 22.1479 42.7768 21.7685 42.4207C20.9479 41.6388 20.104 40.8801 19.2601 40.1446C18.6292 39.5755 17.975 39.0491 17.553 38.6697C16.7092 38.1859 16.0976 37.7833 15.4434 37.4891C13.9879 36.8581 12.4898 36.2465 11.015 35.6543C10.806 35.5691 10.5737 35.6117 10.3608 35.6117C9.72982 35.6117 9.09499 35.5923 8.48338 35.6736C7.66273 35.7588 6.81887 35.8826 6.01757 36.1149C5.5337 36.2426 5.13113 36.5988 4.68984 36.8543C2.60338 38.0349 2.3479 40.6284 4.20596 42.1691C4.73242 42.6104 5.34402 42.951 5.8937 43.373C6.42015 43.7755 6.92724 44.2168 7.43434 44.6155C8.21627 45.2272 8.88982 46.0284 9.77627 46.4078C11.2743 47.062 12.2227 48.2233 13.2563 49.3381C13.6589 49.7794 13.9298 50.3523 14.375 51.0026C14.584 50.5613 14.7543 50.2439 14.8821 49.9072C15.2614 48.9162 15.9157 48.2001 16.8215 47.6078C17.6227 47.0813 18.4666 47.0388 19.3298 46.9342C20.5105 46.7872 21.6718 46.6826 22.8098 46.7872C24.1376 46.8723 25.4266 47.2091 26.6692 47.991C26.9866 48.2001 27.4085 48.2852 27.7879 48.4323C28.0821 48.5601 28.4189 48.6413 28.6937 48.8117C29.9363 49.6323 31.1595 50.4762 32.406 51.3007C32.4679 51.3433 32.5956 51.3007 32.6808 51.3007C32.766 50.4142 32.8705 49.551 32.9324 48.6839C32.975 48.3665 32.9518 48.0297 32.975 47.7123C33.0369 46.4272 33.0795 45.1614 33.184 43.8955C33.2692 42.8001 33.6486 41.7433 33.3737 40.6284C33.3118 40.4388 33.3931 40.2065 33.3931 39.9743C33.455 39.2775 33.5401 38.6039 33.5401 37.9072C33.5827 36.1768 33.5208 34.4697 33.6021 32.7394C33.7298 30.7149 33.9389 28.6672 34.0434 26.6233C34.1286 25.2104 34.7595 23.7975 35.1621 22.4039C35.2047 22.1949 35.3943 22.0246 35.5221 21.8543C35.8821 21.3897 36.2382 20.9484 36.6175 20.4839C37.3569 20.0001 38.1776 19.5355 39.0447 19.2801C39.9079 19.0284 40.8602 18.9626 41.8279 18.8155L41.8163 18.8233ZM36.0369 75.1768C36.0563 75.0491 36.0989 74.9872 36.0795 74.902C35.8047 73.2143 34.8989 71.7588 34.2873 70.1988C34.2253 70.0517 34.055 69.9239 33.9505 69.7768C33.2111 68.871 32.4331 68.0039 31.7982 67.0362C30.8266 65.5613 29.6034 64.3381 28.3182 63.1343C27.9389 62.7975 27.4743 62.5652 27.0098 62.3523C25.5776 61.7407 24.3544 60.8117 22.9182 60.2659C21.8421 59.8439 18.7221 58.8336 18.6563 58.9149C18.846 59.5072 19.6279 60.8349 19.8176 61.4039C20.0692 62.2052 20.4098 62.9872 20.5569 63.8078C20.7466 64.7988 20.8511 65.7897 21.1066 66.7807C21.5905 68.6775 21.7608 70.6594 21.6989 72.622C21.6795 73.0246 21.6989 73.4039 21.6989 73.9072C22.5853 74.0117 23.344 74.0543 24.0834 74.182C24.9892 74.3523 25.8563 74.6233 26.7621 74.7743C28.0472 74.9833 29.3557 75.1768 30.664 75.2813C31.655 75.3859 32.6692 75.4091 33.6795 75.3859C34.4808 75.3859 35.2627 75.2581 36.0408 75.1768H36.0369Z" fill="#4D40CC"/>
<path d="M58.7129 13.9536C59.2394 14.7123 59.5994 15.5794 60.0833 16.4852C58.4807 16.8026 56.94 16.8452 55.74 18.3394C55.6781 17.6233 55.6122 17.2439 55.5929 17.0117C54.9387 15.9162 54.3697 14.9678 53.7581 13.9536C54.6871 12.6259 56.0342 12.3936 57.3852 12.7304C57.8497 12.8581 58.4613 13.5742 58.7129 13.9536Z" fill="#FF5B00"/>
<path d="M51.7104 13.0671C51.0794 13.0671 50.3826 13.0246 49.7052 13.0671C48.5672 13.1291 47.4678 13.3187 46.4769 13.9729C45.1685 14.8362 44.7271 16.1678 44.3671 17.5575C44.1968 18.231 44.1581 18.9278 44.0072 19.7949C43.7749 19.5007 43.5852 19.3729 43.5659 19.2026C43.3336 17.9794 43.1246 16.7562 42.9736 15.5329C42.9117 15.0684 42.9736 14.5846 42.9736 14.12C42.993 13.4465 43.0162 12.7923 43.0162 12.1381C43.0162 11.5691 42.9736 11 42.9117 10.4078C42.8691 9.54455 42.8072 8.70068 42.7839 8.06584C43.6897 6.16906 45.273 5.99874 46.5814 5.53423H49.113C51.1568 6.50584 51.4317 8.46455 51.6213 10.4465C51.7065 11.2671 51.664 12.0916 51.7065 13.0633L51.7104 13.0671Z" fill="#FF5B00"/>
<path d="M41.716 14.3756C41.7353 15.8504 41.7779 17.3485 41.8205 18.8272C40.8489 18.9743 39.9005 19.0362 39.0372 19.2917C38.174 19.5433 37.3495 20.0078 36.6102 20.4956C36.2308 20.9601 35.8708 21.4014 35.5147 21.8659C35.3869 22.0362 35.1973 22.2027 35.1547 22.4156C34.7521 23.8091 34.1211 25.222 34.036 26.6349C33.9315 28.6788 33.7186 30.7265 33.5947 32.751L32.9405 32.7317C32.9598 32.4143 32.9211 32.1007 32.8553 31.7601C32.7082 30.9588 32.8127 30.0956 32.7508 29.271C32.6889 28.5743 32.5612 27.8775 32.4992 27.1846C32.3715 26.004 32.2476 24.8233 32.4566 23.6001C32.6269 22.7136 32.3715 21.7846 32.2863 20.8594C32.2011 19.6556 32.0773 18.4749 32.0541 17.2517C32.0115 15.0994 32.0541 12.951 32.0115 10.7988C31.9921 9.72266 31.8837 8.62718 31.8644 7.55105C31.8644 7.19105 31.9921 6.83492 32.0734 6.49814C32.2631 5.90589 32.4528 5.3175 32.4953 4.66331C32.9792 4.15621 33.4011 3.6104 33.9082 3.14589C35.1314 2.02718 36.6489 1.9846 38.1702 2.15492C38.9521 2.24008 39.4553 2.78589 39.9198 3.37814C40.7637 4.45427 40.9728 5.80524 41.2476 7.06718C41.5418 8.52266 41.627 10.0401 41.7315 11.5381C41.7934 12.4865 41.6889 13.4349 41.7121 14.3872L41.716 14.3756Z" fill="#FF5B00"/>
<path d="M36.0834 74.902C36.1027 74.9871 36.064 75.0491 36.0407 75.1768C35.2588 75.262 34.4807 75.3858 33.6795 75.3858C32.6653 75.4052 31.655 75.3858 30.664 75.2813C29.3556 75.1768 28.0472 74.9871 26.762 74.7742C25.8562 74.6271 24.9892 74.3523 24.0834 74.182C23.344 74.0542 22.5853 74.0116 21.6988 73.9071C21.6988 73.4 21.6795 73.0207 21.6988 72.622C21.7608 70.6594 21.5943 68.6774 21.1066 66.7807C20.8549 65.7897 20.7465 64.7987 20.5569 63.8078C20.4098 62.9871 20.073 62.2052 19.8175 61.4039C19.6279 60.8349 18.8459 59.5071 18.6562 58.9149C18.7182 58.8297 21.8421 59.8439 22.9182 60.2658C24.3504 60.8155 25.5737 61.7407 27.0098 62.3523C27.4743 62.5613 27.9388 62.7936 28.3182 63.1342C29.6033 64.3381 30.8266 65.5613 31.7982 67.0362C32.4291 68.0078 33.2111 68.871 33.9504 69.7768C34.055 69.9239 34.2253 70.0516 34.2872 70.1987C34.8988 71.7587 35.8046 73.2142 36.0795 74.902H36.0834Z" fill="#FF5B00"/>
<path d="M32.9401 32.7239L33.5943 32.7433C33.5092 34.4736 33.575 36.1807 33.5324 37.911C33.5324 38.6078 33.4472 39.2813 33.3853 39.9781C33.3853 40.2104 33.3002 40.4426 33.366 40.6323C33.6408 41.751 33.2615 42.8039 33.1763 43.8994C33.0718 45.1652 33.0292 46.431 32.9673 47.7162C32.9479 48.0336 32.9673 48.3704 32.9247 48.6878C32.8627 49.551 32.7543 50.4181 32.6731 51.3046C32.5879 51.3046 32.464 51.3471 32.3982 51.3046C31.1557 50.4839 29.9324 49.64 28.6859 48.8155C28.4111 48.6452 28.0743 48.5639 27.7801 48.4362C27.4008 48.2891 26.9789 48.2039 26.6614 47.9949C25.4189 47.2129 24.1298 46.8762 22.8021 46.791L23.0769 43.0594H23.2473C23.8395 42.0878 22.9298 41.4568 22.655 40.76C22.4034 40.0633 21.6408 39.5794 21.0718 38.9446C21.8731 35.6542 21.3466 32.2788 21.4743 28.9265C21.5169 27.6839 21.6214 26.4375 21.6834 25.2142C21.7027 25.0246 21.726 24.8349 21.7027 24.6646C21.5324 22.9342 21.7647 21.2271 21.6602 19.52C21.5982 18.3587 21.4279 17.2013 21.6602 16.0207C21.7647 15.5562 21.575 15.0297 21.5324 14.5226C21.513 14.1858 21.4705 13.8491 21.4898 13.5317C21.5324 12.92 21.575 12.3084 21.6989 11.7162C21.8266 11.2323 22.0782 10.7678 22.2911 10.3226C23.1118 8.38327 25.1788 6.86198 27.6253 7.62456C27.7298 7.66714 27.8344 7.66714 27.9853 7.68649C28.4498 8.02327 28.9144 8.38327 29.3982 8.70069C29.9905 9.10327 30.2614 9.6723 30.2847 10.3884C30.2847 10.7678 30.4124 11.1704 30.455 11.5691C30.5169 12.1807 30.5402 12.7729 30.5595 13.3846C30.5789 13.5317 30.4743 13.6788 30.4743 13.8258C30.4743 15.0917 30.5363 16.3575 30.455 17.6233C30.3698 19.1407 30.455 20.5962 30.6872 22.0942C30.7918 22.791 30.6021 23.5265 30.5595 24.2658C30.5402 24.4749 30.5169 24.6878 30.5169 24.92C30.5595 25.8258 30.6214 26.7355 30.6872 27.6607C30.7298 28.3768 30.7724 29.0929 30.8343 30.1071C30.6447 30.7613 30.6872 31.7097 30.8343 32.6581C30.9621 33.4788 30.8537 34.3458 30.8963 35.1897C30.8963 35.5071 30.9582 35.8633 31.1053 36.1381C31.2098 36.3278 31.5079 36.4323 31.8215 36.6452C32.3286 35.2749 32.9169 34.0517 32.9401 32.7239Z" fill="#FF5B00"/>
<path d="M23.0729 43.0594L22.7981 46.7911C21.66 46.6865 20.4987 46.791 19.3181 46.9381C18.4549 47.0427 17.611 47.0852 16.8097 47.6117C15.9039 48.204 15.2497 48.9201 14.8703 49.911C14.7426 50.2478 14.5761 50.5652 14.3632 51.0065C13.922 50.3523 13.6471 49.7833 13.2445 49.342C12.211 48.2233 11.2626 47.0659 9.76453 46.4117C8.87808 46.0323 8.20454 45.2311 7.4226 44.6194C6.91551 44.2169 6.40839 43.7756 5.88194 43.3769C5.33226 42.9549 4.72066 42.6181 4.1942 42.173C2.34001 40.6323 2.59162 38.0388 4.67808 36.8581C5.11937 36.6065 5.52194 36.2465 6.00582 36.1188C6.80711 35.8865 7.65097 35.7588 8.47162 35.6775C9.08323 35.5923 9.71421 35.6156 10.3491 35.6156C10.5581 35.6156 10.7903 35.573 11.0032 35.6581C12.4781 36.2504 13.9761 36.862 15.4316 37.493C16.0858 37.7872 16.6974 38.1898 17.5413 38.6736C17.9633 39.053 18.6174 39.5794 19.2484 40.1485C20.0923 40.8878 20.9362 41.6465 21.7568 42.4246C22.1362 42.7846 22.5155 43.0556 23.0652 43.0556L23.0729 43.0594Z" fill="#FF5B00"/>
</svg>
