<svg width="120" height="120" viewBox="0 0 120 120" fill="none" xmlns="http://www.w3.org/2000/svg">
<path d="M58.8357 112.702C21.2292 112.702 2.67566 93.4831 2.67566 56.376C2.67566 19.2689 23.2344 4.23022 58.8357 4.23022C94.437 4.23022 115.665 19.1064 115.665 56.376C115.665 93.6457 96.446 112.702 58.8357 112.702Z" fill="#EDECFA"/>
<path d="M43.1896 48.5993C44.0489 48.4947 44.5677 48.9399 44.9896 49.5438C45.3496 50.0625 45.6515 50.6238 46.0541 51.1076C46.4064 51.5373 46.6773 51.9709 46.6619 52.5476C46.9057 52.7605 47.1302 52.9541 47.2154 53.0276C47.6489 53.9218 48.009 54.6612 48.4038 55.4702C48.5315 55.5593 48.7212 55.6909 48.7289 55.6986C49.3057 56.6276 49.747 57.398 50.2502 58.1218C50.6451 58.6909 51.2412 59.1476 51.5315 59.7593C51.9883 60.7154 53.0683 61.1683 53.3586 62.2251C53.3973 62.3683 53.5638 62.4883 53.6915 62.5928C54.3496 63.1231 54.7754 63.8431 55.3096 64.4702C55.8593 65.1167 56.5793 65.6238 57.2373 66.1773C58.1238 66.9283 59.0025 67.6831 59.916 68.4031C60.756 69.0612 61.6386 69.6534 62.6644 70.0057C63.6941 70.358 64.6967 70.8225 65.7457 71.1012C67.0696 71.4534 68.347 71.8909 69.6089 72.4328C70.6076 72.8625 71.7031 73.0715 72.7677 73.3463C73.1664 73.4509 73.538 73.5476 73.8167 73.9386C73.7238 74.3722 73.716 74.8754 73.3173 75.1773C72.8993 75.4909 72.427 75.7309 71.9586 75.9709C71.827 76.0405 71.6102 76.0367 71.467 75.9786C70.9212 75.758 70.3754 75.8818 69.8218 75.9012C68.6489 75.9399 67.6347 75.5412 66.7522 74.7709C66.5083 74.558 66.2412 74.3141 65.9431 74.2328C64.658 73.8805 63.5818 73.1838 62.5754 72.3399C62.1999 72.0263 61.747 71.8018 61.3212 71.5502C61.1199 71.4302 60.8876 71.3605 60.7018 71.2251C59.4631 70.3231 58.2283 69.4173 57.0012 68.4999C56.316 67.9889 55.6425 67.4509 54.9651 66.9283C54.9109 66.8857 54.8606 66.8199 54.8025 66.816C54.1251 66.7463 53.8154 66.1928 53.4051 65.7709C52.1973 64.5244 51.0709 63.1812 49.7548 62.0625C48.6748 61.1451 47.9741 59.976 47.1186 58.9076C47.0335 58.8031 46.9444 58.7025 46.8438 58.6134C46.0347 57.8818 45.6244 56.9025 45.1367 55.9618C44.9083 55.5205 44.6141 55.1102 44.3315 54.6999C43.9406 54.127 43.5264 53.5812 43.3444 52.8805C43.2167 52.3851 42.8528 51.9786 42.6477 51.487C42.187 50.376 42.3148 49.4818 43.1819 48.607L43.1896 48.5993Z" fill="#4D40CC"/>
<path d="M62.3237 73.7141C63.0398 73.7644 63.5586 74.2212 63.6476 75.189C63.5237 75.247 63.3689 75.3902 63.2411 75.3709C62.5598 75.2509 61.8824 75.1038 61.2089 74.9412C60.8876 74.8599 60.5856 74.7012 60.2682 74.6044C58.3753 74.0393 56.6528 73.1025 54.965 72.1038C53.796 71.4109 52.6502 70.6793 51.4889 69.9786C50.6295 69.4599 49.8089 68.9219 49.1818 68.1012C48.8218 67.6328 48.3495 67.2148 47.8463 66.9012C47.3353 66.5838 47.0334 66.1231 46.6966 65.6702C46.3444 65.198 46.0231 64.6909 45.6321 64.2496C44.9082 63.4251 44.5869 62.4148 44.2811 61.4044C44.1108 60.8393 44.0799 60.2315 43.9986 59.6393C43.9599 59.3606 43.9986 59.3219 44.4166 58.8302C45.6592 59.1864 46.2902 60.4948 47.3353 60.8431C47.854 61.4509 48.2605 61.9348 48.6747 62.4109C49.3057 63.1348 50.0102 63.8044 50.5599 64.5864C50.9121 65.0896 51.3727 65.3567 51.845 65.6122C52.3714 66.4754 53.1611 67.0135 53.9392 67.5632C54.2915 67.8148 54.6669 68.047 54.9805 68.3412C55.9908 69.3051 57.0785 70.1761 58.2321 70.9619C59.134 71.5773 60.0553 72.1657 60.9611 72.7735C61.3753 73.0483 61.7818 73.3386 62.3237 73.7141Z" fill="#4D40CC"/>
<path d="M88.7315 43.7722C89.5096 44.1825 89.587 44.9257 89.8038 45.5528C90.0476 46.2651 89.5986 46.7799 89.0683 47.2018C88.5883 47.3141 88.0928 47.4302 87.4812 47.5734C86.5909 46.9773 86.0799 46.0986 86.0876 44.976C86.7418 43.9502 87.667 43.7141 88.7315 43.7722Z" fill="#4D40CC"/>
<path d="M78.3918 27.1734C78.1131 27.0302 77.8228 26.8754 77.4783 26.6973C77.3389 26.4186 77.1764 26.0896 76.9983 25.7296C77.0989 25.3889 77.2034 25.0444 77.3002 24.727C77.7492 24.4947 78.148 24.2509 78.5738 24.0728C79.2009 23.8134 79.8899 24.1928 80.0447 24.8586C80.1067 25.118 80.1221 25.3851 80.1763 25.6444C80.3467 26.4341 80.068 26.8754 79.2705 27.038C79.0151 27.0922 78.7518 27.1154 78.388 27.1696L78.3918 27.1734Z" fill="#4D40CC"/>
<path d="M66.1869 43.9116C66.3301 43.7025 66.3882 43.6212 66.4695 43.4974C66.3224 43.3619 66.1714 43.2187 65.9856 43.0445C66.183 42.8587 66.3495 42.7038 66.4269 42.6303H68.2811C69.0475 43.0445 69.2643 43.54 69.1095 44.6974C68.5288 45.3709 67.774 45.398 66.8372 45.2277C66.6437 44.8406 66.4153 44.3722 66.1869 43.9116Z" fill="#4D40CC"/>
<path d="M80.5871 49.7915C80.4826 50.0161 80.3936 50.2057 80.2619 50.4845C79.9561 50.6083 79.5652 50.7709 79.1278 50.949C78.7561 50.8019 78.3613 50.647 77.9936 50.5038C77.5832 49.5941 77.6839 48.8122 78.2219 48.0767C78.6516 47.9993 79.0387 47.9335 79.4607 47.8561C79.7432 48.0535 80.0607 48.2741 80.409 48.518C80.4671 48.9438 80.5329 49.3928 80.5871 49.7915Z" fill="#4D40CC"/>
<path d="M67.0193 35.078C67.2593 35.3025 67.4799 35.5038 67.6193 35.6354C67.7431 36.1696 67.8438 36.6032 67.9561 37.0793C67.7393 38.0238 67.0115 38.287 66.1328 38.3141C64.8206 36.8277 65.1031 35.709 67.0193 35.0741V35.078Z" fill="#4D40CC"/>
<path d="M71.5871 29.3102C71.4129 30.4793 70.4413 30.4793 69.6787 30.8973C69.4194 30.5335 69.1794 30.1928 68.9471 29.8676C69.1175 29.2986 69.2646 28.7993 69.4194 28.2805H71.2891C71.3936 28.6405 71.4942 28.9812 71.591 29.3102H71.5871Z" fill="#4D40CC"/>
<path d="M73.0227 47.5967C73.3452 47.8677 73.5827 48.4057 73.7349 49.2109C73.4369 49.4509 73.1078 49.718 72.7672 49.9967C72.1672 49.5283 71.6523 49.0754 71.8614 48.3012C72.0123 47.7477 72.4575 47.527 73.0227 47.5967Z" fill="#4D40CC"/>
<path d="M36.0007 35.1825L40.6653 30.5954L47.3078 25.9309L54.5001 24.0341H60.5117L65.1762 25.0599L47.6214 41.2677L43.5917 39.847L36.0007 35.1825Z" fill="#FF5B00"/>
<path d="M77.219 72.8973L81.3687 78.3167L84.0203 82.6986L86.6719 80.8522L91.6306 73.2419L95.5519 63.5567L95.668 56.1786L94.1661 53.0664L90.0938 59.5502L80.908 68.7477L77.219 72.8973Z" fill="#FF5B00"/>
<path d="M42.7366 60.4367L43.9405 64.5012C43.9405 64.5012 44.9276 66.3438 47.165 68.9257C48.934 70.9657 52.2708 72.6148 52.2708 72.6148L56.885 75.0767L57.6244 75.2625L57.3186 78.278L56.6411 80.9838L55.2863 83.6896L53.2579 85.1025L50.9199 86.4573L50.1805 83.2599L48.5818 80.3064L46.3676 82.1528L38.494 86.949L29.0218 91.0715L27.1134 91.3193L27.4192 87.8122L28.6502 81.9709L30.6785 77.9722L34.8011 71.6974L36.7676 68.7438H32.7689L30.9844 68.438L31.9676 65.4225L34.0579 62.7786L38.3005 61.1799L42.7289 60.4406L42.7366 60.4367Z" fill="#FF5B00"/>
<path d="M95.157 53.0625C95.3738 53.7515 95.5093 54.4405 95.8035 55.0599C96.2061 55.9154 96.3145 56.8328 96.5041 57.7309C96.659 58.4625 96.7945 59.2173 96.7712 59.9567C96.7403 60.847 96.5467 61.7296 96.3919 62.6122C96.2138 63.6263 95.997 64.6328 95.7957 65.6392C95.7648 65.8018 95.7609 65.9876 95.6719 66.1192C94.7854 67.4741 94.5222 69.096 93.7945 70.5167C93.3377 71.407 92.9661 72.3438 92.5286 73.2457C92.0099 74.318 91.7854 75.5218 91.0267 76.4896C90.7248 76.8728 90.6319 77.4186 90.3377 77.8057C89.486 78.9128 88.6886 80.0625 87.6551 81.0263C86.997 81.638 86.4667 82.3889 85.8048 82.9967C84.9261 83.798 83.8577 84.4522 82.6848 83.1283C82.1119 82.4818 81.6125 81.7734 81.0861 81.0844C80.6061 80.4573 80.1415 79.8186 79.6344 79.207C79.3248 78.8276 79.3673 78.2934 78.9493 77.918C78.597 77.6005 78.3996 77.1128 78.1054 76.6599C78.0125 75.5644 77.2809 74.7941 76.6228 74.0663C75.9802 74.2134 75.4189 74.3412 74.7377 74.4999C74.4783 74.198 74.2383 73.927 74.0293 73.6831C73.9828 72.9709 74.3467 72.5373 74.788 72.1773C75.5583 71.5463 76.2357 70.7799 77.2112 70.4315C77.3273 70.3889 77.4086 70.2534 77.5093 70.1683C78.5583 69.2431 79.6112 68.3257 80.6525 67.3967C80.8228 67.2457 80.9351 67.0289 81.0938 66.8586C81.2486 66.6883 81.3996 66.4367 81.5932 66.3863C82.3131 66.2044 82.6615 65.6005 83.1222 65.136C83.7106 64.5438 84.237 63.8934 84.7983 63.2741C85.468 62.527 86.1377 61.7799 86.8151 61.0444C87.1015 60.7347 87.4112 60.4483 87.7674 60.216C88.0035 59.8173 88.2009 59.3915 88.4796 59.0276C89.8035 57.2702 91.1544 55.536 92.4861 53.7825C93.7751 52.0831 95.068 50.3838 96.3299 48.6651C96.9996 47.7554 97.5919 46.7915 98.2577 45.878C98.4667 45.5915 98.7919 45.3863 99.0164 45.1851C99.4383 44.5231 99.8409 43.9115 100.228 43.2883C101.122 41.8521 102.001 40.4005 102.907 38.9683C103.545 37.9541 104.242 36.9747 104.869 35.9528C105.268 35.3025 105.562 34.5902 105.934 33.9244C106.735 32.4999 107.567 31.0947 108.361 29.6663C108.732 28.9967 109.065 28.3076 109.371 27.607C109.472 27.3786 109.522 27.0457 109.429 26.8289C109.093 26.0509 109.189 25.327 109.46 24.5528C109.774 23.6586 109.77 22.7334 109.507 21.7967C109.356 21.2586 109.394 20.6741 109.263 20.1283C108.922 18.696 108.423 17.318 107.676 16.0483C107.374 15.5373 106.983 15.0689 106.6 14.6121C105.504 13.3076 104.223 12.2005 102.887 11.1438C101.989 10.4354 101.022 9.95924 99.8951 9.66118C99.0977 9.44827 98.2848 9.20827 97.4835 9.09601C96.3222 8.93343 95.219 8.37989 93.9725 8.62763C93.4577 8.72827 92.8732 8.46505 92.1261 8.32956C90.6899 9.02247 89.0796 9.73472 87.5312 10.5631C86.5712 11.078 85.5454 11.4534 84.6164 12.0031C83.3041 12.7812 81.868 13.327 80.6061 14.1825C80.0603 14.5541 79.5609 14.9915 79.046 15.4018C78.9415 15.4831 78.8796 15.6225 78.7712 15.6844C77.1338 16.656 75.7286 17.9489 74.1609 19.0212C73.4564 19.5012 72.8099 20.0586 72.1209 20.5696C71.6951 20.887 71.219 21.1463 70.8086 21.4792C69.539 22.5089 68.2925 23.5696 67.1235 24.7154C66.7248 25.1063 66.3106 25.478 65.7648 25.985C65.3041 26.0625 64.8125 26.438 64.3673 26.9141C63.868 27.4483 63.3415 27.9631 62.7996 28.4509C62.5557 28.6676 62.2383 28.8031 61.917 28.9967C61.4951 29.5309 61.1041 30.1154 60.4538 30.5373C59.7802 30.9747 59.2654 31.656 58.6693 32.2212C58.3673 32.5076 58.0422 32.767 57.6318 32.9373C57.5118 33.2083 57.3918 33.4792 57.2718 33.7541C57.1867 33.8121 57.1015 33.8625 57.0203 33.9244C56.6757 34.1838 56.2925 34.4083 55.9944 34.7141C55.3248 35.3992 54.7673 36.2005 54.0357 36.8083C53.2383 37.4702 52.7041 38.3683 51.8951 39.0109C51.5622 39.2741 51.326 39.6573 51.0357 39.9825C50.8809 40.1567 50.7415 40.3696 50.548 40.478C49.5725 41.0276 48.8912 41.8831 48.1325 42.6689C47.6989 43.118 47.246 43.5515 46.8512 44.0392C46.4989 44.4805 46.1544 44.9257 45.8293 45.3902C45.3454 45.8392 44.7531 45.8276 44.1028 45.7192C43.9905 45.4173 43.8783 45.1076 43.7815 44.8367C44.0486 43.9309 44.4009 43.4044 45.1093 42.8431C45.1789 42.6689 45.2486 42.4831 45.326 42.3012C45.388 42.1502 45.4577 42.0031 45.5428 41.8096C44.5867 41.4341 43.6422 41.1205 42.7518 40.6909C42.0706 40.3618 41.4706 39.8741 40.8164 39.487C40.0731 39.0457 39.326 38.6121 38.5519 38.2251C37.5725 37.7334 36.566 37.296 35.5712 36.8276C35.4202 36.758 35.277 36.6689 35.1415 36.5915C34.526 35.5618 34.6228 34.9696 35.4899 34.2263C35.788 33.9709 36.0435 33.6689 36.326 33.3941C36.8757 32.8638 37.4254 32.3373 37.979 31.8147C38.6254 31.1992 39.268 30.576 39.9338 29.9799C40.2473 29.6973 40.619 29.4767 41.0951 29.1321C41.3506 28.5089 42.0086 28.0754 42.6977 27.6534C43.379 27.2354 43.9983 26.7205 44.6757 26.2947C45.2099 25.9618 45.7944 25.7102 46.348 25.4005C46.6344 25.2418 46.9015 25.0367 47.2267 24.8199H48.1789C49.4564 23.9025 50.9157 23.6354 52.4873 23.5696C52.9712 23.2367 53.4899 22.9618 54.1906 23.1515C54.5428 23.2444 54.9802 23.0896 55.3596 22.985C56.2925 22.7334 57.2448 23.0044 58.197 22.8341C58.886 22.7102 59.6447 22.9038 60.3647 23.0044C61.1196 23.1089 61.8744 23.2405 62.6138 23.4186C63.1286 23.5425 63.6202 23.7631 64.2241 23.976C64.8473 23.4612 65.5325 22.8999 66.2138 22.3347C67.2551 21.4754 68.2461 20.5618 69.3841 19.8109C70.2899 19.2147 71.0718 18.4289 71.9273 17.7515C72.1557 17.5696 72.4693 17.5038 72.7054 17.3334C73.4331 16.807 74.2499 16.4276 74.9157 15.785C75.3957 15.3205 76.0848 15.0767 76.6577 14.7012C76.9325 14.5192 77.1725 14.2754 77.4048 14.0392C77.8306 13.6018 78.2641 13.1915 78.8989 13.0792C79.0267 13.056 79.1699 12.9941 79.2589 12.905C79.8318 12.3167 80.6603 12.127 81.2874 11.6663C82.4099 10.8379 83.6835 10.3386 84.8951 9.70376C85.9867 9.13472 87.1209 8.65085 88.228 8.11666C88.5261 7.97343 88.7932 7.75279 89.0951 7.6173C89.6332 7.37343 90.1867 7.1644 90.7635 7.00956C91.2203 6.60698 91.7738 6.43666 92.3622 6.2586C93.1557 6.02247 93.8951 5.61214 94.6731 5.31795C95.3273 5.07021 96.0048 4.88827 96.6628 4.65989C97.7273 4.29214 98.8228 4.00956 99.8138 3.44827C100.305 3.16956 100.882 3.20053 101.405 2.91795C102.02 2.58505 102.806 2.56956 103.507 2.38763C104.18 2.21343 104.834 1.95021 105.516 1.81085C106.909 1.52053 108.33 1.33472 109.716 1.00956C110.652 0.788917 111.547 0.839239 112.472 0.997949C112.929 1.07537 113.412 0.990207 113.877 1.04053C114.469 1.10247 115.054 1.21859 115.638 1.33859C115.739 1.35795 115.809 1.52053 115.909 1.62892C115.511 2.43408 114.736 2.32182 114.082 2.44956C113.664 2.53085 113.231 2.54247 112.638 2.60053C112.325 2.48053 111.845 2.34118 111.349 2.60827C111.264 2.65472 111.148 2.67408 111.055 2.65859C110.056 2.4844 109.162 2.98763 108.206 3.10376C106.259 3.33988 104.432 4.11021 102.512 4.4973C101.641 4.6715 100.82 5.08182 99.9764 5.38376C99.0667 5.70892 98.1532 6.01859 97.2512 6.3515C96.5274 6.6186 95.8151 6.91279 95.0912 7.24182C96.6164 7.13343 98.0525 7.56698 99.5235 7.83795C100.936 8.0973 102.187 8.65472 103.41 9.31279C103.96 9.60698 104.432 10.0638 104.896 10.4896C106.348 11.8134 107.753 13.1915 108.853 14.8367C109.48 15.7773 109.944 16.8031 110.312 17.8676C110.474 18.3321 110.606 18.8315 110.618 19.3192C110.637 20.1476 110.993 20.9218 110.815 21.7967C110.711 22.3192 110.989 22.9231 111.102 23.5231C111.446 23.3799 111.585 23.1592 111.682 22.8573C112.174 21.3399 112.708 19.838 113.192 18.3167C113.676 16.7992 114.175 15.2857 114.554 13.7412C114.779 12.8354 115 11.945 115.379 11.0896C115.549 10.7063 115.576 10.2534 115.615 9.82376C115.665 9.23924 115.7 8.65085 115.685 8.06247C115.654 6.95537 115.832 5.87537 116.018 4.7915C116.103 4.29214 116.072 3.7773 116.099 3.18118C116.459 3.13085 116.726 3.09214 117.051 3.04569V4.29601C117.345 4.84182 117.419 5.57343 117.187 6.35537C117.094 6.66505 117.102 7.0173 117.113 7.35021C117.16 8.4573 116.927 9.52956 116.78 10.6212C116.505 12.6883 115.824 14.6276 115.174 16.5863C114.763 17.8173 114.218 19.0212 113.985 20.2831C113.792 21.3283 113.091 22.1489 112.967 23.1941C112.948 23.3489 112.84 23.5038 112.751 23.6431C111.527 25.478 110.943 27.6225 109.898 29.5425C109.151 30.9167 108.585 32.3876 107.656 33.6689C107.231 34.2534 106.956 34.9463 106.588 35.5773C106.236 36.1812 105.841 36.7618 105.477 37.358C105.187 37.838 104.923 38.3334 104.625 38.8057C103.952 39.8741 103.267 40.9425 102.578 41.9992C102.074 42.7696 101.54 43.5205 101.045 44.2947C100.739 44.7709 100.542 45.336 100.174 45.7541C99.0706 47.0083 98.3815 48.545 97.2977 49.8225C96.4422 50.8289 95.8073 52.0251 95.1338 53.047L95.157 53.0625ZM94.4099 54.1192C94.2706 54.1696 94.2319 54.1696 94.2202 54.1889C93.3183 55.3773 92.5983 56.7167 91.3789 57.6457C91.228 57.7618 91.1312 57.9592 91.0228 58.1296C90.7132 58.6018 90.4383 59.1012 90.0977 59.5541C89.6602 60.1347 89.2306 60.7386 88.6964 61.2186C88.1002 61.7567 87.508 62.2792 87.1364 62.9992C86.8112 63.6341 86.2538 63.9786 85.8048 64.1838C84.7364 65.5851 83.9312 66.9786 82.5144 67.8457C82.3286 67.958 82.2009 68.1863 82.077 68.3799C81.5622 69.1696 80.9467 69.847 80.1919 70.4199C79.5648 70.896 78.9183 71.4031 78.6551 72.2934C79.2589 73.1489 79.8125 74.0702 80.4977 74.8754C81.1557 75.6457 81.6977 76.4586 82.0886 77.3876C82.166 77.5696 82.2435 77.8018 82.3906 77.8986C83.1261 78.3863 83.3041 79.2418 83.7725 79.8999C84.0822 80.3334 84.0473 81.0573 84.8486 81.1967C85.0925 81.007 85.4099 80.8134 85.6577 80.5541C86.188 80.0005 86.7067 79.4276 87.1867 78.8315C88.2125 77.558 89.2267 76.2728 89.9312 74.7786C90.357 73.8767 90.7325 72.9476 91.1931 72.0651C91.7312 71.0315 92.1609 69.9554 92.5402 68.8599C92.908 67.7954 93.2022 66.7038 93.5544 65.6315C93.8796 64.6483 94.1196 63.6573 94.1777 62.6122C94.2203 61.8573 94.4022 61.1063 94.5183 60.3554C94.6035 59.798 94.7274 59.2444 94.7583 58.6831C94.8009 57.9476 94.8164 57.2044 94.7583 56.4689C94.6964 55.687 94.5338 54.9128 94.4138 54.1115L94.4099 54.1192ZM37.1622 35.3296C37.8822 35.7554 38.3893 36.1773 38.9699 36.367C39.7131 36.607 40.348 36.998 41.0022 37.3928C41.8306 37.8883 42.6551 38.4263 43.5493 38.7554C44.7802 39.2083 46.0809 39.4676 47.1725 40.0831C47.7415 39.6728 48.2448 39.3089 48.7867 38.9141C48.8448 38.798 48.8951 38.585 49.0267 38.4496C49.7931 37.656 50.5015 36.7812 51.3725 36.1309C52.3596 35.3954 52.9712 34.3463 53.8731 33.5528C54.717 32.8134 55.4602 31.9618 56.2848 31.1954C56.9119 30.6109 57.6241 30.1192 58.2435 29.5231C59.8383 27.9863 61.4022 26.4147 63.0086 24.8276C62.0331 24.8276 61.0615 24.8044 60.0938 24.8354C59.1609 24.8625 58.2319 24.7889 57.2989 24.9941C56.7725 25.1102 56.1802 24.936 55.6189 24.8973C55.4564 24.8857 55.2938 24.9205 55.1312 24.8973C54.2835 24.7928 53.5247 25.1876 52.7157 25.296C51.7557 25.4238 50.8267 25.6405 49.948 26.0431C48.8331 26.5541 47.6099 26.8521 46.6306 27.6457C46.2667 27.9399 45.9299 28.3076 45.5118 28.4741C44.8964 28.7218 44.4164 29.0934 44.1338 29.4225C43.5841 29.7244 43.166 29.8792 42.8447 30.1502C42.0318 30.8354 41.2848 31.5941 40.468 32.2715C40.0809 32.5928 39.6744 32.8599 39.4189 33.3167C39.2912 33.5373 39.0396 33.6883 38.8383 33.8663C38.3428 34.3038 37.8396 34.7412 37.166 35.3296H37.1622Z" fill="#4D40CC"/>
<path d="M57.3495 76.8031C57.6399 76.9773 57.8334 77.0973 58.0076 77.2018C58.1779 78.2896 57.8102 79.6289 57.1908 81.7696C56.7418 83.3257 55.9366 84.607 55.0928 85.6212C54.3921 86.1322 53.9005 86.5347 53.3663 86.8638C52.8592 87.1773 52.3057 87.4134 51.7676 87.6805C50.9547 87.3786 50.1767 87.0922 49.3521 86.7864C49.2399 86.4225 49.0386 86.0741 49.0541 85.7373C49.0928 84.816 48.9186 83.9489 48.6437 83.0818C48.5044 82.6444 48.4425 82.1799 48.3302 81.6534C48.1366 81.6999 47.916 81.6922 47.7999 81.7967C47.1805 82.3502 46.5883 82.9309 45.9844 83.5038C45.9108 83.5696 45.8334 83.647 45.7405 83.6741C44.5637 84.0109 43.7857 85.0096 42.7095 85.5128C41.765 85.958 40.8283 86.4186 39.8876 86.8793C39.7096 86.9644 39.5392 87.0651 39.3689 87.1657C38.6295 87.6031 37.9057 88.0793 37.1431 88.4741C36.5315 88.7954 35.8579 88.9967 35.2347 89.2986C34.3444 89.7283 33.5082 90.2935 32.5908 90.638C31.3831 91.0909 30.2024 91.6599 28.867 91.718C28.2747 91.7451 27.6863 91.8767 27.0979 91.9618C26.8657 91.7412 26.6721 91.5631 26.405 91.3154C26.5095 90.4212 26.6063 89.4999 26.7263 88.5825C26.9005 87.2663 27.0902 85.9541 27.2682 84.6418C27.276 84.576 27.2489 84.4947 27.276 84.4405C28.0076 83.0857 27.605 81.3747 28.6192 80.1051C28.716 79.9851 28.7237 79.7915 28.7741 79.6328C28.9986 78.8973 29.3586 78.2276 29.6837 77.5347C30.3031 76.2186 31.1741 75.0767 31.9754 73.896C32.796 72.6883 33.7947 71.5967 34.716 70.4547C34.8553 70.2805 34.987 70.1025 35.2037 69.8199C33.3728 69.8083 31.6657 69.8315 29.9895 69.278C29.8966 68.9412 29.7999 68.5928 29.7031 68.2444C29.9586 67.598 30.1986 66.9515 30.4734 66.3128C30.6283 65.9489 30.7986 65.5812 31.0231 65.2599C31.5612 64.4973 32.1341 63.758 32.7031 63.0186C32.8037 62.8909 32.947 62.7902 33.0863 62.7012C34.3018 61.896 35.5095 61.0754 36.8721 60.5296C37.1044 60.4367 37.3831 60.456 37.6386 60.4173C37.925 60.3786 38.2308 60.3786 38.4979 60.2818C39.3534 59.9722 40.147 59.9954 40.9715 60.6689C40.2166 61.0947 39.5392 61.5205 38.827 61.8612C37.9831 62.2638 37.0889 62.558 36.2489 62.9605C35.4089 63.3631 33.7792 64.2534 33.1676 65.4109C32.9818 65.7593 32.6837 66.0457 32.3779 66.4405C32.2386 66.8044 32.0683 67.2651 31.8747 67.7722C32.4979 68.0122 33.0631 68.1244 33.6708 68.1399C34.2979 68.1515 34.925 68.2715 35.556 68.318C35.8889 68.3412 36.2411 68.3683 36.5586 68.2831C36.9495 68.1825 37.2012 68.3218 37.4721 68.5773C37.7354 69.4599 37.4489 70.1412 36.8141 70.8264C35.9392 71.7747 35.1844 72.8315 34.387 73.8496C33.7521 74.6625 33.1173 75.4754 32.5096 76.3038C31.6812 77.438 31.0579 78.6883 30.4192 79.9347C29.8231 81.096 29.4166 82.3038 29.0799 83.558C28.8902 84.2702 28.747 84.9709 28.6308 85.6986C28.4683 86.7089 28.116 87.6922 27.8644 88.6909C27.7096 89.2947 27.5857 89.9025 27.4115 90.6612C28.8089 90.1657 30.156 90.0147 31.3212 89.287C31.5418 89.1476 31.8244 89.1089 32.0644 88.9967C33.245 88.4664 34.3986 87.8857 35.5096 87.216C36.0786 86.8754 36.6786 86.5812 37.2824 86.3102C38.1611 85.9154 39.0554 85.5747 39.8141 84.9515C40.0076 84.7928 40.3057 84.7618 40.5573 84.6728C41.6683 84.278 42.6747 83.7012 43.5844 82.9502C43.7354 82.8263 43.9134 82.7296 44.0876 82.6405C44.9508 82.1915 45.6786 81.5993 46.3212 80.8599C46.7779 80.3373 47.3586 79.9231 47.9005 79.4509H49.0502C50.2889 80.1283 50.5018 81.3322 50.765 82.5089C50.8734 82.9889 50.9973 83.4651 51.0863 83.9489C51.125 84.1618 51.0863 84.3863 51.1057 84.6031C51.1173 84.7231 51.1831 84.8393 51.2566 85.0405C51.9805 84.5528 52.476 83.7863 53.3625 83.8018C53.7225 83.4573 54.0554 83.1399 54.3844 82.8147C54.4773 82.7218 54.5779 82.6173 54.6321 82.5012C54.9999 81.7192 55.356 80.9334 55.7121 80.1476C56.0954 79.3038 56.5328 78.487 56.7302 77.5618C56.7844 77.3063 57.0941 77.1051 57.3457 76.8109L57.3495 76.8031Z" fill="#4D40CC"/>
<path d="M70.836 40.4276L70.5031 36.6418L71.9624 33.2586L74.8811 31.2689L78.4656 29.5425L82.9134 30.8044L85.3676 33.2586L87.1598 37.9696L85.7663 41.7515L84.1714 43.5438L81.7173 44.9373L78.0011 45.7347L73.6889 44.3412L70.836 40.4276Z" fill="#FF5B00"/>
<path d="M88.6195 32.4612L89.5485 28.7451L92.866 27.6187L95.5214 28.9464L96.1834 31.6019L95.6531 33.6574L93.5976 34.6522L90.7408 34.5206L88.6195 32.4612Z" fill="#FF5B00"/>
<path d="M78.1635 46.5554C77.5403 46.4702 77.0293 46.4625 76.5571 46.327C75.7248 46.0947 74.8229 45.9283 74.1184 45.4715C73.2397 44.8986 72.0745 44.4922 71.939 43.2225C71.1106 42.4947 70.6345 41.5735 70.2668 40.6289C70.0345 40.0289 70.1429 39.3012 69.9648 38.6702C69.5119 37.0676 70.1545 35.6276 70.6809 34.2341C71.1339 33.0302 72.1093 32.0857 73.1545 31.2883C73.7893 30.8044 74.4435 30.3438 75.0977 29.8831C75.2564 29.7709 75.45 29.7051 75.628 29.6276C76.6616 29.1825 77.7687 28.8999 78.8564 28.7141C79.9829 28.5206 81.1519 28.5476 82.3016 29.0276C83.5171 29.5347 84.4693 30.3205 85.3519 31.2341C85.6229 31.5128 85.8861 31.8806 85.9635 32.2522C86.219 33.4251 86.8539 34.4509 87.1403 35.616C87.9068 38.7205 87.059 41.3644 85.0384 43.718C84.8487 43.9386 84.5816 44.1167 84.3184 44.2483C83.2887 44.767 82.2745 45.3399 81.2022 45.7425C80.2151 46.1141 79.1545 46.2999 78.1635 46.5554ZM84.9416 41.3915C86.1803 39.2664 85.89 37.1567 85.0422 35.1244C84.1519 32.9876 82.4758 31.656 79.9674 31.1257H77.4203C77.1919 31.2418 76.9597 31.3618 76.7197 31.4741C76.2126 31.7141 75.6938 31.9309 75.1984 32.1825C74.1068 32.7399 73.2977 33.6302 72.4848 34.5128C72.0706 34.9618 71.8422 35.5076 71.6293 36.0728C71.1919 37.238 71.4745 38.376 71.7106 39.5102C71.8113 39.9864 72.0281 40.447 72.2603 40.8767C72.8681 41.9915 73.7777 42.847 74.548 43.5631C75.0784 43.7567 75.4229 43.8689 75.7558 44.0122C76.1235 44.1709 76.4719 44.3838 76.8474 44.5231C77.9855 44.9335 79.1622 44.767 80.3235 44.6973C80.8771 44.6664 81.4384 44.5076 81.9687 44.3257C82.3287 44.198 82.7042 43.9889 82.9635 43.7102C83.6603 42.9593 84.2951 42.1541 84.9416 41.3838V41.3915Z" fill="#4D40CC"/>
<path d="M97.0231 32.7593C96.7638 33.0922 96.5005 33.4251 96.245 33.7619C96.1483 33.8896 96.0476 34.0251 95.9857 34.1722C95.618 35.0431 94.8747 35.376 94.0192 35.496C93.5934 35.558 93.1483 35.4961 92.7147 35.5154C92.3857 35.527 92.0605 35.5773 91.627 35.6238C90.7483 35.4109 89.8889 34.9735 89.1341 34.2612C88.6038 33.758 88.1779 33.2354 88.0425 32.5309C87.7909 31.207 87.6902 29.8715 88.507 28.687C89.0992 27.8315 90.0515 27.4522 90.9689 27.0651C91.4528 26.8599 91.9909 26.7825 92.6876 26.5967C93.365 26.8754 94.1896 27.2006 95.0025 27.5567C95.6141 27.8277 96.0089 28.3038 96.1792 28.9657C96.2373 29.1864 96.3225 29.3993 96.4231 29.6006C96.6709 30.0844 96.7947 30.5838 96.7947 31.1335C96.7947 31.6251 96.8605 32.1206 96.8954 32.6122C96.9379 32.6625 96.9805 32.7128 97.0231 32.7631V32.7593ZM94.6309 29.438C93.636 28.5902 92.2928 28.6599 91.356 28.8225C90.7405 28.9696 89.8347 29.7012 89.8076 30.576C89.6721 32.0199 90.0709 33.0612 91.5922 33.7619C92.1457 33.909 93.0283 33.7077 93.3302 33.6186C93.9302 33.6148 94.747 32.6741 95.1302 32.0935C95.3044 31.567 95.4825 30.2509 94.6347 29.4341L94.6309 29.438Z" fill="#4D40CC"/>
<path d="M72.3376 84.5257C72.3376 84.2586 72.4499 84.3709 72.5428 84.5373C72.6125 84.6535 72.6705 84.8006 72.7364 84.9361L72.9144 85.1761L72.8293 85.4586C72.9028 86.1477 72.9144 86.2367 72.9957 86.1361C73.0615 86.0509 73.1389 85.8264 73.1931 86.1128C73.4022 87.2857 73.8241 88.0057 73.8976 89.229L73.646 88.8574L73.6112 88.7606L73.6383 88.8883C73.7041 89.2328 73.7389 89.7825 73.9092 89.2793C74.0834 89.2096 74.1764 89.4767 74.1918 90.0303C74.2538 90.2122 74.2422 90.3864 74.1841 90.5528C74.1764 90.8045 74.188 91.029 74.1841 91.3154C74.1841 91.4548 74.1841 91.6057 74.1725 91.7606L74.1647 91.8806L74.1493 92.0548C74.1377 92.167 74.1221 92.2754 74.1028 92.3877C73.9634 93.2703 73.5454 94.1064 72.8718 94.6328C72.6976 94.7451 72.5312 94.8612 72.3531 94.958C72.1673 95.0393 71.9815 95.1206 71.7841 95.1554C71.6176 95.2019 71.1609 95.3645 70.8667 95.4032C70.3712 95.4961 69.8409 95.4844 69.3222 95.3761C69.1944 95.3528 69.0551 95.318 68.9583 95.2909C68.8654 95.2677 68.7725 95.2406 68.6912 95.2135C68.517 95.1593 68.3583 95.1012 68.2073 95.0393C67.9054 94.9193 67.6267 94.7877 67.3828 94.6599C67.1389 94.5399 66.8989 94.4006 66.7325 94.3232C65.7183 93.7503 64.3248 93.7928 63.117 94.2457C62.8422 94.3348 62.6331 94.4432 62.4744 94.4509C62.3273 94.4741 62.246 94.4238 62.2615 94.238C62.2731 94.1141 62.1918 94.0212 61.8589 94.2573C61.7157 94.3464 61.3673 94.5438 61.6034 94.6135C61.8125 94.6909 61.557 94.9928 61.3131 95.1864C60.7209 95.6122 60.3222 96.2045 60.0318 96.8083C59.8731 97.1219 59.7802 97.3348 59.6718 97.4199C59.5635 97.509 59.4435 97.4819 59.2886 97.3735C59.2189 97.327 59.1376 97.3154 59.0138 97.269C58.9247 98.0354 58.9518 98.7361 58.9828 99.4599C59.0099 99.2238 59.0525 98.9916 59.0757 98.767C59.1028 98.5038 59.068 98.1748 59.2189 98.0354C59.3157 97.9425 59.4396 98.0122 59.4976 98.1361C59.5789 98.3141 59.5402 98.6625 59.4473 99.007C59.3351 99.4174 59.1802 99.5722 59.0215 99.6574C59.1222 100.459 59.1144 101.314 58.8899 102.475C58.7351 103.203 58.5647 103.923 58.1854 104.74C57.8176 105.51 57.3299 106.188 56.7454 106.788C56.157 107.384 55.4641 107.906 54.6086 108.27C53.7725 108.642 52.6731 108.797 51.6241 108.499C50.8189 108.259 50.4512 107.957 50.3041 107.763C50.157 107.558 50.2151 107.426 50.3622 107.241C50.3931 107.256 50.428 107.268 50.4628 107.279C50.4202 107.26 50.3815 107.237 50.3428 107.217C49.9209 106.788 49.6305 106.068 49.5028 106.474C49.4602 106.633 49.3518 106.656 49.197 106.536C49.046 106.42 48.8602 106.161 48.7054 105.804C48.4344 105.177 48.1944 104.666 47.9273 104.272C47.7841 104.09 47.6602 103.896 47.5054 103.726C47.3428 103.563 47.2112 103.377 47.0331 103.223C46.6305 102.785 46.0654 102.572 45.868 102.077C45.7983 101.926 45.5622 101.86 45.3918 101.81C44.3273 101.523 43.3054 101.136 42.1828 100.857C42.0009 100.811 41.8267 100.788 41.6525 100.764C41.4744 100.741 41.2964 100.749 41.0989 100.784C40.5957 100.861 40.0615 100.943 39.5312 101.024C39.268 101.063 39.0125 101.124 38.7609 101.163C38.5054 101.229 38.2538 101.275 38.0177 101.345C37.3673 101.519 36.7364 101.783 36.1247 102.088C35.5131 102.402 34.9286 102.781 34.3596 103.184C33.7944 103.594 33.2564 104.047 32.726 104.512C32.2035 104.984 31.6925 105.475 31.1854 105.975C30.0822 107.066 29.4009 108.561 28.2783 109.668C27.5583 111.162 26.3815 112.513 25.3325 113.98C25.1196 114.278 24.8447 114.661 24.5389 114.975C24.2254 115.288 23.8809 115.528 23.5712 115.532C23.2847 115.54 22.9712 116.035 22.886 116.167C22.3247 117.115 21.1054 117.897 19.7777 118.412C19.2473 118.625 19.0577 118.555 18.9996 118.439C19.3944 118.277 19.7583 118.064 19.5106 117.994C19.4641 117.983 19.1467 118.075 18.9996 118.133C18.2989 118.432 18.9802 118.343 18.9764 118.447C18.357 118.757 17.5325 118.912 16.8744 119.097C16.2396 119.264 16.0073 118.869 15.5622 118.973C15.2912 119.02 15.0009 119.024 14.6989 119.001C14.5441 118.997 14.3931 118.962 14.2383 118.919C14.0835 118.877 13.9248 118.834 13.7622 118.792C13.6538 118.761 13.5493 118.73 13.4293 118.695C13.3131 118.648 13.1854 118.59 13.0306 118.524C12.9454 118.211 13.5067 118.219 13.5725 117.99H13.6693L13.5531 117.975C13.2164 117.777 13.1583 117.549 12.7325 117.402C12.117 117.135 12.7093 117.611 12.6899 117.712C12.6318 117.99 11.668 117.479 11.5712 117.696C10.6422 116.949 11.2693 117.05 10.9596 116.67C10.8783 116.624 10.8125 116.562 10.7428 116.504L10.8744 116.527C10.7931 116.426 10.6422 116.241 10.6422 116.241C10.0499 116.198 9.42669 115.679 8.91959 114.963C8.79572 114.785 8.66797 114.595 8.54797 114.402C8.44346 114.201 8.33894 113.992 8.23443 113.786C8.00991 113.38 7.86669 112.943 7.68088 112.544C7.84733 112.199 8.27701 113.194 8.45507 113.109C8.5054 113.086 8.5712 113.001 8.5441 112.908C8.45894 112.633 8.39701 112.722 8.33895 112.706C8.18024 112.664 8.08346 112.397 8.01765 112.11C7.95572 111.824 7.89378 111.53 7.72346 111.425C7.50668 111.297 7.2783 111.193 7.05379 110.5C7.04217 110.217 7.16217 110.299 7.25895 110.314C7.35959 110.33 7.41378 110.283 7.35572 109.761C7.44475 109.695 7.50669 109.555 7.53766 109.304C7.60346 109.044 7.58797 108.781 7.47958 108.514C7.39442 107.775 7.43314 107.771 7.16991 107.647C7.25507 107.995 7.36732 108.27 7.46797 108.541C7.48345 108.781 7.46797 109.025 7.50668 109.265L7.33636 109.726C7.20862 109.803 7.02668 109.66 6.96475 109.261C6.8641 108.282 6.63185 107.43 6.78281 106.428L6.87185 105.839C6.90669 105.65 6.95314 105.468 6.98797 105.282L7.10797 104.728L7.2512 104.183C7.34023 103.815 7.45249 103.463 7.56474 103.106C7.66926 102.746 7.80475 102.402 7.93249 102.053C8.06023 101.686 8.16088 101.543 8.3312 101.496C8.58281 101.43 8.66024 101.291 8.67572 100.977C8.7183 100.447 8.82281 99.9399 9.37249 99.429C9.53507 99.278 9.53508 99.1773 9.57766 99.038C9.98024 97.749 11.0099 96.6806 11.7647 95.5735C11.8422 95.4651 12.0009 95.3761 12.1209 95.2793C12.2757 95.1554 12.2138 95.4806 12.4499 95.1361C12.4925 95.0703 12.2951 95.1206 12.1364 95.2444C12.1906 95.109 12.2177 94.9503 12.3028 94.8341C13.6654 93.0186 15.0473 91.2651 16.348 89.589C17.4396 88.1761 18.3957 86.7399 19.0267 85.1761C19.0886 85.029 19.1505 84.8703 19.2125 84.7193C19.2705 84.5644 19.3325 84.4135 19.3983 84.2819C19.5338 84.0186 19.6925 83.8212 19.8977 83.798L19.9093 83.8754L19.917 83.7748C19.9944 83.5541 20.0254 83.349 20.0719 83.1361C20.1106 82.9193 20.1686 82.6948 20.3157 82.4277C20.4357 82.207 20.4899 81.9322 20.5402 81.6457C20.5867 81.3593 20.5789 81.0574 20.5905 80.7864C20.6022 80.5851 20.5828 80.3799 20.5905 80.1709C20.5944 79.9619 20.6022 79.7528 20.5905 79.5477C20.5828 79.0444 20.5712 78.8006 20.6138 78.6728C20.6602 78.5451 20.7802 78.5296 21.0086 78.5064C21.148 78.7812 21.1209 79.4277 21.3957 79.3967C21.2912 78.9477 21.1828 78.607 21.0202 78.4638C20.8538 78.1154 20.7222 77.6935 20.5789 77.287C20.4357 76.8806 20.2847 76.4896 20.1144 76.1799C19.8512 75.7115 19.4564 75.3167 19.0228 74.9799C18.5815 74.6432 18.0783 74.3373 17.548 73.9503C16.7389 73.6096 15.8215 73.3541 14.8538 73.1219C13.9093 73.0173 12.9725 72.6419 12.0357 72.3554C11.2189 72.0999 11.6331 71.8715 11.9467 71.7399L12.0241 71.7283L11.9157 71.7167C11.6293 71.6857 11.3273 71.6315 11.2112 71.7167C11.0718 71.8174 10.9364 71.9335 10.6925 71.9219C10.4525 71.9141 10.1041 71.798 9.57379 71.4109C9.50024 71.3567 9.30281 71.2677 9.22152 71.2483C8.35055 71.0625 7.46023 70.5632 6.68604 69.8664C5.90797 69.1696 5.28088 68.3141 4.71184 67.5244C4.63829 67.4199 4.5454 67.269 4.49894 67.1412C4.43314 66.9748 4.36733 66.7851 4.3054 66.5954C4.24733 66.4019 4.20088 66.2044 4.14669 66.0186C4.04991 65.6509 3.99185 65.3335 3.91056 65.2019C3.53508 64.5206 3.52733 63.7038 3.38023 63.0496C3.2641 62.5077 3.29894 61.9696 3.357 61.447C3.40733 60.9206 3.48863 60.4057 3.4383 59.8522C3.41508 59.6161 3.57765 59.4612 3.66281 59.4419C3.77507 59.4109 3.84862 59.5541 3.90669 59.7593C3.97249 59.9606 4.04991 60.2277 4.14669 59.7128C4.20475 59.4535 4.17378 59.1941 4.06926 59.047C3.8912 58.7915 3.79443 58.4973 3.80991 58.0715C3.8254 57.6457 3.93765 57.0844 4.25507 56.3141C4.56475 55.5632 4.95571 54.8277 5.44732 54.1309C5.93894 53.4419 6.54281 52.7799 7.23185 52.2496C7.43701 52.0677 7.65765 51.9632 7.84345 51.8586C8.03313 51.7541 8.21506 51.6844 8.39313 51.6341C8.57119 51.5799 8.73765 51.5296 8.91185 51.487C9.08604 51.4522 9.26411 51.4135 9.45379 51.3593L9.57379 51.3361H9.48862C9.31442 51.2277 9.46153 51.0109 10.0344 50.8096C10.4564 50.6509 10.6344 50.7399 10.6344 50.8522L10.5686 50.9064L10.6654 50.8522C10.9983 50.8019 11.0099 50.8909 11.0409 50.9722C11.0718 51.0535 11.126 51.1154 11.5286 51.0612C11.5518 51.0961 11.5518 51.1309 11.5402 51.1696L11.4589 51.2161L11.5828 51.1696C11.6138 51.1503 11.6757 51.127 11.668 51.1154C11.6525 51.0883 11.6022 51.069 11.5673 51.0419C11.5557 51.0032 11.4976 50.9644 11.5402 50.9219C11.8189 50.6509 11.997 50.5232 12.2525 50.5038C12.508 50.4767 12.8409 50.5696 13.4177 50.7786C13.2783 50.3528 14.126 50.1554 15.0047 50.3103C15.8641 50.4573 16.7931 50.5115 17.6796 50.5967C18.5738 50.6896 19.3789 50.7864 20.0641 51.0651C21.8293 51.1502 23.5209 51.3399 25.2512 51.278C27.3377 51.2083 29.4163 50.9683 31.4254 50.349C32.846 49.9115 34.228 49.3541 35.5054 48.6535C36.7906 47.9606 37.9867 47.1554 39.1402 46.2883C39.1286 46.5515 38.9854 46.8612 38.7609 47.1941C38.5518 47.5386 38.2151 47.8599 37.8628 48.1812C36.4886 49.4122 34.9248 50.4612 33.1635 51.0883C32.9235 51.1696 32.6641 51.2857 32.4551 51.3748C31.1893 52.0096 29.788 52.4006 28.3712 52.6561C26.9506 52.8999 25.5067 52.9735 24.0938 53.0044C22.4138 53.0277 20.7377 52.958 19.077 52.8264C17.4125 52.6948 15.7983 52.5167 14.2035 52.5322C13.1351 52.5438 12.0822 52.629 11.0835 52.869C10.0809 53.1012 9.15573 53.5348 8.38927 54.1657C7.61508 54.7851 7.03443 55.6328 6.62024 56.5696C6.20605 57.5103 5.9583 58.5361 5.83056 59.5735C5.64862 61.0483 5.62152 62.5541 5.91958 63.9786C6.20991 65.3954 6.86797 66.7386 7.917 67.6135C8.277 67.9232 8.66797 68.2561 9.09764 68.5309C10.6847 69.5296 12.6706 69.967 14.6718 70.4354C15.6783 70.6715 16.708 70.9115 17.7415 71.2715C18.7712 71.6238 19.8202 72.1154 20.7493 72.8586C21.1983 73.2264 21.6009 73.6638 21.9377 74.1438C22.6112 75.0961 22.9944 76.2109 23.1725 77.2909C23.3583 78.3786 23.3506 79.4432 23.2615 80.4961C23.2306 81.0264 23.1299 81.5451 23.0486 82.0638C22.9364 82.5748 22.828 83.0935 22.6693 83.5928C22.3751 84.5954 21.9996 85.5709 21.5544 86.4999C20.5751 88.5786 19.2744 90.4444 17.9583 92.2367C16.0693 94.7877 14.0951 97.1644 12.5235 99.7154C11.6448 101.163 10.8628 102.653 10.3712 104.206C10.1157 104.972 9.93379 105.777 9.83701 106.548L9.77894 107.117V107.693L9.77506 107.98L9.80216 108.27L9.85249 108.847C9.9841 109.703 10.1777 110.554 10.468 111.375C10.7777 112.188 11.1841 112.954 11.6912 113.616C12.1751 114.232 12.7248 114.762 13.3209 115.192C13.9248 115.613 14.606 115.857 15.2912 115.95C15.5234 115.95 15.748 116.001 15.9841 116.004C16.1041 116.004 16.2202 116.012 16.3402 116.008L16.6964 115.993C17.9428 115.9 19.2009 115.331 20.3118 114.503C21.4383 113.674 22.3673 112.606 23.2693 111.39C24.748 109.404 26.0602 107.043 27.8138 104.755C28.9673 103.246 30.3222 101.852 31.8822 100.652C33.4344 99.4483 35.2306 98.469 37.1815 97.838C37.5415 97.7296 37.8976 97.6174 38.2809 97.5399C38.4706 97.5012 38.6602 97.4509 38.8499 97.4199L39.4228 97.3348C39.8022 97.269 40.1893 97.2651 40.5725 97.2303C40.9557 97.2264 41.3389 97.2148 41.7222 97.238C43.2512 97.3232 44.7802 97.6445 46.2125 98.2832C47.637 98.9296 49.0035 99.847 50.0525 101.117L50.4396 101.597C50.5673 101.759 50.6718 101.937 50.788 102.108C51.0241 102.452 51.2177 102.808 51.3764 103.118C51.6977 103.745 51.9493 104.264 52.1777 104.585C52.4293 104.949 52.5957 105.003 52.7196 105.038C52.828 105.073 53.0292 105.046 53.3467 104.895C53.6563 104.748 54.0164 104.461 54.3106 104.113C54.6125 103.768 54.8602 103.366 55.0189 102.99C55.0499 102.932 55.0809 102.835 55.1118 102.739C55.1428 102.646 55.1777 102.549 55.2009 102.448C55.2589 102.251 55.3054 102.038 55.3557 101.825C55.4447 101.388 55.5144 100.919 55.5802 100.424C55.7118 99.4367 55.8241 98.3219 56.1183 97.1373C56.2731 96.5412 56.4705 95.9335 56.7647 95.3296C56.9196 95.0277 57.0667 94.718 57.2602 94.4432L57.5389 94.0251C57.6396 93.8935 57.748 93.7657 57.8525 93.638C58.708 92.6199 59.7686 91.8225 60.9338 91.3115C61.9402 90.8625 63.0241 90.5606 64.1467 90.4561C65.2693 90.3515 66.4344 90.4561 67.5377 90.8083C67.7776 90.8935 68.0486 90.9864 68.2576 91.0793C68.4628 91.1722 68.6563 91.2612 68.8344 91.3464C69.1905 91.5167 69.5118 91.6715 69.7906 91.7799C69.8254 91.7954 69.8602 91.807 69.8912 91.8186C69.926 91.8303 69.957 91.8419 69.9648 91.8457L70.0305 91.8767C70.0731 91.8922 70.1196 91.9077 70.1699 91.9154C70.2667 91.9309 70.3789 91.9115 70.4602 91.8457C70.4951 91.8186 70.526 91.7877 70.5492 91.749C70.5802 91.6986 70.6073 91.6406 70.6267 91.5825C70.6383 91.5516 70.646 91.5244 70.6538 91.4935C70.6538 91.4819 70.6538 91.4935 70.6576 91.4703L70.6654 91.4083L70.6809 91.2767C70.7041 91.1025 70.7157 90.8857 70.7312 90.6651L70.766 90.0109C70.8047 89.1361 70.8047 88.2574 70.7583 87.3786C70.7273 86.7399 70.5183 85.8496 70.9325 85.9115C70.9325 85.6483 70.9131 85.3309 71.068 85.4625C71.1376 85.5206 71.1957 85.7141 71.1996 85.8961C71.2034 86.198 71.0951 86.0896 71.0215 86.1167C71.0641 87.3438 71.0912 87.5877 71.4976 87.9206C71.788 88.1606 72.0821 88.1103 72.3609 88.5438L72.3957 88.6057L72.3686 88.5051C72.4422 87.9515 72.4189 87.2586 72.4267 86.6586C72.4344 86.0586 72.4809 85.5515 72.7325 85.3464C72.7247 85.2612 72.7131 85.1761 72.6938 85.0909C72.6318 85.0793 72.5738 85.0909 72.508 85.0522C72.4112 84.9941 72.3144 84.8083 72.3144 84.549L72.3376 84.5257ZM22.917 51.7077L23.0331 51.6961L22.9364 51.6767L22.917 51.7038V51.7077ZM18.0822 51.3012L18.1906 51.3244V51.2973H18.0822V51.3012ZM16.6422 50.8096H16.766L16.6654 50.7825L16.6422 50.8096ZM14.7415 50.7477C14.7493 50.7864 14.7454 50.829 14.7338 50.8677L14.6331 50.8948L14.7531 50.8754C14.7841 50.8599 14.8499 50.8483 14.846 50.8328C14.8383 50.8019 14.7996 50.7709 14.7725 50.7399L14.6525 50.709L14.7415 50.7477ZM11.0254 52.3115C11.0951 52.3115 11.2228 52.2728 11.3235 52.2535C11.2305 52.2264 11.1531 52.1877 11.037 52.1761C10.9828 52.1683 10.8473 52.207 10.766 52.2225C10.7041 52.3193 10.8899 52.3115 11.0254 52.3115ZM8.49765 52.0561L8.59442 52.0135L8.54797 51.9941L8.49377 52.0599L8.49765 52.0561ZM6.19056 54.0457C6.1983 54.069 6.27959 54.007 6.32992 53.9838C6.34927 53.9141 6.37636 53.8328 6.3841 53.7748C6.39185 53.6935 6.33765 53.7283 6.23701 53.8522C6.21765 53.9219 6.17895 54.0109 6.19443 54.0457H6.19056ZM4.86668 56.8057C4.88991 56.7632 4.92088 56.7283 4.9441 56.6819C5.01765 56.5232 5.02926 56.4419 4.97894 56.4806C4.96346 56.4922 4.93249 56.5812 4.90539 56.6354L4.86282 56.8057H4.86668ZM5.78797 57.1812C5.8112 57.1464 5.8383 57.1154 5.86152 57.069C5.92733 56.9257 5.93894 56.8483 5.88862 56.8832C5.87314 56.8948 5.84216 56.9761 5.82281 57.0264L5.79185 57.1812H5.78797ZM3.96862 63.4135V63.3167L3.92604 63.3477L3.96862 63.4135ZM4.49507 65.4264L4.52604 65.3915L4.47572 65.3373L4.49507 65.4264ZM5.55959 67.6328C5.55959 67.598 5.43959 67.4044 5.40475 67.358C5.34281 67.2922 5.28088 67.2767 5.24604 67.2844C5.19572 67.2961 5.23055 67.3967 5.31571 67.5206C5.44346 67.6561 5.56346 67.7567 5.55959 67.6328ZM9.62024 70.7644C8.85766 70.3851 8.35056 70.2573 7.83959 69.9477L7.75443 69.8586L7.80475 69.9361C8.33121 70.4083 8.91186 70.7296 9.62411 70.7644H9.62024ZM13.5802 72.0999C13.6306 72.0341 13.5415 71.9567 13.3325 71.9219C13.0267 71.8715 12.8215 71.8986 12.7828 72.0032C12.7596 72.0573 12.8138 72.1464 13.0306 72.1851C13.348 72.2393 13.4215 72.1386 13.5802 72.0999ZM17.8073 73.3425L17.7415 73.3038V73.3464L17.8073 73.3386V73.3425ZM18.8293 74.0548C18.7015 73.9503 18.5893 73.9696 18.5815 74.047L18.566 74.1786C18.5041 74.1825 18.326 74.0161 18.3376 74.1283L18.5777 74.1941C18.6512 74.1941 18.7325 74.2212 18.7828 74.2135C18.8602 74.2019 18.9531 74.1632 18.8254 74.0548H18.8293ZM19.9673 74.6161C19.7506 74.5503 19.6035 74.5812 19.6306 74.798C19.9557 74.9644 20.0486 74.8948 19.9673 74.6161ZM21.0705 77.5774L21.0357 77.4961L20.9931 77.4496L21.028 77.5309L21.0705 77.5812V77.5774ZM21.6396 78.2044L21.6009 78.1154L21.5622 78.038L21.5931 78.1425L21.6396 78.2044ZM22.406 82.7644C22.406 82.7644 22.3867 82.869 22.3712 82.9232C22.3789 82.9503 22.3828 82.9967 22.3983 82.9967C22.406 82.9967 22.4525 82.9193 22.4564 82.8844C22.4796 82.7335 22.4564 82.687 22.4022 82.7644H22.406ZM20.7725 82.7528C20.8151 82.718 20.877 82.6986 20.8964 82.6444C20.9544 82.4974 20.9776 82.3348 21.0047 82.2032C20.9622 82.1141 20.9196 82.1451 20.8886 82.2806C20.8538 82.4393 20.8151 82.5941 20.7725 82.7528ZM20.157 84.1193L20.2035 84.1077L20.188 84.0457L20.157 84.1193ZM18.6822 87.189L18.7247 87.0883L18.6589 87.1735L18.6822 87.189ZM19.1351 89.6664L19.0615 89.7515L19.0848 89.7709L19.1389 89.6664H19.1351ZM17.277 89.3606C17.6757 89.2057 17.8964 88.8883 17.9583 88.4161L17.9893 88.3193L17.9389 88.4315C17.7841 88.7915 17.4512 88.9812 17.277 89.3606ZM14.7957 92.5696L14.8615 92.4728L14.7802 92.5464L14.7957 92.5735V92.5696ZM11.9273 96.7774C11.9273 96.7774 12.0048 96.6922 12.0164 96.6651C12.0706 96.5373 12.0435 96.518 11.9544 96.6148C11.9312 96.6419 11.908 96.7038 11.8847 96.7503C11.9002 96.7619 11.9041 96.7928 11.9273 96.7774ZM11.1299 97.687L11.1764 97.6174L11.1222 97.629V97.687H11.1299ZM9.45764 100.586C9.64345 100.226 9.78282 100.033 9.88734 99.8238C10.0306 99.5451 10.2164 99.2045 9.98024 99.309C9.83314 99.3748 9.71314 99.6264 9.64734 99.8586C9.58927 100.056 9.53506 100.246 9.45764 100.586ZM8.42797 102.715L8.44732 102.607C8.43571 102.533 8.58669 102.282 8.48605 102.309L8.4241 102.634V102.715H8.42797ZM7.98282 104.101C8.00604 104.047 8.03314 103.997 8.04863 103.943C8.10669 103.753 8.09895 103.71 8.0254 103.834C8.00218 103.873 7.97894 103.954 7.9712 104.008C7.96346 104.043 7.97894 104.07 7.98282 104.097V104.101ZM7.48733 104.573C7.50282 104.515 7.50669 104.457 7.51443 104.399C7.49508 104.434 7.47185 104.465 7.45249 104.496C7.43701 104.558 7.40604 104.639 7.40217 104.678C7.40217 104.802 7.43313 104.759 7.48346 104.573H7.48733ZM8.80347 110.144C8.86928 110.124 8.88087 110.02 8.85765 109.834C8.85765 109.803 8.81895 109.741 8.80347 109.733C8.74153 109.706 8.68346 109.737 8.69895 109.939C8.70669 109.997 8.76861 110.074 8.80732 110.144H8.80347ZM9.66669 110.353C9.75959 110.353 9.77895 110.233 9.72089 110.063C9.67831 109.939 9.59313 109.795 9.53894 109.768C9.46926 109.726 9.4383 109.877 9.49637 110.051C9.53895 110.179 9.61637 110.272 9.66669 110.353ZM10.0499 112.3L10.0344 112.203H9.99959L10.0538 112.3H10.0499ZM9.06282 114.112L9.07829 114.038C9.04733 113.992 9.00862 113.922 8.98152 113.899C8.88862 113.813 8.88476 113.86 8.96992 114.023C8.98927 114.061 9.02798 114.084 9.06282 114.115V114.112ZM15.2873 118.052C15.3377 118.013 15.2564 117.975 15.1325 117.979C15.0512 117.979 14.997 118.017 14.9699 118.048C14.9312 118.095 14.997 118.122 15.1131 118.126C15.1751 118.103 15.2486 118.083 15.2873 118.052ZM15.9144 117.518L15.868 117.464C15.8177 117.468 15.7519 117.472 15.717 117.475C15.6048 117.499 15.6357 117.537 15.7983 117.549C15.837 117.549 15.8757 117.53 15.9106 117.518H15.9144ZM16.8706 117.406C16.8318 117.413 16.797 117.417 16.7583 117.421C16.7893 117.425 16.8241 117.433 16.8551 117.433L16.8706 117.402V117.406ZM19.0344 116.701C18.9996 116.666 18.8525 116.709 18.7789 116.771C18.6164 116.906 18.6047 117.003 18.7789 117.05C18.9918 116.914 19.108 116.779 19.0306 116.701H19.0344ZM20.9428 117.402L20.8538 117.479L20.7918 117.553L20.8847 117.475L20.9389 117.406L20.9428 117.402ZM21.8873 116.411C21.8873 116.411 21.8215 116.411 21.8022 116.426C21.7596 116.457 21.7247 116.5 21.686 116.535C21.686 116.55 21.6783 116.593 21.6977 116.585C21.8215 116.539 21.8951 116.469 21.8873 116.411ZM21.4925 115.381C21.3841 115.428 21.3222 115.49 21.326 115.548C21.326 115.559 21.388 115.548 21.4035 115.536C21.4422 115.505 21.4693 115.466 21.5041 115.432C21.5041 115.412 21.508 115.373 21.4925 115.381ZM24.4035 114.441C24.1867 114.448 23.8615 114.739 23.5325 114.998C23.4125 115.056 23.2964 115.095 23.1686 115.18C23.0602 115.25 23.0099 115.346 23.1106 115.304C23.2228 115.253 23.3738 115.137 23.5093 115.048C23.8306 114.785 23.9351 115.103 24.4035 114.441ZM23.9931 113.69C23.9931 113.69 23.9622 113.666 23.9351 113.682C23.8267 113.736 23.7725 113.806 23.8035 113.852C23.8112 113.864 23.8615 113.837 23.8964 113.81C23.9273 113.783 23.9622 113.728 23.9931 113.686V113.69ZM22.9635 112.66L22.9286 112.753C22.7699 112.923 22.6112 113.097 22.4525 113.26L22.3751 113.31L22.437 113.295C22.6577 113.179 22.8435 113.004 22.9364 112.753L22.9635 112.664V112.66ZM25.3209 112.846C25.2318 112.919 25.1312 112.977 25.0925 113.035C24.9376 113.272 24.9106 113.411 24.9764 113.477C25.0151 113.519 25.0925 113.465 25.1351 113.361C25.2086 113.186 25.2628 113.016 25.3248 112.846H25.3209ZM27.4693 109.652L27.4344 109.745L27.4228 109.823L27.4654 109.722L27.4731 109.648L27.4693 109.652ZM28.5222 108.112L28.4951 108.204C28.4448 108.344 28.3828 108.491 28.3519 108.619C28.3248 108.727 28.2667 108.909 28.4486 108.715C28.4757 108.688 28.5222 108.53 28.5299 108.464C28.5376 108.359 28.5222 108.278 28.5144 108.189V108.115L28.5222 108.112ZM29.366 106.997C29.366 106.935 29.2848 106.993 29.2189 107.109C29.1725 107.19 29.157 107.264 29.1338 107.341C29.1609 107.38 29.2228 107.341 29.2886 107.225C29.3351 107.144 29.366 107.051 29.366 107.001V106.997ZM34.1815 101.206C34.2202 101.171 34.286 101.124 34.286 101.105C34.2976 101.043 34.2241 101.051 34.1002 101.132C34.0577 101.159 33.9957 101.213 33.9918 101.229C33.9802 101.291 34.0499 101.279 34.1777 101.206H34.1815ZM34.9712 101.326C34.7583 101.647 34.4873 101.941 34.6228 102.092C35.4976 101.512 35.5247 101.539 34.9712 101.326ZM37.557 100.741C37.3944 100.753 37.2473 100.819 37.1738 100.904C37.0925 101.008 37.2241 100.997 37.3557 100.993C37.5028 100.985 37.646 100.935 37.739 100.842C37.7699 100.764 37.7002 100.733 37.557 100.745V100.741ZM42.326 100.377C42.326 100.331 42.2602 100.3 42.1325 100.3C41.9854 100.312 41.8422 100.327 41.7144 100.354C41.6138 100.373 41.6564 100.408 41.8035 100.424C42.028 100.443 42.206 100.432 42.3222 100.377H42.326ZM45.9802 101.643C46.0151 101.55 45.9609 101.492 45.8409 101.45C45.7015 101.399 45.5119 101.318 45.4538 101.337C45.3531 101.372 45.5041 101.481 45.6589 101.546C45.7944 101.601 45.9222 101.628 45.9802 101.643ZM48.7867 104.844C48.8215 104.744 48.9106 104.659 48.8099 104.388C48.7093 104.113 48.5893 104.097 48.5118 104.124C48.4112 104.159 48.3647 104.26 48.5196 104.581C48.6009 104.752 48.6938 104.856 48.7867 104.841V104.844ZM55.2125 107.717L55.077 107.806L55.2048 107.759L55.2125 107.717ZM55.286 107.256C55.1931 107.341 55.0925 107.423 54.9918 107.504L54.9415 107.577L55.0306 107.496C55.0964 107.423 55.406 107.295 55.286 107.256ZM56.4822 106.397L56.4009 106.501L56.5015 106.42L56.4822 106.397ZM55.4525 104.465C55.4602 104.395 55.6383 104.233 55.526 104.229L55.437 104.473L55.4215 104.554L55.4525 104.465ZM57.1441 104.964C57.1015 105.007 56.9699 105.255 56.9699 105.266C57.0357 105.475 57.2447 105.51 57.7364 104.926C57.5505 104.852 57.5157 104.604 57.1441 104.964ZM58.3673 100.207C58.166 100.935 58.1893 101.693 57.9454 102.832C58.4176 101.728 58.3209 100.943 58.3673 100.207ZM57.6473 98.3722C57.5931 98.4341 57.5699 98.5464 57.5854 98.6509C57.5893 98.6857 57.6163 98.7128 57.6318 98.6935C57.686 98.6315 57.7015 98.527 57.6938 98.4148C57.6783 98.3993 57.6628 98.3528 57.6473 98.3722ZM59.8151 95.6432L59.6176 95.8793C59.3583 96.1115 59.3196 96.3012 59.3157 96.4212C59.3157 96.5451 59.3815 96.6225 59.4047 96.7077C59.4783 96.9322 59.6254 96.9554 59.9738 96.4251C59.8576 96.398 59.7377 96.3903 59.6564 96.3283C59.5751 96.2664 59.5286 96.1425 59.6176 95.887C59.6873 95.8096 59.7841 95.8328 59.8151 95.6432ZM60.5544 94.9077C60.5351 94.9077 60.508 94.8999 60.4925 94.9115C60.4615 94.9386 60.4228 94.989 60.4151 95.0161C60.388 95.1051 60.4305 95.1012 60.5118 95.0045C60.5351 94.9774 60.5389 94.9425 60.5544 94.9077ZM65.5867 92.1864C65.5867 92.1864 65.6331 92.2251 65.6718 92.2367C65.7105 92.2483 65.7725 92.2444 65.8228 92.2483C65.8151 92.2328 65.8228 92.2135 65.7957 92.198C65.6912 92.1399 65.6099 92.1361 65.5905 92.1864H65.5867ZM63.7906 93.2586C63.6125 93.2238 63.4228 93.247 63.2099 93.3051C63.0009 93.3825 62.7647 93.487 62.5093 93.6496C62.757 93.5993 62.9776 93.6032 63.1673 93.5567C63.3647 93.5219 63.5467 93.4832 63.7441 93.3748C63.7983 93.3438 63.8293 93.2703 63.7906 93.2586ZM66.1906 93.8083L66.1518 93.7619C66.0899 93.6728 66.0473 93.5722 65.9467 93.4948C65.8422 93.4135 65.6486 93.3283 65.4705 93.398C65.3234 93.4754 65.4009 93.5451 65.5867 93.6186C65.7492 93.6806 65.9544 93.6922 66.1247 93.7657L66.1906 93.8083ZM67.5996 91.6599C67.5183 91.6057 67.4447 91.5477 67.3441 91.4935C67.2086 91.4122 67.0576 91.389 67.0538 91.4393C67.0538 91.4625 67.1854 91.5322 67.2783 91.5786C67.3673 91.6174 67.4873 91.6328 67.5957 91.6599H67.5996ZM68.517 94.207C68.2383 94.0445 67.9673 93.9322 67.7157 93.8857C67.6034 93.8664 67.6151 93.9322 67.7312 93.9941C68.0176 94.1451 68.2654 94.1799 68.517 94.2032V94.207ZM68.9118 93.6806C68.3738 93.5257 68.0951 93.4638 67.9596 93.5451C67.9518 93.5451 68.126 93.6612 68.2228 93.6999C68.5828 93.8393 68.6912 93.7657 68.9118 93.6806ZM70.8086 94.8999C70.7738 94.8961 70.6344 94.9077 70.588 94.9154C70.3828 94.9503 70.3789 94.9812 70.588 94.9928C70.646 94.9928 70.7428 94.9657 70.8202 94.9464C70.8202 94.9309 70.8473 94.9038 70.8047 94.8999H70.8086ZM74.1067 90.2586L74.0834 90.3206L74.1105 90.3748V90.2586H74.1067ZM73.2976 89.1632C73.348 90.3361 73.4873 90.7657 73.7505 90.9051L73.7815 90.9748L73.766 90.8703C73.5609 90.5915 73.4951 89.8599 73.2976 89.167V89.1632Z" fill="#62D9EB"/>
<path d="M73.9592 86.8521C74.0018 86.9954 74.0637 87.1347 74.1141 87.1773C74.176 87.2276 74.2186 87.0883 74.1992 86.8754C74.1644 86.5386 74.0831 86.4883 73.9941 86.4883C73.9554 86.5579 73.8857 86.6083 73.9554 86.856L73.9592 86.8521Z" fill="#62D9EB"/>
<path d="M70.7235 83.8909C70.7468 83.9915 70.7932 84.1502 70.8242 84.1889C70.9171 84.2973 70.9132 84.1193 70.8939 83.9644C70.8745 83.798 70.8358 83.6238 70.7584 83.5502C70.65 83.527 70.6848 83.7167 70.7197 83.8909H70.7235Z" fill="#62D9EB"/>
<path d="M72.4573 83.9644C72.5231 84.0225 72.5928 84.0612 72.5696 83.8251C72.5193 83.6006 72.4457 83.5115 72.3838 83.5038C72.349 83.4999 72.3025 83.5425 72.3064 83.616C72.3141 83.8212 72.3915 83.9102 72.4573 83.9644Z" fill="#62D9EB"/>
</svg>
