<svg width="417" height="96" viewBox="0 0 417 96" fill="none" xmlns="http://www.w3.org/2000/svg">
<path d="M46.8899 29.8483C46.8899 29.8483 46.8058 24.6954 52.3564 24.7122C57.907 24.729 57.9911 29.8875 57.9911 29.8875L57.8902 45.5032C57.8902 45.5032 57.2181 61.0572 41.0872 61.0068C24.9563 60.9564 24.9787 45.3463 24.9787 45.3463C24.9787 45.3463 24.5082 37.9082 27.9528 30.8845C31.3975 23.8552 38.0403 22.4214 38.0403 22.4214C38.0403 22.4214 33.8675 25.2051 33.4026 30.7501C32.9377 36.3007 32.7753 41.056 34.5452 45.3743C36.3151 49.6927 39.3397 50.1016 40.9752 50.0568C42.6107 50.012 43.406 50.0176 45.1423 48.5837C46.8842 47.1499 46.8394 45.464 46.8394 45.464L46.8899 29.8483Z" fill="white"/>
<path d="M49.2194 15.0616C48.7489 15.1288 47.9928 15.2968 47.147 15.7841C46.7438 16.0138 45.954 16.5067 45.6292 16.7195C45.5563 16.7699 45.4611 16.7643 45.3827 16.7195C45.3827 16.7195 40.129 13.3477 40.0001 13.2637C39.8377 13.1573 39.356 12.7876 38.6671 13.1909C38.6671 13.1909 38.3478 13.3981 38.6447 13.695C38.8631 13.919 42.0557 17.3412 42.8567 18.2038C42.9519 18.3046 42.9295 18.467 42.8175 18.5454C42.8175 18.5454 40.073 20.4442 40.0394 20.461C39.9609 20.5058 39.8657 20.5786 39.6529 20.489C39.3224 20.3489 38.051 19.7777 38.051 19.7777C38.051 19.7777 37.8438 19.6488 37.4797 19.8617C37.0932 20.0857 37.0092 20.1361 37.0092 20.1361C37.0092 20.1361 36.5947 20.377 36.9812 20.5954C37.4069 20.8418 38.2134 21.3123 38.7231 21.6204C39.1768 21.8948 39.1376 22.4381 39.1376 22.4381C39.1376 22.4381 39.1656 23.8608 39.1656 24.3537C39.1656 24.8018 39.5801 24.5609 39.5801 24.5609C39.5801 24.5609 39.6641 24.5105 40.0506 24.2865C40.4146 24.0736 40.409 23.8328 40.409 23.8328C40.409 23.8328 40.5434 22.4437 40.5826 22.0853C40.6107 21.85 40.7227 21.8108 40.7955 21.7604C40.8291 21.7436 43.8312 20.2873 43.8312 20.2873C43.9545 20.2257 44.1057 20.2873 44.1449 20.4218C44.5034 21.5476 45.898 26.006 45.9876 26.3084C46.0996 26.7117 46.4413 26.5381 46.4413 26.5381C47.1302 26.1348 47.0462 25.5355 47.035 25.3395C47.0294 25.1882 46.6878 18.9543 46.6878 18.9543C46.6878 18.8647 46.7326 18.7807 46.8054 18.7415C47.147 18.5622 47.9704 18.1142 48.3681 17.8789C49.2138 17.3804 49.7291 16.8091 50.0204 16.4282C50.3676 15.9802 50.2892 15.5545 50.1492 15.4369C50.1156 15.2576 49.7851 14.9776 49.225 15.056L49.2194 15.0616Z" fill="white"/>
<path d="M71.1081 58.6149C68.9349 58.6093 67.2154 57.9092 65.9608 56.5201C64.7062 55.1367 64.0789 53.1315 64.0901 50.5158L64.1293 38.4288H61.9337C61.312 38.4176 61.0039 38.1096 61.0039 37.4879V36.6925C61.0039 36.0372 61.3176 35.7124 61.9393 35.718H63.1099C64.3813 35.7236 65.4679 35.3091 66.3585 34.4689C67.2434 33.6344 67.8147 32.5142 68.0724 31.1139C68.2292 30.369 68.5877 29.9937 69.1534 29.9993H70.0831C70.7721 29.9993 71.1137 30.3802 71.1081 31.1251L71.1361 35.746L76.5019 35.7628C76.754 35.7628 76.9668 35.858 77.1516 36.0428C77.3365 36.2333 77.4317 36.4629 77.4317 36.7485V37.5439C77.4317 37.8183 77.3309 38.048 77.146 38.2216C76.9612 38.3952 76.7427 38.4737 76.4907 38.4737L71.1249 38.4569L71.0857 50.6391C71.0857 51.5408 71.3042 52.2634 71.7523 52.8067C72.2003 53.35 72.766 53.6244 73.455 53.63C75.0737 53.63 76.1322 52.9411 76.6307 51.5408C76.9108 51.1375 77.2636 50.9751 77.6837 51.0535C78.1038 51.1319 78.311 51.3896 78.311 51.8265C78.3054 53.63 77.6557 55.2151 76.3563 56.5761C75.0625 57.9428 73.3093 58.6205 71.0969 58.6149H71.1081Z" fill="white"/>
<path d="M94.8506 35.3595C96.1893 35.3595 97.2366 35.7628 97.9928 36.5581C98.7545 37.3534 99.1298 38.3784 99.1242 39.6163C99.1186 42.0751 98.116 43.3017 96.1276 43.2961C95.3211 43.2961 94.6882 43.0833 94.2401 42.6576C93.792 42.2319 93.5232 41.7782 93.428 41.2742C93.3383 40.7813 93.1479 40.322 92.8735 39.8963C92.5934 39.4762 92.1733 39.2634 91.6132 39.2634C90.7731 39.2634 90.1514 39.7563 89.7425 40.7477C89.3392 41.7446 89.132 42.9545 89.1264 44.3883L89.0984 53.7196C89.0984 54.2797 89.2888 54.7726 89.6753 55.1927C90.0673 55.6127 90.4538 55.9824 90.8347 56.2961C91.2268 56.6097 91.4172 56.9234 91.4172 57.2314V57.4163C91.4172 57.9428 91.0699 58.206 90.3866 58.206L81.7498 58.178C81.0385 58.178 80.6801 57.9092 80.6801 57.3827V57.1978C80.6801 56.8842 80.9881 56.4025 81.593 55.7528C82.2035 55.1031 82.506 54.4197 82.5116 53.7028L82.5452 42.7864C82.5452 42.0359 82.1923 41.3694 81.4754 40.7757C80.7641 40.182 80.4056 39.7283 80.4112 39.4146V39.2298C80.4112 38.7929 80.7417 38.4232 81.397 38.1152L87.0036 35.5219C88.0006 35.057 88.4991 35.3707 88.4991 36.4629L88.4879 39.9579C89.5521 36.883 91.6748 35.3483 94.8506 35.3595Z" fill="white"/>
<path d="M122.33 53.6461C122.425 54.3631 122.599 54.94 122.862 55.3769C123.125 55.8137 123.4 56.0826 123.674 56.1946C123.954 56.3066 124.206 56.4354 124.419 56.5923C124.632 56.7491 124.744 56.9675 124.744 57.2476C124.744 58.1494 123.249 58.5974 120.258 58.5862C118.891 58.5862 117.888 58.3958 117.25 58.0373C116.611 57.6789 116.23 57.018 116.113 56.049C114.892 57.8469 112.819 58.7431 109.896 58.7375C107.286 58.7263 105.168 58.1158 103.555 56.9003C101.942 55.6793 101.141 53.9318 101.147 51.6634C101.125 49.4286 101.925 47.6867 103.544 46.4488C105.168 45.211 107.19 44.5949 109.616 44.6061C111.671 44.6117 113.368 45.0822 114.701 46.0176L114.657 45.4575C114.354 42.5001 113.923 40.4165 113.368 39.2011C112.808 37.9857 111.862 37.3752 110.529 37.3752C109.688 37.3752 109 37.6833 108.473 38.305C107.947 38.9267 107.571 39.61 107.347 40.3493C107.129 41.0943 106.77 41.7776 106.272 42.3993C105.773 43.021 105.135 43.3291 104.356 43.3291C103.516 43.3291 102.844 43.0826 102.329 42.5953C101.819 42.1137 101.567 41.4863 101.567 40.7078C101.567 39.0891 102.441 37.8009 104.171 36.8431C105.897 35.8853 108.025 35.4092 110.545 35.4148C113.559 35.426 116.034 36.2886 117.956 38.0081C119.877 39.722 121.008 42.0632 121.339 45.015L122.336 53.6517L122.33 53.6461ZM111.962 56.6931C112.993 56.6931 113.811 56.273 114.438 55.4161C115.065 54.5647 115.346 53.5901 115.289 52.5035L115.155 50.868C115.032 49.5294 114.64 48.5044 113.973 47.7875C113.307 47.0706 112.478 46.7121 111.481 46.7065C110.484 46.7065 109.666 47.0593 109.028 47.7707C108.389 48.4876 108.064 49.4342 108.064 50.616C108.064 52.2963 108.417 53.7246 109.145 54.912C109.868 56.0994 110.809 56.6931 111.962 56.6931Z" fill="white"/>
<path d="M146.631 35.9982C147.286 35.9982 147.611 36.2502 147.605 36.7431V36.9335C147.605 37.3032 147.185 37.8241 146.345 38.4906C145.499 39.1571 144.956 39.8125 144.704 40.4678L138.207 57.2428C137.955 57.9878 137.439 58.363 136.661 58.3574L133.631 58.3462C132.942 58.3462 132.449 57.9709 132.141 57.2204L124.451 40.395C124.204 39.8349 123.762 39.2019 123.123 38.5018C122.49 37.7961 122.171 37.2472 122.171 36.8439V36.6535C122.171 36.155 122.485 35.9086 123.106 35.9142L132.393 35.9422C133.014 35.9422 133.328 36.2054 133.323 36.7375V36.9223C133.323 37.1688 133.177 37.4824 132.902 37.8577C132.622 38.2274 132.404 38.5802 132.247 38.9051C132.09 39.23 132.118 39.7845 132.331 40.563L137.187 53.1317L141.612 41.4816C141.926 40.3614 141.959 39.5828 141.713 39.1459C141.466 38.7147 141.114 38.2946 140.671 37.9081C140.223 37.516 139.993 37.1968 139.993 36.9503V36.7655C139.993 36.2334 140.324 35.9758 140.973 35.9758L146.619 35.9926L146.631 35.9982Z" fill="white"/>
<path d="M166.742 51.3672C167.022 50.9975 167.364 50.8743 167.767 50.9975C168.17 51.1263 168.361 51.4232 168.327 51.8825C168.165 53.5012 167.229 55.0751 165.51 56.6097C163.796 58.1444 161.567 58.9061 158.833 58.8949C155.54 58.8837 152.835 57.7859 150.723 55.6015C148.617 53.4172 147.564 50.555 147.575 47.004C147.586 43.6714 148.701 40.9325 150.919 38.7761C153.137 36.6253 155.798 35.5499 158.906 35.5611C161.74 35.5723 163.913 36.2444 165.437 37.5887C166.955 38.9329 167.711 40.4732 167.705 42.2151C167.705 43.649 167.011 44.6684 165.639 45.2901L155.265 49.9669C156.531 52.6778 158.581 54.0389 161.41 54.0445C162.592 54.0445 163.656 53.7924 164.608 53.2827C165.56 52.773 166.266 52.1289 166.736 51.3504L166.742 51.3672ZM158.06 37.6223C156.851 37.6223 155.882 38.1936 155.159 39.3586C154.442 40.5236 154.078 42.0079 154.072 43.8114C154.072 45.3349 154.212 46.6735 154.521 47.8273L160.553 44.814C161.359 44.4163 161.768 43.6826 161.774 42.624C161.774 41.571 161.438 40.4676 160.76 39.3306C160.077 38.1936 159.181 37.6223 158.06 37.6223Z" fill="white"/>
<path d="M171.52 58.4749C170.809 58.4749 170.445 58.2061 170.45 57.6796V57.4947C170.45 57.1811 170.758 56.6994 171.369 56.0497C171.979 55.4 172.282 54.7166 172.287 53.9997L172.36 31.0468C172.36 30.2402 172.063 29.5065 171.458 28.8512C170.854 28.1958 170.551 27.7422 170.551 27.4957V27.3109C170.551 26.9356 170.865 26.6276 171.486 26.3811L177.379 23.5078C178 23.2613 178.471 23.2277 178.801 23.4182C179.126 23.6086 179.289 23.9223 179.289 24.3535L179.193 54.0277C179.193 54.7446 179.524 55.428 180.19 56.0833C180.857 56.7386 181.187 57.2203 181.187 57.5339V57.7188C181.187 58.2453 180.823 58.5085 180.112 58.5085L171.526 58.4805L171.52 58.4749Z" fill="white"/>
<path d="M205.25 0V72" stroke="white"/>
<path d="M294.779 35.4811C292.889 34.352 290.758 33.7875 288.386 33.7875C286.15 33.7601 283.949 34.3455 282.018 35.4811C280.142 36.5799 278.597 38.1699 277.546 40.0824C276.464 42.053 275.909 44.2734 275.936 46.5255C275.911 48.7847 276.466 51.0121 277.546 52.9918C278.586 54.912 280.123 56.5119 281.993 57.6211C283.884 58.7512 286.014 59.3163 288.386 59.3163C290.758 59.3163 292.889 58.7512 294.779 57.6211C296.653 56.5096 298.197 54.9129 299.251 52.9967C300.346 51.0217 300.91 48.7926 300.886 46.5305C300.911 44.2754 300.348 42.0533 299.251 40.0873C298.191 38.1804 296.648 36.5909 294.779 35.4811ZM293.193 51.8287C292.591 52.5093 291.849 53.0501 291.019 53.4139C290.189 53.7776 289.291 53.9557 288.386 53.9357C286.431 53.9357 284.829 53.2416 283.579 51.8534C282.33 50.4651 281.706 48.6892 281.706 46.5255C281.706 44.3937 282.33 42.6337 283.579 41.2455C284.829 39.8572 286.431 39.1653 288.386 39.1697C290.309 39.1697 291.911 39.8638 293.193 41.2521C294.475 42.6403 295.116 44.4003 295.116 46.5321C295.116 48.6529 294.475 50.4184 293.193 51.8287ZM305.073 24.7298H310.841V58.6343H305.073V24.7298ZM359.295 24.7298H365.063V58.6343H359.295V24.7298ZM386.982 34.4646V46.8204C386.982 48.7908 386.477 50.3086 385.468 51.374C384.458 52.4393 383.136 52.972 381.501 52.972C379.964 52.972 378.779 52.536 377.945 51.6639C377.111 50.7919 376.694 49.3229 376.694 47.257V34.4646H370.926V48.2208C370.926 51.6431 371.703 54.1938 373.258 55.8731C374.812 57.5524 376.949 58.3921 379.67 58.3921C381.369 58.3921 382.779 58.1093 383.9 57.5437C385.073 56.9371 386.106 56.087 386.929 55.0494L386.977 55.1944V57.7611C386.977 59.7644 386.472 61.3064 385.463 62.3871C384.453 63.4679 383.068 64.0088 381.305 64.0099C378.888 64.0099 377.308 63.1137 376.563 61.3212L371.796 63.7924C372.433 64.9919 373.307 66.0471 374.364 66.8929C376.108 68.2987 378.424 69.0011 381.312 69C384.901 69 387.705 67.9747 389.724 65.9242C391.742 63.8737 392.751 61.1367 392.75 57.7133V34.4646H386.982ZM351.316 29.285C352.016 29.2762 352.701 29.4863 353.278 29.8863L355.73 25.7858C355.163 25.3316 354.541 24.9529 353.878 24.659C352.932 24.2197 351.674 24 350.104 24C348.182 24 346.571 24.6376 345.273 25.9127C343.975 27.1878 343.326 28.9396 343.326 31.168V34.4629H339.434V39.5486H343.335V58.6343H349.104V39.5502H354.847V34.4646H349.104V31.8484C349.104 30.1395 349.841 29.285 351.316 29.285ZM333.001 36.0395C331.11 34.5371 328.723 33.7864 325.839 33.7875C323.019 33.7875 320.808 34.3915 319.206 35.5997C317.604 36.8078 316.472 38.62 315.81 41.0362L320.957 41.9769C321.18 40.8731 321.629 40.0198 322.306 39.425C323.058 38.7661 324.172 38.4366 325.646 38.4366C328.589 38.4366 330.061 39.9055 330.061 42.8435V43.1351L324.917 43.8616C321.392 44.346 318.932 45.2905 317.538 46.6952C316.144 48.0999 315.45 49.8199 315.455 51.855C315.428 53.2435 315.812 54.6087 316.559 55.7759C317.295 56.9066 318.326 57.8116 319.538 58.3921C320.828 59.0141 322.243 59.3287 323.673 59.3114C326.78 59.3114 329.007 58.3591 330.353 56.4547L330.98 58.6343H335.834V42.7479C335.836 39.7759 334.892 37.5398 333.001 36.0395ZM330.069 50.1582C330.069 51.5475 329.604 52.637 328.674 53.4267C327.745 54.2164 326.591 54.6118 325.215 54.6128C323.9 54.6128 322.865 54.3306 322.108 53.7661C321.75 53.5136 321.46 53.1759 321.263 52.7829C321.066 52.39 320.969 51.954 320.98 51.514C320.98 50.5145 321.324 49.7457 322.013 49.2076C322.702 48.6694 323.8 48.2899 325.306 48.0692L330.064 47.3427L330.069 50.1582ZM265.372 37.687C262.226 40.2669 257.338 40.8929 250.541 39.5667V24.7809H244.686V38.0857C244.411 38.0033 244.135 37.9209 243.854 37.8303C238.602 36.1829 232.613 36.8616 229.25 37.9951L230.424 43.0362C232.747 42.0626 238.135 41.4168 242.333 42.7381C243.133 42.9901 243.916 43.2208 244.686 43.4366V58.631H250.541V44.7759C252.618 45.1492 254.723 45.3448 256.832 45.3608C260.117 45.3608 262.954 44.8007 265.372 43.687V58.631H271.229V24.7809H265.372V37.687Z" fill="white"/>
</svg>
