<svg width="417" height="96" viewBox="0 0 417 96" fill="none" xmlns="http://www.w3.org/2000/svg">
<path d="M22.6399 29.8483C22.6399 29.8483 22.5558 24.6954 28.1064 24.7122C33.657 24.729 33.7411 29.8875 33.7411 29.8875L33.6402 45.5032C33.6402 45.5032 32.9681 61.0572 16.8372 61.0068C0.706288 60.9564 0.72869 45.3463 0.72869 45.3463C0.72869 45.3463 0.258206 37.9082 3.70283 30.8845C7.14745 23.8552 13.7903 22.4214 13.7903 22.4214C13.7903 22.4214 9.6175 25.2051 9.15261 30.7501C8.68773 36.3007 8.5253 41.056 10.2952 45.3743C12.0651 49.6927 15.0897 50.1016 16.7252 50.0568C18.3607 50.012 19.156 50.0176 20.8923 48.5837C22.6342 47.1499 22.5894 45.464 22.5894 45.464L22.6399 29.8483Z" fill="#1C1C1C"/>
<path d="M24.9694 15.0616C24.4989 15.1288 23.7428 15.2968 22.897 15.7841C22.4938 16.0138 21.704 16.5067 21.3792 16.7195C21.3063 16.7699 21.2111 16.7643 21.1327 16.7195C21.1327 16.7195 15.879 13.3477 15.7501 13.2637C15.5877 13.1573 15.106 12.7876 14.4171 13.1909C14.4171 13.1909 14.0978 13.3981 14.3947 13.695C14.6131 13.919 17.8057 17.3412 18.6067 18.2038C18.7019 18.3046 18.6795 18.467 18.5675 18.5454C18.5675 18.5454 15.823 20.4442 15.7894 20.461C15.7109 20.5058 15.6157 20.5786 15.4029 20.489C15.0724 20.3489 13.801 19.7777 13.801 19.7777C13.801 19.7777 13.5938 19.6488 13.2297 19.8617C12.8432 20.0857 12.7592 20.1361 12.7592 20.1361C12.7592 20.1361 12.3447 20.377 12.7312 20.5954C13.1569 20.8418 13.9634 21.3123 14.4731 21.6204C14.9268 21.8948 14.8876 22.4381 14.8876 22.4381C14.8876 22.4381 14.9156 23.8608 14.9156 24.3537C14.9156 24.8018 15.3301 24.5609 15.3301 24.5609C15.3301 24.5609 15.4141 24.5105 15.8006 24.2865C16.1646 24.0736 16.159 23.8328 16.159 23.8328C16.159 23.8328 16.2934 22.4437 16.3326 22.0853C16.3607 21.85 16.4727 21.8108 16.5455 21.7604C16.5791 21.7436 19.5812 20.2873 19.5812 20.2873C19.7045 20.2257 19.8557 20.2873 19.8949 20.4218C20.2534 21.5476 21.648 26.006 21.7376 26.3084C21.8496 26.7117 22.1913 26.5381 22.1913 26.5381C22.8802 26.1348 22.7962 25.5355 22.785 25.3395C22.7794 25.1882 22.4378 18.9543 22.4378 18.9543C22.4378 18.8647 22.4826 18.7807 22.5554 18.7415C22.897 18.5622 23.7204 18.1142 24.1181 17.8789C24.9638 17.3804 25.4791 16.8091 25.7704 16.4282C26.1176 15.9802 26.0392 15.5545 25.8992 15.4369C25.8656 15.2576 25.5351 14.9776 24.975 15.056L24.9694 15.0616Z" fill="#1C1C1C"/>
<path d="M46.8581 58.6149C44.6849 58.6093 42.9654 57.9092 41.7108 56.5201C40.4562 55.1367 39.8289 53.1315 39.8401 50.5158L39.8793 38.4288H37.6837C37.062 38.4176 36.7539 38.1096 36.7539 37.4879V36.6925C36.7539 36.0372 37.0676 35.7124 37.6893 35.718H38.8599C40.1313 35.7236 41.2179 35.3091 42.1085 34.4689C42.9934 33.6344 43.5647 32.5142 43.8224 31.1139C43.9792 30.369 44.3377 29.9937 44.9034 29.9993H45.8331C46.5221 29.9993 46.8637 30.3802 46.8581 31.1251L46.8861 35.746L52.2519 35.7628C52.504 35.7628 52.7168 35.858 52.9016 36.0428C53.0865 36.2333 53.1817 36.4629 53.1817 36.7485V37.5439C53.1817 37.8183 53.0809 38.048 52.896 38.2216C52.7112 38.3952 52.4927 38.4737 52.2407 38.4737L46.8749 38.4569L46.8357 50.6391C46.8357 51.5408 47.0542 52.2634 47.5023 52.8067C47.9503 53.35 48.516 53.6244 49.205 53.63C50.8237 53.63 51.8822 52.9411 52.3807 51.5408C52.6608 51.1375 53.0136 50.9751 53.4337 51.0535C53.8538 51.1319 54.061 51.3896 54.061 51.8265C54.0554 53.63 53.4057 55.2151 52.1063 56.5761C50.8125 57.9428 49.0593 58.6205 46.8469 58.6149H46.8581Z" fill="#1C1C1C"/>
<path d="M70.6006 35.3595C71.9393 35.3595 72.9866 35.7628 73.7428 36.5581C74.5045 37.3534 74.8798 38.3784 74.8742 39.6163C74.8686 42.0751 73.866 43.3017 71.8776 43.2961C71.0711 43.2961 70.4382 43.0833 69.9901 42.6576C69.542 42.2319 69.2732 41.7782 69.178 41.2742C69.0883 40.7813 68.8979 40.322 68.6235 39.8963C68.3434 39.4762 67.9233 39.2634 67.3632 39.2634C66.5231 39.2634 65.9014 39.7563 65.4925 40.7477C65.0892 41.7446 64.882 42.9545 64.8764 44.3883L64.8484 53.7196C64.8484 54.2797 65.0388 54.7726 65.4253 55.1927C65.8173 55.6127 66.2038 55.9824 66.5847 56.2961C66.9768 56.6097 67.1672 56.9234 67.1672 57.2314V57.4163C67.1672 57.9428 66.8199 58.206 66.1366 58.206L57.4998 58.178C56.7885 58.178 56.4301 57.9092 56.4301 57.3827V57.1978C56.4301 56.8842 56.7381 56.4025 57.343 55.7528C57.9535 55.1031 58.256 54.4197 58.2616 53.7028L58.2952 42.7864C58.2952 42.0359 57.9423 41.3694 57.2254 40.7757C56.5141 40.182 56.1556 39.7283 56.1612 39.4146V39.2298C56.1612 38.7929 56.4917 38.4232 57.147 38.1152L62.7536 35.5219C63.7506 35.057 64.2491 35.3707 64.2491 36.4629L64.2379 39.9579C65.3021 36.883 67.4248 35.3483 70.6006 35.3595Z" fill="#1C1C1C"/>
<path d="M98.08 53.6461C98.1752 54.3631 98.3488 54.94 98.6121 55.3769C98.8753 55.8137 99.1498 56.0826 99.4242 56.1946C99.7043 56.3066 99.9563 56.4354 100.169 56.5923C100.382 56.7491 100.494 56.9675 100.494 57.2476C100.494 58.1494 98.9985 58.5974 96.0076 58.5862C94.641 58.5862 93.6384 58.3958 92.9999 58.0373C92.3613 57.6789 91.9805 57.018 91.8628 56.049C90.6418 57.8469 88.5695 58.7431 85.6457 58.7375C83.0357 58.7263 80.9185 58.1158 79.3054 56.9003C77.6923 55.6793 76.8913 53.9318 76.8969 51.6634C76.8745 49.4286 77.6755 47.6867 79.2942 46.4488C80.9185 45.211 82.9404 44.5949 85.3657 44.6061C87.4212 44.6117 89.1183 45.0822 90.4514 46.0176L90.4066 45.4575C90.1041 42.5001 89.6729 40.4165 89.1184 39.2011C88.5583 37.9857 87.6117 37.3752 86.2786 37.3752C85.4385 37.3752 84.7496 37.6833 84.2231 38.305C83.6966 38.9267 83.3213 39.61 83.0973 40.3493C82.8788 41.0943 82.5204 41.7776 82.0219 42.3993C81.5234 43.021 80.8849 43.3291 80.1063 43.3291C79.2662 43.3291 78.594 43.0826 78.0788 42.5953C77.5691 42.1137 77.317 41.4863 77.317 40.7078C77.317 39.0891 78.1908 37.8009 79.9215 36.8431C81.6466 35.8853 83.775 35.4092 86.2954 35.4148C89.3088 35.426 91.7844 36.2886 93.7056 38.0081C95.6267 39.722 96.7581 42.0632 97.0886 45.015L98.0856 53.6517L98.08 53.6461ZM87.7125 56.6931C88.7431 56.6931 89.5608 56.273 90.1881 55.4161C90.8155 54.5647 91.0955 53.5901 91.0395 52.5035L90.9051 50.868C90.7819 49.5294 90.3898 48.5044 89.7233 47.7875C89.0567 47.0706 88.2278 46.7121 87.2308 46.7065C86.2338 46.7065 85.4161 47.0593 84.7776 47.7707C84.1391 48.4876 83.8142 49.4342 83.8142 50.616C83.8142 52.2963 84.1671 53.7246 84.8952 54.912C85.6177 56.0994 86.5587 56.6931 87.7125 56.6931Z" fill="#1C1C1C"/>
<path d="M122.381 35.9982C123.036 35.9982 123.361 36.2502 123.355 36.7431V36.9335C123.355 37.3032 122.935 37.8241 122.095 38.4906C121.249 39.1571 120.706 39.8125 120.454 40.4678L113.957 57.2428C113.705 57.9878 113.189 58.363 112.411 58.3574L109.381 58.3462C108.692 58.3462 108.199 57.9709 107.891 57.2204L100.201 40.395C99.9541 39.8349 99.5116 39.2019 98.8731 38.5018C98.2402 37.7961 97.9209 37.2472 97.9209 36.8439V36.6535C97.9209 36.155 98.2346 35.9086 98.8563 35.9142L108.143 35.9422C108.764 35.9422 109.078 36.2054 109.073 36.7375V36.9223C109.073 37.1688 108.927 37.4824 108.652 37.8577C108.372 38.2274 108.154 38.5802 107.997 38.9051C107.84 39.23 107.868 39.7845 108.081 40.563L112.937 53.1317L117.362 41.4816C117.676 40.3614 117.709 39.5828 117.463 39.1459C117.216 38.7147 116.864 38.2946 116.421 37.9081C115.973 37.516 115.743 37.1968 115.743 36.9503V36.7655C115.743 36.2334 116.074 35.9758 116.723 35.9758L122.369 35.9926L122.381 35.9982Z" fill="#1C1C1C"/>
<path d="M142.492 51.3672C142.772 50.9975 143.114 50.8743 143.517 50.9975C143.92 51.1263 144.111 51.4232 144.077 51.8825C143.915 53.5012 142.979 55.0751 141.26 56.6097C139.546 58.1444 137.317 58.9061 134.583 58.8949C131.29 58.8837 128.585 57.7859 126.473 55.6015C124.367 53.4172 123.314 50.555 123.325 47.004C123.336 43.6714 124.451 40.9325 126.669 38.7761C128.887 36.6253 131.548 35.5499 134.656 35.5611C137.49 35.5723 139.663 36.2444 141.187 37.5887C142.705 38.9329 143.461 40.4732 143.455 42.2151C143.455 43.649 142.761 44.6684 141.389 45.2901L131.015 49.9669C132.281 52.6778 134.331 54.0389 137.16 54.0445C138.342 54.0445 139.406 53.7924 140.358 53.2827C141.31 52.773 142.016 52.1289 142.486 51.3504L142.492 51.3672ZM133.81 37.6223C132.601 37.6223 131.632 38.1936 130.909 39.3586C130.192 40.5236 129.828 42.0079 129.822 43.8114C129.822 45.3349 129.962 46.6735 130.271 47.8273L136.303 44.814C137.109 44.4163 137.518 43.6826 137.524 42.624C137.524 41.571 137.188 40.4676 136.51 39.3306C135.827 38.1936 134.931 37.6223 133.81 37.6223Z" fill="#1C1C1C"/>
<path d="M147.27 58.4749C146.559 58.4749 146.195 58.2061 146.2 57.6796V57.4947C146.2 57.1811 146.508 56.6994 147.119 56.0497C147.729 55.4 148.032 54.7166 148.037 53.9997L148.11 31.0468C148.11 30.2402 147.813 29.5065 147.208 28.8512C146.604 28.1958 146.301 27.7422 146.301 27.4957V27.3109C146.301 26.9356 146.615 26.6276 147.236 26.3811L153.129 23.5078C153.75 23.2613 154.221 23.2277 154.551 23.4182C154.876 23.6086 155.039 23.9223 155.039 24.3535L154.943 54.0277C154.943 54.7446 155.274 55.428 155.94 56.0833C156.607 56.7386 156.937 57.2203 156.937 57.5339V57.7188C156.937 58.2453 156.573 58.5085 155.862 58.5085L147.276 58.4805L147.27 58.4749Z" fill="#1C1C1C"/>
<path d="M181 0V72" stroke="#1C1C1C"/>
<path fill-rule="evenodd" clip-rule="evenodd" d="M205.41 41.3346C204.842 40.6829 204.867 39.7082 205.469 39.0862L211.877 32.465C212.539 31.7815 213.641 31.7815 214.302 32.465L219.2 37.5254C219.862 38.209 220.963 38.209 221.625 37.5254L226.383 32.6099C227.044 31.9264 228.146 31.9264 228.808 32.6099L235.193 39.2077C235.795 39.8293 235.82 40.8034 235.252 41.4552L221.664 57.0446C220.994 57.8134 219.793 57.8139 219.122 57.0455L205.41 41.3346ZM242.416 52.1077L244.97 48.192C246.308 49.455 248.376 50.213 250.363 50.213C251.782 50.213 252.877 49.4973 252.877 48.4867C252.877 45.413 243.348 46.5077 243.348 39.9394C243.348 36.0235 246.997 33.5814 250.89 33.5814C253.444 33.5814 256.242 34.592 257.54 35.6446L255.066 39.6026C254.053 38.8446 252.715 38.213 251.296 38.213C249.836 38.213 248.619 38.8026 248.619 39.855C248.619 42.5077 258.148 41.455 258.148 48.5288C258.148 52.4446 254.458 54.8446 250.322 54.8446C247.606 54.8446 244.727 53.8762 242.416 52.1077ZM276.8 47.0973L280.854 50.255C278.543 53.455 275.624 54.8446 271.934 54.8446C265.852 54.8446 261.392 50.1288 261.392 44.2341C261.392 38.2973 265.973 33.5814 271.974 33.5814C275.38 33.5814 278.421 35.2235 280.246 37.6656L276.516 41.0762C275.461 39.6446 273.88 38.6341 271.974 38.6341C268.933 38.6341 266.663 41.1182 266.663 44.2341C266.663 47.4341 268.893 49.792 272.096 49.792C274.245 49.792 275.948 48.4447 276.8 47.0973ZM298.492 47.2656V41.1603C297.397 39.6446 295.654 38.6341 293.627 38.6341C290.545 38.6341 288.558 41.2867 288.558 44.2341C288.558 47.4341 290.788 49.792 293.748 49.792C295.735 49.792 297.479 48.7815 298.492 47.2656ZM303.763 34.0026V54.4235H298.695V52.7814C297.073 54.213 295.208 54.8446 293.221 54.8446C290.302 54.8446 287.544 53.4973 285.801 51.392C284.26 49.5394 283.287 47.013 283.287 44.2341C283.287 38.213 287.585 33.5814 292.937 33.5814C295.167 33.5814 297.154 34.3394 298.695 35.6446V34.0026H303.763ZM315.116 24.5288V54.4235H309.845V24.5288H315.116ZM334.782 47.2656V41.1603C333.687 39.6446 331.943 38.6341 329.916 38.6341C326.835 38.6341 324.848 41.2867 324.848 44.2341C324.848 47.4341 327.078 49.792 330.038 49.792C332.024 49.792 333.768 48.7815 334.782 47.2656ZM340.053 34.0026V54.4235H334.984V52.7814C333.363 54.213 331.497 54.8446 329.511 54.8446C326.591 54.8446 323.834 53.4973 322.091 51.392C320.55 49.5394 319.577 47.013 319.577 44.2341C319.577 38.213 323.875 33.5814 329.227 33.5814C331.457 33.5814 333.444 34.3394 334.984 35.6446V34.0026H340.053ZM346.135 64.5288V34.0026H351.203V35.6446C352.744 34.3394 354.731 33.5814 356.961 33.5814C362.313 33.5814 366.611 38.213 366.611 44.2341C366.611 47.013 365.678 49.5394 364.138 51.392C362.394 53.4973 359.596 54.8446 356.677 54.8446C354.69 54.8446 352.987 54.255 351.406 52.992V64.5288H346.135ZM351.406 41.1603V47.2656C352.42 48.7815 354.163 49.792 356.15 49.792C359.11 49.792 361.34 47.4341 361.34 44.2341C361.34 41.2867 359.353 38.6341 356.272 38.6341C354.244 38.6341 352.501 39.6446 351.406 41.1603ZM385.059 47.2656V41.1603C383.965 39.6446 382.222 38.6341 380.194 38.6341C377.112 38.6341 375.126 41.2867 375.126 44.2341C375.126 47.4341 377.357 49.792 380.315 49.792C382.302 49.792 384.046 48.7815 385.059 47.2656ZM390.331 34.0026V54.4235H385.262V52.7814C383.64 54.213 381.776 54.8446 379.789 54.8446C376.869 54.8446 374.112 53.4973 372.368 51.392C370.827 49.5394 369.854 47.013 369.854 44.2341C369.854 38.213 374.152 33.5814 379.506 33.5814C381.734 33.5814 383.722 34.3394 385.262 35.6446V34.0026H390.331ZM402.658 64.5288H397.142L402.576 52.3603L393.778 34.0026H399.576L405.333 46.255L410.645 34.0026H416.2L402.658 64.5288Z" fill="#1C1C1C"/>
</svg>
