<svg width="437" height="80" viewBox="0 0 437 80" fill="none" xmlns="http://www.w3.org/2000/svg">
<path d="M45.9315 16.8446C45.9315 16.8446 45.8482 11.6896 51.4013 11.7079C56.9523 11.7261 57.0356 16.8811 57.0356 16.8811L56.9361 32.4964C56.9361 32.4964 56.2617 48.0507 40.1306 47.9999C23.9994 47.9451 24.0218 32.3379 24.0218 32.3379C24.0218 32.3379 23.5505 24.9 26.9933 17.8723C30.436 10.8446 37.0839 9.40863 37.0839 9.40863C37.0839 9.40863 32.9099 12.1892 32.4468 17.7403C31.9817 23.2913 31.8192 28.0482 33.5883 32.3664C35.3595 36.6845 38.3818 37.0908 40.0168 37.0461C41.6519 37.0014 42.446 37.0034 44.1847 35.5715C45.9233 34.1395 45.8807 32.4537 45.8807 32.4537L45.9315 16.8385V16.8446Z" fill="white"/>
<path d="M48.2591 2.05799C47.7879 2.12298 47.0343 2.29157 46.1833 2.77904C45.7811 3.01058 44.989 3.50415 44.662 3.71335C44.5868 3.76007 44.4914 3.76007 44.4183 3.71335C44.4183 3.71335 39.1658 0.339661 39.0378 0.256385C38.8733 0.150767 38.394 -0.218897 37.7034 0.183265C37.7034 0.183265 37.3865 0.390439 37.679 0.689014C37.9004 0.914468 41.0893 4.33487 41.8915 5.20013C41.985 5.30169 41.9667 5.46214 41.853 5.54136C41.853 5.54136 39.1049 7.43842 39.0724 7.4567C38.9952 7.49936 38.9017 7.57654 38.6864 7.48311C38.3554 7.34093 37.0819 6.77019 37.0819 6.77019C37.0819 6.77019 36.8747 6.64426 36.5091 6.85752C36.1191 7.08501 36.0379 7.13172 36.0379 7.13172C36.0379 7.13172 35.6215 7.3714 36.0115 7.59279C36.44 7.83855 37.2464 8.30774 37.7521 8.61647C38.2071 8.8927 38.1685 9.43501 38.1685 9.43501C38.1685 9.43501 38.1949 10.8548 38.1969 11.3483C38.1969 11.7972 38.6113 11.5535 38.6113 11.5535C38.6113 11.5535 38.6925 11.5047 39.0825 11.2793C39.4481 11.066 39.442 10.8243 39.442 10.8243C39.442 10.8243 39.574 9.43501 39.6147 9.07754C39.6411 8.84396 39.7528 8.8013 39.83 8.75459C39.8625 8.73631 42.8685 7.28406 42.8685 7.28406C42.9924 7.22312 43.1427 7.28609 43.1833 7.41811C43.5408 8.54132 44.9382 13.0037 45.0256 13.3084C45.1393 13.7105 45.4785 13.5358 45.4785 13.5358C46.1671 13.1337 46.0838 12.5345 46.0716 12.3395C46.0635 12.1872 45.7222 5.95367 45.7222 5.95367C45.7182 5.86634 45.7649 5.78306 45.8421 5.74244C46.1853 5.56167 47.0059 5.11685 47.406 4.88124C48.251 4.38362 48.7689 3.81084 49.0594 3.43306C49.4047 2.98418 49.3275 2.55967 49.1873 2.44187C49.1548 2.2611 48.8238 1.98487 48.2611 2.06408L48.2591 2.05799Z" fill="white"/>
<path d="M70.1526 45.6133C67.9773 45.6072 66.2589 44.9105 65.0057 43.5192C63.7505 42.1319 63.1249 40.1293 63.1351 37.5172L63.1737 25.43L60.978 25.4219C60.3545 25.4219 60.0478 25.1112 60.0498 24.4876V23.6934C60.0539 23.0394 60.3626 22.7144 60.9862 22.7165L62.1561 22.7205C63.4276 22.7246 64.5122 22.3062 65.4038 21.4694C66.2914 20.6325 66.8602 19.5154 67.1161 18.114C67.2745 17.3706 67.632 16.9948 68.1946 16.9968H69.1249C69.8114 17.0029 70.1526 17.3787 70.1506 18.1241L70.181 22.7449L75.5473 22.7632C75.7971 22.7632 76.0144 22.8566 76.1992 23.0435C76.3841 23.2344 76.4795 23.466 76.4775 23.7462V24.5404C76.4734 24.8166 76.378 25.0441 76.1911 25.2147C76.0043 25.3854 75.7869 25.4686 75.5371 25.4666L70.1709 25.4483L70.1323 37.6289C70.1303 38.5287 70.3517 39.2559 70.8005 39.8002C71.2514 40.3445 71.8161 40.6208 72.5026 40.6228C74.1194 40.6289 75.1776 39.9322 75.6793 38.5328C75.9616 38.1306 76.311 37.9681 76.7334 38.0474C77.1518 38.1286 77.3631 38.3845 77.361 38.8212C77.355 40.6248 76.705 42.2091 75.4091 43.572C74.1133 44.9389 72.3604 45.6173 70.1506 45.6092L70.1526 45.6133Z" fill="white"/>
<path d="M93.8943 22.357C95.2308 22.361 96.2768 22.7591 97.0385 23.5553C97.8002 24.3515 98.1759 25.3732 98.1719 26.6162C98.1637 29.0739 97.1644 30.3007 95.176 30.2946C94.3676 30.2925 93.7379 30.0813 93.287 29.6588C92.8361 29.2364 92.568 28.7794 92.4746 28.2777C92.3852 27.7841 92.1963 27.3231 91.9201 26.9006C91.6398 26.4781 91.2193 26.2689 90.6608 26.2669C89.8219 26.2648 89.1963 26.7604 88.7881 27.7536C88.3819 28.7509 88.1767 29.9615 88.1727 31.3934L88.1422 40.7223C88.1422 41.285 88.3331 41.7745 88.719 42.1929C89.109 42.6153 89.4949 42.9809 89.8808 43.2937C90.2708 43.6065 90.4638 43.9193 90.4617 44.2301V44.417C90.4597 44.945 90.1164 45.2091 89.434 45.2071L80.7997 45.1786C80.0868 45.1766 79.7293 44.9085 79.7313 44.3824V44.1956C79.7313 43.8848 80.038 43.4034 80.6433 42.7514C81.2526 42.0994 81.5593 41.417 81.5614 40.7L81.5959 29.7827C81.5979 29.0353 81.2445 28.365 80.5275 27.774C79.8146 27.1788 79.4592 26.7259 79.4612 26.4151V26.2283C79.4612 25.7916 79.7902 25.4199 80.4443 25.1112L86.0501 22.5174C87.0474 22.0543 87.5471 22.3671 87.543 23.4558L87.5308 26.9534C88.5972 23.8762 90.7156 22.3468 93.8903 22.357H93.8943Z" fill="white"/>
<path d="M121.371 40.6411C121.465 41.3581 121.641 41.9329 121.901 42.3696C122.165 42.8063 122.438 43.0785 122.716 43.1881C122.996 43.2998 123.246 43.4298 123.463 43.5862C123.679 43.7426 123.788 43.964 123.788 44.2403C123.786 45.1441 122.291 45.591 119.304 45.5808C117.937 45.5767 116.935 45.3899 116.298 45.0324C115.66 44.6729 115.28 44.0107 115.16 43.046C113.939 44.8455 111.868 45.7433 108.943 45.7331C106.331 45.725 104.216 45.1096 102.604 43.8929C100.991 42.6722 100.187 40.9275 100.195 38.6567C100.172 36.4204 100.971 34.6798 102.594 33.4388C104.214 32.2018 106.241 31.5864 108.665 31.5945C110.718 31.6006 112.414 32.0698 113.748 33.0082L113.704 32.4496C113.401 29.4943 112.973 27.4084 112.418 26.1917C111.86 24.9792 110.913 24.3678 109.577 24.3637C108.738 24.3617 108.049 24.6704 107.519 25.2919C106.989 25.9135 106.615 26.5959 106.392 27.3393C106.172 28.0868 105.813 28.7692 105.315 29.3907C104.816 30.0123 104.178 30.321 103.398 30.319C102.559 30.3169 101.883 30.0712 101.369 29.5878C100.857 29.1044 100.605 28.4767 100.607 27.6988C100.613 26.082 101.478 24.7923 103.209 23.8336C104.935 22.8749 107.06 22.3996 109.583 22.4078C112.597 22.4179 115.071 23.2791 116.994 24.9995C118.918 26.7137 120.045 29.0536 120.378 32.0089L121.375 40.6431L121.371 40.6411ZM111.002 43.6878C112.032 43.6919 112.853 43.2694 113.478 42.4122C114.104 41.5592 114.388 40.5883 114.331 39.4996L114.195 37.8666C114.073 36.5301 113.679 35.5024 113.013 34.7834C112.347 34.0664 111.516 33.7069 110.521 33.7048C109.526 33.7008 108.709 34.0562 108.067 34.7671C107.428 35.4821 107.105 36.4306 107.101 37.6127C107.095 39.2904 107.456 40.7244 108.183 41.9065C108.908 43.0927 109.849 43.6858 110.998 43.6898L111.002 43.6878Z" fill="white"/>
<path d="M145.674 22.9947C146.328 22.9968 146.653 23.2446 146.651 23.7422V23.9311C146.651 24.3028 146.23 24.8227 145.387 25.4869C144.542 26.1531 143.996 26.8112 143.748 27.4632L137.253 44.2423C136.999 44.9897 136.485 45.3594 135.707 45.3574L132.677 45.3472C131.99 45.3452 131.492 44.9714 131.184 44.222L123.496 27.3982C123.248 26.8396 122.805 26.208 122.17 25.5072C121.534 24.8024 121.217 24.252 121.219 23.8478V23.6589C121.221 23.1613 121.534 22.9155 122.155 22.9176L131.44 22.948C132.063 22.948 132.372 23.2121 132.372 23.7442V23.9311C132.372 24.1789 132.23 24.4896 131.951 24.8634C131.669 25.2351 131.452 25.5824 131.295 25.9094C131.139 26.2364 131.167 26.7909 131.381 27.5648L136.239 40.1354L140.667 28.4849C140.978 27.3657 141.014 26.5878 140.767 26.1491C140.517 25.7144 140.169 25.3001 139.723 24.9121C139.272 24.5201 139.044 24.1992 139.046 23.9534V23.7666C139.048 23.2344 139.375 22.9744 140.029 22.9765L145.676 22.9947H145.674Z" fill="white"/>
<path d="M165.784 38.3622C166.066 37.9905 166.407 37.8666 166.809 37.9925C167.216 38.1185 167.4 38.415 167.368 38.8781C167.207 40.4949 166.267 42.071 164.551 43.6086C162.837 45.14 160.608 45.9038 157.872 45.8956C154.576 45.8855 151.873 44.7866 149.764 42.6032C147.656 40.4177 146.606 37.5538 146.618 34.0075C146.628 30.6764 147.743 27.9365 149.959 25.7815C152.177 23.6285 154.838 22.554 157.948 22.5642C160.781 22.5743 162.954 23.2486 164.476 24.5912C165.995 25.9358 166.753 27.4774 166.746 29.2201C166.742 30.6521 166.052 31.6737 164.683 32.2932L154.308 36.9729C155.575 39.6845 157.621 41.0433 160.454 41.0514C161.634 41.0555 162.702 40.7995 163.653 40.2918C164.604 39.782 165.312 39.1381 165.782 38.3622H165.784ZM157.103 24.6176C155.892 24.6136 154.921 25.1924 154.204 26.3542C153.487 27.5221 153.126 29.0048 153.12 30.8085C153.116 32.3318 153.262 33.6723 153.571 34.824L159.603 31.8098C160.409 31.4097 160.818 30.6785 160.822 29.6182C160.826 28.5621 160.487 27.4632 159.806 26.3258C159.122 25.1884 158.224 24.6197 157.105 24.6156L157.103 24.6176Z" fill="white"/>
<path d="M170.565 45.4711C169.852 45.4691 169.491 45.201 169.493 44.6749V44.4881C169.493 44.1773 169.799 43.6959 170.409 43.0439C171.018 42.3919 171.325 41.7095 171.327 40.9925L171.402 18.0388C171.404 17.2304 171.103 16.4952 170.498 15.8412C169.893 15.1851 169.59 14.7342 169.59 14.4864V14.2995C169.59 13.9238 169.905 13.6171 170.529 13.3693L176.421 10.4952C177.04 10.2495 177.516 10.217 177.841 10.4059C178.166 10.5968 178.328 10.9096 178.328 11.3422L178.233 41.0169C178.231 41.7339 178.562 42.4184 179.232 43.0744C179.898 43.7305 180.231 44.2139 180.229 44.5246V44.7115C180.227 45.2396 179.866 45.5036 179.151 45.5016L170.565 45.4732V45.4711Z" fill="white"/>
<path d="M212.35 39.8794L236.108 16.1206" stroke="white"/>
<path d="M236.108 39.8794L212.35 16.1206" stroke="white"/>
<path d="M404.298 29.4574L412.452 13.2166H404.298L399.293 23.044L394.361 13.2166H386.133L394.312 29.433L385.376 47.1857H393.628L399.293 35.8708L404.382 46.0135C405.313 47.8137 407.528 48.5199 409.331 47.59C411.134 46.6607 411.84 44.4479 410.91 42.6475L404.298 29.4574Z" fill="white"/>
<path d="M374.455 15.2892C375.318 9.4367 382.21 10.8998 382.21 15.1109V47.1978H374.658V43.7472C368.994 51.2093 355.582 46.9662 355.582 29.9251C355.581 12.9483 369.018 9.14415 374.455 15.2892ZM363.116 29.8872C363.116 30.1463 362.823 40.4736 369.214 40.4736C372.656 40.4736 375.037 36.3036 375.037 29.8931C375.037 29.5181 375.458 19.3005 369.201 19.3005C362.945 19.3005 363.116 29.297 363.116 29.8872Z" fill="white"/>
<path d="M353.93 13.2164H347.851V4.54742L340.209 9.0161V13.2164H336.213C334.513 13.2164 333.135 14.5928 333.135 16.2906C333.135 17.9883 334.513 19.3646 336.213 19.3646H340.209V47.1978H347.851V19.3648H353.93L353.93 13.2164Z" fill="white"/>
<path fill-rule="evenodd" clip-rule="evenodd" d="M331.331 15.8121C330.31 17.6655 329.295 19.5062 328.28 21.3494C327.978 21.0999 327.69 20.8418 327.382 20.6103C326.065 19.6209 324.587 19.0836 322.933 19.0292C321.815 18.9924 320.808 19.2693 319.953 20.0085C318.576 21.1985 318.277 23.3935 319.96 24.8576C320.783 25.5732 321.717 26.1076 322.697 26.5635C323.928 27.1367 325.184 27.6606 326.415 28.2337C327.732 28.8465 328.986 29.5645 330.078 30.5396C331.487 31.7982 332.295 33.3761 332.59 35.2279C332.802 36.5615 332.834 37.8983 332.626 39.2352C332.317 41.2165 331.504 42.9595 330.126 44.4255C328.53 46.1254 326.554 47.1644 324.287 47.633C321.076 48.2961 317.987 47.8858 315.048 46.4344C313.629 45.7336 312.376 44.8032 311.397 43.5428C310.798 42.7718 310.411 41.9102 310.382 40.9163C310.342 39.6014 311.077 37.9006 313.042 37.6146C314.399 37.4168 315.594 37.7655 316.598 38.7253C317.325 39.4187 318.085 40.072 318.978 40.5503C320.199 41.2052 321.481 41.4253 322.836 41.0578C324.185 40.6918 325.158 39.6089 325.29 38.2825C325.46 36.5871 324.911 35.2102 323.434 34.2583C322.507 33.6609 321.509 33.2146 320.481 32.8296C319.08 32.3044 317.707 31.7219 316.43 30.9322C315.066 30.0884 313.848 29.0803 312.907 27.7684C311.789 26.2102 311.249 24.4668 311.246 22.5512C311.243 20.2365 311.955 18.1741 313.439 16.3943C314.787 14.7771 316.507 13.7129 318.512 13.0974C319.96 12.6531 321.441 12.555 322.948 12.6312C326.044 12.7877 328.81 13.804 331.238 15.7334C331.265 15.7547 331.291 15.7782 331.331 15.8121Z" fill="white"/>
<path d="M290.379 17.7036V10.9975L283.067 15.5576V44.2901C283.067 46.3068 284.704 47.9417 286.723 47.9417C288.742 47.9417 290.379 46.3068 290.379 44.2901V24.4065L298.9 19.2643V47.2101H306.114V20.1086C306.115 12.0339 294.743 10.1684 290.379 17.7036Z" fill="white"/>
<path d="M272.514 12.5825C270.41 12.5825 268.705 14.2856 268.705 16.3867V47.21H276.322V16.3867C276.322 14.2856 274.617 12.5825 272.514 12.5825Z" fill="white"/>
<path d="M272.514 8.5588C274.88 8.5588 276.798 6.64285 276.798 4.2794C276.798 1.91595 274.88 0 272.514 0C270.147 0 268.229 1.91595 268.229 4.2794C268.229 6.64285 270.147 8.5588 272.514 8.5588Z" fill="white"/>
</svg>
