<svg width="120" height="120" viewBox="0 0 120 120" fill="none" xmlns="http://www.w3.org/2000/svg">
<path d="M118.053 92.3049C117.495 91.8639 117.105 92.2951 116.952 92.7695C116.652 93.6987 116.295 94.6141 116.244 95.6041C116.134 97.6957 115.491 98.172 113.496 97.8251C113.429 97.8133 113.366 97.7957 113.302 97.7761C112.794 97.6212 112.175 97.3526 111.812 97.9839C111.424 98.6601 111.732 99.2815 112.335 99.6187C112.561 99.7442 112.865 99.7873 112.906 100.064C113.014 100.764 113.725 101.438 113.37 102.049C112.972 102.739 112.049 102.365 111.453 102.257C109.199 101.846 107.241 100.785 105.241 99.8304C103.242 98.8758 101.258 97.8937 99.2603 96.9351C98.9702 96.7959 98.6506 96.6783 98.3233 96.6411C98.0567 96.6117 97.7646 96.7567 97.598 97.0214C97.4039 97.3311 97.6195 97.5114 97.7881 97.7016C98.3115 98.2877 99.2995 98.1779 99.864 98.9875C99.2309 99.0816 98.6996 99.4697 98.2723 98.8091C97.9391 98.2936 97.3314 98.2936 96.7472 98.1426C94.9712 97.6839 93.2795 96.9351 91.6309 96.2529C89.849 95.5159 87.9926 94.9729 86.1813 94.3338C82.6881 93.0988 78.9753 92.4676 75.2861 91.7521C73.3905 91.3836 71.5479 90.8896 69.5699 90.8288C69.2191 90.8171 68.8858 90.8347 68.5761 91.0719C68.433 91.3699 68.6388 91.562 68.7035 91.8011C69.1073 93.2772 69.0113 93.5046 67.5332 94.1731C67.0726 94.3809 66.6099 94.5142 66.2747 94.9513C65.7317 95.6609 65.8513 96.2274 66.7491 96.2862C67.4352 96.3313 67.7861 97.0076 68.5447 96.8861C65.126 98.472 61.5465 98.8032 58.0376 99.4678C54.5464 100.128 51.0238 101.05 47.4365 100.422C48.1481 99.4913 49.1713 99.1992 50.2455 99.1796C52.5724 99.1365 54.815 98.0368 57.4084 98.0505C56.5027 96.9488 55.4266 97.1233 54.4464 97.2056C52.1725 97.3977 49.8947 97.6369 47.6188 97.9309C46.274 98.1034 45.0371 98.0799 44.1373 97.0998C43.7021 96.6254 43.1709 96.5725 42.5162 96.5842C40.5304 96.6234 38.5525 96.5725 36.5726 96.5528C36.2315 96.5489 35.8806 96.5646 35.5552 96.5019C34.0282 96.2098 32.4227 96.1745 31.9189 94.2319C31.6367 93.14 31.3661 93.24 31.7327 92.5715C31.2348 92.2598 30.3409 93.2655 30.0606 92.2853C29.9547 91.9129 29.6823 92.056 29.4215 92.1069C28.9432 92.201 28.463 92.3167 27.9847 92.3598C27.6612 92.3892 27.0829 92.6558 27.3005 91.907C27.1084 91.9874 26.8222 92.0187 26.7379 92.156C25.6774 93.8849 23.9112 93.9947 22.3332 94.3789C21.2413 94.6455 20.4552 95.3434 19.579 95.9295C19.2987 96.1177 19.4986 96.8057 18.8243 96.7312C18.2519 96.6685 17.7344 96.5038 17.654 95.8922C17.5364 94.9925 16.9856 95.0787 16.2191 95.1042C14.7234 95.1552 13.359 95.6688 11.9751 96.2647C10.3422 96.9665 8.69162 97.6153 6.56277 98.4876C7.51154 97.1645 8.50932 96.7548 9.56395 96.2314C8.62105 95.9667 7.94672 96.445 7.24886 96.7057C6.64902 96.9292 6.07074 97.1801 5.43365 97.286C4.39274 97.4585 3.86739 97.2135 3.63804 96.1373C3.25382 94.324 3.2499 92.3971 2.58929 90.6681C2.35993 90.0663 2.80688 89.6546 3.38712 89.1058C1.95416 88.7804 1.23866 87.7767 0.421222 86.7946C-0.141377 86.1183 -0.133535 85.6184 0.40358 85.1107C1.0936 84.4579 1.16613 83.813 0.995584 83.0701C1.49741 82.727 1.962 82.8427 2.38542 82.8976C3.26166 83.0113 3.86543 82.4369 3.94384 81.7881C4.09086 80.5688 5.01807 80.1257 5.8257 79.62C6.85681 78.9731 7.98789 78.5046 9.06212 77.9655C8.97194 76.9305 8.30153 76.2777 7.67816 75.6445C7.04303 75.0016 7.22338 74.5311 7.89183 73.9548C8.85041 73.1276 9.9266 72.5983 11.1008 72.2376C16.1093 70.7027 21.1649 69.7108 26.2537 68.9404C30.2566 68.3347 34.2438 68.0308 38.2075 67.9818C45.2743 67.8936 52.2764 68.1798 59.1393 69.2697C64.9711 70.195 70.7226 71.3809 76.5348 72.365C77.1307 72.465 77.4424 73.0825 78.1775 72.8943C78.8813 72.7159 79.5595 73.3393 80.1162 73.1354C80.6102 72.9551 81.1042 72.5708 81.6923 72.5042C81.6237 72.3689 81.5904 72.2298 81.5041 72.1435C80.869 71.5123 79.9888 72.5316 79.4301 72.1709C78.7734 71.7475 78.2442 71.2771 77.3071 71.3966C76.4054 71.5123 75.8683 70.8007 75.2841 70.3263C74.749 69.8911 74.2315 69.6167 73.4846 69.8186C70.7128 70.5714 68.3624 69.6363 65.9846 68.8306C65.4318 68.6444 64.9633 68.2543 64.3987 68.1191C64.0184 68.0289 63.6734 67.4055 63.0226 68.319C62.6423 68.8522 61.4191 68.5248 60.9408 67.8054C60.3763 66.9546 59.4745 66.8586 58.6198 67.1624C56.4479 67.9348 54.5033 67.1997 52.4548 67.1938C52.1843 67.1938 51.8745 67.2154 51.8079 66.8919C51.6256 66.0176 51.0904 66.3058 50.6298 66.7155C50.2299 67.0723 49.8476 67.0174 49.4595 66.9762C48.9459 66.9213 48.6205 66.935 49.2615 66.2391C49.5379 65.9392 48.15 65.4864 48.0363 65.5687C47.0915 66.2529 46.2113 65.804 45.4193 65.7216C43.4689 65.5178 41.3753 66.2764 39.5287 65.5197C39.1229 65.3531 38.9054 65.6628 38.6348 65.8843C37.3469 66.9448 35.9669 66.9527 34.5477 66.7527C31.57 66.3332 31.568 66.347 28.0121 67.5133C27.5377 67.6682 27.2241 67.58 27.1163 67.0703C26.983 66.4313 26.3008 66.4391 25.9773 66.6841C24.4542 67.8387 22.7586 67.4388 21.1747 67.7799C19.828 68.07 18.5126 68.3935 17.1855 68.8071C15.9192 69.2011 14.5352 69.2148 13.3551 69.7833C12.2632 70.3087 11.2635 70.4949 10.1873 70.4537C9.15229 70.4126 8.37014 71.5476 7.16261 71.3515C8.08982 70.2028 9.32675 69.7931 10.4716 69.3717C14.4764 67.8956 18.5793 66.9017 22.6449 65.7197C26.6909 64.5435 30.7369 64.1554 34.7907 63.6222C38.2291 63.1713 41.6478 63.1615 45.0332 63.3458C49.83 63.6065 54.6522 63.7378 59.3589 64.4612C64.0655 65.1845 68.7584 65.9647 73.318 67.1487C79.5419 68.7659 85.7775 70.4439 91.5917 72.9315C96.7237 75.127 101.848 77.4206 106.46 80.5766C109.389 82.58 112.357 84.5187 115.137 86.7123C115.529 87.022 116.077 87.1416 116.534 87.3827C117.436 87.8551 118.485 88.0335 118.602 89.4723C118.677 90.376 119.763 90.9778 120 92.0325C119.614 92.7009 118.887 92.3147 118.379 92.6343C118.73 92.5598 119.026 92.3794 119.073 92.0207C119.088 91.9011 118.869 91.6855 118.724 91.6737C118.318 91.6404 118.204 92.0109 118.053 92.301V92.3049ZM19.9103 94.273C20.8943 94.4848 21.4726 94.0633 22.0529 93.6673C21.406 93.7281 20.7297 93.6497 19.9103 94.273ZM37.9076 90.7034C38.1134 90.6857 38.382 90.6897 38.6427 90.6309C38.7799 90.5995 38.7858 90.4407 38.6486 90.3447C38.4212 90.1859 38.1663 90.1643 37.9037 90.3564C37.7566 90.4623 37.7468 90.574 37.9076 90.7053V90.7034Z" fill="#F7CACD"/>
<path d="M106.705 78.5262C108.066 78.6124 108.522 79.9826 109.834 80.0767C107.991 80.8432 107.734 78.9986 106.705 78.5262Z" fill="#F7CACD"/>
<path d="M26.2413 63.8986C24.9573 63.7594 23.6537 64.6101 22.2148 64.3965C23.9066 63.2674 25.2043 63.1399 26.255 63.9103L26.2413 63.8986Z" fill="#F7CACD"/>
<path d="M91.5748 71.2437C90.5045 71.6201 90.0418 70.5027 88.7441 70.7654C90.3143 69.7304 91.0769 69.9793 91.5669 71.3202L91.5748 71.2457V71.2437Z" fill="#F7CACD"/>
<path d="M34.5039 62.0892C35.4919 61.4659 36.5034 61.5208 37.5482 61.6011C36.5308 62.4715 36.5132 62.4734 34.5078 62.0108L34.502 62.0892H34.5039Z" fill="#F7CACD"/>
<path d="M41.5614 61.9265C40.497 62.0108 39.8305 62.1814 39.1875 61.9128C39.8331 61.4476 40.6244 61.4521 41.5614 61.9265Z" fill="#F7CACD"/>
<path d="M91.5664 71.3182C92.6054 70.4988 92.917 71.6083 93.9736 71.8553C92.6504 72.2415 92.1192 71.724 91.5743 71.2418L91.5664 71.3162V71.3182Z" fill="#F7CACD"/>
<path d="M52.2609 102.059C51.6336 102.047 50.9024 102.491 50.3418 101.781C51.2161 101.107 51.812 101.265 52.2629 102.065V102.059H52.2609Z" fill="#F7CACD"/>
<path d="M100.137 75.2564C101.156 74.6977 101.411 75.4936 102.23 75.623C101.05 76.2895 100.739 75.6191 100.137 75.2564Z" fill="#F7CACD"/>
<path d="M61.0898 62.8459C61.8759 62.6381 62.5189 62.7596 63.1913 63.1635C62.4921 63.4105 61.7916 63.3046 61.0898 62.8459Z" fill="#F7CACD"/>
<path d="M13.3236 67.1369C12.8923 67.4388 12.4356 67.7289 11.8867 67.6094C12.3023 67.0801 12.8316 67.1977 13.3236 67.1369Z" fill="#F7CACD"/>
<path d="M34.5106 62.0108C34.0245 62.8753 33.4031 62.4401 32.6699 62.4735C33.3482 61.609 33.9206 61.7305 34.5067 62.0892L34.5126 62.0089L34.5106 62.0108Z" fill="#F7CACD"/>
<path d="M17.7617 65.6824C17.9479 65.4844 18.0656 65.3178 18.2204 65.2041C18.5086 64.9944 18.7242 65.0669 18.7438 65.3962C18.7556 65.6001 18.5811 65.7883 18.3753 65.8079C18.1949 65.8255 18.0146 65.7393 17.7617 65.6805V65.6824Z" fill="#F7CACD"/>
<path d="M52.2637 102.063C52.6675 101.114 53.3399 101.003 54.2161 101.175C53.7025 102.155 52.7635 101.41 52.2617 102.057L52.2637 102.063Z" fill="#F7CACD"/>
<path d="M26.2559 63.9084C26.3128 63.6437 26.3402 63.3732 26.4343 63.1184C26.5127 62.9047 26.7264 62.8145 26.9028 62.938C27.0459 63.036 27.2263 63.2046 27.2184 63.3516C27.2047 63.579 26.944 63.5849 26.7499 63.6084C26.548 63.632 26.35 63.6672 26.2363 63.8907C26.2383 63.8986 26.252 63.9084 26.252 63.9084H26.2559Z" fill="#F7CACD"/>
<path d="M110.628 80.5609C110.787 80.7628 110.906 81.053 110.661 81.2157C110.526 81.3058 110.207 81.1098 109.981 81.0196C109.724 80.9157 109.836 80.6903 109.964 80.5531C110.193 80.308 110.424 80.408 110.628 80.5609Z" fill="#F7CACD"/>
<path d="M55.894 100.926C55.8979 101.036 55.9332 101.226 55.8999 101.242C55.6019 101.385 55.2961 101.563 54.9688 101.442C55.0374 101.324 55.0844 101.185 55.1765 101.091C55.3863 100.877 55.6274 100.754 55.892 100.926H55.894Z" fill="#F7CACD"/>
<path d="M70.19 46.066C64.6248 47.3558 59.0753 48.7163 53.5394 50.1512C48.0036 51.5881 42.5403 53.0367 37.1515 54.501C36.7418 50.8098 36.287 47.15 35.7891 43.5176C35.2912 39.8852 34.7482 36.2842 34.1641 32.7106C36.3302 32.4185 38.6884 32.0226 41.2367 31.5246C43.7851 31.0267 46.406 30.4857 49.1014 29.8996C51.7948 29.3154 54.4608 28.6842 57.0973 28.0099C59.7339 27.3375 62.194 26.7357 64.4778 26.2084H85.3018C85.3018 28.3764 85.2587 30.5445 85.1704 32.7106C85.0822 34.8787 85.0391 37.1193 85.0391 39.4324V63.9045C85.0391 66.4234 85.0685 68.8404 85.1273 71.1536C85.1842 73.4687 85.2292 75.6642 85.2586 77.744C85.288 79.8239 85.2724 81.888 85.2155 83.9385H48.2232C48.28 81.888 48.3251 79.8082 48.3545 77.6989C48.3839 75.5897 48.3976 73.4079 48.3976 71.1536C48.3976 68.8993 48.3819 66.496 48.3545 63.9476C48.3251 61.3992 48.3114 58.6627 48.3114 55.7321V49.0985C48.3114 47.0775 48.2957 45.1603 48.2682 43.3431C48.2388 41.5279 48.2094 39.8146 48.18 38.2033C48.1506 36.592 48.1055 34.9669 48.0487 33.3261L70.192 46.0679L70.19 46.066ZM94.5288 92.1089H36.4478C36.5654 89.9997 36.6085 88.0237 36.5791 86.1771C36.5497 84.3325 36.536 82.3546 36.536 80.2453C36.536 78.2537 36.5497 76.3659 36.5791 74.5782C36.6085 72.7924 36.5634 71.0203 36.4478 69.2619C38.0866 69.2619 40.1821 69.305 42.7305 69.3932C45.2788 69.4815 48.0605 69.5246 51.0773 69.5246H81.7439C84.3491 69.5246 86.7524 69.4815 88.9498 69.3932C91.1473 69.305 93.0057 69.2619 94.5288 69.2619C94.47 71.0183 94.4249 72.7924 94.3974 74.5782C94.368 76.3659 94.3543 78.2557 94.3543 80.2453C94.3543 82.3546 94.368 84.3305 94.3974 86.1771C94.4269 88.0217 94.47 89.9997 94.5288 92.1089Z" fill="#272727"/>
<path d="M86.1354 23.6247C85.5983 23.6541 85.3787 23.3973 85.3297 23.0229C85.2983 22.774 85.3336 22.4956 85.416 22.2584C85.9472 20.7039 86.4863 19.1533 87.0528 17.6106C87.2351 17.1147 87.4978 16.95 87.78 17.0127C88.178 17.099 88.4191 17.5185 88.323 18.0438C88.2525 18.4241 88.1564 18.8083 88.0133 19.1671C87.6467 20.0904 87.2508 21.0038 86.8646 21.9193C86.6313 22.4721 86.3941 23.021 86.1354 23.6267V23.6247Z" fill="#F7CACD"/>
<path d="M90.8794 22.0604C90.2031 22.6387 89.6503 23.1288 89.0779 23.5953C88.9152 23.7267 88.7035 23.8345 88.5016 23.86C88.4016 23.8717 88.1684 23.662 88.1801 23.5738C88.2095 23.3287 88.2781 23.0484 88.4291 22.8641C89.2308 21.8918 90.062 20.945 90.8853 19.9904C90.9421 19.9257 91.0127 19.8708 91.0833 19.8218C91.3146 19.661 91.5655 19.6003 91.8066 19.7806C92.0438 19.9571 92.1242 20.2511 91.985 20.4765C91.6224 21.0626 91.2009 21.6115 90.8814 22.0624L90.8794 22.0604Z" fill="#F7CACD"/>
<path d="M89.9609 25.7771C90.2511 25.4478 90.4079 25.1792 90.6392 25.0204C91.7272 24.2716 92.9641 23.8658 94.2285 23.5365C94.35 23.5052 94.5049 23.4895 94.6107 23.5385C94.7558 23.6071 94.9263 23.7247 94.9773 23.8619C95.0283 23.9972 94.9969 24.2305 94.9048 24.3343C94.7381 24.5225 94.5205 24.7088 94.2873 24.7872C93.0954 25.1851 91.8938 25.5576 90.6862 25.9084C90.5177 25.9575 90.3001 25.8438 89.9609 25.7771Z" fill="#F7CACD"/>
</svg>
