<svg width="120" height="120" viewBox="0 0 120 120" fill="none" xmlns="http://www.w3.org/2000/svg">
<g clip-path="url(#clip0_7686_212)">
<path d="M118.053 92.3048C117.495 91.8638 117.105 92.295 116.952 92.7694C116.652 93.6986 116.295 94.614 116.244 95.604C116.134 97.6956 115.491 98.172 113.496 97.8251C113.429 97.8133 113.366 97.7956 113.302 97.776C112.794 97.6211 112.175 97.3525 111.812 97.9838C111.424 98.66 111.732 99.2814 112.335 99.6186C112.561 99.7441 112.865 99.7873 112.906 100.064C113.014 100.764 113.725 101.438 113.37 102.049C112.972 102.739 112.049 102.365 111.453 102.257C109.199 101.846 107.241 100.785 105.241 99.8303C103.242 98.8757 101.258 97.8936 99.2603 96.935C98.9702 96.7958 98.6506 96.6782 98.3233 96.641C98.0567 96.6116 97.7646 96.7566 97.598 97.0213C97.4039 97.331 97.6195 97.5113 97.7881 97.7015C98.3115 98.2876 99.2995 98.1778 99.864 98.9874C99.2309 99.0816 98.6996 99.4696 98.2723 98.809C97.9391 98.2935 97.3314 98.2935 96.7472 98.1425C94.9712 97.6838 93.2795 96.935 91.6309 96.2528C89.849 95.5158 87.9926 94.9728 86.1813 94.3337C82.6881 93.0987 78.9753 92.4675 75.2861 91.752C73.3905 91.3835 71.5479 90.8895 69.5699 90.8287C69.2191 90.817 68.8858 90.8346 68.5761 91.0718C68.433 91.3698 68.6388 91.5619 68.7035 91.801C69.1073 93.2771 69.0113 93.5045 67.5332 94.173C67.0726 94.3808 66.6099 94.5141 66.2747 94.9512C65.7317 95.6608 65.8513 96.2273 66.7491 96.2861C67.4352 96.3312 67.7861 97.0075 68.5447 96.886C65.126 98.4719 61.5465 98.8031 58.0376 99.4677C54.5464 100.128 51.0238 101.05 47.4365 100.422C48.1481 99.4912 49.1713 99.1992 50.2455 99.1796C52.5724 99.1365 54.815 98.0367 57.4084 98.0504C56.5027 96.9487 55.4266 97.1232 54.4464 97.2055C52.1725 97.3976 49.8947 97.6368 47.6188 97.9308C46.274 98.1033 45.0371 98.0798 44.1373 97.0997C43.7021 96.6253 43.1709 96.5724 42.5162 96.5841C40.5304 96.6233 38.5525 96.5724 36.5726 96.5527C36.2315 96.5489 35.8806 96.5645 35.5552 96.5018C34.0282 96.2097 32.4227 96.1744 31.9189 94.2318C31.6367 93.1399 31.3661 93.2399 31.7327 92.5714C31.2348 92.2597 30.3409 93.2654 30.0606 92.2852C29.9547 91.9128 29.6823 92.0559 29.4215 92.1068C28.9432 92.2009 28.463 92.3166 27.9847 92.3597C27.6612 92.3891 27.0829 92.6557 27.3005 91.9069C27.1084 91.9873 26.8222 92.0186 26.7379 92.1559C25.6774 93.8848 23.9112 93.9946 22.3332 94.3788C21.2413 94.6454 20.4552 95.3433 19.579 95.9294C19.2987 96.1176 19.4986 96.8056 18.8243 96.7311C18.2519 96.6684 17.7344 96.5037 17.654 95.8921C17.5364 94.9924 16.9856 95.0786 16.2191 95.1041C14.7234 95.1551 13.359 95.6687 11.9751 96.2646C10.3422 96.9664 8.69162 97.6152 6.56277 98.4875C7.51154 97.1644 8.50932 96.7547 9.56395 96.2313C8.62105 95.9666 7.94672 96.445 7.24886 96.7057C6.64902 96.9291 6.07074 97.18 5.43365 97.2859C4.39274 97.4585 3.86739 97.2134 3.63804 96.1372C3.25382 94.3239 3.2499 92.397 2.58929 90.668C2.35993 90.0662 2.80688 89.6545 3.38712 89.1057C1.95416 88.7803 1.23866 87.7766 0.421222 86.7945C-0.141377 86.1182 -0.133535 85.6183 0.40358 85.1106C1.0936 84.4578 1.16613 83.8129 0.995584 83.07C1.49741 82.7269 1.962 82.8426 2.38542 82.8975C3.26166 83.0112 3.86543 82.4368 3.94384 81.788C4.09086 80.5687 5.01807 80.1256 5.8257 79.6199C6.85681 78.973 7.98789 78.5045 9.06212 77.9654C8.97194 76.9304 8.30153 76.2776 7.67816 75.6444C7.04303 75.0015 7.22338 74.531 7.89183 73.9547C8.85041 73.1275 9.9266 72.5982 11.1008 72.2375C16.1093 70.7026 21.1649 69.7107 26.2537 68.9403C30.2566 68.3346 34.2438 68.0307 38.2075 67.9817C45.2743 67.8935 52.2764 68.1797 59.1393 69.2696C64.9711 70.1949 70.7226 71.3808 76.5348 72.3649C77.1307 72.4649 77.4424 73.0824 78.1775 72.8942C78.8813 72.7158 79.5595 73.3392 80.1162 73.1353C80.6102 72.955 81.1042 72.5707 81.6923 72.5041C81.6237 72.3688 81.5904 72.2297 81.5041 72.1434C80.869 71.5122 79.9888 72.5315 79.4301 72.1708C78.7734 71.7474 78.2442 71.277 77.3071 71.3965C76.4054 71.5122 75.8683 70.8006 75.2841 70.3262C74.749 69.891 74.2315 69.6166 73.4846 69.8185C70.7128 70.5713 68.3624 69.6362 65.9846 68.8305C65.4318 68.6443 64.9633 68.2542 64.3987 68.119C64.0184 68.0288 63.6734 67.4054 63.0226 68.3189C62.6423 68.8521 61.4191 68.5247 60.9408 67.8053C60.3763 66.9545 59.4745 66.8585 58.6198 67.1623C56.4479 67.9347 54.5033 67.1996 52.4548 67.1937C52.1843 67.1937 51.8745 67.2153 51.8079 66.8918C51.6256 66.0175 51.0904 66.3057 50.6298 66.7154C50.2299 67.0722 49.8476 67.0173 49.4595 66.9761C48.9459 66.9212 48.6205 66.9349 49.2615 66.239C49.5379 65.9391 48.15 65.4863 48.0363 65.5686C47.0915 66.2528 46.2113 65.8039 45.4193 65.7215C43.4689 65.5177 41.3753 66.2763 39.5287 65.5196C39.1229 65.353 38.9054 65.6627 38.6348 65.8842C37.3469 66.9447 35.9669 66.9526 34.5477 66.7526C31.57 66.3331 31.568 66.3469 28.0121 67.5132C27.5377 67.6681 27.2241 67.5799 27.1163 67.0702C26.983 66.4312 26.3008 66.439 25.9773 66.684C24.4542 67.8386 22.7586 67.4387 21.1747 67.7798C19.828 68.0699 18.5126 68.3934 17.1855 68.807C15.9192 69.201 14.5352 69.2147 13.3551 69.7832C12.2632 70.3086 11.2635 70.4948 10.1873 70.4536C9.15229 70.4125 8.37014 71.5475 7.16261 71.3514C8.08982 70.2027 9.32675 69.793 10.4716 69.3716C14.4764 67.8955 18.5793 66.9016 22.6449 65.7196C26.6909 64.5434 30.7369 64.1553 34.7907 63.6221C38.2291 63.1712 41.6478 63.1614 45.0332 63.3457C49.83 63.6064 54.6522 63.7377 59.3589 64.4611C64.0655 65.1844 68.7584 65.9646 73.318 67.1486C79.5419 68.7658 85.7775 70.4438 91.5917 72.9314C96.7237 75.1269 101.848 77.4205 106.46 80.5765C109.389 82.5799 112.357 84.5186 115.137 86.7122C115.529 87.0219 116.077 87.1415 116.534 87.3826C117.436 87.855 118.485 88.0334 118.602 89.4722C118.677 90.3759 119.763 90.9777 120 92.0324C119.614 92.7008 118.887 92.3146 118.379 92.6342C118.73 92.5597 119.026 92.3793 119.073 92.0206C119.088 91.901 118.869 91.6854 118.724 91.6736C118.318 91.6403 118.204 92.0108 118.053 92.3009V92.3048ZM19.9103 94.2729C20.8943 94.4847 21.4726 94.0632 22.0529 93.6672C21.406 93.728 20.7297 93.6496 19.9103 94.2729ZM37.9076 90.7033C38.1134 90.6856 38.382 90.6896 38.6427 90.6308C38.7799 90.5994 38.7858 90.4406 38.6486 90.3446C38.4212 90.1858 38.1663 90.1642 37.9037 90.3563C37.7566 90.4622 37.7468 90.5739 37.9076 90.7052V90.7033Z" fill="#E6485C"/>
<path d="M106.705 78.5262C108.066 78.6124 108.522 79.9826 109.834 80.0767C107.991 80.8432 107.734 78.9986 106.705 78.5262Z" fill="#E6485C"/>
<path d="M26.2413 63.8986C24.9573 63.7594 23.6537 64.6101 22.2148 64.3965C23.9066 63.2674 25.2043 63.1399 26.255 63.9103L26.2413 63.8986Z" fill="#E6485C"/>
<path d="M91.5748 71.2437C90.5045 71.6201 90.0418 70.5027 88.7441 70.7654C90.3143 69.7304 91.0769 69.9793 91.5669 71.3202L91.5748 71.2457V71.2437Z" fill="#E6485C"/>
<path d="M34.5039 62.0892C35.4919 61.4659 36.5034 61.5208 37.5482 61.6011C36.5308 62.4715 36.5132 62.4734 34.5078 62.0108L34.502 62.0892H34.5039Z" fill="#E6485C"/>
<path d="M41.5614 61.9265C40.497 62.0108 39.8305 62.1814 39.1875 61.9128C39.8331 61.4476 40.6244 61.4521 41.5614 61.9265Z" fill="#E6485C"/>
<path d="M91.5664 71.3181C92.6054 70.4987 92.917 71.6082 93.9736 71.8552C92.6504 72.2414 92.1192 71.7239 91.5743 71.2417L91.5664 71.3161V71.3181Z" fill="#E6485C"/>
<path d="M52.2609 102.059C51.6336 102.047 50.9024 102.491 50.3418 101.781C51.2161 101.107 51.812 101.265 52.2629 102.065V102.059H52.2609Z" fill="#E6485C"/>
<path d="M100.137 75.2564C101.156 74.6977 101.411 75.4936 102.23 75.623C101.05 76.2895 100.739 75.6191 100.137 75.2564Z" fill="#E6485C"/>
<path d="M61.0898 62.8458C61.8759 62.638 62.5189 62.7595 63.1913 63.1634C62.4921 63.4104 61.7916 63.3045 61.0898 62.8458Z" fill="#E6485C"/>
<path d="M13.3236 67.137C12.8923 67.4389 12.4356 67.729 11.8867 67.6095C12.3023 67.0802 12.8316 67.1978 13.3236 67.137Z" fill="#E6485C"/>
<path d="M34.5106 62.0108C34.0245 62.8753 33.4031 62.4401 32.6699 62.4735C33.3482 61.609 33.9206 61.7305 34.5067 62.0892L34.5126 62.0089L34.5106 62.0108Z" fill="#E6485C"/>
<path d="M17.7617 65.6824C17.9479 65.4844 18.0656 65.3178 18.2204 65.2041C18.5086 64.9944 18.7242 65.0669 18.7438 65.3962C18.7556 65.6001 18.5811 65.7883 18.3753 65.8079C18.1949 65.8255 18.0146 65.7393 17.7617 65.6805V65.6824Z" fill="#E6485C"/>
<path d="M52.2637 102.063C52.6675 101.114 53.3399 101.003 54.2161 101.175C53.7025 102.155 52.7635 101.41 52.2617 102.057L52.2637 102.063Z" fill="#E6485C"/>
<path d="M26.2559 63.9084C26.3128 63.6437 26.3402 63.3732 26.4343 63.1184C26.5127 62.9047 26.7264 62.8145 26.9028 62.938C27.0459 63.036 27.2263 63.2046 27.2184 63.3516C27.2047 63.579 26.944 63.5849 26.7499 63.6084C26.548 63.632 26.35 63.6672 26.2363 63.8907C26.2383 63.8986 26.252 63.9084 26.252 63.9084H26.2559Z" fill="#E6485C"/>
<path d="M110.628 80.561C110.787 80.7629 110.906 81.0531 110.661 81.2158C110.526 81.3059 110.207 81.1099 109.981 81.0197C109.724 80.9158 109.836 80.6904 109.964 80.5532C110.193 80.3081 110.424 80.4081 110.628 80.561Z" fill="#E6485C"/>
<path d="M55.894 100.926C55.8979 101.036 55.9331 101.226 55.8998 101.242C55.6018 101.385 55.2961 101.563 54.9688 101.442C55.0373 101.324 55.0843 101.185 55.1764 101.091C55.3862 100.877 55.6273 100.754 55.8919 100.926H55.894Z" fill="#E6485C"/>
<path d="M66.6992 43.7366C59.7863 45.3387 52.8928 47.0287 46.0163 48.8111C39.1398 50.596 32.3534 52.3954 25.6596 54.2143C25.1507 49.6292 24.5857 45.0831 23.9673 40.571C23.3488 36.0589 22.6743 31.5859 21.9487 27.1468C24.6394 26.784 27.5687 26.2922 30.7341 25.6736C33.8997 25.0551 37.1553 24.3831 40.5035 23.6551C43.8492 22.9294 47.1608 22.1453 50.4358 21.3077C53.7109 20.4725 56.7668 19.7249 59.6037 19.0699H85.4707C85.4707 21.763 85.4172 24.4561 85.3075 27.1468C85.198 29.84 85.1444 32.6232 85.1444 35.4965V65.8951C85.1444 69.024 85.1809 72.0264 85.254 74.8998C85.3247 77.7756 85.3806 80.5027 85.4171 83.0862C85.4536 85.6698 85.4342 88.2338 85.3635 90.7809H39.4126C39.4832 88.2338 39.5392 85.6503 39.5757 83.0302C39.6122 80.4102 39.6292 77.7 39.6292 74.8998C39.6292 72.0996 39.6097 69.1142 39.5757 65.9487C39.5392 62.7831 39.5222 59.3839 39.5222 55.7436V47.5035C39.5222 44.993 39.5027 42.6115 39.4685 40.3543C39.432 38.0995 39.3955 35.9712 39.3589 33.9697C39.3224 31.9682 39.2664 29.9495 39.1958 27.9114L66.7017 43.7389L66.6992 43.7366ZM96.9323 100.93H24.7855C24.9316 98.31 24.9851 95.8554 24.9486 93.5616C24.9121 91.2703 24.895 88.8134 24.895 86.1933C24.895 83.7194 24.9121 81.3744 24.9486 79.1537C24.9851 76.9355 24.9291 74.7342 24.7855 72.55C26.8212 72.55 29.4241 72.6035 32.5897 72.7131C35.7551 72.8227 39.2105 72.8763 42.9579 72.8763H81.0512C84.2873 72.8763 87.2726 72.8227 90.0022 72.7131C92.7319 72.6035 95.0403 72.55 96.9323 72.55C96.8593 74.7317 96.8032 76.9355 96.7691 79.1537C96.7326 81.3744 96.7155 83.7218 96.7155 86.1933C96.7155 88.8134 96.7326 91.2678 96.7691 93.5616C96.8057 95.8529 96.8593 98.31 96.9323 100.93Z" fill="#282B2E"/>
<path d="M85.1354 15.6247C84.5983 15.6541 84.3787 15.3973 84.3297 15.0229C84.2983 14.774 84.3336 14.4956 84.416 14.2584C84.9472 12.7039 85.4863 11.1533 86.0528 9.61061C86.2351 9.11471 86.4978 8.95001 86.78 9.01271C87.178 9.09901 87.4191 9.51851 87.323 10.0438C87.2525 10.4241 87.1564 10.8083 87.0133 11.1671C86.6467 12.0904 86.2508 13.0038 85.8646 13.9193C85.6313 14.4721 85.3941 15.021 85.1354 15.6267V15.6247Z" fill="#E6485C"/>
<path d="M89.8794 14.0604C89.2031 14.6387 88.6503 15.1288 88.0779 15.5953C87.9152 15.7267 87.7035 15.8345 87.5016 15.86C87.4016 15.8717 87.1684 15.662 87.1801 15.5738C87.2095 15.3287 87.2781 15.0484 87.4291 14.8641C88.2308 13.8918 89.062 12.945 89.8853 11.9904C89.9421 11.9257 90.0127 11.8708 90.0833 11.8218C90.3146 11.661 90.5655 11.6003 90.8066 11.7806C91.0438 11.9571 91.1242 12.2511 90.985 12.4765C90.6224 13.0626 90.2009 13.6115 89.8814 14.0624L89.8794 14.0604Z" fill="#E6485C"/>
<path d="M88.9609 17.7771C89.2511 17.4478 89.4079 17.1792 89.6392 17.0204C90.7272 16.2716 91.9641 15.8658 93.2285 15.5365C93.35 15.5052 93.5049 15.4895 93.6107 15.5385C93.7558 15.6071 93.9263 15.7247 93.9773 15.8619C94.0283 15.9972 93.9969 16.2305 93.9048 16.3343C93.7381 16.5225 93.5205 16.7088 93.2873 16.7872C92.0954 17.1851 90.8938 17.5576 89.6862 17.9084C89.5177 17.9575 89.3001 17.8438 88.9609 17.7771Z" fill="#E6485C"/>
</g>
<defs>
<clipPath id="clip0_7686_212">
<rect width="120" height="120" fill="white"/>
</clipPath>
</defs>
</svg>
