<svg width="120" height="120" viewBox="0 0 120 120" fill="none" xmlns="http://www.w3.org/2000/svg">
<path d="M34.7058 24.1562C34.6084 24.2862 34.3912 24.4595 34.4286 24.5371C34.8058 25.2875 34.5385 26.1816 34.7983 26.9571C34.9281 27.3425 35.0005 27.7463 35.1104 28.1386C35.1554 28.3028 35.2802 28.451 35.2802 28.6198C35.2752 29.5139 35.8122 30.2301 36.1618 31.0079C36.2742 31.2565 36.3616 31.5165 36.4116 31.7857C36.6638 33.1656 37.0434 34.5068 37.5129 35.8274C37.9 36.9222 38.1198 38.0695 38.4095 39.1939C38.452 39.3582 38.4495 39.5361 38.4969 39.7003C38.929 41.1418 39.3785 42.5765 39.7981 44.0225C40.1028 45.074 40.38 46.1323 40.6547 47.1907C41.0867 48.8443 41.4588 50.5162 41.9458 52.1538C42.3654 53.5634 42.9523 54.9228 43.3818 56.3278C43.9238 58.0909 44.3833 59.8791 44.8728 61.6582C44.9177 61.8224 44.9153 62.0003 44.9702 62.1623C45.6245 64.1056 46.2913 66.0466 46.9406 67.9922C47.1254 68.5419 47.2678 69.1052 47.4326 69.6618C47.55 70.0541 47.6299 70.4601 47.8022 70.8341C48.2942 71.9016 48.3891 73.0785 48.7387 74.1825C48.8112 74.4083 48.8612 74.6546 49.0285 74.8348C49.3956 75.2248 49.468 75.697 49.468 76.1851C49.468 76.9606 49.6154 77.6904 49.9026 78.3952C50.0549 78.7716 50.1149 79.1776 50.0974 79.6178C49.7702 79.0179 49.443 78.4203 49.1184 77.8204C48.971 77.549 48.8836 77.2662 48.4641 77.1225C48.2543 77.0495 48.1519 76.8237 48.077 76.6412C47.6649 75.624 47.2753 74.5999 46.8782 73.578C46.7933 73.3568 46.7009 73.1401 46.4611 72.9508C46.4611 73.0466 46.4487 73.1447 46.4686 73.2336C46.4911 73.334 46.5311 73.4298 46.586 73.5187C47.5101 75.056 47.6149 76.8488 48.2768 78.4659C48.3692 78.6895 48.4416 78.9289 48.1394 79.1753C47.7523 79.4923 47.7948 79.7866 47.9072 80.0854C47.9796 80.2769 48.0395 80.4731 48.102 80.6693C48.1969 80.9658 48.1469 81.2691 47.8647 81.6728C47.6923 81.5816 47.5475 81.5314 47.4451 81.4493C47.0255 81.1117 46.7808 80.6943 46.6234 80.2359C46.556 80.042 46.5485 79.7934 46.3712 79.6793C45.4871 79.116 45.4597 78.2127 45.0926 77.4487C44.7854 76.81 44.5506 76.144 44.1935 75.2659C44.4657 77.0974 45.587 78.4294 45.7069 80.1013C45.4347 80.1538 45.2699 80.1857 45.1101 80.2153C44.7679 81.1094 45.115 81.8736 45.3398 82.6513C45.7943 84.2274 46.3538 85.7738 46.8008 87.3522C47.0156 88.1072 47.113 88.8941 47.5375 89.5829C47.555 89.6125 47.56 89.649 47.58 89.6764C48.6564 91.0677 48.981 92.735 49.7178 94.2518C49.9126 94.6533 50.0824 95.0547 50.4595 95.3877C50.7292 95.6249 50.8316 95.9739 50.964 96.2886C51.2312 96.9204 51.4585 97.5682 51.7207 98.2023C51.8481 98.5125 51.943 98.8523 52.5773 98.9436C52.7921 98.7588 53.0218 98.5604 53.2716 98.346C53.9833 98.2251 54.2606 98.9367 55.1022 98.5923C55.7665 98.6653 56.4433 98.6562 57.1875 98.3095C57.4972 98.7611 57.7594 99.1694 58.0516 99.5617C58.8907 100.7 59.8447 101.788 60.549 102.981C61.0185 103.779 61.1834 104.71 61.4007 105.604C61.5155 106.08 61.0735 106.573 60.8112 107.091C60.4167 107.098 60.0895 107.102 59.7973 107.107C59.0431 107.558 58.5536 108.04 58.6684 108.79C58.2639 108.612 58.0466 108.48 57.7819 108.411C57.5372 108.348 57.24 108.354 56.9078 108.327C56.8679 108.567 56.8528 108.742 56.8054 108.918C56.7704 109.055 56.7505 109.255 56.6281 109.319C56.1161 109.586 56.0562 109.944 55.8389 110.289C55.6067 110.654 55.3194 111.03 54.7375 111.274C54.3779 111.424 54.1007 111.703 53.7686 111.908C53.6112 112.004 53.3815 112.129 53.2291 112.122C52.7397 112.104 52.3575 112.193 52.0304 112.544C51.9255 112.656 51.6907 112.736 51.5034 112.798C50.8266 113.012 50.1423 113.213 49.3507 113.45C49.001 113.261 48.5864 113.035 48.1569 112.8C47.6349 113.215 48.1469 113.605 47.8397 114.013C47.4601 114.212 47.2129 114.004 46.8308 113.993C46.7583 113.721 46.6784 113.429 46.6035 113.149C46.4936 113.131 46.3687 113.08 46.3263 113.108C45.7519 113.454 44.9202 113.493 44.5032 114.038C44.4557 114.1 44.2534 114.132 44.121 114.152C43.1171 114.314 42.8674 114.467 42.6102 115.108C42.5252 115.318 42.4503 115.528 42.3604 115.767C41.6536 115.69 41.6087 114.948 40.6372 115.224C40.5523 115.43 40.4524 115.671 40.34 115.938C40.0378 116.03 39.7481 116.116 39.4684 116.201C39.3935 116.144 39.2961 116.112 39.2761 116.052C39.1262 115.598 38.9565 115.149 38.869 114.679C38.8191 114.408 38.8415 114.13 38.5743 113.931C38.4869 113.867 38.447 113.758 38.427 113.66C38.1148 112.075 37.3181 110.647 36.7637 109.139C36.6213 108.756 36.499 108.361 36.4515 107.955C36.3416 106.984 35.8022 106.153 35.46 105.262C34.4036 102.511 33.2399 99.7966 32.2159 97.0368C31.5616 95.2714 31.0871 93.449 30.5327 91.6539C30.3803 91.1635 30.218 90.6754 30.0731 90.185C29.9108 89.6331 29.7035 89.1085 29.8883 88.4607C30.0257 87.9771 29.8634 87.4936 29.7959 87.0215C29.7435 86.6565 29.786 86.3281 30.3179 86.0407C30.7325 85.8172 30.7849 85.5366 30.735 85.2515C30.6925 85.0166 30.6151 84.7862 30.6026 84.5467C30.5976 84.4692 30.7424 84.3643 30.8398 84.2434C31.649 84.6448 31.127 85.418 31.4118 85.9472C31.699 86.4832 31.8813 87.058 32.1135 87.635C32.1935 87.5712 32.2683 87.5324 32.2633 87.5119C32.156 87.0466 32.0761 86.5744 31.9212 86.1251C30.7699 82.8315 29.6012 79.5425 28.4374 76.2512C28.4024 76.1554 28.3999 76.0436 28.3374 75.9615C27.5058 74.8371 27.3585 73.48 26.819 72.2551C26.7241 72.0362 26.7116 71.7898 26.6467 71.5595C26.4519 70.8706 26.297 70.1818 25.7626 69.5979C25.4579 69.2649 25.3905 68.7882 25.3056 68.3548C25.1533 67.5793 24.896 66.8449 24.4265 66.1675C24.6987 67.317 24.9709 68.4666 25.2407 69.6184C25.1957 69.6298 25.1508 69.6435 25.1058 69.6549C24.8236 68.9615 24.5289 68.2704 24.2617 67.5702C24.1493 67.2737 24.0569 66.9977 23.5025 66.9909C23.0979 66.9863 23.033 66.7263 22.9506 66.5005C22.4561 65.1525 21.9665 63.8022 21.4721 62.4542C21.3422 62.1007 21.1974 61.754 21.0575 61.4027C20.9826 61.2112 20.8602 61.0287 20.8402 60.8257C20.7278 59.6488 20.2059 58.5973 19.8163 57.5025C19.5566 56.768 19.4591 55.9788 19.1045 55.2672C18.8448 54.7449 18.6175 54.2089 18.4277 53.6615C18.0931 52.6898 17.7834 51.7113 17.4937 50.726C16.9692 48.9561 16.5547 47.1496 15.9328 45.4093C15.1386 43.1855 14.5642 40.8977 13.815 38.6602C13.7776 37.0157 12.9509 35.5765 12.7836 33.9639C12.7386 33.5214 12.5264 33.1131 12.389 32.6912C12.1543 31.9773 11.9495 31.2634 11.9345 30.4856C11.922 29.9017 11.6298 29.368 11.4899 28.8023C11.445 28.6221 11.4949 28.4191 11.5074 28.1112C11.902 28.1887 12.1467 28.248 12.404 28.2823C12.9284 28.353 13.3056 28.1066 13.2531 27.7143C13.1982 27.306 13.1257 26.9001 13.0134 26.5055C12.4365 24.5006 11.8421 22.5003 11.2577 20.4977C11.2102 20.3334 11.1478 20.1715 11.1303 20.0004C11.0354 19.0311 10.6933 18.137 10.3087 17.252C9.96651 16.4651 9.67928 15.6668 9.53443 14.8115C9.39707 14.0086 8.96503 13.2741 8.66784 12.5101C8.54546 12.1953 8.43561 11.876 8.32572 11.5817C8.68285 11.3673 9.035 11.2282 9.20982 11.0298C9.35716 10.861 9.29967 10.6215 9.34712 10.3227C9.71175 10.439 9.99399 10.5668 10.3237 10.6215C10.6358 10.674 10.9929 10.6534 11.41 10.6648C11.5598 10.8747 11.7522 11.0868 11.872 11.3263C12.1467 11.8783 12.409 12.4165 12.881 12.9024C13.378 13.4156 13.5778 14.0998 13.865 14.7248C14.8989 16.9783 15.8105 19.2728 16.5122 21.6358C17.3688 24.5211 18.2179 27.411 19.112 30.2849C19.7613 32.3741 20.4706 34.4452 21.1599 36.523C21.2023 36.6485 21.3023 36.7534 21.4396 36.9678C21.5195 36.7785 21.5969 36.6873 21.5794 36.6257C20.6879 33.6081 19.7813 30.5973 18.8947 27.5775C18.1904 25.1826 17.5536 22.7648 16.8044 20.3836C16.0652 18.0343 15.2185 15.717 14.4219 13.3836C14.2496 12.875 13.9649 12.3983 13.9349 11.86C14.2621 11.7163 14.3769 11.8258 14.4244 11.949C14.8015 12.9206 15.6681 13.6391 16.4797 14.3872C16.6396 14.5355 16.7469 14.7202 16.8344 14.9027C17.3014 15.8994 17.7384 16.9098 18.2179 17.902C19.3168 20.1692 20.2059 22.5048 20.8602 24.9157C20.8777 24.9818 20.9027 25.0457 20.9351 25.1073C21.03 25.292 21.0625 25.5247 21.2448 25.6433C21.4296 25.7619 21.7667 25.7642 22.1463 25.8394C22.0839 25.4266 22.0639 25.0503 21.964 24.6967C21.2048 21.9962 20.4331 19.3002 19.6564 16.6065C19.5041 16.0796 19.3193 15.5641 19.152 15.0441C19.0271 14.6541 18.8898 14.2754 19.0021 13.8238C19.0596 13.5889 18.9472 13.3517 18.8673 13.1305C18.6026 12.3892 18.3153 11.6547 18.0456 10.9134C17.9657 10.6968 17.9182 10.471 17.8383 10.1767C18.6425 10.1767 19.097 10.3866 19.2893 10.8291C19.4966 11.3012 19.6714 11.7825 19.8587 12.2614C20.1185 12.9183 20.4531 13.5456 20.8777 14.1865C21.4271 13.8466 21.9266 13.5661 22.3786 13.2468C22.7558 12.9799 22.8781 12.6469 22.8306 12.3253C22.8007 12.1223 22.7707 11.9033 22.6384 11.7437C22.2838 11.3172 22.2513 10.7948 22.1164 10.3045C21.8442 9.31684 21.6144 8.31782 21.3647 7.30967C21.582 7.08387 21.8392 7.05194 22.0914 7.19563C22.2612 7.29371 22.3762 7.44197 22.5685 7.50811C22.7033 7.55373 22.928 7.49899 23.0829 7.48986C23.6073 6.78279 22.7757 6.24907 23.3851 5.52375C23.5699 5.6492 23.7747 5.72903 23.8596 5.86132C24.1268 6.26732 24.1218 6.86263 24.7237 7.03597C25.3106 7.20476 25.4929 7.64952 26.0773 7.79322C26.322 7.85252 26.4744 8.03955 26.6767 8.17641C26.8865 8.0692 27.0987 7.96429 27.4009 7.81147C27.6032 8.23571 27.7905 8.63486 27.9803 9.03173C28.1976 9.4879 28.4548 9.91215 29.4313 9.65897C30.3853 11.6775 30.9098 13.7668 31.7814 15.8424C32.0036 15.3429 31.7814 15.0509 31.679 14.7339C31.1745 13.1738 30.6725 11.6114 30.1506 10.0536C29.6735 8.62574 29.1691 7.20476 28.6846 5.77921C28.5797 5.46673 28.4224 5.15654 28.7845 4.63422C29.1516 5.30707 29.5287 5.84992 29.756 6.44066C30.5926 8.61661 31.4367 10.7903 32.176 12.9982C33.2623 16.2438 34.2588 19.5169 35.2902 22.7785C35.7647 24.2793 36.2392 25.7801 36.7112 27.281C37.3356 29.2722 37.945 31.2679 38.5793 33.2546C39.0363 34.6892 39.5358 36.1102 39.9879 37.5471C40.4899 39.146 40.9643 40.7541 41.4463 42.3598C42.2979 45.2109 43.1296 48.0688 44.0012 50.9153C44.7629 53.4015 45.5846 55.8694 46.3563 58.3532C47.0481 60.5748 47.6699 62.8169 48.3916 65.0293C49.0709 67.1118 49.9276 69.1395 50.5469 71.2379C51.3236 73.8654 52.4524 76.3789 53.3365 78.97C53.4864 79.4079 53.5488 79.8664 53.6612 80.4412C53.4689 80.3248 53.4139 80.3112 53.404 80.2838C52.9969 79.0567 52.2252 77.9527 51.8581 76.7188C51.451 75.3457 50.7867 74.0616 50.3996 72.6816C49.975 71.1694 49.3756 69.7051 48.8412 68.2226C48.7388 67.9374 48.6364 67.6523 48.2193 67.5109C48.0445 67.4516 47.9571 67.26 47.9047 67.1049C47.4776 65.8778 47.0655 64.6439 46.6509 63.4145C46.641 63.3825 46.6384 63.3461 46.6284 63.3141C46.059 61.5236 45.4897 59.7309 44.9203 57.9404C44.8578 57.7442 44.8053 57.5481 44.7479 57.3519C44.2259 55.6162 43.7365 53.8713 43.1746 52.147C42.5078 50.0988 41.9583 48.0186 41.3315 45.959C40.6172 43.6051 39.8505 41.265 39.1262 38.9134C38.9664 38.3934 38.9389 37.8323 38.7691 37.3168C38.1498 35.4328 37.463 33.5693 36.8611 31.6808C36.3392 30.0522 35.9096 28.3986 35.4101 26.7632C35.2403 26.209 34.9855 25.6798 34.7633 25.1392C34.6334 24.8267 34.3836 24.5394 34.6933 24.1425C34.6059 24.0125 34.5285 23.887 34.4386 23.7388C34.4353 23.906 34.5277 24.0406 34.7158 24.1425L34.7058 24.1562ZM29.0892 51.8824C28.9368 51.6247 28.7845 51.3669 28.5772 51.0134C28.1551 51.6703 28.6296 51.7729 29.0942 51.8824C28.8919 52.0033 28.5947 52.0968 28.6197 52.3089C28.6671 52.7172 28.7046 53.1323 28.817 53.5223C28.9968 54.1473 29.3439 54.7312 29.4238 55.3721C29.5287 56.2366 29.8908 57.0098 30.1755 57.8149C30.4378 58.5562 30.725 59.3021 30.7774 60.089C30.8049 60.4927 30.7524 60.9101 30.8823 61.3024C31.107 61.9798 31.4017 62.6367 31.3243 63.4008C31.2869 63.7794 31.4742 64.1352 31.5841 64.4956C31.7164 64.9198 31.9012 65.3304 32.0161 65.7592C32.7828 68.6331 33.5071 71.5207 34.4636 74.3421C35.485 77.3551 36.4291 80.391 37.5329 83.3766C37.6628 83.7302 37.7901 84.086 37.895 84.4464C37.9175 84.5262 37.85 84.6334 37.8151 84.752C37.7177 84.6927 37.6253 84.6699 37.6078 84.622C37.0384 83.1189 36.469 81.6135 35.9171 80.1059C35.0555 77.7611 34.2288 75.405 33.3447 73.0671C32.6555 71.2447 31.8688 69.4519 31.187 67.6272C30.71 66.3454 30.3279 65.0316 29.9258 63.7247C29.746 63.1385 29.6561 62.5227 29.0767 62.087C28.9668 62.0026 28.9643 61.843 28.9243 61.7129C28.4748 60.2806 28.0278 58.8459 27.5683 57.4181C27.5458 57.3519 27.4184 57.3177 27.2161 57.1877C27.1661 57.7442 27.346 58.116 27.4633 58.4992C27.9204 59.9681 28.4623 61.4142 28.8369 62.9036C29.194 64.3245 29.9358 65.652 29.7385 67.2121C29.731 67.2806 29.766 67.3467 29.7859 67.4128C30.0407 68.2636 30.3029 69.1121 30.5502 69.9651C30.6501 70.3164 30.7175 70.6768 30.7999 71.0394C30.4827 71.1101 30.2055 71.1763 30.2055 71.3998C30.2055 71.5709 30.2829 71.7305 30.3404 71.8925C31.5291 75.3206 32.7179 78.751 33.9142 82.1769C34.3312 83.3721 34.7658 84.5604 35.1854 85.7396C34.5685 86.116 34.1864 86.5972 33.4796 86.8344C33.2898 86.8983 33.09 87.1287 33.0301 87.2883C32.9252 87.5689 32.8428 87.8722 32.8952 88.13C33.0226 88.7663 33.2124 89.389 33.4122 90.0071C33.4846 90.2284 33.5795 90.477 33.7943 90.6138C33.9941 90.7416 34.3687 90.737 34.6634 90.7895C34.9181 91.4167 35.1629 92.0166 35.4226 92.6506C35.8646 92.6552 36.2917 92.6598 36.7162 92.662C37.0734 93.1775 37.4904 93.6679 37.7726 94.213C38.2796 95.1938 38.7042 96.2065 39.1662 97.2055C39.396 97.7051 39.6108 98.2091 39.863 98.6995C40.2426 99.4362 40.6722 100.152 41.0318 100.896C41.3764 101.61 41.6561 102.347 41.9733 103.072C42.0682 103.291 42.1606 103.517 42.3104 103.713C42.3878 103.813 42.5951 103.85 43.0047 104.028C42.1131 101.843 41.2515 99.8924 40.5298 97.8966C40.0553 96.5851 39.7831 95.2121 39.426 93.8641C39.4185 93.839 39.4684 93.7979 39.5483 93.6839C39.7656 93.6588 40.0303 93.6291 40.31 93.5995C40.3899 93.8458 40.4399 94.042 40.5198 94.2267C41.2141 95.8347 41.9209 97.4382 42.6077 99.0485C43.202 100.44 43.774 101.838 44.3658 103.229C44.4383 103.4 44.4282 103.64 44.8103 103.638C45.1849 103.43 44.9952 103.252 44.9153 103.081C44.5856 102.363 44.0811 101.687 43.9487 100.926C43.8114 100.139 43.4593 99.4339 43.2095 98.6927C43.1346 98.4646 43.0497 98.2411 42.9748 98.013C42.6901 97.1348 42.4803 96.2316 42.1082 95.3854C41.4439 93.8709 41.1916 92.2469 40.752 90.6777C41.2141 90.4382 41.6112 90.2307 41.3989 89.8497C41.3664 89.7927 41.5338 89.6559 41.6062 89.5578L41.5862 89.5464C41.806 89.7539 41.7186 90.1599 42.2655 90.1713C42.7874 89.5852 42.9748 89.0651 42.805 88.4767C42.4353 87.2017 42.0932 85.9152 42.0557 84.5536C42.0383 83.9697 41.8234 83.4177 41.6986 82.8498C41.6661 82.6992 41.6362 82.5464 41.6037 82.3936C42.1082 82.9045 42.3254 83.5066 42.4553 84.143C42.5577 84.6448 42.715 85.1329 42.8823 85.6165C42.9148 85.71 43.0996 85.7556 43.3544 85.9084C43.4693 85.3838 43.9587 85.0417 43.8713 84.6311C43.7789 84.1978 43.734 83.7484 43.5941 83.3287C43.3069 82.4529 42.9448 81.5976 42.6601 80.7217C42.0832 78.9312 41.5438 77.1316 40.9743 75.3389C40.4049 73.5484 39.823 71.7602 39.2312 69.9743C39.0389 69.3904 38.8091 68.8179 38.5668 68.2499C38.5094 68.1131 38.3271 68.0218 38.1173 67.8325C37.93 68.7266 38.372 69.3561 38.4369 70.0564C38.1947 70.1841 37.9924 70.2913 37.7352 70.4259C37.6103 70.1202 37.5054 69.7918 37.3381 69.4907C37.2857 69.3972 37.0709 69.3698 36.9286 69.3128C36.8361 69.4314 36.6588 69.5637 36.6638 69.6641C36.6838 70.232 37.1308 70.6289 37.453 71.1421C37.8825 70.9436 38.2297 70.7817 38.6168 70.6015C38.6692 70.7269 38.7442 70.8866 38.7342 70.8912C38.0998 71.1443 38.1198 71.621 37.7801 71.9175C38.0274 72.7044 38.2622 73.4503 38.4919 74.1961C38.7642 75.0766 39.0014 75.9684 39.3011 76.8419C40.0178 78.9084 40.7621 80.9658 41.4913 83.0277C41.5588 83.2193 41.6411 83.4177 41.6361 83.623C41.6311 83.8123 41.5138 84.0153 41.3964 84.3551C41.1242 84.1704 40.9044 84.0974 40.8445 83.9651C40.6796 83.591 40.5722 83.1942 40.4574 82.8019C40.3899 82.5738 40.4174 82.3069 40.2801 82.1153C39.6632 81.2714 39.6382 80.2496 39.3585 79.3076C39.0988 78.4294 38.4844 77.6608 38.5019 76.696C38.5019 76.6025 38.3646 76.534 38.3071 76.4451C38.1922 76.2695 38.0424 76.1029 37.985 75.9091C37.5054 74.2737 36.7987 72.7045 36.4965 71.0143C36.4191 70.5855 36.1743 70.1978 35.9695 69.6983C35.5699 69.9743 35.3077 70.1544 35.048 70.3346C34.8657 69.8899 34.6734 69.4861 34.5385 69.0665C34.3162 68.3845 34.1389 67.6888 33.9292 67.0046C33.6295 66.0238 33.3222 65.0453 33.0101 64.0691C32.6679 62.9971 32.3633 61.9114 31.9612 60.8599C31.2619 59.0375 30.6375 57.1945 30.0831 55.3242C29.746 54.1815 29.3014 53.0707 29.0967 51.887L29.0892 51.8824ZM25.4954 51.6475C26.0673 53.1483 26.0398 54.8361 26.9989 56.4213C27.0313 55.2535 26.2321 52.6716 25.4954 51.6475ZM45.5496 69.2854C44.9003 68.3343 44.8728 67.3604 44.2185 66.5986C44.5032 67.4585 44.8453 68.2978 45.1924 69.1372C45.2024 69.16 45.2624 69.1668 45.5496 69.2854ZM23.51 43.5914C23.6074 42.9596 23.6099 42.9596 23.1778 42.4465C23.0979 42.9209 23.1903 43.2584 23.51 43.5914ZM32.5331 17.6032C32.6055 17.163 32.4357 16.8026 32.1185 16.4925C32.1485 16.8962 32.0985 17.3227 32.5331 17.6032ZM34.059 22.8994C34.0765 22.8994 34.094 22.8994 34.1115 22.8994C33.9941 22.612 33.8767 22.3224 33.7593 22.035C33.7443 22.0395 33.7293 22.0441 33.7144 22.0509C33.8292 22.3338 33.9442 22.6166 34.059 22.8994ZM23.0404 41.7964C23.0454 41.5022 23.1678 41.1669 22.6883 40.9342L23.0404 41.7964ZM22.1164 39.5475C22.2088 39.5201 22.2987 39.495 22.3911 39.4676C22.2787 39.2601 22.1689 39.0525 22.0565 38.8427C22.029 38.8518 22.0015 38.8632 21.9715 38.8723C22.019 39.0981 22.0665 39.3217 22.1139 39.5475H22.1164ZM42.8674 71.6096C42.9198 71.6005 42.9698 71.5914 43.0222 71.5845C42.9897 71.5024 42.9648 71.418 42.9198 71.3405C42.8974 71.304 42.8399 71.2812 42.7975 71.2538C42.7975 71.2858 42.785 71.3177 42.7925 71.3473C42.8149 71.4363 42.8424 71.523 42.8674 71.6096ZM24.8086 47.8521C24.7512 47.7153 24.6962 47.5761 24.6288 47.4096C24.3716 47.6537 24.5664 47.7563 24.8086 47.8521ZM21.9665 38.0056C21.9466 37.7844 22.0715 37.5608 21.5745 37.4719C21.6169 37.7068 21.3771 37.9668 21.9665 38.0056ZM25.0584 48.5615L24.8236 48.6413C24.8436 48.6778 24.8661 48.7143 24.8861 48.7508C24.961 48.7074 25.0359 48.6664 25.1083 48.6208C25.1133 48.6185 25.0733 48.5797 25.0584 48.5615ZM33.4372 20.5045C33.4147 20.5319 33.3673 20.5706 33.3747 20.5866C33.4022 20.6459 33.4497 20.6984 33.4896 20.7531C33.5096 20.7257 33.552 20.6892 33.5446 20.671C33.5196 20.6117 33.4746 20.5592 33.4372 20.5045ZM45.7294 70.1408C45.692 70.0495 45.6594 69.9629 45.617 69.8785C45.6145 69.8716 45.5546 69.8876 45.5196 69.8944C45.5471 69.9834 45.5721 70.0746 45.602 70.1613C45.602 70.1659 45.667 70.1499 45.7269 70.1408H45.7294ZM46.069 71.9518C46.0815 72.0088 46.094 72.0658 46.1115 72.1183C46.114 72.1251 46.1639 72.1183 46.1914 72.1183C46.1789 72.0612 46.1689 72.0042 46.1515 71.9495C46.149 71.9426 46.099 71.9495 46.069 71.9495V71.9518ZM42.1606 68.925C42.1431 68.957 42.1132 68.9889 42.1132 69.0163C42.1132 69.0482 42.1431 69.0756 42.1581 69.1052C42.1881 69.0665 42.2331 69.0277 42.238 68.9912C42.2405 68.9661 42.1881 68.9479 42.1581 68.925H42.1606ZM24.1643 64.507C24.1268 64.5161 24.0894 64.5253 24.0519 64.5321C24.0694 64.6211 24.0819 64.7123 24.1068 64.799C24.1118 64.8127 24.1692 64.8126 24.2042 64.8195C24.1917 64.7146 24.1793 64.6119 24.1668 64.507H24.1643ZM28.0353 49.337C27.9828 49.3849 27.8879 49.4373 27.8879 49.4761C27.8879 49.5308 27.9604 49.5764 28.0003 49.6243C28.0578 49.5719 28.1551 49.5171 28.1601 49.4692C28.1651 49.4213 28.0827 49.3803 28.0353 49.337ZM22.4436 40.2431C22.4661 40.2659 22.491 40.2865 22.5135 40.3093C22.541 40.291 22.5909 40.2659 22.5884 40.2545C22.5809 40.2272 22.5509 40.2089 22.531 40.1861C22.501 40.2044 22.4736 40.2249 22.4436 40.2431ZM43.4343 72.7045L43.3669 72.7204L43.4168 72.7729L43.4343 72.7022V72.7045ZM61.5805 78.8263C61.0385 79.1251 60.5715 79.3828 60.0321 79.6793C59.585 79.4627 59.4002 79.1456 59.2854 78.7944C59.1355 78.3405 58.9956 77.9071 58.4811 77.5923C58.2089 77.4258 58.169 77.0609 58.0766 76.769C57.9467 76.3516 57.8393 75.9319 57.4997 75.5008C57.0077 76.1554 57.5846 76.5705 57.4597 77.0814C57.3399 77.5741 57.8618 77.9755 57.3748 78.6073C57.2125 78.2059 57.0751 77.8706 56.9528 77.5718C56.5107 77.5125 56.4033 77.7315 56.3284 77.8843C56.2285 78.085 56.2185 78.2926 56.1286 78.6849C55.8839 78.2652 55.7216 77.9892 55.4768 77.5741C55.1846 78.215 55.704 78.6005 55.3619 79.1753C55.217 79.0247 55.1197 78.9654 55.0897 78.8856C54.0758 76.1189 53.0743 73.3499 52.0553 70.5855C51.6882 69.5888 51.2961 68.6012 50.8915 67.6158C50.6318 66.984 50.2921 66.3773 50.0549 65.7387C49.8401 65.1662 49.7378 64.5572 49.5455 63.9778C49.2782 63.1704 48.9785 62.3721 48.6788 61.5738C48.6314 61.4484 48.5564 61.3184 48.4341 61.234C48.2043 61.072 48.2368 60.9466 48.4616 60.7025C48.574 60.5816 48.4466 60.2235 48.2718 60.1756C47.7223 60.0274 47.6449 59.6716 47.5275 59.3272C46.7958 57.1535 46.0441 54.9867 45.3573 52.7993C44.673 50.612 44.0661 48.3995 43.4093 46.2053C42.7125 43.8788 42.0058 41.5546 41.284 39.235C40.5423 36.8492 39.7656 34.4771 39.0264 32.0913C38.5518 30.554 38.1223 29.0053 37.6628 27.4634C37.2707 26.1519 36.8561 24.8473 36.464 23.5381C35.9321 21.7681 35.4425 19.989 34.8806 18.2282C34.1614 15.9793 33.3947 13.744 32.6355 11.5088C32.4706 11.0206 32.3258 10.5599 32.5431 9.98285C32.6829 9.61563 32.5131 9.22789 32.4307 8.86295C32.3258 8.39765 32.171 7.94604 32.0336 7.46934C32.5531 7.17739 33.0201 6.91737 33.5496 6.61857C33.4322 5.96396 33.3123 5.29339 33.1924 4.62509C33.577 4.34911 33.8142 4.01154 34.3861 3.84504C34.9156 3.68994 35.2528 3.2771 35.0854 2.92813C34.7108 2.14351 35.1753 1.25625 35.1429 0.432857C35.1329 0.186523 35.4625 0.063356 35.8422 0.0200195C36.1943 0.822885 36.5789 1.62803 36.9061 2.45371C37.6478 4.33542 38.3496 6.23083 39.0938 8.11254C39.2686 8.55731 39.4584 9.01805 39.8105 9.37614C40.4124 9.99198 40.6971 10.7241 40.9543 11.4609C41.7635 13.7851 42.5427 16.1184 43.2744 18.4654C43.9862 20.7508 44.6081 23.0636 45.2999 25.3536C45.7344 26.7929 46.2164 28.2184 46.6859 29.6485C47.2728 31.4367 47.9096 33.2112 48.4491 35.0154C49.1234 37.2757 49.7078 39.5657 50.3521 41.8352C50.959 43.9724 51.5784 46.1072 52.2277 48.2307C52.7471 49.9323 53.3615 51.6064 53.856 53.3148C54.1682 54.3936 54.3405 55.5135 54.5752 56.6152C54.6601 57.0166 54.7151 57.4272 54.8325 57.8195C55.3245 59.4914 55.794 61.1701 56.3459 62.8215C56.9078 64.5047 57.5721 66.1561 58.1665 67.8302C58.3713 68.4096 58.4711 69.0231 58.6659 69.607C58.8832 70.2548 59.2579 70.8592 59.3752 71.5252C59.56 72.5767 60.2668 73.4434 60.5166 74.4698C60.7588 75.462 61.1509 76.4154 61.4206 77.4008C61.5455 77.8547 61.533 78.3496 61.5855 78.8263H61.5805ZM55.7191 71.2858C55.8214 71.0622 55.9088 70.9596 55.8989 70.8752C55.8889 70.7954 55.774 70.7406 55.7066 70.6745C55.6241 70.7543 55.4718 70.8478 55.4743 70.914C55.4793 71.0189 55.5892 71.1033 55.7191 71.2858ZM57.0851 75.1518L57.1875 75.1564L57.1725 75.0948L57.0851 75.1518ZM0.626192 35.6061C0.626192 35.7316 0.561257 35.9346 0.436387 35.9984C-0.110546 36.2767 -0.0231315 36.5732 0.0667752 36.8697C0.368962 37.887 0.663651 38.9065 0.998304 39.9124C1.50778 41.436 1.82497 43.0167 2.45431 44.5038C2.52174 44.6612 2.51923 44.8391 2.56668 45.0056C2.70404 45.4983 2.8364 45.9932 2.99623 46.479C3.26345 47.291 3.61309 48.0779 3.80789 48.9082C4.05014 49.9323 4.15251 50.9952 4.66198 51.944C4.77187 52.147 4.7769 52.4207 4.69698 52.6602C4.54214 53.1186 4.63952 53.5224 4.86679 53.8668C5.51112 54.843 5.33129 56.0655 5.91069 57.0577C5.79581 57.7283 6.18046 58.246 6.46517 58.7957C6.5276 58.9143 6.55506 59.0466 6.58254 59.1743C6.72239 59.8426 6.85972 60.5087 6.98958 61.1792C7.21185 62.3448 8.18085 63.2867 8.05098 64.564C8.031 64.7625 8.15837 64.9655 8.29822 65.1251C9.03996 65.9599 9.06243 67.016 9.29469 68.0059C9.35712 68.2704 9.26721 68.6331 9.47949 68.7882C9.92403 69.1121 9.92654 69.5591 10.0514 69.9765C10.2462 70.6311 10.4335 71.2858 10.6208 71.9426C10.9005 72.928 11.1753 73.9133 11.4525 74.8986C11.8621 76.3447 12.2716 77.7885 12.6812 79.2346C12.846 79.084 12.876 78.9563 12.876 78.8331C12.876 78.6256 12.871 78.4158 12.8385 78.215C12.7511 77.638 12.6487 77.0655 12.5613 76.4884C12.5563 76.461 12.6362 76.4132 12.6113 76.436C12.9134 76.4246 12.7411 76.8305 13.278 76.6298C13.2681 76.4975 13.2731 76.3584 13.2431 76.2307C13.1332 75.7654 12.9559 75.3069 13.5153 74.8029C13.6152 73.9658 14.0672 73.1127 13.79 72.2893C13.2531 70.7018 12.8585 69.0687 12.384 67.4607C11.9969 66.1492 11.5723 64.8491 11.1727 63.5399C10.5933 61.6422 10.014 59.7446 9.44956 57.84C8.81022 55.6778 8.18835 53.5087 7.5615 51.3418C7.15942 49.9528 6.76482 48.5637 6.36773 47.1747C6.62746 47.4849 6.85227 47.8065 6.96715 48.16C7.4941 49.7863 8.00853 51.4194 8.49053 53.0593C8.83767 54.2408 9.06747 55.4565 9.46456 56.6198C9.89161 57.8765 10.4535 59.09 10.9555 60.3239C11.1628 60.1323 11.2626 59.9498 11.2227 59.8061C10.8955 58.6201 10.5459 57.4409 10.1913 56.2617C10.0339 55.7394 9.82914 55.233 9.6743 54.7107C9.13736 52.9065 8.65787 51.0864 8.07098 49.3005C7.69887 48.1692 7.2593 47.0606 6.97959 45.8951C6.60747 44.3396 5.87325 42.8912 5.4387 41.3471C4.9567 39.6364 4.2874 37.9805 3.69052 36.3041C3.57064 35.9688 3.55065 35.5856 3.05117 35.2389C2.99123 35.5035 2.91133 35.6426 2.94379 35.7498C3.38084 37.1526 3.8329 38.553 4.27993 39.9535C4.87432 41.8078 5.46867 43.6622 6.06306 45.5188C6.07055 45.5416 6.04808 45.5735 6.00812 45.7013C5.86077 45.3386 5.7334 45.058 5.63101 44.7684C5.18148 43.5116 4.72692 42.2571 4.29487 40.9935C3.70548 39.276 3.13858 37.554 2.55668 35.8365C2.36938 35.2845 2.16211 34.7417 1.94983 34.1988C1.93235 34.1555 1.81499 34.1441 1.72259 34.1099C1.57274 34.3015 1.42289 34.4931 1.28054 34.6733C1.04579 34.7212 0.848469 34.7599 0.508821 34.8284C0.55877 35.1294 0.626192 35.3598 0.626192 35.5993V35.6061ZM17.4113 94.6578C17.5286 95.26 17.5811 95.8826 17.7759 96.4597C18.4627 98.5011 19.1819 100.533 19.9237 102.556C20.2408 103.423 20.6779 104.251 21.0101 105.113C21.9441 107.542 22.8657 109.976 23.7622 112.417C24.3866 114.118 25.1682 115.772 25.4904 117.567C25.5928 118.139 25.6752 118.719 25.7526 119.296C25.7951 119.617 25.9299 119.884 26.3919 119.98C26.7341 119.923 27.0838 119.88 27.4284 119.8C27.7256 119.731 28.0153 119.579 28.3075 119.535C28.6222 119.487 28.9368 119.524 29.3264 119.524C29.4538 118.97 29.3489 118.452 30.0557 117.982C30.2755 117.836 30.3304 117.487 30.3279 117.252C30.3204 116.732 30.2829 116.212 30.1556 115.722C29.9982 115.129 29.7634 114.554 29.5112 113.988C28.3799 111.447 27.4933 108.82 26.1298 106.359C25.4754 105.177 25.0034 103.925 24.429 102.712C24.1943 102.217 23.9795 101.674 23.3751 101.398C22.8007 101.133 22.531 100.768 22.3811 100.303C22.3312 100.146 22.2163 100.006 22.1314 99.8559C21.6544 99.8833 21.2223 99.9084 20.8053 99.9312C20.6404 99.7692 20.4681 99.6598 20.3882 99.5115C20.2733 99.3017 20.2283 99.0622 20.1484 98.8386C19.7413 97.7142 19.3418 96.5851 18.9122 95.4675C18.8148 95.2143 18.655 94.968 18.4302 94.7787C18.2529 94.6304 17.9332 94.5734 17.676 94.4753C17.5886 94.5346 17.4987 94.594 17.4113 94.6533V94.6578ZM66.1457 94.3955C65.8535 94.286 65.6437 94.0899 65.3291 93.8892C65.3565 94.8357 65.3241 94.9156 64.4974 95.5633C64.3201 95.7025 64.0404 95.7846 64.0304 95.999C64.008 96.4825 63.4161 96.5076 62.964 96.6559C63.0065 96.8087 63.0564 96.9364 63.0739 97.071C63.1388 97.5659 63.0639 97.6663 62.3921 97.9674C62.1199 98.0882 61.8402 98.2 61.523 98.3323C61.7003 99.3039 62.06 100.182 62.522 101.033C63.0664 102.034 63.5359 103.067 63.9979 104.101C64.0654 104.249 63.908 104.479 63.8106 104.824C63.6183 104.584 63.511 104.484 63.446 104.367C62.9815 103.517 62.532 102.659 62.0674 101.808C61.6029 100.958 61.1459 100.105 60.6414 99.2697C60.4017 98.8729 59.9521 98.7178 59.6949 98.8751C59.2504 99.1488 59.3203 99.4727 59.3103 99.7806C59.3103 99.8491 59.3553 99.9084 59.3827 99.9722C59.6375 100.57 59.8697 101.174 60.152 101.76C60.8038 103.124 61.4756 104.484 62.1449 105.841C62.2023 105.96 62.2972 106.167 62.3821 106.156C62.9615 106.076 62.969 106.377 63.0464 106.626C63.1663 107.013 63.5709 107.079 64.1003 107.025C64.3975 106.322 63.8531 105.779 63.9355 104.992C64.7222 105.184 64.6073 105.75 64.9969 106.007C65.4389 105.887 65.7436 106.283 66.2356 105.978C66.5777 105.766 66.9798 105.702 67.3619 105.579C67.7415 105.455 68.0487 105.134 68.4733 104.837C68.8654 104.803 69.3599 104.76 69.8369 104.719C70.1566 104.541 70.4737 104.386 70.7584 104.203C71.5601 103.692 71.9747 103.124 71.8123 102.438C71.4552 100.93 70.676 99.5754 69.9068 98.2183C69.8394 98.1019 69.7345 97.9719 69.5822 97.924C69.0802 97.7689 68.9403 97.4108 68.733 97.0983C68.1886 96.2818 67.6866 95.447 67.1197 94.546C66.7651 94.4936 66.4105 94.489 66.1457 94.391V94.3955ZM15.4083 67.5816C14.789 65.5539 14.1272 63.5376 13.5103 61.5077C12.7936 59.1515 12.1167 56.784 11.4025 54.4279C10.4959 51.449 9.58192 48.4725 8.6429 45.5051C7.65143 42.3735 6.63994 39.2487 5.61101 36.1284C5.32131 35.2526 4.94919 34.3995 4.60205 33.5419C4.56209 33.4416 4.59211 33.2568 4.2175 33.323C4.07015 33.7586 4.27492 34.1213 4.3873 34.4976C4.8768 36.1376 5.36627 37.7752 5.87075 39.4106C6.44515 41.2741 7.04204 43.1307 7.61894 44.9919C8.47055 47.7358 9.32215 50.4797 10.1613 53.2281C10.6907 54.9616 11.1553 56.7156 11.7222 58.4376C12.3315 60.2874 13.0233 62.1144 13.6802 63.9505C13.7376 64.1124 13.7975 64.2721 13.8425 64.4386C14.3619 66.391 15.1986 68.2385 16.0602 70.0541C15.8454 69.2307 15.6581 68.3982 15.4083 67.5816ZM19.2319 61.421C19.2469 61.2933 19.3018 61.1541 19.2718 61.0378C19.0146 60.0479 18.9972 59.0033 18.635 58.0362C18.143 56.7224 17.7684 55.3721 17.3738 54.0287C16.9493 52.5872 16.6021 51.1229 16.1501 49.6882C15.1236 46.4288 14.0548 43.1809 13.0034 39.9284C12.6762 38.9202 12.3566 37.9098 12.0194 36.9062C11.9595 36.7329 11.9694 36.4979 11.5774 36.4843C11.1328 36.742 11.2901 37.0066 11.3651 37.2552C11.8645 38.9248 12.3665 40.5944 12.8885 42.2571C13.5828 44.4741 14.322 46.6797 14.9938 48.9036C15.4883 50.5367 15.8704 52.2017 16.3699 53.8326C17.0891 56.1841 17.8658 58.5174 18.6275 60.8553C18.7 61.0743 18.8273 61.2773 18.9297 61.4871C19.0321 61.4666 19.1345 61.4461 19.2344 61.4256L19.2319 61.421ZM32.608 118.744C32.5131 117.362 32.2384 116.027 31.7214 114.755C31.2819 113.676 30.8249 112.601 30.4203 111.511C29.5762 109.235 28.5323 107.032 27.1312 104.712C27.4434 105.572 27.6656 106.215 27.9129 106.854C28.6296 108.703 29.3589 110.551 30.0781 112.401C30.6076 113.767 31.147 115.131 31.644 116.509C31.9212 117.273 32.121 118.064 32.3758 118.913C32.5431 118.794 32.6105 118.762 32.6105 118.742L32.608 118.744ZM33.9991 106.84C33.9666 106.854 33.9167 106.897 33.9242 106.913C34.8557 109.474 35.7897 112.036 36.7312 114.595C36.7562 114.661 36.8761 114.698 37.0234 114.798C37.0983 114.604 37.1833 114.497 37.1658 114.415C37.0209 113.783 36.8811 113.158 36.9935 112.471C37.0359 112.202 36.8686 111.945 36.7687 111.691C36.449 110.898 36.0719 110.124 35.8022 109.317C35.4875 108.37 34.998 107.513 34.1514 106.806C34.1015 106.817 34.0465 106.822 34.0016 106.84H33.9991ZM33.0376 109.379C33.2998 109.862 33.3947 110.409 33.5995 110.918C34.089 112.134 34.3637 113.393 34.2513 114.75C34.2089 115.279 34.2363 115.799 34.2563 116.319C34.2613 116.449 34.3312 116.591 34.7158 116.488C34.7583 116.31 34.8207 116.109 34.8507 115.911C34.8931 115.628 34.7583 115.268 34.9731 115.078C35.4476 114.661 35.2677 114.339 35.2078 114.002C34.8407 111.967 33.8617 110.131 32.9851 108.256C32.8578 108.665 32.8453 109.03 33.0351 109.379H33.0376ZM49.2457 64.0235C49.2033 63.9185 49.1608 63.8113 49.1159 63.7064C49.0859 63.7155 49.0585 63.727 49.0285 63.7361C49.0709 63.841 49.1134 63.9482 49.1584 64.0531C49.1883 64.044 49.2158 64.0326 49.2457 64.0235ZM61.7103 117.013C61.7153 117.029 61.7727 117.026 61.8052 117.033C61.7952 116.969 61.7877 116.905 61.7678 116.844C61.7628 116.828 61.7078 116.828 61.6753 116.821C61.6853 116.885 61.6904 116.951 61.7103 117.013ZM33.4696 105.679C33.4996 105.731 33.542 105.777 33.582 105.825C33.6045 105.804 33.6519 105.772 33.6444 105.761C33.6145 105.709 33.572 105.663 33.5346 105.615C33.5121 105.638 33.4621 105.67 33.4671 105.679H33.4696ZM11.5224 61.072C11.4999 61.0196 11.3925 60.9968 11.3226 60.9625C11.2976 61.031 11.2327 61.1108 11.2552 61.1633C11.2777 61.2157 11.3826 61.2385 11.4525 61.2727C11.48 61.2043 11.5449 61.1245 11.5224 61.072ZM13.1607 80.2176C13.1881 80.188 13.2456 80.1515 13.2406 80.1332C13.2206 80.0739 13.1807 80.0215 13.1457 79.9667C13.0933 80.0101 13.0408 80.0511 12.9909 80.0945C13.0483 80.1355 13.1032 80.1766 13.1607 80.2176ZM11.5973 61.6628C11.5723 61.697 11.5174 61.738 11.5249 61.7608C11.5449 61.8156 11.5923 61.8635 11.6298 61.9137C11.6772 61.8703 11.7247 61.827 11.7747 61.7837C11.7172 61.7426 11.6572 61.7015 11.5973 61.6628ZM31.689 105.104L31.6016 105.113L31.649 105.173L31.689 105.102V105.104ZM17.5037 9.36474C17.5037 9.39439 17.5337 9.42176 17.5536 9.44913C17.5961 9.41264 17.6435 9.37842 17.6735 9.33965C17.6785 9.33052 17.6136 9.30543 17.5811 9.28719C17.5537 9.31456 17.5087 9.34193 17.5062 9.36474H17.5037ZM48.6813 62.6435C48.6813 62.6435 48.6289 62.6435 48.6014 62.6458C48.6014 62.6709 48.5939 62.6983 48.6014 62.7188C48.6064 62.7257 48.6513 62.7188 48.6763 62.7188C48.6763 62.6937 48.6863 62.6664 48.6763 62.6435H48.6813ZM41.5737 89.5418C41.3864 88.9899 41.2066 88.4402 41.0268 87.8905C40.8994 87.5027 40.7196 87.1264 40.6647 86.7227C40.5148 85.6393 40.0927 84.6448 39.5158 83.5181C39.818 84.638 39.9904 85.6164 40.3525 86.5334C40.7521 87.5461 40.9019 88.6454 41.6012 89.5555C41.6012 89.5555 41.5812 89.5441 41.5762 89.5395L41.5737 89.5418ZM31.3643 73.3249C31.5341 73.8016 31.694 74.2828 31.8738 74.7572C32.0511 75.2248 32.2484 75.6833 32.4382 76.1463C32.4532 76.1394 32.4707 76.1326 32.4857 76.1258C32.2159 75.1495 31.9437 74.1733 31.674 73.1971C31.5716 73.2405 31.4667 73.2838 31.3643 73.3271V73.3249ZM37.2707 76.5705C37.453 77.0199 37.6378 77.4692 37.8201 77.9185C37.855 77.9071 37.8876 77.8957 37.9225 77.8843C37.7402 77.435 37.5554 76.9856 37.3731 76.5363C37.3381 76.5477 37.3056 76.5591 37.2707 76.5705ZM38.2746 79.9599C38.372 80.1994 38.4669 80.4389 38.5718 80.6761C38.5793 80.6943 38.6517 80.6875 38.7516 80.7012C38.6317 80.4092 38.5343 80.1697 38.4369 79.9302C38.382 79.9394 38.3271 79.9508 38.2746 79.9599ZM40.9418 79.6679L40.757 79.2163C40.7421 79.2209 40.7271 79.2255 40.7121 79.2323L40.8969 79.6839C40.9119 79.6794 40.9269 79.6748 40.9418 79.6679ZM39.5733 74.0228C39.5957 73.9817 39.6332 73.9384 39.6332 73.8996C39.6332 73.8791 39.5733 73.8677 39.5408 73.8517C39.5333 73.8814 39.5258 73.9133 39.5183 73.943C39.5358 73.9703 39.5533 73.9977 39.5708 74.0251L39.5733 74.0228ZM34.586 82.1427C34.6009 82.0925 34.6384 82.0355 34.6209 81.9967C34.601 81.9557 34.531 81.9351 34.4811 81.9055C34.4786 81.9374 34.4736 81.9671 34.4711 81.999C34.5085 82.0469 34.5485 82.0948 34.586 82.1427ZM39.1088 82.4803C39.1313 82.4164 39.1887 82.3434 39.1687 82.2955C39.1487 82.2476 39.0513 82.2248 38.9889 82.1906C38.9664 82.2522 38.944 82.316 38.924 82.3776C38.9864 82.4118 39.0463 82.446 39.1088 82.478V82.4803ZM39.0863 71.84L39.0264 71.7784L39.0039 71.8605L39.0863 71.84Z" fill="#F7CACD"/>
<path d="M94.6982 59.5221C98.3918 59.7468 101.638 60.0815 104.326 60.6409C116.753 63.2157 119.999 68.5901 119.999 77.8805C119.999 95.1201 105.782 102.957 68.5029 102.957C27.418 102.957 17.4534 94.5607 17.4534 76.7617C17.4534 75.3057 17.5657 73.7398 17.6781 72.1714C22.9402 72.5061 30.777 72.6185 38.7238 72.6185C46.1111 72.6185 52.9415 72.5061 57.6417 72.1714V74.2992C57.6417 78.7771 59.657 81.0172 67.6063 81.0172C75.5555 81.0172 77.5685 79.0018 77.5685 74.8611C77.5685 69.9362 74.659 68.1431 64.1349 68.1431C56.0758 68.1431 48.6859 68.1431 40.9614 68.4778C41.1862 65.5683 41.2961 61.8721 41.2961 58.4032C41.2961 54.9343 41.2961 51.9099 41.0713 49.3351C45.7739 49.5599 53.1613 49.7822 63.3482 49.7822C75.1035 49.7822 77.566 47.5445 77.566 43.0641C77.566 38.9209 75.8877 36.6832 67.9385 36.6832C59.9892 36.6832 57.5268 38.9209 57.5268 43.2889V45.8637C52.9365 45.4167 46.1086 45.3043 38.7188 45.3043C30.7695 45.3043 22.9327 45.4167 17.5607 45.8637C17.4484 43.8483 17.3359 41.9453 17.3359 40.1546C17.3359 23.5868 27.4105 15.1906 68.6078 15.1906C106.334 15.1906 119.545 22.5779 119.545 38.5888C119.545 48.441 116.074 54.5972 104.543 57.3968C101.856 58.0686 98.4967 58.5156 94.6907 58.8527V59.5245L94.6982 59.5221Z" fill="#272727"/>
<path d="M94.6557 17.9556C95.0778 17.4186 95.35 17.0765 95.6172 16.7293C96.3515 15.7728 97.1981 14.9437 98.1771 14.2244C99.5656 13.203 101.057 13.1405 102.528 13.7949C104.443 14.6465 105.869 16.4221 105.642 18.8871C105.552 19.8661 105.32 20.8326 105.127 21.9339C105.709 21.9864 106.224 22.0388 106.738 22.0788C107.974 22.1737 109.056 22.6207 109.997 23.4349C111.773 24.9733 112.143 27.0012 110.851 28.9716C110.352 29.7333 109.608 30.3402 108.948 30.9895C108.674 31.2593 108.334 31.4615 107.934 31.7612C108.132 32.1758 108.289 32.5254 108.461 32.8676C109.126 34.1937 108.908 35.4699 108.182 36.6761C107.313 38.1171 105.167 38.5492 103.774 37.6102C103.487 37.4154 103.424 37.2106 103.422 36.289C103.944 36.3365 104.453 36.3914 104.963 36.4289C106.618 36.5463 107.585 35.2951 106.975 33.7317C106.766 33.1947 106.351 32.7177 105.964 32.2707C104.748 30.8697 104.808 30.6049 106.646 30.1254C107.647 29.8657 108.501 29.4511 109.131 28.587C110.347 26.9188 109.977 25.1156 108.099 24.2865C106.538 23.5997 104.915 23.35 103.282 24.2241C102.835 24.4638 102.298 24.5762 101.788 24.6436C101.406 24.6936 101.064 24.0467 101.309 23.762C101.741 23.26 102.218 22.7955 102.71 22.3535C104.146 21.0648 104.643 19.2217 104.004 17.4736C103.137 15.1135 100.627 14.3992 98.6791 15.9701C97.5253 16.9016 96.6062 18.0405 95.9269 19.3616C95.7121 19.7762 95.5374 20.2082 95.3351 20.6303C95.1403 21.0374 95.0528 21.6267 94.4834 21.6043C93.7891 21.5768 93.7842 20.9025 93.6393 20.413C93.432 19.7112 93.2547 18.9995 93.0749 18.2902C92.533 16.1649 91.3342 14.4092 89.9156 12.7984C89.5335 12.3639 89.0066 11.9967 88.4746 11.772C87.5306 11.3749 86.8114 11.6771 86.267 12.5512C84.6187 15.1984 84.6061 19.921 87.4082 22.306C87.5556 22.4334 87.6805 22.5858 87.8003 22.7106C87.8378 23.3899 87.4307 23.6072 86.9187 23.4773C86.4892 23.3674 85.9972 23.1502 85.7325 22.8205C85.1131 22.0513 84.4364 21.2496 84.0967 20.3456C83.1552 17.8232 83.1751 15.2509 84.234 12.741C84.4638 12.1965 84.786 11.6646 85.1656 11.2101C86.3294 9.81151 88.1275 9.49683 89.6584 10.4683C90.3227 10.8904 90.9221 11.4548 91.4416 12.0492C92.6304 13.4128 93.6068 14.9187 94.1612 16.6669C94.2761 17.0265 94.4309 17.3737 94.6532 17.9556H94.6557Z" fill="#F7CACD"/>
</svg>
