<svg width="120" height="120" viewBox="0 0 120 120" fill="none" xmlns="http://www.w3.org/2000/svg">
<g clip-path="url(#clip0_7686_234)">
<path d="M114.562 17.6041C113.578 17.9483 112.853 18.283 112.093 18.4431C111.436 18.5817 111.013 18.8877 110.75 19.4757C110.69 19.6071 110.611 19.729 110.528 19.8796C109.22 20.2382 107.855 19.9896 106.412 20.2525C106.785 20.6206 107.186 20.5058 107.521 20.5847C108.004 20.6971 108.498 20.764 108.976 20.8931C109.206 20.9552 109.411 21.1106 109.772 21.3018C109.514 21.4571 109.38 21.6077 109.237 21.6149C107.105 21.7296 104.975 21.8444 102.841 21.9161C102.05 21.9424 101.256 21.8228 100.463 21.83C99.8219 21.8372 99.1814 21.9471 98.5408 21.9902C98.0508 22.0236 97.556 22.0619 97.066 22.038C95.032 21.9376 93.0051 21.928 90.9901 22.2818C90.8443 22.3081 90.6938 22.3511 90.5504 22.3343C87.9546 22.0595 85.3947 22.5734 82.8157 22.6785C81.9217 22.7168 81.0302 22.798 80.1387 22.8602C78.6041 22.9677 77.0362 22.9247 75.5423 23.2307C74.2611 23.4936 72.9991 23.4219 71.7299 23.5103C70.6137 23.5892 69.5046 23.7374 68.2354 23.8712C69.029 24.2656 69.7221 24.2848 70.4081 24.2895C72.7936 24.3087 75.179 24.323 77.5644 24.3087C79.0033 24.3015 80.4422 24.2369 81.8835 24.2059C81.9719 24.2059 82.0628 24.28 82.1703 24.3278C82.0413 24.7724 81.8237 25.2169 81.7998 25.6687C81.7544 26.577 82.2301 27.0574 83.1479 27.0861C83.7933 27.1052 84.4434 27.0741 85.0864 27.0072C88.404 26.6511 91.7383 26.6558 95.0678 26.5961C98.9447 26.5268 102.824 26.5339 106.703 26.51C107.389 26.5052 108.082 26.4718 108.711 26.847C108.663 27.196 108.376 27.208 108.152 27.2151C106.861 27.2653 105.57 27.2797 104.282 27.3323C103.388 27.3681 102.499 27.4518 101.605 27.5115C101.16 27.5426 100.718 27.5832 100.274 27.5952C98.1942 27.6525 96.1123 27.6525 94.0376 27.7673C91.9558 27.882 89.8835 28.133 87.804 28.2836C85.084 28.4796 82.3591 28.6182 79.6391 28.8237C78.7523 28.8907 77.8751 29.0891 76.9836 29.2277C78.15 29.7153 79.3092 29.7105 80.4828 29.2827C80.6549 29.2205 80.8653 29.2683 81.0589 29.2635C81.5991 29.2444 82.1416 29.2516 82.677 29.199C83.6092 29.1058 84.5271 28.7975 85.4807 29.0556C85.6648 29.1058 85.8823 29.0938 86.0735 29.0508C88.0191 28.623 90.0102 28.8405 91.9701 28.6349C93.0577 28.5202 94.1333 28.3051 95.2327 28.4724C96.098 27.9967 96.9609 28.3887 97.8333 28.4461C98.9591 28.5178 100.111 28.6564 101.206 28.1688C101.368 28.0971 101.612 28.0876 101.777 28.1545C102.953 28.6325 104.122 28.3385 105.305 28.1903C106.032 28.0995 106.775 28.1043 107.509 28.1067C107.669 28.1067 107.853 28.2525 107.984 28.3768C108.379 28.7473 108.84 28.8453 109.361 28.7951C110.097 28.7257 110.836 28.6684 111.572 28.6038C111.625 28.6803 111.728 28.7592 111.72 28.8285C111.647 29.5631 111.936 30.0643 112.588 30.332C112.772 30.4061 112.947 30.4993 113.128 30.5758C113.26 30.6307 113.396 30.6714 113.721 30.7837C113.028 30.9749 112.504 31.1183 111.945 31.2737C111.945 31.6753 111.933 32.017 111.947 32.3588C111.964 32.7317 111.871 33.0711 111.57 33.2862C111.008 33.6854 110.989 34.2877 110.948 34.8566C110.482 35.2175 109.964 35.1195 109.481 35.1339C108.682 35.1578 107.906 35.2534 107.119 35.4111C106.252 35.5832 105.346 35.5928 104.457 35.631C103.515 35.6717 102.571 35.6502 101.629 35.6812C98.7989 35.7816 95.9689 35.8533 93.1413 36.0159C91.6068 36.1043 90.0771 36.2525 88.5402 36.3337C85.9612 36.4676 83.3869 36.6899 80.8103 36.8763C80.5713 36.8931 80.3323 36.9241 80.0693 37.1273C80.2582 37.1823 80.4494 37.2946 80.6358 37.2851C82.4715 37.1942 84.3143 37.1392 86.1428 36.9672C89.7568 36.6277 93.378 36.4509 97.0015 36.3648C100.18 36.2907 103.362 36.2812 106.541 36.2453C107.49 36.2334 108.415 36.3624 109.246 36.7425C109.529 37.3735 108.716 37.4356 108.745 37.8993C109.143 38.0778 109.486 37.9957 109.775 37.6531C109.887 37.6938 110.047 37.7057 110.136 37.7918C110.63 38.2722 111.206 38.461 111.895 38.418C112.485 38.3798 113.08 38.4108 113.68 38.6092C112.93 38.6307 112.179 38.6451 111.431 38.6785C110.984 38.6977 110.53 38.7024 110.097 38.8004C109.414 38.9558 109.177 39.3956 109.304 40.1294C109.38 40.5644 109.459 40.9994 109.55 41.5133C109.885 41.5635 110.215 41.64 110.549 41.6591C112.633 41.7738 114.722 41.836 116.804 41.9985C117.882 42.0822 118.979 42.2089 120 42.8279C119.627 43.6956 119.821 44.6803 119.496 45.5838C119.431 45.7655 119.46 45.983 119.398 46.1646C119.316 46.3965 119.183 46.6092 119.075 46.8315C118.934 47.1207 118.941 47.4004 119.099 47.6848C119.214 47.8952 119.309 48.1151 119.462 48.4282C119.132 48.4831 118.905 48.5262 118.678 48.5572C118.485 48.5835 118.291 48.5979 118.014 48.6266C118.176 48.8943 118.334 49.0855 118.415 49.3078C118.666 49.9985 118.375 50.5148 117.643 50.577C116.905 50.6391 116.157 50.5985 115.411 50.6033C115.167 50.6033 114.926 50.6033 114.469 50.6033C115.277 51.2247 116.114 51.0359 116.788 51.3227C117.168 51.9489 117.543 52.568 117.956 53.2468C117.832 53.7511 117.682 54.3583 117.486 55.159C117.251 55.4817 116.365 55.2976 116.271 56.1939C116.541 56.5094 116.888 56.9134 117.266 57.3508C116.599 57.4942 115.918 57.7213 115.224 57.7691C114.491 57.8193 113.745 57.6854 113.002 57.652C112.258 57.6185 111.512 57.6089 110.769 57.5922C109.428 57.5635 108.087 57.5277 106.746 57.5133C106.405 57.5085 106.039 57.5133 105.85 57.9842C107.686 58.1563 109.545 57.8384 111.304 58.479C111.426 58.5244 111.515 58.6678 111.606 58.7538C111.563 59.1315 111.273 59.1124 111.053 59.1315C110.473 59.1817 109.889 59.1936 109.328 59.2223C109.306 59.3586 109.285 59.404 109.297 59.4303C109.318 59.4733 109.359 59.5306 109.397 59.5354C110.279 59.6573 111.161 59.7721 112.055 59.8916C112.148 60.6803 112.782 60.8572 113.41 61.0962C111.625 60.917 109.93 60.9982 108.264 61.199C109.067 61.536 109.932 61.6938 110.834 61.732C111.376 61.7559 111.924 61.8491 112.452 61.9782C113.08 62.1312 113.707 62.3344 114.06 63.0753C113.852 63.1733 113.621 63.3884 113.451 63.3478C112.473 63.1064 111.503 63.5103 110.513 63.2857C109.6 63.0777 108.639 63.0658 107.698 62.9941C106.713 62.9176 105.726 62.8578 104.741 62.8172C104.414 62.8028 104.081 62.8698 103.603 62.9128C104.275 63.735 105.188 62.9821 105.812 63.5581C106.393 64.0959 107.258 63.5653 108.001 63.9047C107.796 64.0194 107.624 64.1151 107.365 64.2585C108.702 64.4879 109.956 64.7126 111.214 64.9158C112.017 65.0448 112.734 65.3293 113.35 65.9675C113.092 66.0965 112.858 66.2137 112.631 66.3284C112.674 67.2988 113.676 67.2725 114.328 67.9131C113.444 67.8701 112.774 67.8366 112.057 67.8007C112.057 68.1473 112.076 68.427 112.053 68.7042C112.026 68.9958 111.957 69.2851 111.89 69.6603C111.572 69.6603 111.238 69.6579 110.905 69.6603C109.366 69.677 107.827 69.6794 106.287 69.7272C105.96 69.7368 105.592 69.8468 105.322 70.0284C104.404 70.6403 103.453 70.9176 102.368 70.571C102.241 70.5304 102.081 70.5877 101.94 70.6092C101.897 70.6164 101.858 70.6642 101.815 70.6977C101.875 71.0419 102.121 71.0347 102.365 70.9582C102.999 70.7622 103.606 70.7431 104.28 71.1112C104.136 71.2618 104.06 71.4171 103.955 71.4386C102.501 71.7517 101.039 71.8115 99.5542 71.6561C98.971 71.594 98.3687 71.7183 97.7759 71.7278C96.337 71.7494 94.8957 71.7804 93.4568 71.7613C90.6316 71.7231 87.804 71.6729 84.9788 71.5892C82.199 71.5055 79.4192 71.386 76.6418 71.2474C75.6522 71.1972 74.6675 71.0466 73.6827 70.9439C73.5345 70.9271 73.3863 70.908 73.2381 70.896C70.9101 70.7383 68.5844 70.5734 66.2564 70.4252C64.0287 70.2818 61.8082 70.0643 59.5925 69.8013C58.1129 69.6269 56.6262 69.5408 55.1395 69.4165C54.3412 69.3496 54.3388 69.3544 53.6719 68.6086C53.5357 68.5895 53.3875 68.5489 53.2393 68.5537C52.3478 68.5823 51.4777 68.5608 50.5958 68.3098C49.8428 68.0947 49.0278 68.0852 48.239 67.9967C46.9077 67.8509 45.5763 67.7147 44.245 67.5761C44.0466 67.5545 43.8315 67.5904 43.6546 67.5235C42.8037 67.1984 41.8978 67.294 41.0326 67.1434C39.2184 66.8327 37.3827 66.8423 35.5638 66.6463C35.1192 66.5985 34.6699 66.5578 34.2325 66.4718C33.121 66.2495 32.0096 66.1443 30.8742 66.0726C29.0051 65.9555 27.1312 65.7667 25.3075 65.1978C23.9928 64.7891 22.6567 64.3995 21.2465 64.3015C19.4586 64.1772 19.32 64.1103 17.6014 62.896C17.0445 62.5017 16.49 62.265 15.847 62.1694C15.1586 62.0666 14.4631 62.0069 13.7819 61.8659C13.1652 61.7392 12.539 61.7033 12.0132 61.1942C11.6905 60.8835 11.0977 60.862 10.6412 60.6779C9.76875 60.3266 8.93694 59.8724 7.95935 59.8199C7.68687 59.8055 7.43112 59.5689 7.16103 59.4446C6.85031 59.3012 6.54676 59.1243 6.21931 59.0454C5.7819 58.9403 5.37555 58.8757 5.06721 58.4598C4.91902 58.2591 4.55094 58.1802 4.2665 58.13C3.58051 58.0081 2.88974 57.9173 2.19658 57.8503C1.73527 57.8073 1.34091 57.6615 0.874821 57.2719C1.30745 57.1524 1.61816 57.0066 1.93606 56.9922C3.27457 56.9325 4.61309 56.9086 5.95161 56.8823C6.44877 56.8727 6.94593 56.899 7.44309 56.8919C7.81596 56.8847 8.1219 56.7269 8.27966 56.3756C8.47565 55.9429 8.05976 55.7852 7.85898 55.5247C8.14819 55.1494 8.61905 54.8411 8.14579 54.2531C7.98804 54.0571 8.03107 53.6938 7.97371 53.3544C7.63669 53.2229 7.27578 53.0819 6.75949 52.8811C7.22797 52.7759 7.55542 52.7425 7.8518 52.6254C8.76964 52.2668 9.00627 51.3442 8.39199 50.5746C8.00717 50.0917 7.54824 49.7428 6.88615 49.7332C6.29099 49.7236 5.69825 49.6782 5.05767 49.6448C4.94533 49.5037 4.78756 49.3699 4.71108 49.2002C4.43142 48.5835 3.92947 48.323 3.29607 48.2656C2.7033 48.213 2.10575 48.182 1.51059 48.1485C1.0206 48.1198 0.509113 48.2011 0 47.7637C0.310726 47.6442 0.556898 47.4936 0.81743 47.4625C1.15684 47.4219 1.513 47.4434 1.8548 47.4936C2.65313 47.6107 3.29608 47.3669 3.85061 46.7048C3.64505 46.0571 3.08814 45.744 2.50493 45.4858C2.64117 45.1655 2.75352 44.8978 2.90649 44.5345C2.43562 44.3266 2.0006 44.133 1.52017 43.9202C1.83089 43.5498 2.10814 43.2199 2.37345 42.9044C3.08812 42.9044 3.78129 42.9116 4.47206 42.902C4.91663 42.8948 5.37076 42.9092 5.80578 42.8351C6.47981 42.7204 6.67106 42.216 6.31253 41.6137C6.04244 41.1619 5.66954 40.8632 5.12458 40.8249C4.67761 40.7939 4.22826 40.7867 3.78368 40.7413C3.29608 40.6911 2.81326 40.6122 2.32327 40.5429C2.29459 40.1652 2.54555 40.2465 2.67462 40.1748C2.88735 40.0601 3.12158 39.9716 3.29607 39.8139C3.4347 39.6872 3.46099 39.4458 3.59484 39.3072C3.72391 39.1733 3.91993 39.0347 4.08963 39.0275C4.92142 38.9988 5.49269 38.5997 5.80102 37.873C6.24321 37.7655 6.62802 37.6675 7.01523 37.5814C7.20884 37.5384 7.45743 37.4237 7.59367 37.4978C8.80789 38.1622 10.0341 37.4332 11.2602 37.5551C12.441 37.6723 12.6298 37.3878 12.7804 36.0565C16.3824 35.7912 19.9869 36.5035 23.5817 36.1951C23.6726 35.8653 23.4646 35.8103 23.2782 35.7625C22.8145 35.643 22.2862 35.7099 21.8464 35.2653C22.0663 35.2319 22.2193 35.1625 22.3484 35.1936C23.0463 35.3705 23.7108 35.3227 24.392 35.0717C24.8533 34.902 25.372 34.7538 25.85 34.7897C27.8984 34.9403 29.8727 34.2065 31.9187 34.3547C32.2916 34.381 32.6812 34.2089 33.1497 34.1109C32.5258 33.2576 31.5387 34.1252 30.9626 33.4942C31.5674 32.7484 32.1554 32.421 32.8724 32.4162C33.4485 32.4138 34.0269 32.4067 34.7081 32.4019C34.5814 32.1509 34.5432 31.9549 34.4548 31.9262C34.1297 31.8258 33.7831 31.7924 33.4532 31.7039C33.4222 31.6968 33.4485 31.4745 33.4485 31.3143C33.078 31.2904 32.6908 31.2426 32.3036 31.2498C32.1243 31.2522 31.8399 31.3119 31.7873 31.4291C31.5937 31.8545 31.2782 31.821 30.9172 31.7876C30.7236 31.7709 30.5157 31.778 30.3317 31.8354C29.8632 31.9812 29.4831 31.9119 29.0983 31.5725C28.8999 31.398 28.5701 31.3765 28.1064 31.2187C28.4219 31.1183 28.5725 31.0323 28.7254 31.0251C29.7197 30.9821 30.7141 30.9199 31.7084 30.9319C33.8524 30.9606 35.9677 30.6857 38.0855 30.418C38.3269 30.3869 38.6997 30.3511 38.7691 30.2053C39.0989 29.5026 39.6654 29.7583 40.1769 29.7822C40.3753 29.7918 40.5737 29.8205 40.7696 29.8539C41.2596 29.94 41.7449 30.1073 42.2348 30.1121C43.124 30.1192 44.0132 30.0284 44.943 29.9782C44.7637 29.4787 44.3693 29.5862 44.0657 29.5551C42.5838 29.395 41.0995 29.2588 39.6176 29.1082C39.4742 29.0938 39.3331 29.0412 39.1252 28.9887C39.7849 28.5321 40.502 28.6277 41.1688 28.5823C41.7592 28.5417 42.3591 28.623 42.9543 28.6636C43.5996 28.7066 44.245 28.8357 44.8856 28.8022C46.5276 28.7186 48.1219 29.1201 49.7449 29.2229C51.3774 29.3257 52.986 29.438 54.6328 29.1488C56.631 28.7998 58.6723 28.7568 60.7135 28.8309C62.0998 28.8811 63.4957 28.764 64.8844 28.7114C65.066 28.7042 65.2477 28.6349 65.7592 28.5178C64.3036 28.4413 63.1945 28.3433 62.0855 28.3361C60.4004 28.3242 58.7177 28.2979 57.0422 28.0684C56.9943 28.0613 56.9418 28.0637 56.894 28.0708C55.0463 28.3935 53.2537 27.8055 51.4299 27.7338C51.2315 27.7266 51.0332 27.6764 50.8348 27.6764C48.643 27.6741 46.4727 27.404 44.2976 27.1984C44.0618 27.1761 43.6849 27.2805 43.167 27.5115C43.4084 27.6286 43.5734 27.7075 43.8076 27.8199C43.0021 28.3361 42.3448 27.8629 41.3959 27.8653C41.8381 27.6741 42.0054 27.6 42.1751 27.5259C42.1297 27.4589 42.0867 27.337 42.0365 27.3323C41.2955 27.2868 40.5521 27.2582 39.7227 27.2199C40.153 27.1482 40.5091 27.0885 40.8653 27.0287L40.8724 26.859C40.6119 26.7969 40.349 26.7514 40.0956 26.6726C39.8686 26.6009 39.6534 26.4933 39.3523 26.3666C39.5387 26.2184 39.6463 26.13 39.7514 26.0463C39.1132 25.5181 38.4583 25.3101 37.6839 25.3197C35.8028 25.346 33.9193 25.3532 32.0382 25.3579C30.2097 25.3627 28.3789 25.3579 26.5575 25.4583C27.6451 25.3006 28.7326 25.15 29.8202 24.9875C30.5516 24.8775 31.2614 24.7437 32.0287 24.8608C32.6956 24.9636 33.4055 24.758 34.0986 24.7317C35.8339 24.6696 37.5716 24.6218 39.3092 24.5907C39.8542 24.5811 40.3705 24.5238 41.1569 24.2202C40.7099 24.1007 40.5498 24.017 40.392 24.0218C39.4049 24.0577 38.4177 23.8306 37.4305 24.0505C37.1485 24.1127 36.8306 24.0792 36.539 24.0362C34.8061 23.778 33.0732 24.0003 31.3379 24.0075C30.2002 24.0123 29.0601 23.8832 27.9199 23.8187C27.4754 23.7924 27.026 23.7398 26.5838 23.7685C26.0484 23.8019 25.5728 23.6322 25.2094 23.3024C24.7768 22.9104 24.3657 22.4419 24.4637 21.7655C25.8763 21.0771 27.3965 20.9695 28.9071 20.8548C30.2934 20.7496 31.6869 20.7138 33.078 20.6564C33.4246 20.6421 33.7831 20.6062 34.1201 20.6684C36.5414 21.1225 38.9722 20.7449 41.3959 20.7544C42.3472 20.427 43.3081 20.3815 44.2857 20.6253C44.3311 20.6373 44.3836 20.6134 44.4338 20.6086C47.5387 20.2668 50.6699 20.3242 53.7771 20.0302C54.9077 19.9226 56.0263 19.6908 57.1569 19.5689C59.0332 19.3681 60.9143 19.2128 62.793 19.043C62.9913 19.0239 63.1921 19.0168 63.3905 19.0263C66.0771 19.1697 68.7206 18.6391 71.3881 18.5029C71.5363 18.4957 71.6845 18.4503 71.8327 18.4479C74.4141 18.4049 76.9693 18.0272 79.5411 17.8551C80.3801 17.8001 81.2166 17.6926 82.0532 17.6089C82.3496 17.5779 82.6484 17.5037 82.9424 17.5229C85.7915 17.7021 88.5593 16.9301 91.3869 16.8106C92.5653 16.7604 93.7556 16.4688 94.934 16.5907C95.8805 16.6887 96.8127 16.6839 97.752 16.6457C98.2468 16.6242 98.7416 16.5596 99.2363 16.5166C99.5303 16.4903 99.8315 16.4258 100.121 16.4521C102.456 16.6624 104.786 16.4258 107.117 16.378C108.558 16.3493 110.002 16.3493 111.445 16.3302C112.007 16.323 112.516 16.4353 112.999 16.7484C113.441 17.0353 113.924 17.2552 114.569 17.5994L114.562 17.6041ZM74.4093 29.6508C72.1458 29.309 69.9229 29.6316 67.7024 29.9352C67.6475 29.9424 67.6116 30.0929 67.5447 30.2148C68.5438 30.6068 69.4808 30.0188 70.4583 30.0427C71.773 30.0738 73.0923 29.7966 74.4117 29.6508H74.4093ZM66.3113 30.2698C65.6397 30.1503 64.8987 29.9185 64.1841 30.2698H66.3113ZM102.621 63.0347C101.944 62.7168 101.33 62.8889 100.529 63.0347C101.33 63.1422 101.942 63.3669 102.621 63.0347ZM38.8312 32.0553C38.4918 31.8545 38.1596 31.5629 37.8847 32.0864C38.0257 32.1342 38.1643 32.2226 38.2958 32.213C38.4775 32.1987 38.6519 32.1103 38.8312 32.0553ZM99.1216 63.0275C99.2029 63.0466 99.2818 63.0705 99.363 63.0825C99.3798 63.0825 99.4013 63.0299 99.4204 63.0036C99.3391 62.9845 99.2602 62.9606 99.179 62.951C99.1622 62.951 99.1407 63.0012 99.1216 63.0299V63.0275ZM33.219 32.8919L33.2238 32.7986L33.1115 32.8417L33.219 32.8919ZM73.3027 13.0891C72.7457 12.9289 72.1195 13.0197 71.5315 12.9504C70.9053 12.8763 70.3914 12.4843 69.7006 12.4772C67.1694 12.4509 64.6358 12.3433 62.107 12.2023C57.7449 11.9585 53.3851 11.6717 49.023 11.392C47.2877 11.2797 45.5572 11.1339 43.8219 11.0144C43.4849 10.9905 43.1049 10.9355 42.9758 11.4518C43.4108 12.133 43.9558 12.7472 44.6753 13.2827C45.77 12.8309 46.9005 12.9456 48.0406 13.058C48.6358 13.1153 49.0206 13.3711 49.2023 13.94C48.937 14.0212 48.6812 14.1025 48.4255 14.1814C48.9035 14.4061 49.3744 14.4754 49.8476 14.5017C50.7416 14.5519 51.6355 14.571 52.5295 14.614C55.804 14.7718 59.0762 14.9415 62.3508 15.0873C62.9268 15.1135 63.5124 15.1924 63.9833 14.6283C64.1506 14.4276 64.6334 14.43 64.9704 14.4347C67.504 14.473 70.0377 14.5399 72.5713 14.5901C73.2668 14.6044 73.9624 14.6116 74.6579 14.5805C74.9543 14.5686 75.2387 14.4419 75.2507 13.9567C74.6316 13.6723 73.9958 13.2874 73.3074 13.0891H73.3027ZM72.6262 17.5994C72.4828 17.5755 72.3394 17.5277 72.196 17.5277C69.911 17.5205 67.626 17.5277 65.3409 17.5109C64.4996 17.5037 63.6558 17.4679 62.8169 17.3866C60.8425 17.1906 58.8802 16.8847 56.8892 16.8871C55.9952 16.8871 55.1013 16.8297 54.2097 16.7676C52.2283 16.6289 50.2444 16.4927 48.2677 16.3087C46.7882 16.17 45.2871 16.3278 43.8195 15.9645C43.4228 15.8665 42.9662 15.8545 42.536 16.0935C42.6603 16.1772 42.7344 16.2632 42.8181 16.2776C44.9191 16.6146 47.0105 17.009 49.1449 17.1118C50.8778 17.1954 52.6059 17.4105 54.3388 17.4966C56.6669 17.6113 58.9997 17.6758 61.3302 17.7237C64.2534 17.7834 67.1766 17.8121 70.0998 17.8384C70.9364 17.8455 71.773 17.8001 72.6095 17.7786C72.6143 17.7189 72.6191 17.6615 72.6239 17.6017L72.6262 17.5994ZM56.1554 15.4267C55.075 15.3956 53.9946 15.398 52.9238 15.1805C52.4099 15.0753 51.8578 15.0155 51.2435 15.1948C51.4252 15.3143 51.5327 15.441 51.6522 15.4554C54.052 15.7493 56.4637 15.8521 58.8898 15.8234C57.9767 15.6872 57.0852 15.453 56.1554 15.4243V15.4267ZM51.7717 28.7257H54.3436C54.3436 28.7018 54.3436 28.6779 54.346 28.654C53.4879 28.5967 52.6298 28.5369 51.7741 28.4796C51.7741 28.5608 51.7741 28.6445 51.7717 28.7257ZM48.0478 28.4963C48.6024 28.47 49.1593 28.4461 49.7138 28.4198C49.7138 28.3863 49.7138 28.3529 49.7114 28.317H48.0072C48.0215 28.3768 48.0335 28.4341 48.0478 28.4939V28.4963ZM109.184 64.268C109.698 64.2895 110.112 64.3087 110.525 64.3278C109.918 64.0378 109.471 64.0178 109.184 64.268ZM83.3583 24.3421L84.8019 24.2656C84.8019 24.2274 84.7972 24.1868 84.7972 24.1485H83.3296C83.3391 24.213 83.3487 24.2776 83.3606 24.3421H83.3583ZM45.6146 28.1449C45.844 28.1449 46.0735 28.133 46.303 28.1473C46.5276 28.1617 46.7523 28.2023 46.977 28.2334C46.977 28.1784 46.9794 28.1234 46.9818 28.0684H45.6146V28.1449ZM51.7885 69.0556H52.9071C52.9071 69.0126 52.9119 68.9672 52.9143 68.9241C52.5438 68.8883 52.1733 68.8524 51.8028 68.8166C51.798 68.8978 51.7932 68.9767 51.7885 69.058V69.0556ZM49.1903 15.3263C49.5249 15.3454 49.8046 15.3597 50.0843 15.3765C49.7289 15.0976 49.4309 15.0809 49.1903 15.3263ZM39.3929 67.8151H39.9355C39.9307 67.7816 39.9283 67.7458 39.9235 67.7123C39.7419 67.7219 39.5626 67.7338 39.381 67.7434C39.3857 67.7673 39.3881 67.7912 39.3929 67.8175V67.8151ZM30.6041 32.7341C30.7069 32.6624 30.8097 32.5907 30.9125 32.519C30.8575 32.4521 30.7954 32.323 30.7452 32.3278C30.64 32.3373 30.5372 32.4138 30.4272 32.4664C30.5085 32.5907 30.5563 32.6624 30.6041 32.7341ZM30.4105 66.9403C30.4583 66.9498 30.5085 66.9403 30.5587 66.9403C30.5157 66.9068 30.475 66.8566 30.4272 66.8447C30.3866 66.8327 30.334 66.8662 30.2886 66.8781C30.3293 66.8996 30.3675 66.9331 30.4129 66.9427L30.4105 66.9403ZM48.8509 68.7042C48.9346 68.7257 49.0182 68.7544 49.1019 68.764C49.1401 68.7688 49.1831 68.7377 49.2238 68.721C49.1592 68.6851 49.0947 68.6516 49.0326 68.6158C48.9728 68.6445 48.9131 68.6732 48.8509 68.7042ZM27.2507 31.4028C27.2698 31.4028 27.2841 31.2856 27.3009 31.2211C27.2196 31.2259 27.1336 31.2211 27.0547 31.2402C27.0308 31.245 27.0212 31.3167 27.0045 31.355C27.0858 31.3741 27.1694 31.4052 27.2483 31.4028H27.2507ZM114.708 61.4906C114.665 61.4715 114.605 61.4261 114.584 61.438C114.546 61.4643 114.529 61.5265 114.503 61.5719C114.55 61.5743 114.601 61.5767 114.648 61.579C114.667 61.548 114.687 61.5193 114.708 61.4882V61.4906ZM42.6173 68.1808C42.775 68.188 42.9328 68.1951 43.0905 68.2023C43.0905 68.1545 43.0929 68.1091 43.0953 68.0613H42.622C42.622 68.1019 42.6197 68.1401 42.6173 68.1808ZM34.4595 67.1458C34.426 67.1243 34.3759 67.1291 34.3305 67.1243C34.34 67.1769 34.352 67.2319 34.3615 67.2845C34.4022 67.2725 34.4428 67.2605 34.4834 67.2486C34.4763 67.2127 34.4786 67.1602 34.4595 67.1482V67.1458Z" fill="#E6485C"/>
<path d="M11.6352 100.928C11.7428 98.8925 11.9555 95.5725 11.9555 91.0713C11.9555 88.0716 11.7404 84.8568 11.7404 81.1066C11.7404 65.0349 20.0965 60.429 43.7762 56.7863C63.7057 53.4639 67.8838 52.5007 67.8838 46.714C67.8838 43.1789 65.3119 41.1424 59.3125 41.1424C52.455 41.1424 49.8832 43.3916 49.8832 47.9999C49.8832 49.1783 49.8832 50.3567 49.9907 51.8577C45.3824 51.7501 40.669 51.6426 34.7771 51.6426C25.5629 51.6426 18.5979 51.8577 12.8136 52.3931C12.5985 49.6085 12.2782 46.9291 12.2782 44.7851C12.2782 26.3567 25.6705 19.0713 60.1706 19.0713C94.6708 19.0713 108.706 27.535 108.706 44.8927C108.706 62.2503 100.99 67.0713 78.5991 69.5356C57.5988 71.357 53.4207 72.215 52.8853 75.7501C62.6349 75.6426 74.7437 75.4275 81.5988 75.4275C91.0281 75.4275 99.9197 75.1072 107.313 74.4642C107.205 78.2144 106.885 82.8204 106.885 87.5362C106.885 92.7851 106.885 97.6085 107.205 100.928H11.6328H11.6352Z" fill="#282B2E"/>
<path d="M31.9591 95.6586C31.9209 95.7183 31.897 95.7876 31.8468 95.8259C31.7392 95.9072 31.6174 95.9717 31.505 96.0482C30.7569 96.5621 30.2884 97.2552 30.1498 98.1611C30.1163 98.3834 30.0804 98.6105 30.0159 98.8256C29.9514 99.0431 29.6502 99.0885 29.5307 98.8997C29.4494 98.7706 29.3992 98.6153 29.3586 98.4647C29.2606 98.1157 29.1817 97.762 29.0885 97.4106C28.8805 96.6457 28.3475 96.2442 27.5946 96.0984C27.4177 96.0649 27.2337 96.0506 27.0568 96.0195C26.856 95.986 26.7437 95.8498 26.6768 95.6705C26.6146 95.5032 26.6624 95.3478 26.8178 95.2618C26.9373 95.1973 27.064 95.1471 27.1931 95.1041C27.566 94.975 27.8815 94.7575 28.1539 94.4802C28.5531 94.0739 28.8973 93.6245 29.1674 93.1202C29.3753 92.7354 29.4901 92.3266 29.5235 91.8892C29.5474 91.5976 29.5929 91.306 29.655 91.0168C29.6837 90.8758 29.8032 90.7802 29.9585 90.8041C30.1139 90.8256 30.1856 90.9427 30.1952 91.0909C30.2071 91.2487 30.1952 91.4088 30.2143 91.5666C30.2908 92.2406 30.3362 92.9242 30.4653 93.5887C30.6015 94.3009 30.9361 94.9081 31.6341 95.2475C31.7321 95.2953 31.8133 95.3861 31.885 95.4698C31.9257 95.5152 31.9328 95.5916 31.9591 95.6586ZM28.1826 95.4339C28.4288 95.5701 28.6511 95.6729 28.8495 95.8115C29.0335 95.9406 29.1913 96.1055 29.3562 96.2609C29.5307 96.4234 29.5809 96.6935 29.7769 96.8274C30.1569 96.39 30.5059 95.986 30.8381 95.6036C30.5728 95.2977 30.2836 95.0323 30.0852 94.7121C29.8892 94.3942 29.7888 94.0213 29.6215 93.615C29.3777 93.9639 29.1889 94.2699 28.969 94.5471C28.7324 94.8459 28.4647 95.1208 28.1826 95.4363V95.4339Z" fill="#E6485C"/>
<path d="M24.2331 104.549C24.1757 104.64 24.1375 104.745 24.0634 104.802C23.9009 104.926 23.7145 105.024 23.5448 105.139C22.407 105.921 21.6947 106.975 21.4844 108.352C21.4318 108.691 21.3792 109.035 21.2812 109.363C21.1832 109.693 20.7243 109.762 20.5427 109.475C20.4184 109.279 20.3443 109.042 20.2821 108.815C20.1339 108.285 20.0144 107.745 19.871 107.214C19.5555 106.05 18.7428 105.44 17.6003 105.218C17.3302 105.166 17.053 105.144 16.7805 105.099C16.4745 105.048 16.3048 104.84 16.202 104.566C16.1088 104.312 16.1781 104.076 16.4172 103.944C16.5964 103.846 16.7924 103.77 16.986 103.703C17.5525 103.507 18.0305 103.177 18.4488 102.754C19.0559 102.135 19.577 101.454 19.9905 100.686C20.306 100.101 20.4805 99.4792 20.5331 98.8148C20.5689 98.3702 20.6407 97.9256 20.7315 97.4906C20.7769 97.2779 20.9562 97.1321 21.1952 97.1655C21.4294 97.199 21.5394 97.3782 21.5561 97.6029C21.5728 97.8443 21.5561 98.0857 21.5848 98.3248C21.7019 99.3502 21.7712 100.388 21.9648 101.399C22.1704 102.481 22.6819 103.406 23.7431 103.92C23.8913 103.992 24.0156 104.131 24.1256 104.257C24.1877 104.329 24.1996 104.441 24.2379 104.546L24.2331 104.549ZM18.4919 104.207C18.8671 104.415 19.2065 104.57 19.5053 104.781C19.785 104.977 20.024 105.228 20.2749 105.462C20.5379 105.71 20.6144 106.119 20.9155 106.322C21.494 105.656 22.0246 105.044 22.5289 104.46C22.1274 103.994 21.6852 103.593 21.384 103.105C21.0876 102.622 20.9322 102.053 20.6789 101.437C20.3108 101.967 20.0216 102.431 19.6846 102.854C19.3237 103.308 18.9197 103.724 18.4895 104.207H18.4919Z" fill="#E6485C"/>
<path d="M95.9258 47.0623C95.9736 46.5603 96.2652 46.2974 96.6189 46.1588C98.316 45.4943 98.8872 44.0506 99.253 42.4516C99.3055 42.2173 99.3031 41.9616 99.394 41.7441C99.4465 41.6126 99.6234 41.4525 99.7501 41.4501C99.8744 41.4453 100.073 41.5983 100.116 41.725C100.202 41.9807 100.214 42.2652 100.24 42.5376C100.288 43.0181 100.319 43.5009 100.367 43.9813C100.462 44.9493 100.869 45.7668 101.571 46.436C101.722 46.5795 101.875 46.7181 102.018 46.8663C102.547 47.416 102.523 47.7865 101.935 48.2215C101.88 48.2622 101.82 48.3004 101.76 48.3339C100.608 49.0199 100.032 50.0787 99.786 51.3551C99.7143 51.728 99.6617 52.1032 99.5804 52.4737C99.5326 52.6936 99.3749 52.8298 99.1478 52.8609C98.8729 52.8992 98.6458 52.7844 98.567 52.5334C98.4546 52.1749 98.4092 51.7949 98.3327 51.4244C98.1606 50.5807 98.0148 49.7321 97.8093 48.8956C97.6348 48.1881 97.226 47.6598 96.4899 47.4208C96.2771 47.3515 96.1027 47.1722 95.9282 47.0575L95.9258 47.0623ZM97.9288 46.7468C98.3853 47.5499 98.8299 48.3363 99.2792 49.125C99.8457 48.5394 100.384 47.9825 100.948 47.3969C100.18 46.7778 99.8433 45.9102 99.4346 45.0187C98.8777 45.6568 98.3853 46.2185 97.9264 46.7444L97.9288 46.7468Z" fill="#E6485C"/>
</g>
<defs>
<clipPath id="clip0_7686_234">
<rect width="120" height="120" fill="white"/>
</clipPath>
</defs>
</svg>
