<svg width="120" height="120" viewBox="0 0 120 120" fill="none" xmlns="http://www.w3.org/2000/svg">
<g clip-path="url(#clip0_7960_185)">
<path d="M5.43801 110.481C6.42201 110.166 7.147 109.861 7.907 109.714C8.564 109.588 8.98701 109.308 9.25001 108.771C9.31001 108.651 9.38901 108.54 9.47201 108.402C10.78 108.074 12.145 108.302 13.588 108.061C13.215 107.725 12.814 107.83 12.479 107.758C11.996 107.655 11.502 107.594 11.024 107.476C10.794 107.419 10.589 107.277 10.228 107.103C10.486 106.961 10.62 106.823 10.763 106.817C12.895 106.712 15.025 106.607 17.159 106.542C17.95 106.518 18.744 106.627 19.537 106.62C20.1781 106.614 20.8186 106.513 21.4592 106.474C21.9492 106.443 22.444 106.408 22.934 106.43C24.968 106.522 26.9949 106.531 29.0099 106.207C29.1557 106.183 29.3062 106.144 29.4496 106.16C32.0454 106.411 34.6053 105.941 37.1843 105.845C38.0783 105.81 38.9698 105.736 39.8613 105.679C41.3959 105.581 42.9638 105.62 44.4577 105.341C45.7389 105.1 47.0009 105.166 48.2701 105.085C49.3863 105.013 50.4954 104.878 51.7646 104.755C50.971 104.395 50.2779 104.378 49.5919 104.373C47.2064 104.356 44.821 104.343 42.4356 104.356C40.9967 104.362 39.5578 104.421 38.1165 104.45C38.0281 104.45 37.9372 104.382 37.8297 104.338C37.9587 103.932 38.1763 103.526 38.2002 103.113C38.2456 102.284 37.7699 101.845 36.8521 101.818C36.2067 101.801 35.5566 101.829 34.9136 101.891C31.596 102.216 28.2617 102.212 24.9322 102.266C21.0553 102.329 17.176 102.323 13.297 102.345C12.611 102.349 11.918 102.38 11.289 102.037C11.337 101.718 11.624 101.707 11.848 101.701C13.139 101.655 14.43 101.642 15.718 101.594C16.612 101.561 17.501 101.484 18.395 101.43C18.84 101.401 19.282 101.364 19.726 101.353C21.8058 101.301 23.8877 101.301 25.9624 101.196C28.0442 101.091 30.1165 100.862 32.196 100.725C34.916 100.545 37.6409 100.419 40.3609 100.231C41.2477 100.17 42.1249 99.9887 43.0164 99.862C41.85 99.4166 40.6908 99.421 39.5172 99.8118C39.3451 99.8686 39.1347 99.8249 38.9411 99.8293C38.4009 99.8468 37.8584 99.8402 37.323 99.8883C36.3908 99.9734 35.4729 100.255 34.5193 100.019C34.3352 99.9734 34.1177 99.9844 33.9265 100.024C31.9809 100.414 29.9898 100.216 28.0299 100.404C26.9423 100.508 25.8667 100.705 24.7673 100.552C23.902 100.987 23.0391 100.629 22.1667 100.576C21.0409 100.511 19.889 100.384 18.794 100.829C18.632 100.895 18.388 100.904 18.223 100.842C17.047 100.406 15.878 100.674 14.695 100.81C13.968 100.893 13.225 100.888 12.491 100.886C12.331 100.886 12.147 100.753 12.016 100.639C11.621 100.301 11.16 100.211 10.639 100.257C9.90301 100.321 9.16401 100.373 8.42801 100.432C8.37501 100.362 8.272 100.29 8.28 100.227C8.353 99.5556 8.06401 99.0978 7.41201 98.8532C7.22801 98.7855 7.05301 98.7004 6.87201 98.6305C6.74001 98.5803 6.60401 98.5431 6.27901 98.4406C6.97201 98.2659 7.49601 98.1349 8.05501 97.9929C8.05501 97.626 8.06701 97.3139 8.05301 97.0016C8.03601 96.661 8.12901 96.3509 8.43001 96.1544C8.99201 95.7897 9.01101 95.2395 9.05201 94.7198C9.51801 94.3901 10.036 94.4796 10.519 94.4664C11.318 94.4446 12.094 94.3573 12.881 94.2132C13.748 94.056 14.654 94.0472 15.543 94.0123C16.485 93.9751 17.429 93.9948 18.371 93.9664C21.2011 93.8747 24.0311 93.8092 26.8587 93.6607C28.3932 93.5799 29.9229 93.4445 31.4598 93.3704C34.0388 93.248 36.6131 93.0449 39.1897 92.8747C39.4287 92.8593 39.6677 92.831 39.9307 92.6454C39.7418 92.5951 39.5506 92.4925 39.3642 92.5012C37.5285 92.5842 35.6857 92.6345 33.8572 92.7916C30.2432 93.1018 26.622 93.2633 22.9985 93.3419C19.82 93.4096 16.638 93.4183 13.459 93.4511C12.51 93.462 11.585 93.3441 10.754 92.9969C10.471 92.4204 11.284 92.3637 11.255 91.9401C10.857 91.777 10.514 91.852 10.225 92.165C10.113 92.1278 9.953 92.117 9.864 92.0383C9.37 91.5994 8.79401 91.427 8.10501 91.4662C7.51501 91.5011 6.92001 91.4728 6.32001 91.2916C7.07001 91.2719 7.82101 91.2588 8.56901 91.2283C9.01601 91.2107 9.47001 91.2064 9.90301 91.1169C10.586 90.9749 10.823 90.5732 10.696 89.9028C10.62 89.5054 10.541 89.108 10.45 88.6385C10.115 88.5927 9.785 88.5228 9.451 88.5053C7.367 88.4005 5.278 88.3437 3.196 88.1953C2.118 88.1188 1.02101 88.0031 5.08746e-06 87.4376C0.373005 86.6449 0.179003 85.7453 0.504003 84.9199C0.569003 84.7539 0.540002 84.5552 0.602002 84.3893C0.684002 84.1775 0.817008 83.9832 0.925008 83.7801C1.06601 83.5159 1.05901 83.2604 0.901006 83.0006C0.786006 82.8083 0.691007 82.6074 0.538007 82.3214C0.868007 82.2713 1.095 82.2319 1.322 82.2036C1.515 82.1795 1.709 82.1664 1.986 82.1402C1.824 81.8956 1.666 81.7209 1.585 81.5179C1.334 80.8869 1.62501 80.4152 2.35701 80.3584C3.09501 80.3016 3.843 80.3387 4.589 80.3344C4.833 80.3344 5.074 80.3344 5.531 80.3344C4.723 79.7667 3.886 79.9392 3.212 79.6771C2.832 79.1051 2.457 78.5395 2.044 77.9194C2.168 77.4587 2.318 76.904 2.514 76.1725C2.749 75.8777 3.635 76.0459 3.729 75.2271C3.459 74.9388 3.11201 74.5698 2.73401 74.1702C3.40101 74.0392 4.082 73.8317 4.776 73.788C5.509 73.7422 6.25501 73.8645 6.99801 73.895C7.74201 73.9256 8.48801 73.9344 9.23101 73.9496C10.572 73.9759 11.913 74.0086 13.254 74.0217C13.595 74.0261 13.961 74.0217 14.15 73.5915C12.314 73.4343 10.455 73.7247 8.696 73.1395C8.574 73.098 8.485 72.967 8.394 72.8885C8.437 72.5434 8.727 72.5609 8.947 72.5434C9.527 72.4976 10.111 72.4867 10.672 72.4605C10.694 72.3359 10.715 72.2945 10.703 72.2704C10.682 72.2312 10.641 72.1788 10.603 72.1744C9.721 72.0631 8.839 71.9582 7.945 71.849C7.852 71.1285 7.218 70.9669 6.59 70.7486C8.375 70.9123 10.07 70.8381 11.736 70.6546C10.933 70.3468 10.068 70.2026 9.166 70.1677C8.624 70.1459 8.076 70.0607 7.548 69.9428C6.92 69.803 6.29301 69.6174 5.94001 68.9406C6.14801 68.851 6.37901 68.6545 6.54901 68.6916C7.52701 68.9121 8.497 68.5432 9.487 68.7483C10.4 68.9384 11.361 68.9492 12.302 69.0147C13.287 69.0846 14.274 69.1393 15.259 69.1763C15.586 69.1895 15.919 69.1283 16.397 69.089C15.725 68.3379 14.812 69.0257 14.188 68.4995C13.607 68.0082 12.742 68.4929 11.999 68.1829C12.204 68.0781 12.376 67.9906 12.635 67.8596C11.298 67.6501 10.044 67.4448 8.78601 67.2592C7.98301 67.1413 7.266 66.8814 6.65 66.2984C6.908 66.1805 7.14201 66.0735 7.36901 65.9687C7.32601 65.0822 6.324 65.1062 5.672 64.521C6.556 64.5603 7.226 64.5909 7.943 64.6237C7.943 64.307 7.924 64.0515 7.947 63.7983C7.974 63.5319 8.043 63.2676 8.11 62.9248C8.428 62.9248 8.762 62.927 9.095 62.9248C10.634 62.9096 12.173 62.9074 13.713 62.8637C14.04 62.8549 14.408 62.7545 14.678 62.5885C15.596 62.0295 16.547 61.7762 17.632 62.0929C17.759 62.1299 17.919 62.0776 18.06 62.058C18.103 62.0514 18.142 62.0077 18.185 61.9771C18.125 61.6627 17.879 61.6692 17.635 61.7391C17.001 61.9182 16.394 61.9356 15.72 61.5994C15.864 61.4618 15.94 61.3199 16.045 61.3003C17.499 61.0142 18.961 60.9596 20.4458 61.1016C21.029 61.1583 21.6313 61.0447 22.2241 61.0361C23.663 61.0163 25.1043 60.988 26.5432 61.0055C29.3684 61.0404 32.196 61.0862 35.0212 61.1627C37.801 61.2391 40.5808 61.3483 43.3582 61.4749C44.3478 61.5208 45.3325 61.6584 46.3173 61.7522C46.4655 61.7675 46.6137 61.785 46.7619 61.7959C49.0899 61.94 51.4156 62.0907 53.7436 62.226C55.9713 62.357 58.1918 62.5557 60.4075 62.796C61.8871 62.9553 63.3738 63.034 64.8605 63.1475C65.6588 63.2087 65.6612 63.2043 66.3281 63.8856C66.4643 63.9031 66.6125 63.9401 66.7607 63.9358C67.6522 63.9096 68.5223 63.9293 69.4042 64.1586C70.1572 64.3551 70.9722 64.3638 71.761 64.4446C73.0923 64.5778 74.4237 64.7022 75.755 64.8288C75.9534 64.8486 76.1685 64.8158 76.3454 64.8769C77.1963 65.1739 78.1022 65.0866 78.9674 65.2241C80.7816 65.508 82.6173 65.4992 84.4362 65.6783C84.8808 65.7219 85.3301 65.7591 85.7675 65.8377C86.879 66.0408 87.9904 66.1369 89.1258 66.2024C90.9949 66.3093 92.8688 66.4818 94.6925 67.0015C96.0072 67.3749 97.3433 67.7308 98.7535 67.8204C100.541 67.9339 100.68 67.995 102.399 69.1043C102.956 69.4646 103.51 69.6808 104.153 69.7681C104.841 69.862 105.537 69.9166 106.218 70.0454C106.835 70.1611 107.461 70.1939 107.987 70.659C108.31 70.9429 108.902 70.9625 109.359 71.1307C110.231 71.4516 111.063 71.8666 112.041 71.9145C112.313 71.9277 112.569 72.1438 112.839 72.2574C113.15 72.3884 113.453 72.55 113.781 72.6221C114.218 72.7181 114.624 72.7771 114.933 73.157C115.081 73.3404 115.449 73.4125 115.733 73.4583C116.419 73.5697 117.11 73.6526 117.803 73.7138C118.265 73.7531 118.659 73.8863 119.125 74.2422C118.693 74.3514 118.382 74.4846 118.064 74.4978C116.725 74.5523 115.387 74.5741 114.048 74.5982C113.551 74.6069 113.054 74.5829 112.557 74.5894C112.184 74.596 111.878 74.7401 111.72 75.0611C111.524 75.4564 111.94 75.6004 112.141 75.8384C111.852 76.1813 111.381 76.4629 111.854 77.0001C112.012 77.1791 111.969 77.511 112.026 77.8211C112.363 77.9412 112.724 78.07 113.241 78.2535C112.772 78.3496 112.445 78.3801 112.148 78.4871C111.23 78.8147 110.994 79.6575 111.608 80.3606C111.993 80.8017 112.452 81.1205 113.114 81.1292C113.709 81.138 114.302 81.1795 114.942 81.21C115.055 81.3389 115.212 81.4611 115.289 81.6161C115.569 82.1795 116.071 82.4175 116.704 82.47C117.297 82.518 117.894 82.5463 118.489 82.5769C118.979 82.6031 119.491 82.5289 120 82.9285C119.689 83.0376 119.443 83.1752 119.183 83.2036C118.843 83.2407 118.487 83.2211 118.145 83.1752C117.347 83.0682 116.704 83.291 116.149 83.8958C116.355 84.4875 116.912 84.7736 117.495 85.0094C117.359 85.302 117.246 85.5466 117.094 85.8785C117.564 86.0684 117.999 86.2453 118.48 86.4397C118.169 86.7781 117.892 87.0795 117.627 87.3677C116.912 87.3677 116.219 87.3611 115.528 87.3699C115.083 87.3764 114.629 87.3633 114.194 87.431C113.52 87.5358 113.329 87.9966 113.687 88.5468C113.958 88.9595 114.33 89.2324 114.875 89.2674C115.322 89.2957 115.772 89.3023 116.216 89.3438C116.704 89.3896 117.187 89.4617 117.677 89.525C117.705 89.8701 117.454 89.7958 117.325 89.8613C117.113 89.9661 116.878 90.0469 116.704 90.191C116.565 90.3068 116.539 90.5273 116.405 90.6539C116.276 90.7762 116.08 90.9028 115.91 90.9094C115.079 90.9356 114.507 91.3002 114.199 91.9641C113.757 92.0623 113.372 92.1518 112.985 92.2305C112.791 92.2698 112.543 92.3746 112.406 92.3069C111.192 91.6999 109.966 92.3659 108.74 92.2545C107.559 92.1475 107.37 92.4074 107.22 93.6236C103.618 93.8659 100.013 93.2152 96.4183 93.497C96.3274 93.7983 96.5354 93.8485 96.7218 93.8922C97.1855 94.0013 97.7138 93.9402 98.1536 94.3464C97.9337 94.3769 97.7807 94.4403 97.6516 94.4119C96.9537 94.2503 96.2892 94.2939 95.608 94.5232C95.1467 94.6783 94.628 94.8137 94.15 94.7809C92.1016 94.6433 90.1273 95.3136 88.0813 95.1783C87.7084 95.1542 87.3188 95.3115 86.8503 95.401C87.4742 96.1805 88.4613 95.3879 89.0374 95.9644C88.4326 96.6457 87.8446 96.9448 87.1276 96.9492C86.5515 96.9514 85.9731 96.9579 85.2919 96.9622C85.4186 97.1915 85.4568 97.3706 85.5452 97.3968C85.8703 97.4885 86.2169 97.5191 86.5468 97.5999C86.5778 97.6064 86.5515 97.8095 86.5515 97.9558C86.922 97.9777 87.3092 98.0213 87.6964 98.0147C87.8757 98.0125 88.1601 97.958 88.2127 97.8509C88.4063 97.4623 88.7218 97.4929 89.0828 97.5234C89.2764 97.5387 89.4843 97.5322 89.6683 97.4798C90.1368 97.3466 90.5169 97.4099 90.9017 97.7199C91.1001 97.8794 91.4299 97.899 91.8936 98.0432C91.5781 98.1349 91.4275 98.2134 91.2746 98.22C90.2803 98.2593 89.2859 98.3161 88.2916 98.3052C86.1476 98.2789 84.0323 98.5301 81.9145 98.7746C81.6731 98.803 81.3003 98.8358 81.2309 98.9689C80.9011 99.6109 80.3346 99.3773 79.8231 99.3555C79.6247 99.3467 79.4263 99.3205 79.2304 99.29C78.7404 99.2113 78.2551 99.0585 77.7652 99.0541C76.876 99.0476 75.9868 99.1306 75.057 99.1764C75.2363 99.6327 75.6307 99.5345 75.9343 99.5629C77.4162 99.7092 78.9005 99.8336 80.3824 99.9712C80.5258 99.9844 80.6669 100.032 80.8748 100.08C80.2151 100.497 79.498 100.41 78.8312 100.452C78.2408 100.489 77.6409 100.414 77.0457 100.377C76.4004 100.338 75.755 100.22 75.1144 100.251C73.4724 100.327 71.8781 99.9603 70.2551 99.8664C68.6226 99.7725 67.014 99.6699 65.3672 99.9341C63.369 100.253 61.3277 100.292 59.2865 100.225C57.9002 100.179 56.5043 100.286 55.1156 100.334C54.934 100.34 54.7523 100.404 54.2408 100.511C55.6964 100.58 56.8055 100.67 57.9145 100.677C59.5996 100.687 61.2823 100.711 62.9578 100.921C63.0057 100.928 63.0582 100.925 63.106 100.919C64.9537 100.624 66.7463 101.161 68.5701 101.227C68.7685 101.233 68.9668 101.279 69.1652 101.279C71.357 101.281 73.5273 101.528 75.7024 101.716C75.9382 101.736 76.3151 101.641 76.833 101.43C76.5916 101.323 76.4266 101.251 76.1924 101.148C76.9979 100.677 77.6552 101.109 78.6041 101.107C78.1619 101.281 77.9946 101.349 77.8249 101.417C77.8703 101.478 77.9133 101.589 77.9635 101.594C78.7045 101.635 79.4479 101.661 80.2773 101.696C79.847 101.762 79.4909 101.816 79.1347 101.871L79.1276 102.026C79.3881 102.083 79.651 102.124 79.9044 102.196C80.1314 102.262 80.3466 102.36 80.6477 102.476C80.4613 102.611 80.3537 102.692 80.2486 102.768C80.8868 103.251 81.5417 103.441 82.3161 103.432C84.1972 103.408 86.0807 103.402 87.9618 103.397C89.7903 103.393 91.6211 103.397 93.4425 103.306C92.3549 103.45 91.2674 103.587 90.1798 103.736C89.4484 103.836 88.7386 103.958 87.9713 103.851C87.3044 103.758 86.5945 103.945 85.9014 103.969C84.1661 104.026 82.4284 104.07 80.6908 104.098C80.1458 104.107 79.6295 104.159 78.8431 104.437C79.2901 104.546 79.4502 104.622 79.608 104.618C80.5951 104.585 81.5823 104.793 82.5695 104.592C82.8515 104.535 83.1694 104.565 83.461 104.605C85.1939 104.841 86.9268 104.638 88.6621 104.631C89.7998 104.627 90.9399 104.745 92.0801 104.803C92.5246 104.827 92.974 104.876 93.4162 104.849C93.9516 104.819 94.4272 104.974 94.7906 105.275C95.2232 105.633 95.6343 106.061 95.5363 106.679C94.1237 107.308 92.6035 107.406 91.0929 107.511C89.7066 107.607 88.3131 107.64 86.922 107.692C86.5754 107.705 86.2169 107.738 85.8799 107.681C83.4586 107.267 81.0278 107.611 78.6041 107.603C77.6528 107.902 76.6919 107.943 75.7143 107.721C75.6689 107.71 75.6164 107.732 75.5662 107.736C72.4613 108.048 69.3301 107.996 66.2229 108.264C65.0923 108.363 63.9737 108.574 62.8431 108.686C60.9668 108.869 59.0857 109.011 57.207 109.166C57.0087 109.184 56.8079 109.19 56.6095 109.182C53.9229 109.051 51.2794 109.535 48.6119 109.66C48.4637 109.666 48.3155 109.708 48.1673 109.71C45.5859 109.749 43.0307 110.094 40.4589 110.251C39.6199 110.302 38.7834 110.4 37.9468 110.476C37.6504 110.505 37.3516 110.572 37.0576 110.555C34.2085 110.391 31.4407 111.097 28.6131 111.206C27.4347 111.252 26.2444 111.518 25.066 111.407C24.1195 111.317 23.1873 111.321 22.248 111.356C21.7532 111.376 21.2584 111.435 20.7637 111.474C20.4697 111.498 20.1685 111.557 19.879 111.533C17.544 111.341 15.214 111.557 12.883 111.601C11.442 111.627 9.99801 111.627 8.55501 111.645C7.99301 111.651 7.48401 111.549 7.00101 111.263C6.55901 111 6.07601 110.8 5.43101 110.485L5.43801 110.481ZM45.5907 99.4755C47.8542 99.7878 50.0771 99.4931 52.2976 99.2157C52.3525 99.2091 52.3884 99.0716 52.4553 98.9603C51.4562 98.6022 50.5192 99.1393 49.5417 99.1175C48.227 99.0891 46.9077 99.3423 45.5883 99.4755L45.5907 99.4755ZM53.6887 98.91C54.3603 99.0192 55.1013 99.231 55.8159 98.91L53.6887 98.91ZM17.379 68.9776C18.056 69.2681 18.67 69.1108 19.471 68.9776C18.67 68.8794 18.058 68.6742 17.379 68.9776ZM81.1688 97.2789C81.5082 97.4623 81.8404 97.7287 82.1153 97.2505C81.9743 97.2068 81.8357 97.126 81.7042 97.1348C81.5225 97.1479 81.3481 97.2286 81.1688 97.2789ZM20.8784 68.9842C20.7971 68.9668 20.7182 68.9449 20.637 68.934C20.6202 68.934 20.5987 68.982 20.5796 69.0061C20.6609 69.0235 20.7398 69.0453 20.821 69.0541C20.8378 69.0541 20.8593 69.0082 20.8784 68.982L20.8784 68.9842ZM86.781 96.5146L86.7762 96.5998L86.8885 96.5605L86.781 96.5146ZM46.6973 114.605C47.2543 114.752 47.8805 114.669 48.4685 114.732C49.0947 114.8 49.6086 115.158 50.2994 115.164C52.8306 115.188 55.3642 115.287 57.893 115.416C62.2551 115.638 66.6149 115.9 70.977 116.156C72.7123 116.258 74.4428 116.392 76.1781 116.501C76.5151 116.523 76.8951 116.573 77.0242 116.101C76.5892 115.479 76.0442 114.918 75.3247 114.429C74.23 114.841 73.0995 114.737 71.9594 114.634C71.3642 114.582 70.9794 114.348 70.7977 113.828C71.063 113.754 71.3188 113.68 71.5745 113.608C71.0965 113.402 70.6256 113.339 70.1524 113.315C69.2584 113.269 68.3645 113.252 67.4705 113.212C64.196 113.068 60.9238 112.913 57.6492 112.78C57.0732 112.756 56.4876 112.684 56.0167 113.199C55.8494 113.383 55.3666 113.38 55.0296 113.376C52.496 113.341 49.9623 113.28 47.4287 113.234C46.7332 113.221 46.0376 113.215 45.3421 113.243C45.0457 113.254 44.7613 113.37 44.7493 113.813C45.3684 114.073 46.0042 114.424 46.6926 114.605L46.6973 114.605ZM47.3738 110.485C47.5172 110.507 47.6606 110.551 47.804 110.551C50.089 110.557 52.374 110.551 54.6591 110.566C55.5004 110.572 56.3442 110.605 57.1831 110.679C59.1575 110.859 61.1198 111.138 63.1108 111.136C64.0048 111.136 64.8987 111.188 65.7903 111.245C67.7717 111.372 69.7556 111.496 71.7323 111.664C73.2118 111.791 74.7129 111.647 76.1805 111.979C76.5772 112.068 77.0338 112.079 77.464 111.861C77.3397 111.784 77.2656 111.706 77.1819 111.693C75.0809 111.385 72.9895 111.024 70.8551 110.931C69.1222 110.854 67.3941 110.658 65.6612 110.579C63.3331 110.474 61.0003 110.415 58.6698 110.372C55.7466 110.317 52.8234 110.291 49.9002 110.267C49.0636 110.26 48.227 110.302 47.3905 110.321C47.3857 110.376 47.3809 110.428 47.3761 110.483L47.3738 110.485ZM63.8446 112.47C64.925 112.498 66.0054 112.496 67.0762 112.695C67.5901 112.791 68.1422 112.846 68.7565 112.682C68.5748 112.573 68.4673 112.457 68.3478 112.444C65.948 112.175 63.5363 112.081 61.1102 112.108C62.0233 112.232 62.9148 112.446 63.8446 112.472L63.8446 112.47ZM68.2283 100.321L65.6564 100.321C65.6564 100.342 65.6564 100.364 65.654 100.386C66.5121 100.438 67.3702 100.493 68.2259 100.545C68.2259 100.471 68.2259 100.395 68.2283 100.321ZM71.9522 100.53C71.3976 100.554 70.8407 100.576 70.2862 100.6C70.2862 100.631 70.2862 100.661 70.2886 100.694L71.9928 100.694C71.9785 100.639 71.9665 100.587 71.9522 100.532L71.9522 100.53ZM10.816 67.851C10.302 67.8313 9.888 67.8138 9.475 67.7963C10.082 68.0613 10.529 68.0795 10.816 67.851ZM36.6417 104.325L35.1981 104.395C35.1981 104.43 35.2028 104.467 35.2028 104.502L36.6704 104.502C36.6609 104.443 36.6513 104.384 36.6394 104.325L36.6417 104.325ZM74.3854 100.851C74.156 100.851 73.9265 100.862 73.697 100.849C73.4724 100.836 73.2477 100.799 73.023 100.77C73.023 100.821 73.0206 100.871 73.0182 100.921L74.3854 100.921L74.3854 100.851ZM68.2115 63.4772L67.0929 63.4772C67.0929 63.5165 67.0881 63.558 67.0857 63.5974C67.4562 63.6301 67.8267 63.6629 68.1972 63.6956C68.202 63.6214 68.2068 63.5493 68.2115 63.4751L68.2115 63.4772ZM70.8097 112.562C70.4751 112.544 70.1954 112.531 69.9157 112.516C70.2711 112.771 70.5691 112.786 70.8097 112.562ZM80.6071 64.6105L80.0645 64.6105C80.0693 64.6411 80.0717 64.6738 80.0765 64.7044C80.2581 64.6956 80.4374 64.6848 80.619 64.676C80.6143 64.6542 80.6119 64.6323 80.6071 64.6083L80.6071 64.6105ZM89.3959 96.6588C89.2931 96.7243 89.1903 96.7898 89.0875 96.8553C89.1425 96.9164 89.2046 97.0343 89.2548 97.0299C89.36 97.0213 89.4628 96.9514 89.5728 96.9033C89.4915 96.7898 89.4437 96.7243 89.3959 96.6588ZM89.5895 65.4097C89.5417 65.401 89.4915 65.4097 89.4413 65.4097C89.4843 65.4403 89.525 65.4861 89.5728 65.497C89.6134 65.508 89.666 65.4774 89.7114 65.4665C89.6707 65.4469 89.6325 65.4162 89.5871 65.4075L89.5895 65.4097ZM71.1491 63.7983C71.0654 63.7786 70.9818 63.7524 70.8981 63.7436C70.8599 63.7392 70.8169 63.7677 70.7762 63.7829C70.8408 63.8157 70.9053 63.8463 70.9674 63.879C71.0272 63.8528 71.0869 63.8266 71.1491 63.7983ZM92.7493 97.875C92.7302 97.875 92.7159 97.982 92.6991 98.041C92.7804 98.0366 92.8664 98.041 92.9453 98.0235C92.9692 98.0191 92.9788 97.9536 92.9955 97.9186C92.9142 97.9012 92.8306 97.8728 92.7517 97.875L92.7493 97.875ZM5.292 70.3883C5.335 70.4057 5.395 70.4472 5.416 70.4363C5.454 70.4123 5.47101 70.3555 5.49701 70.314C5.45001 70.3118 5.399 70.3096 5.352 70.3075C5.333 70.3358 5.313 70.362 5.292 70.3904L5.292 70.3883ZM77.3827 64.2764C77.225 64.2698 77.0672 64.2634 76.9095 64.2568C76.9095 64.3004 76.9071 64.3419 76.9047 64.3856L77.378 64.3856C77.378 64.3485 77.3803 64.3136 77.3827 64.2764ZM85.5405 65.2219C85.574 65.2416 85.6241 65.2372 85.6695 65.2416C85.66 65.1935 85.648 65.1433 85.6385 65.0952C85.5978 65.1062 85.5572 65.1172 85.5166 65.128C85.5237 65.1608 85.5214 65.2088 85.5405 65.2197L85.5405 65.2219Z" fill="#E6485C"/>
<path d="M111.126 60.0976V61.9531C113.745 61.8439 116.256 61.8439 118.657 61.7348C118.33 65.5549 118.33 69.5933 118.33 73.4135C118.22 78.5433 118.33 82.5818 118.657 86.5111H111.563C111.781 91.7501 111.999 96.5525 112.327 101.355H61.5734C61.7917 96.88 62.1191 91.4227 62.4465 86.1836H59.3904C45.5288 86.1836 28.0653 86.4019 11.9116 86.6202C13.4397 75.0507 17.6964 28.0084 17.9147 19.495H59.3904C58.4081 29.3182 55.8977 48.3097 54.6971 61.9531C59.2813 62.0622 64.5203 62.0622 71.6149 62.0622C71.5057 48.8554 71.1783 28.1176 70.96 19.495H111.563C111.017 31.1737 111.126 42.9615 111.126 60.0976Z" fill="#282B2E"/>
<path d="M90.2829 17.4506C90.2255 17.5416 90.1873 17.6466 90.1132 17.7036C89.9507 17.8276 89.7643 17.9256 89.5946 18.0406C88.4568 18.8226 87.7445 19.8766 87.5342 21.2536C87.4816 21.5926 87.429 21.9366 87.331 22.2646C87.233 22.5946 86.7741 22.6636 86.5925 22.3766C86.4682 22.1806 86.3941 21.9436 86.3319 21.7166C86.1837 21.1866 86.0642 20.6466 85.9208 20.1156C85.6053 18.9516 84.7926 18.3416 83.6501 18.1196C83.38 18.0676 83.1028 18.0456 82.8303 18.0006C82.5243 17.9496 82.3546 17.7416 82.2518 17.4676C82.1586 17.2136 82.2279 16.9776 82.467 16.8456C82.6462 16.7476 82.8422 16.6716 83.0358 16.6046C83.6023 16.4086 84.0803 16.0786 84.4986 15.6556C85.1057 15.0366 85.6268 14.3556 86.0403 13.5876C86.3558 13.0026 86.5303 12.3808 86.5829 11.7164C86.6187 11.2718 86.6905 10.8272 86.7813 10.3922C86.8267 10.1795 87.006 10.0337 87.245 10.0671C87.4792 10.1006 87.5892 10.2798 87.6059 10.5045C87.6226 10.7459 87.6059 10.9873 87.6346 11.2264C87.7517 12.2518 87.821 13.2896 88.0146 14.3006C88.2202 15.3826 88.7317 16.3076 89.7929 16.8216C89.9411 16.8936 90.0654 17.0326 90.1754 17.1586C90.2375 17.2306 90.2494 17.3426 90.2877 17.4476L90.2829 17.4506ZM84.5417 17.1086C84.9169 17.3166 85.2563 17.4716 85.5551 17.6826C85.8348 17.8786 86.0738 18.1296 86.3247 18.3636C86.5877 18.6116 86.6642 19.0206 86.9653 19.2236C87.5438 18.5576 88.0744 17.9456 88.5787 17.3616C88.1772 16.8956 87.735 16.4946 87.4338 16.0066C87.1374 15.5236 86.982 14.9546 86.7287 14.3386C86.3606 14.8686 86.0714 15.3326 85.7344 15.7556C85.3735 16.2096 84.9695 16.6256 84.5393 17.1086H84.5417Z" fill="#E6485C"/>
</g>
<defs>
<clipPath id="clip0_7960_185">
<rect width="120" height="120" fill="white"/>
</clipPath>
</defs>
</svg>
