<svg width="120" height="120" viewBox="0 0 120 120" fill="none" xmlns="http://www.w3.org/2000/svg">
<path d="M118.672 54.8981C118.947 57.5768 119.051 60.2323 119.009 62.911C118.989 63.271 118.924 63.6503 118.904 64.0065C118.8 67.0026 118.122 69.871 117.278 72.7161C116.942 73.8349 116.709 74.9923 116.33 76.0684C115.908 77.2065 115.358 78.2632 114.875 79.3587C114.77 79.6103 114.666 79.8658 114.557 80.0981C113.926 81.4491 113.353 82.8619 112.618 84.1471C112.091 85.0955 111.414 85.9394 110.802 86.8258C111.433 84.8865 111.983 82.8813 112.405 80.7716C112.575 80.3923 112.765 80.0129 112.955 79.6336C113.481 78.6426 114.093 77.6942 114.325 76.5561C114.495 75.7742 114.766 75.0155 114.998 74.28C114.747 73.3936 114.596 72.4878 114.197 71.729C114.093 71.52 113.965 71.3071 113.795 71.1174C113.88 70.2968 113.942 69.4529 113.965 68.5858C114.534 69.3019 115.041 70.0607 115.316 70.9897C115.463 71.3497 114.894 71.8761 115.61 72.1703C116.051 70.3781 116.516 68.6284 116.961 66.8129C116.33 66.5187 115.738 66.2865 115.188 65.9923C114.809 65.7832 114.449 65.5278 114.093 65.2761C114.135 64.6026 114.135 63.9058 114.135 63.209V62.6594C114.662 63.209 115.378 63.5652 116.032 63.9871C116.326 64.1768 116.663 64.3471 117.085 64.0916C117.104 63.9639 117.127 63.84 117.127 63.7123C117.127 59.9381 117.17 56.1639 116.241 52.4516C115.776 50.6361 115.42 48.8013 114.724 47.0516C114.131 45.5961 113.5 44.1639 112.804 42.751C112.149 41.4 111.371 40.1148 110.632 38.8065C110.504 38.5742 110.357 38.28 110.148 38.1755C109.916 38.0478 109.726 37.8813 109.579 37.711C108.251 34.5678 106.626 31.7419 104.686 29.191C105.193 29.6555 105.677 30.1626 106.184 30.6232C107.198 31.5716 108.166 32.5858 109.138 33.5961C109.602 34.0607 110.109 34.4826 110.318 35.1794C110.423 35.5161 110.74 35.791 111.015 36.0232C111.607 36.5923 112.049 37.2465 112.409 37.9858C112.916 39.0387 113.462 40.0723 113.992 41.1058C114.077 41.2529 114.162 41.4 114.286 41.5084C114.666 41.8878 114.836 42.3948 115.087 42.8594C115.846 44.1871 116.206 45.6426 116.713 47.0555C117.642 49.5871 118.401 52.1807 118.676 54.9019L118.672 54.8981Z" fill="#4D40CC"/>
<path d="M116.249 52.4516C117.178 56.1639 117.135 59.9381 117.135 63.7123C117.135 63.84 117.116 63.9639 117.093 64.0916C116.671 64.3432 116.334 64.1768 116.04 63.9871C115.386 63.5652 114.67 63.2052 114.143 62.6594V62.64C114.081 52.7923 112.517 44.5239 109.587 37.711C109.734 37.8813 109.924 38.0478 110.156 38.1755C110.365 38.28 110.516 38.5781 110.64 38.8065C111.379 40.1149 112.157 41.4 112.811 42.751C113.508 44.1639 114.139 45.6 114.731 47.0516C115.428 48.8013 115.784 50.6361 116.249 52.4516Z" fill="#FF5B00"/>
<path d="M115.003 74.28C114.77 75.0193 114.496 75.778 114.329 76.5561C114.097 77.6942 113.485 78.6426 112.959 79.6335C112.769 80.0129 112.58 80.3922 112.409 80.7716C113.083 77.7329 113.547 74.5084 113.803 71.1135C113.973 71.3032 114.097 71.5161 114.205 71.7251C114.608 72.4838 114.755 73.3897 115.007 74.2761L115.003 74.28Z" fill="#FF5B00"/>
<path d="M114.139 62.6594V63.209C114.139 63.9058 114.139 64.6026 114.097 65.2761C114.054 65.2336 113.992 65.2142 113.949 65.1716C113.295 64.7303 112.873 64.1187 112.432 63.4839C112.01 62.8723 111.418 62.7445 110.957 63C110.535 63.2323 110.346 63.8632 110.706 64.5174C111.255 65.5084 111.507 66.7549 112.773 67.2387C113.024 67.3239 113.214 67.6181 113.404 67.8697C113.593 68.1019 113.783 68.3342 113.973 68.5858C113.953 69.449 113.887 70.2929 113.802 71.1174C113.442 70.5678 112.958 70.0839 112.537 69.5574C112.494 69.5768 112.451 69.6194 112.409 69.6426V68.8839C112.238 68.7136 112.115 68.5239 111.944 68.4426C111.081 68.04 110.427 67.4284 109.749 66.7355C108.484 65.4697 108.019 63.4878 108.801 61.8852C109.053 61.3781 109.517 61.0839 110.024 60.9368C110.427 60.8323 110.887 60.7897 111.309 60.8323C112.215 60.9368 113.164 61.0219 113.671 62.0361C113.798 62.2684 113.946 62.4581 114.135 62.6478V62.6671L114.139 62.6594Z" fill="#4D40CC"/>
<path d="M113.95 65.1716C113.993 65.2142 114.055 65.2335 114.097 65.2761C114.097 66.3948 114.055 67.4903 113.969 68.5858C113.78 68.3342 113.59 68.1019 113.4 67.8697C113.211 67.6181 113.021 67.32 112.769 67.2387C111.504 66.7548 111.252 65.5084 110.702 64.5174C110.342 63.8632 110.532 63.2323 110.954 63C111.418 62.7484 112.007 62.8723 112.429 63.4839C112.87 64.1148 113.292 64.7264 113.946 65.1716H113.95Z" fill="#EDECFA"/>
<path d="M114.14 62.64C113.95 62.4503 113.803 62.2606 113.675 62.0284C113.168 61.0142 112.22 60.9329 111.314 60.8245C110.892 60.7819 110.427 60.8245 110.029 60.929C109.521 61.0761 109.057 61.3703 108.805 61.8774C108.023 63.48 108.488 65.4619 109.754 66.7277C110.427 67.4245 111.081 68.0361 111.949 68.4348C112.119 68.52 112.243 68.7097 112.413 68.8761V69.6348C112.456 69.6155 112.498 69.5729 112.541 69.5497C112.963 70.0761 113.447 70.5639 113.807 71.1097C113.555 74.5045 113.09 77.7329 112.413 80.7677C112.053 81.5071 111.716 82.2426 111.36 82.9626C111.023 83.5935 110.601 84.2052 110.199 84.8168C109.758 85.471 109.293 86.1445 108.829 86.7794C108.236 87.5807 107.625 88.3819 106.994 89.1639C106.401 89.9032 105.751 90.5961 105.14 91.3587C104.59 92.0323 104.149 92.7716 103.556 93.4026C103.177 93.8052 102.65 94.0568 102.143 94.3935C101.238 93.1084 100.351 91.8619 99.4647 90.6194C98.6208 89.4581 97.8002 88.2581 96.5537 87.4994C95.8376 87.0774 94.9705 86.8258 94.1266 86.6129C92.4389 86.2103 90.7511 85.8736 89.044 85.5174C88.8543 85.4981 88.6647 85.4748 88.4518 85.4748C88.3047 85.4555 88.115 85.5174 87.9679 85.4748C86.2376 84.9252 84.5498 84.3368 83.4776 82.6684C82.6956 81.4452 81.9601 80.1794 81.2827 78.8942C80.8608 78.1123 80.1872 77.4813 79.6182 76.7845C79.3008 76.4245 78.9872 76.0452 78.6698 75.689C79.2195 74.76 79.7227 74.0245 80.524 73.4748C81.2827 72.9484 81.9369 72.2323 82.6956 71.7019C83.5163 71.0903 84.3834 70.4981 85.3124 70.0568C86.7679 69.36 88.2853 68.8761 89.7408 68.2026C91.7847 67.2116 93.8131 66.1781 95.075 64.1303C95.4776 63.4994 95.706 62.8877 95.4543 62.1677C95.2221 61.5368 95.0518 60.8826 94.6956 60.3329C94.3782 59.8258 94.3356 59.3845 94.5911 58.92C95.0131 58.2465 95.4543 57.5923 95.9614 56.9574C96.7201 56.0284 96.7434 54.9136 96.0466 54.1316C94.9511 52.889 93.7898 51.6658 92.6285 50.4813C91.8698 49.7419 90.244 49.7845 89.3382 50.249C88.2621 50.7987 88.0956 51.7665 87.9872 52.7574C87.9021 53.6439 87.7356 54.5071 87.9021 55.4361C88.1111 56.5742 87.5227 57.2516 86.3847 57.5652C85.7305 57.7355 85.0569 57.7974 84.4453 58.049C83.8956 58.2581 83.3692 58.5755 83.075 59.1445C82.7576 59.7755 82.5253 60.4103 82.5253 61.1497C82.5253 62.5626 81.9756 63.6813 80.6285 64.2929C80.1447 64.5252 79.7227 64.8619 79.2156 65.0748C78.6892 65.3265 78.0969 65.5587 77.5279 65.6245C76.5563 65.7523 76.1576 65.2645 76.3666 64.2736C76.4943 63.7665 76.7034 63.2594 76.9589 62.7987C77.2531 62.3148 77.5705 61.8271 77.5279 61.2155C77.5279 61.0877 77.5705 60.9639 77.6131 60.8361C78.2053 59.5277 77.9072 58.2852 77.4427 57.0387C77.0827 56.0671 76.9589 55.0994 77.3576 54.1084C77.7989 53.0748 78.6427 52.4826 79.6763 52.1884C80.3924 51.9987 81.1318 51.9136 81.7008 51.3871C81.8711 51.24 82.1227 51.0697 82.1653 50.88C82.3743 49.9084 82.5872 48.96 81.9563 48.0116C81.515 47.2955 81.0698 46.5794 80.4389 46.049C79.4905 45.2671 78.7743 44.2568 77.7834 43.5174C76.3279 42.4219 76.1808 40.9432 76.4131 39.3832C76.5408 38.6439 76.6647 37.8658 77.2569 37.1884C77.8879 36.4297 78.6892 36.4723 79.386 36.871C80.1447 37.3123 80.946 37.5871 81.7705 37.8852C82.6995 38.2452 83.6247 38.0748 84.4066 37.7806C85.5447 37.3394 86.7485 36.9174 87.6543 36.031C87.7589 35.9265 87.906 35.8839 87.9718 35.7794C88.564 34.5561 89.826 34.2813 90.8827 33.7742C92.1253 33.1626 93.1589 32.3187 94.1731 31.3897C95.3769 30.3136 95.524 28.9239 95.8376 27.5303C95.8569 27.4258 95.8376 27.3213 95.8182 27.2129C95.8182 27.1277 95.7756 27.0232 95.7331 26.9381L96.2595 26.0748C96.9331 26.4774 97.6105 26.8955 98.2647 27.3174C99.5731 28.1807 100.881 29.0477 102.124 29.9961C103.367 30.9445 104.613 31.9355 105.732 33.0348C106.723 34.049 107.737 35.0787 108.558 36.2632C108.894 36.7471 109.169 37.2774 109.591 37.6955C112.521 44.5084 114.081 52.7768 114.147 62.6245L114.14 62.64Z" fill="#FF5B00"/>
<path d="M111.356 82.9703C111.716 82.2542 112.053 81.5148 112.409 80.7755C111.987 82.8852 111.437 84.8865 110.806 86.8297C110.617 87.0813 110.427 87.3561 110.257 87.631C108.972 89.6129 107.303 91.2581 105.805 93.0503C105.364 93.5768 104.942 94.1458 104.435 94.6335C103.653 95.3729 102.79 96.0464 101.969 96.7626C101.799 96.9329 101.652 97.0993 101.485 97.2697C101.338 97.44 101.21 97.6723 101.021 97.7961C99.6077 98.64 98.4465 99.7587 97.1807 100.769C96.1897 101.551 95.0942 102.225 94.0181 102.879C92.3923 103.85 90.6852 104.714 88.9781 105.515C87.4374 106.231 85.8348 106.843 84.2323 107.412C82.6916 107.981 81.1548 108.55 79.5716 108.929C77.6323 109.394 75.6697 109.773 73.6645 110.025C71.3884 110.319 69.089 110.466 66.7897 110.636C65.1445 110.764 63.5419 110.679 61.9161 110.427C61.0297 110.28 60.1239 110.28 59.2374 110.195C58.0336 110.067 56.8336 109.963 55.6529 109.754C54.809 109.606 53.9884 109.312 53.1445 109.099C52.111 108.825 51.0581 108.658 50.0439 108.36C48.9058 108 47.7871 107.559 46.6684 107.117C45.5497 106.653 44.4736 106.126 43.3781 105.619C42.9987 105.43 42.6194 105.217 42.24 105.008C41.2684 104.415 40.3007 103.827 39.329 103.258C39.2013 103.154 39.0542 103.068 38.9071 102.964C37.5987 101.95 36.2516 100.982 34.9626 99.9058C34.0761 99.1664 33.3174 98.2606 32.4542 97.4787C30.7897 95.9806 29.4387 94.1884 28.1923 92.3342C26.6516 90.0581 25.2387 87.6735 24.2284 85.0993C23.7871 83.9806 23.28 82.8852 22.9432 81.7471C22.4594 80.0826 22.1226 78.3716 21.72 76.7071C21.3174 75.0813 21.36 73.4168 21.1703 71.7716C20.9613 69.7665 21.1278 67.7652 21.1278 65.7832C21.1278 64.7923 21.3368 63.7781 21.4878 62.7871C21.6968 61.4594 21.8478 60.1084 22.1419 58.7806C22.4361 57.4723 22.8155 56.1871 23.28 54.9406C23.6594 53.9497 23.8916 52.9355 24.3136 51.9445C25.3897 49.5406 26.4658 47.1368 27.8361 44.88C28.9316 43.0645 30.0736 41.2955 31.3781 39.6077C31.9277 38.8684 32.4968 38.1329 33.0658 37.3936C32.4116 36.36 31.7574 35.3265 31.0839 34.2929C30.4529 33.3213 30.3019 32.1832 29.9652 31.1071C29.8374 30.6852 29.8607 30.2439 29.7329 29.8219C29.3729 28.5794 29.7136 27.3755 30.0078 26.1716C30.449 24.4839 31.3161 23.0516 32.4542 21.7626C32.791 21.3832 33.0465 20.9613 33.36 20.5819C34.3742 19.3781 35.7213 18.6619 37.0723 17.9458C37.7884 17.5665 38.6748 17.4619 39.4336 17.1252C40.9084 16.471 42.511 16.4284 44.0516 16.5136C45.1471 16.5561 46.351 16.6181 47.1716 17.609C47.3419 17.7987 47.6361 17.8839 47.8684 18.0116C48.1007 18.1819 48.4181 18.3058 48.5845 18.5381C49.2581 19.4439 50.0826 20.2258 50.3574 21.4065C50.5278 22.1032 50.8413 22.7768 51.1161 23.5355C52.2774 23.071 53.4348 22.5639 54.6155 22.1419C56.3652 21.511 58.0761 20.7716 59.8878 20.3265C61.4052 19.9665 62.9032 19.5252 64.4439 19.2078C65.5819 18.9755 66.7432 18.871 67.9045 18.7665C69.6542 18.5961 71.4039 18.4297 73.1768 18.3639C74.6323 18.3213 76.1071 18.4065 77.5858 18.4684C78.7471 18.5303 79.9045 18.6155 81.0658 18.7626C81.9097 18.8478 82.7303 19.0142 83.5316 19.1845C85.2619 19.5639 86.9923 19.9432 88.6994 20.3884C89.6052 20.6207 90.4723 21 91.3355 21.3368C92.1987 21.6542 93.0852 21.9484 93.929 22.351C95.0903 22.92 96.3136 23.3419 97.3665 24.1432C98.3148 24.8826 99.4336 25.3858 100.467 25.9974C100.804 26.2065 101.098 26.4619 101.415 26.6942C101.563 26.8219 101.69 27.0116 101.857 27.0968C102.952 27.6039 103.839 28.3626 104.663 29.1639C104.676 29.1639 104.683 29.1703 104.683 29.1832C106.622 31.7342 108.248 34.56 109.575 37.7032C109.154 37.2813 108.879 36.7548 108.542 36.271C107.721 35.0903 106.707 34.0568 105.716 33.0426C104.597 31.9471 103.355 30.9561 102.108 30.0039C100.866 29.0555 99.5574 28.1884 98.249 27.3252C97.5948 26.9032 96.9213 26.4813 96.2439 26.0826C95.8645 25.8503 95.4852 25.6413 95.1058 25.409C93.6503 24.7974 92.1948 24.1665 91.0568 23.7019C89.8761 23.8916 89.0323 24.1665 88.1884 24.1239C87.4065 24.0813 86.6284 24.0194 85.8271 23.9768C84.7084 23.9574 83.8878 24.4181 83.1484 25.1148C82.1574 26.0632 81.0194 26.6748 79.6878 27.0348C78.2323 27.3948 76.8 27.8555 75.3871 28.4052C73.7613 29.0361 72.0968 28.8271 70.4323 28.8271C70.3045 28.8271 70.1807 28.7652 70.0529 28.6994C68.5355 28.0026 66.9097 27.8129 65.2878 27.6658C64.2116 27.5807 63.1781 27.4142 62.2297 26.8645C61.3858 26.4 61.0916 25.8503 61.2387 24.9252C61.3858 24.1239 61.5329 23.3419 62.04 22.6684C62.1445 22.4981 62.1677 22.2658 62.2723 21.9523C58.5407 23.1329 54.9523 24.2284 51.5574 26.0245C51.6194 26.3845 51.7045 26.7407 51.7471 27.1007L51.809 27.7974C52.0607 30.6039 51.9136 33.4065 51.7239 36.2129C51.7045 36.4026 51.6619 36.6155 51.5961 36.8052C51.3871 37.3974 51.1549 37.9858 50.9652 38.5974C50.5626 39.8207 50.2684 41.1058 49.7419 42.2865C49.2774 43.3626 48.9213 44.4387 48.6658 45.5768C48.4761 46.3587 48.2439 47.1368 47.9497 47.8761C47.6748 48.5497 47.129 48.7626 46.5794 48.4684C46.0297 48.1936 45.5265 47.8568 45.0387 47.52C43.9007 46.7187 42.7819 45.8748 41.6439 45.0542C40.9897 44.5897 40.2929 44.1677 39.6813 43.6607C38.5432 42.7316 37.4439 41.7639 36.3484 40.7923C35.7794 40.2658 35.2297 39.6968 34.6839 39.1471C34.4748 39.2942 34.1768 39.4839 33.8826 39.6968C33.7123 39.8013 33.5458 39.929 33.4413 40.0761C32.9768 40.8348 32.5355 41.6168 32.1755 42.2477C32.1329 43.0297 32.0903 43.68 32.0478 44.3342C32.0478 44.671 32.0284 45.0077 32.0478 45.3484C32.1755 46.4865 32.2994 47.6052 32.4271 48.7239C32.5548 49.8852 32.6594 51.0426 32.8065 52.2039C32.8916 52.8348 33.1432 53.4697 33.1239 54.0813C33.0194 56.0632 32.8723 58.0684 32.5316 60.0271C32.2374 61.8 31.9394 63.569 32.0671 65.3613C32.1523 66.3755 32.3845 67.3665 32.0865 68.2103C32.2955 68.8026 32.5277 69.2632 32.5936 69.751C32.7213 70.8039 32.7407 71.88 32.8258 72.9561C32.8452 73.3587 32.8684 73.7574 32.9729 74.1368C33.3523 75.8013 33.5652 77.489 34.1961 79.0916C34.5987 80.04 34.9123 81.0542 35.3574 81.96C35.9497 83.1639 36.6 84.3445 37.32 85.4594C37.951 86.4503 38.7136 87.3987 39.4723 88.3084C40.1884 89.1716 41.0323 89.911 42.0232 90.5032C42.72 90.9252 43.289 91.5987 43.92 92.0864C44.7832 92.7406 45.6077 93.4142 46.3239 94.1961C47.2103 95.1871 48.2865 95.8413 49.529 96.1587C50.5007 96.391 51.4065 96.7703 52.2929 97.2542C52.5252 97.3819 52.7574 97.5058 53.0748 97.6761C53.1794 97.3161 53.2839 97.0452 53.3265 96.7471C53.5355 95.4387 53.7677 94.1303 53.9381 92.8026C54.0426 91.8968 54.1703 90.9484 54.1471 90.0193C54.1278 88.6258 54 87.2361 53.9148 85.8232C53.8955 85.3393 53.9768 84.809 53.8955 84.3484C53.6632 83.0206 53.6439 81.6929 53.4736 80.3613C53.3032 78.8864 53.3032 77.431 53.5355 75.9755C53.7058 74.8994 54.0619 73.9084 54.631 72.9794C55.2619 71.9652 55.8736 70.9355 56.4852 69.9639C55.8929 67.3471 54.2903 66.1471 51.6968 66.0852C50.0516 66.0426 48.4297 65.8529 46.8039 65.7252C46.0219 65.6632 45.1781 65.4077 44.4194 65.5781C43.6181 65.7252 42.9019 65.5781 42.1626 65.4929C41.8877 65.4503 41.5936 65.2839 41.3807 65.0903C40.7884 64.5639 40.7071 63.8671 40.9161 63.151C41.0865 62.5819 41.3381 62.0323 41.5278 61.5252C41.8452 61.2735 42.1394 61.1032 42.3484 60.871C43.1303 59.8994 44.1832 59.4387 45.3639 59.2065C46.5019 58.9974 47.64 58.7652 48.8013 58.5523L54.1161 57.6039C54.96 57.4568 55.4865 56.9303 55.8232 56.191C56.0749 55.6645 55.9084 55.2426 55.4439 54.8826C55.1265 54.6503 54.7703 54.4181 54.4723 54.1432C54.0503 53.7407 53.7987 53.2568 53.9458 52.6258C54.2207 51.5497 55.0645 50.7058 56.1832 50.5819C56.8994 50.52 57.6387 50.6013 58.3548 50.6671C58.7961 50.7097 59.2181 50.8568 59.5974 50.5819C59.6594 49.8232 59.6594 49.8426 59.1136 49.4207C58.7768 49.1458 58.3742 48.8942 58.1845 48.5342C57.5729 47.2684 57.6348 46.0026 58.4168 44.8219C58.6916 44.4194 58.9007 44.0206 59.1136 43.6413C59.0516 43.3471 58.9858 43.1148 58.9432 42.8826C58.7961 42.0813 58.5019 41.489 57.6155 41.1948C57.1084 41.0245 56.6013 40.6258 56.3071 40.1807C55.5484 39.0426 55.7807 37.5639 56.729 36.5961C56.9613 36.3445 57.2129 36.1123 57.4452 35.88C57.8477 35.4581 57.8478 34.951 57.5923 34.4865C57.4026 34.1265 57.1703 33.7897 56.8761 33.5381C56.16 32.8645 55.4207 32.2529 54.6619 31.6413C53.4387 30.6077 52.3858 29.4697 52.1729 27.7819C52.111 27.0852 52.111 27.0232 52.9936 26.5781C53.1639 26.9807 53.3536 27.2942 53.4155 27.631C53.5626 28.2852 53.9419 28.7923 54.4297 29.2142C55.4439 30.0774 56.4348 30.9871 57.5303 31.7226C58.3742 32.2916 58.8387 33.0503 59.2181 33.9174C59.3652 34.2542 59.4503 34.6142 59.5123 34.8232C59.4929 36.0039 58.92 36.7626 58.1419 37.4168C58.0374 37.5019 57.9329 37.5871 57.8478 37.6916C57.0039 38.6632 57.3213 39.569 58.5639 39.9058C59.4271 40.1574 60.1239 40.6877 60.3561 41.6361C60.4839 42.0774 60.5458 42.5419 60.6078 43.0065C60.7781 44.04 60.5884 44.9884 59.9536 45.8555C59.4271 46.5948 59.5123 47.2258 60.1626 47.88C60.48 48.2168 60.7936 48.5768 61.049 48.9561C61.5136 49.6955 61.5987 50.4542 61.0916 51.2323C60.9019 51.5071 60.7548 51.8013 60.6078 52.0761C59.5936 52.5174 58.6026 52.4981 57.6116 52.3084C56.9148 52.1806 56.3265 52.3277 55.6916 52.8155C56.0942 53.2181 56.431 53.5742 56.7677 53.9342C56.9574 54.1665 57.2516 54.3755 57.2942 54.631C57.4839 55.6452 57.4219 56.6981 56.8297 57.5419C56.3032 58.3432 55.5019 58.9355 54.5303 59.2297C53.9613 59.4194 53.3497 59.5471 52.7574 59.7136C52.0839 59.8839 51.4065 60.1161 50.7329 60.24C49.8039 60.4103 48.8361 60.4723 47.9071 60.6619C47.0207 60.8516 46.1574 61.169 45.2903 61.3355C44.2142 61.5445 43.7071 62.3497 42.929 63.1703C43.3316 63.2981 43.5407 63.4219 43.7923 63.4219C44.4232 63.4839 45.0581 63.4219 45.689 63.5071C46.7652 63.6774 47.8181 63.9097 48.8942 64.0994C49.3587 64.1845 49.8232 64.2039 50.2878 64.2464C51.0465 64.289 51.8284 64.2464 52.5639 64.4168C53.28 64.5639 53.9961 64.8387 54.6929 65.1755C56.0865 65.8297 56.8452 66.9484 57.4568 68.2142C57.9832 69.2477 57.8787 70.2813 57.1394 71.2297C56.9923 71.4 56.8645 71.609 56.76 71.7987C56.4232 72.4955 56.0865 73.1923 55.769 73.8852C55.5368 74.369 55.2852 74.8568 55.2 75.36C54.991 76.4981 54.631 77.6361 54.7781 78.8206C54.8632 79.4129 54.8826 80.0245 54.9252 80.6129C55.0103 82.4477 55.0529 84.2826 55.1574 86.1174C55.2 86.9187 55.3278 87.72 55.3897 88.5213C55.4516 89.28 55.56 90.0387 55.56 90.7974C55.5407 91.769 55.4555 92.7368 55.351 93.6852C55.1419 95.311 54.929 96.9329 54.6542 98.5587C54.5265 99.2555 54.0852 99.8245 53.3032 100.076C53.0516 99.9716 52.711 99.929 52.5019 99.7393C51.3639 98.7252 49.9278 98.5161 48.5148 98.2839C47.2065 98.0516 46.0065 97.5252 45.0348 96.5768C44.4658 96.0271 43.8736 95.5006 43.2619 94.9935C42.5884 94.4245 41.8684 93.8748 41.1523 93.3058C40.7729 92.9884 40.4129 92.6323 40.0142 92.3342C39.5071 91.9316 38.9187 91.6606 38.4968 91.1961C37.8658 90.5226 37.3161 89.7406 36.7665 88.9819C36.0697 88.0529 35.4581 87.0852 34.9936 85.9858C34.529 84.8477 33.7897 83.8335 33.329 82.6955C32.4852 80.609 31.5561 78.4994 31.3045 76.2194C31.3045 76.1148 31.2426 76.0297 31.2194 75.9445C31.049 75.2284 30.84 74.5123 30.7355 73.7923C30.5652 72.4413 30.4413 71.071 30.2942 69.72C30.2942 69.6155 30.2323 69.5303 30.2323 69.4258C30.0619 68.1832 29.8723 66.9174 29.7484 65.6516C29.4968 62.9961 30.0426 60.3987 30.3794 57.7858C30.569 56.311 30.8439 54.8129 30.5497 53.3342C30.2323 51.7084 30.1471 50.0865 30.1278 48.4606C30.1084 47.5123 30.0658 46.5639 30.0232 45.4452C29.791 45.6968 29.6632 45.8052 29.5819 45.929C29.0323 46.8348 28.1884 47.5936 28.0413 48.7123C26.9226 50.5277 26.3342 52.5523 25.6142 54.5342C25.2348 55.5252 24.9407 56.5587 24.6658 57.5923C24.329 58.9858 23.969 60.3755 23.7794 61.8116C23.5703 63.4761 23.4619 65.1871 23.4426 66.8942C23.4232 68.729 23.4 70.5639 23.6129 72.3794C23.9071 74.9303 24.2865 77.4813 25.1536 79.9084C25.7226 81.4916 26.1871 83.1135 26.9458 84.5923C27.8323 86.3652 28.529 88.2619 29.8568 89.8026C30.0039 89.9729 30.0658 90.2245 30.1742 90.4335C30.3019 90.6852 30.4065 90.9832 30.5768 91.2155C31.1458 91.9742 32.0516 92.5006 32.2645 93.5148C33.0039 94.0839 33.5923 94.8 34.2039 95.4774C35.1523 96.5303 36.3136 97.4168 37.3897 98.3458C38.0865 98.9574 38.8026 99.5497 39.5613 100.076C40.7419 100.877 41.7329 101.954 43.1458 102.461C43.3781 102.546 43.5871 102.712 43.8194 102.863C44.5355 103.285 45.2129 103.792 45.9716 104.106C47.5123 104.698 48.9252 105.623 50.5703 106.026C51.6232 106.277 52.6142 106.827 53.671 107.121C55.2116 107.586 56.7716 107.923 58.3316 108.302C59.1136 108.472 59.7871 108.259 60.271 107.586C61.0297 106.533 61.8736 105.542 62.5897 104.443C63.0736 103.684 63.4529 102.859 64.0877 102.166C64.6994 101.47 65.1832 100.692 66.0078 100.185C67.0219 99.5303 68.0516 99.2555 69.1703 99.8671C69.5729 100.076 69.929 100.351 70.3316 100.479C71.1523 100.711 72.0194 101.048 72.84 101.028C74.5897 100.966 76.3394 100.692 77.9226 99.8477C78.1123 99.7626 78.3019 99.7006 78.4916 99.6155C79.1032 99.3832 79.7768 99.2361 80.3265 98.9187C81.1703 98.4348 82.0761 98.2219 82.9819 98.0748C84.0774 97.9045 85.1768 97.7574 86.2723 97.7148C87.6426 97.6722 89.0555 97.6723 89.7329 99.1084C90.4297 99.3832 91.1458 99.511 91.6297 99.9097C92.0942 100.289 92.3032 100.986 92.6826 101.64C95.2761 100.123 97.68 98.1406 100.169 96.1781C98.5239 95.2916 97.68 93.7935 96.9213 92.3187C96.3097 91.0761 95.3381 90.3135 94.3278 89.5355C94.1381 89.4077 93.8865 89.3652 93.6736 89.3264C92.7678 89.1174 91.8387 88.9471 90.9523 88.7148C89.6671 88.3974 88.3781 88.0181 87.0929 87.6813C86.1213 87.4297 85.2155 87.0503 84.329 86.5626C83.0207 85.8465 82.3665 84.4761 81.3329 83.4852C81.2477 83.4 81.1858 83.2529 81.1626 83.1252C81.12 82.3664 80.6129 81.8594 80.2336 81.271C80.0245 80.9768 79.8116 80.6594 79.7071 80.3226C79.3897 79.4594 78.6929 78.9097 78.0619 78.3832C77.3032 77.7716 76.7342 77.2026 76.6065 76.1458C76.4594 74.7755 76.8813 73.7419 77.849 72.8555C78.3755 72.3716 78.9019 71.9264 79.4323 71.4619C80.191 70.8077 80.9071 70.0916 81.7316 69.5226C82.4284 69.0155 83.2065 68.5935 83.9884 68.2568C85.2968 67.7071 86.6439 67.3084 87.9329 66.7587C89.3652 66.1471 90.8632 65.6632 92.0671 64.6065C92.6787 64.08 93.3097 63.5729 93.6503 62.8994C93.6077 62.0787 93.48 61.3819 93.0387 60.7471C92.6168 60.1161 92.6361 59.3768 93.0194 58.7419C93.4413 58.0258 93.9484 57.3484 94.4323 56.6555C95.2142 55.4942 95.129 54.9252 94.0297 54.0194C93.9252 53.9342 93.7974 53.8916 93.6929 53.8103C93.5458 53.64 93.3987 53.4503 93.2516 53.2839C92.849 52.7768 92.4929 52.2697 92.071 51.809C91.6065 51.2594 90.9949 51.3252 90.4065 51.4916C89.8374 51.6619 89.6245 52.1032 89.5858 52.6529C89.5007 53.6865 89.4581 54.72 89.3768 55.7536C89.3574 56.2374 89.3148 56.7445 89.1678 57.209C88.6839 58.6645 87.4607 59.1058 86.1097 59.2529C84.5923 59.4 83.9807 60.0116 84.0852 61.5097C84.1471 62.5006 83.6826 63.3252 83.431 64.1884C83.369 64.3974 83.1561 64.5677 82.9665 64.7148C82.2929 65.2839 81.5536 65.8336 80.8994 66.4219C79.8852 67.3277 78.6852 67.6026 77.4 67.7303C76.1342 67.8581 75.271 67.2658 74.5936 66.3174C74.3845 66.0426 74.2336 65.6206 74.2761 65.3032C74.4232 64.1419 74.6129 63.0271 75.2052 61.951C75.6465 61.1303 75.9019 60.1355 75.9871 59.2103C76.0297 58.5135 75.7355 57.7781 75.4607 57.1006C74.9961 55.8968 75.2903 54.7394 75.6697 53.6632C76.1536 52.3123 77.1871 51.4258 78.6852 51.1316C79.4245 50.9845 80.1174 50.6671 80.7523 50.4581C80.9845 49.7613 80.88 49.32 80.5007 48.8323C79.5523 47.5897 78.3716 46.5948 77.1252 45.7316C74.9961 44.2761 74.3187 42.1897 74.3187 39.8477C74.3187 38.4155 74.4658 36.8748 75.751 35.8181C75.8787 35.7329 75.9213 35.5239 76.0258 35.3961C76.68 34.5948 77.5432 34.2581 78.5768 34.4052C79.591 34.5329 80.4116 35.0361 81.1936 35.609C81.8671 36.0929 82.6258 36.2826 83.4697 36.2632C84.8207 36.1781 85.8968 35.4426 86.8026 34.5987C87.9213 33.5226 89.1639 32.8065 90.6 32.2568C92.6052 31.4981 94.08 30.1703 94.6065 27.9755C94.6684 27.7007 94.8155 27.4065 94.9432 27.1548C95.1136 26.8374 95.3845 26.7755 95.7019 26.9652C95.7445 27.0503 95.7871 27.1548 95.7871 27.24C95.8065 27.3445 95.8297 27.449 95.8065 27.5574C95.489 28.951 95.3419 30.3407 94.1419 31.4168C93.1277 32.3458 92.0981 33.1897 90.8516 33.8013C89.7987 34.3084 88.5329 34.5832 87.9407 35.8065C87.8787 35.911 87.7316 35.9536 87.6232 36.0581C86.7174 36.9445 85.5136 37.3665 84.3755 37.8077C83.5936 38.1019 82.6684 38.2723 81.7394 37.9123C80.9187 37.6181 80.1136 37.3432 79.3548 36.8981C78.6581 36.4955 77.8568 36.4568 77.2258 37.2155C76.6336 37.889 76.5097 38.671 76.3819 39.4103C76.1497 40.9703 76.2968 42.449 77.7523 43.5445C78.7432 44.2839 79.4594 45.2942 80.4077 46.0761C81.0387 46.6026 81.4839 47.3187 81.9252 48.0387C82.5561 48.9871 82.3471 49.9355 82.1342 50.9071C82.0916 51.0968 81.84 51.2671 81.6697 51.4142C81.1007 51.9406 80.3613 52.0258 79.6452 52.2155C78.6116 52.5097 77.7677 53.1019 77.3265 54.1355C76.9239 55.1265 77.0516 56.0981 77.4116 57.0658C77.8761 58.3084 78.1703 59.5548 77.5819 60.8632C77.5394 60.991 77.4968 61.1148 77.4968 61.2426C77.5394 61.8542 77.2219 62.3381 76.9277 62.8258C76.6761 63.2903 76.4632 63.7974 76.3355 64.3006C76.1265 65.2916 76.5252 65.7755 77.4968 65.6516C78.0658 65.5897 78.6581 65.3574 79.1845 65.1019C79.6916 64.8929 80.1136 64.5523 80.5974 64.32C81.9484 63.7084 82.4942 62.5897 82.4942 61.1768C82.4942 60.4374 82.7265 59.8064 83.0439 59.1716C83.3381 58.6026 83.8645 58.2852 84.4142 58.0761C85.0258 57.8245 85.6994 57.7587 86.3536 57.5923C87.4916 57.2748 88.0839 56.6013 87.871 55.4632C87.7007 54.5342 87.871 53.671 87.9561 52.7845C88.0607 51.7935 88.231 50.8219 89.3071 50.2761C90.2129 49.8116 91.8387 49.769 92.5974 50.5084C93.7587 51.689 94.9161 52.9123 96.0155 54.1587C96.7123 54.9406 96.689 56.0555 95.9303 56.9845C95.4232 57.6155 94.9819 58.2697 94.56 58.9471C94.3084 59.4116 94.351 59.8529 94.6645 60.36C95.0245 60.9097 95.191 61.5639 95.4232 62.1948C95.6748 62.911 95.4426 63.5226 95.0439 64.1574C93.7781 66.2013 91.7536 67.2348 89.7097 68.2297C88.2542 68.9032 86.7368 69.391 85.2813 70.0839C84.3523 70.5252 83.489 71.1174 82.6645 71.729C81.9058 72.2555 81.2516 72.9716 80.4929 73.5019C79.6916 74.0516 79.1845 74.7871 78.6387 75.7161C78.9561 76.0761 79.2697 76.4555 79.5871 76.8116C80.1561 77.5084 80.8297 78.1394 81.2516 78.9213C81.9252 80.2064 82.6645 81.4723 83.4465 82.6955C84.5226 84.36 86.2103 84.9523 87.9368 85.5019C88.0839 85.5445 88.2736 85.4826 88.4207 85.5019C88.6297 85.5019 88.8232 85.5213 89.0129 85.5445C90.72 85.9045 92.4078 86.2413 94.0955 86.64C94.9394 86.849 95.8026 87.1045 96.5226 87.5264C97.7652 88.2852 98.5897 89.489 99.4336 90.6464C100.32 91.889 101.206 93.1355 102.112 94.4206C102.619 94.0839 103.146 93.8284 103.525 93.4297C104.117 92.7987 104.559 92.0593 105.108 91.3858C105.72 90.6271 106.374 89.9303 106.963 89.191C107.594 88.409 108.205 87.6077 108.797 86.8064C109.262 86.1755 109.726 85.4981 110.168 84.8439C110.57 84.2323 110.988 83.6206 111.329 82.9897L111.356 82.9703ZM91.0026 101.319C90.751 101.191 90.4761 100.982 90.1819 100.982C89.3613 100.963 88.9587 100.413 88.4942 99.8864C88.3471 99.6968 88.2 99.5071 88.0297 99.2942C87.5032 99.3368 86.9768 99.3987 86.4465 99.4219C85.4129 99.4645 84.3794 99.4645 83.369 99.569C82.8426 99.6116 82.3161 99.7781 81.8284 99.9716C80.2684 100.564 78.751 101.237 77.1871 101.764C75.5613 102.314 73.8774 102.565 72.1665 102.29C71.28 102.163 70.3936 101.93 69.5923 101.574C69 101.28 68.4542 101.048 67.8426 101.172C67.3587 101.466 66.7665 101.655 66.4916 102.058C65.9419 102.902 65.1832 103.556 64.6568 104.377C64.0645 105.263 63.6426 106.254 62.8645 107.013C62.3381 107.52 61.8929 108.089 61.3045 108.72C62.4658 108.782 63.5187 108.825 64.5948 108.867C66.7897 108.952 69.0039 108.995 71.1948 108.739C73.3045 108.488 75.391 108.108 77.4813 107.706C78.031 107.578 78.5768 107.412 79.1265 107.241C81.0039 106.672 82.8813 106.08 84.7587 105.492C84.9678 105.43 85.1806 105.302 85.3897 105.217C86.6323 104.667 87.8787 104.121 89.1445 103.614C90.3484 103.15 90.96 102.434 90.9987 101.315L91.0026 101.319ZM84.4219 22.1032C84.5497 22.1032 84.6542 21.9987 84.8865 21.8942C84.2323 21.7239 83.7058 21.5148 83.1561 21.4297C81.8478 21.24 80.5394 21.0929 79.2348 20.9458C78.031 20.8181 76.8503 20.671 75.6503 20.6284C74.7213 20.5858 73.7961 20.7329 72.8439 20.7329C72.0619 20.7523 71.2607 20.5858 70.4826 20.671C68.6284 20.8607 66.751 21.1781 65.0207 21.4103C64.1574 22.4245 63.7974 23.6245 62.6787 24.151V25.0994C62.9729 25.2039 63.2284 25.351 63.4607 25.351C64.6413 25.4129 65.8026 25.4129 66.96 25.4555C67.6568 25.4981 68.3536 25.4981 69.0465 25.6026C69.7858 25.7303 70.5213 25.9394 71.2607 26.1716C72.1239 26.4465 72.9678 26.4232 73.8116 26.0671C74.3613 25.8348 74.9497 25.4981 75.4994 25.5174C76.3858 25.5368 77.1019 25.1148 77.9032 24.9678C78.4723 24.8632 79.0219 24.6736 79.5678 24.5032C80.5394 24.1007 81.4645 23.5742 82.3316 22.9626C82.9626 22.4981 83.6168 22.1419 84.4181 22.0994L84.4219 22.1032ZM49.8774 32.1832C49.92 31.1303 49.7303 30.0542 49.7071 28.9781C49.6645 27.6271 49.3278 26.2994 48.8207 25.0994C48.0813 23.2645 47.1755 21.4723 45.36 20.3342C44.791 19.9974 44.2645 19.7226 43.6297 19.6181C42.3213 19.409 41.0129 19.471 39.7703 19.8271C38.6748 20.1445 37.5329 20.4581 36.6271 21.0697C35.3845 21.871 34.2232 22.8852 33.3794 24.1471C32.1755 25.9819 31.3355 27.9019 31.8387 30.1587C31.9432 30.6426 32.1329 31.1303 32.3032 31.591C33.0194 33.4452 34.0955 35.0903 35.4232 36.569C36.2671 37.4748 37.1536 38.3187 38.04 39.1858C38.8607 40.0065 39.6426 40.8929 40.5484 41.6129C42.4452 43.1303 44.4078 44.5432 46.3897 46.0645C46.4516 45.9368 46.5987 45.7897 46.6413 45.6232C46.9355 44.191 47.0207 42.6929 47.8645 41.4271C47.9497 41.3226 47.969 41.1755 48.0116 41.0477C48.3484 39.9716 48.6039 38.8529 49.0452 37.8C49.8039 35.9845 49.7613 34.0878 49.8658 32.191L49.8774 32.1832Z" fill="#4D40CC"/>
<path d="M11.8955 29.7407L11.9806 29.7833L12.1277 29.8684L12.4451 30.0387L13.0761 30.3755C13.8967 30.7974 14.8064 31.2387 15.7316 31.5368C16.1535 31.6839 16.4903 31.8116 16.8696 31.9587C17.3342 32.1291 17.7755 32.3187 18.2206 32.5084C19.1071 32.8684 20.0129 33.2478 20.9187 33.5845C21.7626 33.902 22.7342 33.8168 23.5742 34.1536C23.7445 34.2155 23.9767 34.111 24.058 33.8362C24.1625 33.4994 23.9729 33.4142 23.8064 33.3291C22.6684 32.8878 21.569 32.3574 20.4542 31.9162C19.9277 31.6839 19.378 31.4749 18.8284 31.2852L18.0271 30.9678L17.6051 30.8207C17.5006 30.7781 17.3535 30.7162 17.3109 30.7162C17.0361 30.6542 16.6374 30.5458 16.2967 30.3794L15.8322 30.1704L15.6 30.0658C15.5806 30.0658 15.538 30.0465 15.538 30.0465L15.5806 30.0271L15.6851 29.9845L16.4864 29.6245L16.9703 29.4349L17.2451 29.3071C17.2451 29.3071 17.4155 29.2452 17.52 29.2026L17.8993 29.0749L19.3316 28.5678L19.7535 28.4207C19.9432 28.3587 20.1329 28.2929 20.3032 28.231C20.6825 28.0839 21.0193 27.9136 21.3174 27.6813C21.4645 27.5536 21.5071 27.3213 21.6542 27.1974C21.7587 27.1355 21.8632 27.0929 22.0567 27.0929C22.0142 27.1974 21.9716 27.2826 21.9096 27.3871C21.5922 27.8516 21.1277 28.2078 20.5819 28.4633C20.3303 28.6104 20.0322 28.7149 19.738 28.8233L19.2116 29.0555L18.2206 29.4774L17.7135 29.7097L17.4619 29.8142C17.4425 29.8336 17.4425 29.8568 17.4425 29.8762C17.4619 29.8955 17.4851 29.9381 17.4851 29.9613L17.5045 30.0039H17.5896C17.7174 30.0039 17.8413 30.0039 17.9496 29.9845C18.1819 29.9652 18.4142 29.88 18.6232 29.7949L19.2542 29.4774L19.5716 29.3497L19.7187 29.2878C19.7806 29.2684 19.8232 29.2452 19.9509 29.2026C20.4348 29.0749 20.8993 28.9084 21.3213 28.6336C21.7238 28.4013 22.0606 28.0645 22.3355 27.7045C22.7767 27.0929 23.009 26.3536 23.0516 25.6375C23.0942 25.111 23.009 24.5845 22.8619 24.0774C22.7148 23.5936 22.4825 23.0865 22.3548 22.9162C22.08 22.4942 21.8051 22.1768 21.4916 22.0529C21.5109 22.3704 21.5767 22.6452 21.6619 22.9162C21.7045 23.0439 21.7664 23.1678 21.8322 23.2955C21.8748 23.4233 21.9793 23.6323 22.0413 23.822C22.3587 24.6039 22.5484 25.4671 22.2735 26.2258C22.2735 25.4439 22.0838 24.751 21.8322 24.0736C21.7703 23.9033 21.7045 23.7562 21.6425 23.5897L21.4722 23.2297C21.3445 22.9974 21.24 22.7652 21.1122 22.5329C20.6709 21.7936 20.1832 21.0581 19.8464 20.1291C19.9084 20.0865 19.9742 20.0245 20.0555 20.0013C20.1406 20.1291 20.1832 20.3381 20.458 20.2104C20.7755 20.0633 20.818 19.831 20.6477 19.6181C25.0761 16.7691 30.2245 14.7058 36.0232 13.2929C36.2322 13.3549 36.4258 13.3781 36.6155 13.3974C37.1419 13.44 37.5638 13.2504 37.858 12.8904C42.3484 11.942 47.2026 11.3729 52.4322 11.16C52.4322 11.1794 52.4516 11.222 52.4748 11.2452C52.5174 11.3071 52.6838 11.3729 52.8116 11.3923C52.8542 11.3923 52.9587 11.3071 52.9587 11.2878V11.1407C53.1677 11.1213 53.3613 11.1213 53.5703 11.1213C53.5509 11.2258 53.5277 11.311 53.5084 11.4155C53.4232 11.7097 53.3806 11.9845 53.3613 12.2787C53.3613 12.4065 53.3806 12.5536 53.4038 12.7007C53.4464 12.8284 53.489 12.9523 53.5509 13.08C53.8451 13.08 53.9729 12.9949 53.9729 12.9097C54.1006 12.2981 54.4374 11.6013 55.1109 11.0749C55.8271 11.0555 56.5664 11.0555 57.3058 11.0555C78.9019 11.0555 95.2258 16.5407 104.675 29.1716C103.854 28.3704 102.968 27.6116 101.868 27.1045C101.698 27.0194 101.574 26.8297 101.427 26.702C101.11 26.4697 100.815 26.2181 100.479 26.0052C99.4451 25.3936 98.3264 24.8865 97.378 24.151C96.3251 23.3497 95.1019 22.9278 93.9406 22.3587C93.0968 21.9562 92.2103 21.662 91.3471 21.3445C90.4838 21.0078 89.6168 20.6284 88.711 20.3962C87.0039 19.9549 85.2735 19.5755 83.5432 19.1923C82.7419 19.022 81.9174 18.8555 81.0774 18.7704C79.9161 18.6233 78.7587 18.5381 77.5974 18.4762C76.1226 18.4142 74.6439 18.3291 73.1884 18.3716C71.4155 18.4336 69.6658 18.6039 67.9161 18.7742C66.7548 18.8787 65.5974 18.9833 64.4555 19.2155C62.9148 19.5329 61.4168 19.9742 59.8993 20.3342C58.0839 20.7755 56.3767 21.5149 54.6271 22.1497C53.4464 22.5716 52.2851 23.0787 51.1277 23.5433C50.8529 22.7845 50.5355 22.111 50.369 21.4142C50.0942 20.2336 49.2735 19.4516 48.5961 18.5458C48.4258 18.3136 48.1122 18.1858 47.88 18.0194C47.6477 17.8916 47.3535 17.8104 47.1832 17.6168C46.3626 16.6258 45.1587 16.5639 44.0632 16.5213C42.5226 16.4362 40.92 16.4787 39.4451 17.1329C38.6864 17.4697 37.8 17.5742 37.0838 17.9536C35.7329 18.6697 34.3858 19.3858 33.3716 20.5897C33.0542 20.9691 32.8026 21.391 32.4658 21.7704C31.3277 23.0555 30.4606 24.4916 30.0193 26.1794C29.7251 27.3833 29.3884 28.5833 29.7445 29.8297C29.8722 30.2516 29.849 30.6929 29.9767 31.1149C30.3135 32.191 30.4606 33.3291 31.0955 34.3007C31.769 35.3342 32.4232 36.3678 33.0774 37.4013C32.5084 38.1407 31.9393 38.8762 31.3897 39.6155C30.0813 41.3033 28.9432 43.0762 27.8477 44.8878C26.4774 47.1445 25.4013 49.5484 24.3251 51.9523C23.9032 52.9433 23.6709 53.9575 23.2916 54.9484C22.8271 56.191 22.4477 57.48 22.1535 58.7884C21.8593 60.1162 21.7122 61.4671 21.4993 62.7949C21.3522 63.7858 21.1393 64.8 21.1393 65.791C21.1393 67.7729 20.969 69.7781 21.1819 71.7794C21.3716 73.4245 21.329 75.0891 21.7316 76.7149C22.1342 78.3794 22.4709 80.0904 22.9548 81.7549C23.2916 82.8929 23.7987 83.9923 24.24 85.1071C25.2542 87.6813 26.6671 90.062 28.2038 92.342C29.4464 94.1962 30.7974 95.9923 32.4658 97.4865C33.329 98.2684 34.0916 99.1742 34.9742 99.9136C36.2593 100.99 37.6103 101.957 38.9187 102.972C39.0658 103.076 39.2129 103.161 39.3406 103.266C40.3122 103.835 41.28 104.427 42.2516 105.016C42.6309 105.225 43.0103 105.437 43.3897 105.627C44.4851 106.134 45.5613 106.661 46.68 107.125C47.7987 107.566 48.9174 108.012 50.0555 108.368C51.0697 108.662 52.1226 108.832 53.1561 109.107C54 109.316 54.8206 109.614 55.6645 109.761C56.8451 109.97 58.049 110.079 59.249 110.203C60.1355 110.288 61.0413 110.288 61.9277 110.435C63.5535 110.686 65.1561 110.772 66.8013 110.644C69.1006 110.474 71.4 110.326 73.6761 110.032C75.6813 109.781 77.64 109.401 79.5832 108.937C81.1664 108.557 82.7032 107.988 84.2439 107.419C85.8464 106.85 87.449 106.239 88.9897 105.523C90.6968 104.721 92.4077 103.858 94.0297 102.886C95.1058 102.232 96.2013 101.559 97.1922 100.777C98.458 99.7626 99.6193 98.6478 101.032 97.8039C101.222 97.6762 101.35 97.4439 101.497 97.2775C101.667 97.1071 101.814 96.9407 101.981 96.7703C102.801 96.0542 103.668 95.3768 104.446 94.6413C104.954 94.1574 105.375 93.5884 105.817 93.0581C107.315 91.2658 108.979 89.6207 110.268 87.6387C110.439 87.3639 110.628 87.0891 110.818 86.8374C103.858 108.434 85.889 119.528 57.3135 119.528C19.6993 119.52 1.16125 100.305 1.16125 63.2091C1.16125 48.3407 4.42835 37.0374 10.6529 28.8116L11.8955 29.7174V29.7368V29.7407ZM17.5277 30.1626C17.4851 30.12 17.4 30.0349 17.2955 29.8452C17.2103 29.7833 17.0864 29.7407 17.0206 29.76C16.978 29.7794 17.0013 29.8645 17.2722 30.0349C17.3767 30.0774 17.4619 30.12 17.5238 30.1626H17.5277ZM21.24 21.6194C21.5767 21.4916 21.6 21.1974 21.3871 21.0271C21.2167 20.88 21.3019 20.4155 20.7948 20.6671C20.3729 20.8994 20.7329 21.0465 20.8374 21.2168C20.9419 21.3871 20.7755 21.8091 21.24 21.6194Z" fill="#EDECFA"/>
<path d="M96.9524 92.3148C97.7111 93.7897 98.5549 95.2877 100.2 96.1742C97.7111 98.1368 95.3072 100.119 92.7137 101.636C92.3343 100.982 92.1214 100.285 91.6608 99.9058C91.1769 99.5032 90.4569 99.3793 89.764 99.1045C89.0904 97.6722 87.6775 97.6722 86.3033 97.711C85.2079 97.7535 84.1085 97.9006 83.013 98.071C82.1072 98.218 81.1975 98.431 80.3575 98.9148C79.8079 99.2322 79.1343 99.3793 78.5227 99.6116C78.333 99.6968 78.1433 99.7587 77.9537 99.8438C76.3704 100.688 74.6208 100.963 72.8711 101.024C72.0504 101.044 71.1833 100.707 70.3627 100.475C69.9601 100.347 69.604 100.072 69.2014 99.8632C68.0827 99.2516 67.0492 99.5264 66.0388 100.181C65.2182 100.688 64.7304 101.466 64.1188 102.163C63.4879 102.859 63.1046 103.68 62.6208 104.439C61.9046 105.534 61.0608 106.525 60.3021 107.582C59.8182 108.255 59.1408 108.468 58.3627 108.298C56.8027 107.919 55.2427 107.582 53.7021 107.117C52.6491 106.823 51.6582 106.274 50.6014 106.022C48.9562 105.619 47.5433 104.694 46.0027 104.102C45.244 103.784 44.5704 103.281 43.8504 102.859C43.6182 102.712 43.4092 102.542 43.1769 102.457C41.764 101.95 40.773 100.874 39.5924 100.072C38.8337 99.5458 38.1175 98.9535 37.4208 98.3419C36.3446 97.4129 35.1833 96.5264 34.235 95.4735C33.6233 94.8 33.0311 94.08 32.2956 93.5109C32.0866 92.4968 31.1769 91.9703 30.6079 91.2116C30.4375 90.9793 30.333 90.6851 30.2053 90.4297C30.1008 90.2206 30.035 89.9651 29.8879 89.7987C28.5601 88.258 27.8633 86.3613 26.9769 84.5884C26.2182 83.1135 25.7537 81.4877 25.1846 79.9045C24.3214 77.4774 23.9421 74.9264 23.644 72.3755C23.435 70.56 23.4543 68.7251 23.4737 66.8903C23.493 65.1832 23.6014 63.4722 23.8104 61.8077C24.0001 60.3755 24.3601 58.9819 24.6969 57.5884C24.9717 56.5548 25.2659 55.5213 25.6453 54.5303C26.3614 52.5484 26.9537 50.5238 28.0724 48.7084C28.2195 47.5897 29.0633 46.8309 29.613 45.9251C29.6982 45.7974 29.8221 45.6929 30.0543 45.4413C30.0969 46.56 30.1395 47.5084 30.1588 48.4568C30.1782 50.0826 30.2633 51.7045 30.5808 53.3303C30.875 54.8051 30.6001 56.3032 30.4104 57.7819C30.0737 60.3987 29.524 62.9922 29.7795 65.6477C29.9072 66.9135 30.0969 68.1793 30.2633 69.4219C30.2633 69.5264 30.3253 69.6116 30.3253 69.7161C30.4724 71.0671 30.6001 72.4374 30.7666 73.7884C30.8711 74.5045 31.084 75.2206 31.2504 75.9406C31.2698 76.0258 31.3356 76.111 31.3356 76.2155C31.5872 78.4916 32.5162 80.6013 33.3601 82.6916C33.8246 83.8297 34.564 84.8439 35.0246 85.9819C35.4892 87.0774 36.1008 88.049 36.7975 88.978C37.3472 89.7368 37.893 90.5187 38.5279 91.1922C38.9498 91.6568 39.5421 91.9316 40.0453 92.3303C40.4479 92.6245 40.804 92.9845 41.1833 93.3019C41.8995 93.8709 42.6156 94.4206 43.293 94.9897C43.9046 95.4968 44.4969 96.0232 45.0659 96.5729C46.0375 97.5213 47.2375 98.0477 48.5459 98.28C49.9588 98.5122 51.395 98.7213 52.533 99.7355C52.7421 99.9251 53.0827 99.9677 53.3343 100.072C54.1162 99.8206 54.5575 99.2516 54.6853 98.5548C54.9601 96.929 55.1692 95.3071 55.3821 93.6813C55.4866 92.7329 55.5717 91.7613 55.5911 90.7935C55.5911 90.0348 55.4866 89.2761 55.4208 88.5174C55.3588 87.7161 55.2311 86.9148 55.1885 86.1135C55.084 84.2787 55.0414 82.4439 54.9562 80.609C54.9137 80.0168 54.8943 79.4051 54.8091 78.8168C54.6621 77.6361 55.0182 76.498 55.2311 75.3561C55.3162 74.849 55.5679 74.3651 55.8001 73.8813C56.1175 73.1845 56.4543 72.4877 56.7911 71.7948C56.8956 71.6051 57.0233 71.3922 57.1704 71.2258C57.9098 70.2774 58.0143 69.2439 57.4879 68.2103C56.8762 66.9445 56.1175 65.8258 54.724 65.1716C54.0272 64.8348 53.3111 64.56 52.595 64.4129C51.8556 64.2426 51.0775 64.2851 50.3188 64.2426C49.8543 64.2 49.3898 64.1806 48.9253 64.0955C47.8492 63.9058 46.7962 63.6735 45.7201 63.5032C45.0892 63.418 44.4543 63.4838 43.8233 63.418C43.5717 63.418 43.3588 63.2903 42.9601 63.1664C43.7421 62.3458 44.2453 61.5406 45.3214 61.3316C46.1846 61.1613 47.0517 60.8477 47.9382 60.658C48.8672 60.4684 49.835 60.4064 50.764 60.2361C51.4375 60.1084 52.115 59.8761 52.7885 59.7097C53.3808 59.5393 53.9924 59.4155 54.5614 59.2258C55.533 58.9316 56.3343 58.3393 56.8608 57.538C57.453 56.6942 57.515 55.6413 57.3253 54.6271C57.2827 54.3755 56.9885 54.1626 56.7988 53.9303C56.4621 53.5703 56.1253 53.2142 55.7227 52.8116C56.3537 52.3277 56.9459 52.1806 57.6427 52.3045C58.6337 52.4942 59.6246 52.5135 60.6388 52.0722C60.7859 51.7974 60.933 51.5032 61.1227 51.2284C61.6298 50.4464 61.5446 49.6877 61.0801 48.9522C60.8285 48.5729 60.5111 48.2129 60.1937 47.8761C59.5395 47.2219 59.4543 46.5909 59.9846 45.8516C60.6156 44.9884 60.8053 44.0361 60.6388 43.0026C60.5769 42.538 60.5111 42.0735 60.3872 41.6322C60.155 40.6839 59.4582 40.1574 58.595 39.9019C57.3524 39.5651 57.035 38.6593 57.8788 37.6877C57.964 37.5832 58.0685 37.498 58.173 37.4129C58.955 36.7587 59.524 36 59.5433 34.8193C59.4814 34.6103 59.3962 34.2503 59.2491 33.9135C58.8698 33.0503 58.4053 32.2877 57.5614 31.7187C56.4659 30.9793 55.475 30.0735 54.4608 29.2103C53.9769 28.7884 53.5975 28.2813 53.4466 27.6271C53.3846 27.2903 53.195 26.9729 53.0246 26.5742C52.1382 27.0155 52.1382 27.0813 52.204 27.778L51.8246 27.7974L51.7627 27.1006C51.7201 26.7406 51.635 26.3845 51.573 26.0245C54.9679 24.2322 58.5524 23.1368 62.2879 21.9522C62.1833 22.2697 62.1601 22.5019 62.0556 22.6684C61.5485 23.3419 61.4014 24.1239 61.2543 24.9251C61.1072 25.8542 61.4014 26.4 62.2453 26.8645C63.1937 27.4142 64.2272 27.5806 65.3033 27.6658C66.9291 27.8129 68.5511 28.0026 70.0685 28.6993C70.1962 28.7613 70.3201 28.8271 70.4479 28.8271C72.1124 28.8271 73.7808 29.0361 75.4027 28.4051C76.8156 27.8555 78.2517 27.391 79.7033 27.0348C81.0311 26.6748 82.1691 26.0632 83.164 25.1148C83.9033 24.418 84.724 23.9535 85.8427 23.9768C86.644 24.0193 87.4259 24.0813 88.204 24.1239C89.0479 24.1664 89.8917 23.8916 91.0724 23.7019C92.2104 24.1664 93.6659 24.7974 95.1214 25.409C95.5008 25.6413 95.8801 25.8503 96.2595 26.0826L95.733 26.9458C95.4156 26.7561 95.1408 26.818 94.9743 27.1355C94.8466 27.3871 94.6995 27.6851 94.6375 27.9561C94.1111 30.151 92.6324 31.4787 90.6311 32.2374C89.1988 32.7871 87.9524 33.5032 86.8337 34.5793C85.9279 35.4232 84.8517 36.1626 83.5008 36.2439C82.6569 36.2632 81.8982 36.0735 81.2246 35.5897C80.4427 35.0206 79.6221 34.5135 78.6079 34.3858C77.5743 34.2387 76.7111 34.5755 76.0569 35.3768C75.9524 35.5045 75.9098 35.7135 75.7821 35.7987C74.4969 36.8516 74.3498 38.3922 74.3498 39.8284C74.3498 42.1703 75.0233 44.2568 77.1562 45.7122C78.3988 46.5755 79.5833 47.5664 80.5317 48.8129C80.9111 49.2968 81.0156 49.7419 80.7833 50.4387C80.1524 50.6477 79.4556 50.9651 78.7162 51.1122C77.2182 51.4064 76.1846 52.2929 75.7008 53.6439C75.3214 54.72 75.0272 55.8813 75.4917 57.0813C75.7666 57.7548 76.0608 58.4942 76.0182 59.1909C75.933 60.12 75.6814 61.1109 75.2362 61.9316C74.644 63.0077 74.4543 64.1264 74.3072 65.2839C74.2646 65.6013 74.4117 66.0232 74.6246 66.298C75.2982 67.2464 76.1653 67.8387 77.4311 67.711C78.7162 67.5832 79.9201 67.3084 80.9304 66.4026C81.5846 65.8103 82.324 65.2645 82.9975 64.6955C83.1872 64.5484 83.4001 64.378 83.462 64.169C83.7137 63.3058 84.1782 62.4813 84.1162 61.4903C84.0117 59.9922 84.6233 59.3806 86.1408 59.2335C87.4917 59.0864 88.715 58.6413 89.1988 57.1897C89.3459 56.7251 89.3885 56.218 89.4079 55.7342C89.493 54.7006 89.5356 53.6671 89.6169 52.6335C89.6595 52.0838 89.8685 51.6426 90.4375 51.4722C91.0298 51.3019 91.6414 51.24 92.1021 51.7897C92.524 52.2542 92.884 52.7613 93.2827 53.2645C93.4298 53.4348 93.5769 53.6245 93.724 53.7909C93.8285 53.8761 93.9562 53.9187 94.0608 54C95.1562 54.9058 95.2414 55.4748 94.4633 56.6361C93.9795 57.3329 93.4724 58.0064 93.0504 58.7226C92.6711 59.3535 92.6479 60.0929 93.0698 60.7277C93.5111 61.3587 93.6388 62.0555 93.6814 62.88C93.3446 63.5535 92.7098 64.0606 92.0982 64.5871C90.8943 65.64 89.4001 66.1277 87.964 66.7393C86.6788 67.289 85.3279 67.6877 84.0195 68.2374C83.2375 68.5742 82.4595 68.9961 81.7627 69.5032C80.9421 70.0722 80.222 70.7884 79.4633 71.4426C78.9369 71.9071 78.4104 72.3484 77.8801 72.8361C76.9085 73.7226 76.4866 74.7561 76.6375 76.1264C76.7653 77.1793 77.3343 77.7522 78.093 78.3638C78.724 78.8903 79.4208 79.44 79.7382 80.3032C79.8427 80.64 80.0556 80.9574 80.2646 81.2516C80.644 81.8439 81.1511 82.3471 81.1937 83.1058C81.213 83.2335 81.2788 83.3806 81.364 83.4658C82.3975 84.4568 83.0517 85.8271 84.3601 86.5432C85.2466 87.0271 86.1524 87.4064 87.124 87.6619C88.4091 87.9987 89.6982 88.378 90.9833 88.6955C91.8698 88.9277 92.7988 89.098 93.7046 89.3071C93.9137 89.3497 94.1691 89.3922 94.3588 89.5161C95.373 90.298 96.3408 91.0568 96.9524 92.2993V92.3148Z" fill="#EDECFA"/>
<path d="M90.1823 100.982C90.4765 100.982 90.7513 101.191 91.0029 101.319C90.9603 102.437 90.3487 103.154 89.1487 103.618C87.8829 104.125 86.6403 104.671 85.3939 105.221C85.1848 105.306 84.9719 105.43 84.7629 105.495C82.8855 106.088 81.0081 106.676 79.1306 107.245C78.581 107.415 78.0352 107.582 77.4855 107.71C75.399 108.112 73.3087 108.492 71.199 108.743C69.0042 108.995 66.79 108.952 64.599 108.871C63.5229 108.828 62.47 108.786 61.3087 108.724C61.901 108.093 62.3423 107.52 62.8687 107.017C63.6507 106.258 64.0726 105.267 64.661 104.381C65.1874 103.56 65.9461 102.906 66.4958 102.062C66.7706 101.659 67.359 101.47 67.8468 101.175C68.4584 101.048 69.0081 101.28 69.5965 101.578C70.3977 101.938 71.2842 102.17 72.1707 102.294C73.8777 102.569 75.5655 102.314 77.1913 101.768C78.7513 101.241 80.2687 100.564 81.8326 99.9755C82.3165 99.7858 82.8468 99.6155 83.3732 99.5729C84.3874 99.4684 85.4171 99.4684 86.4507 99.4258C86.9771 99.4065 87.5036 99.3406 88.0339 99.2981C88.2042 99.5071 88.3513 99.7006 88.4984 99.8903C88.9629 100.417 89.3616 100.966 90.1861 100.986L90.1823 100.982Z" fill="#FF5B00"/>
<path d="M84.8862 21.8942C84.654 21.9987 84.5495 22.1032 84.4217 22.1032C83.6204 22.1458 82.9662 22.5058 82.3353 22.9665C81.472 23.5781 80.543 24.1045 79.5714 24.5071C79.0217 24.6774 78.4759 24.8671 77.9069 24.9716C77.1056 25.1187 76.3895 25.5407 75.503 25.5213C74.9533 25.502 74.365 25.8387 73.8153 26.071C72.9714 26.431 72.1275 26.4503 71.2643 26.1755C70.525 25.9432 69.7895 25.7342 69.0501 25.6065C68.3533 25.502 67.6566 25.502 66.9637 25.4594C65.8024 25.4168 64.6449 25.4168 63.4643 25.3549C63.232 25.3549 62.9804 25.2078 62.6824 25.1032V24.1549C63.8011 23.6284 64.1572 22.4245 65.0243 21.4142C66.7546 21.182 68.632 20.8645 70.4862 20.6749C71.2682 20.5897 72.0695 20.76 72.8475 20.7368C73.7959 20.7368 74.725 20.5897 75.654 20.6323C76.8579 20.6749 78.0385 20.822 79.2385 20.9497C80.5469 21.0968 81.8553 21.2439 83.1598 21.4336C83.7095 21.5187 84.2359 21.7278 84.8901 21.8981L84.8862 21.8942Z" fill="#FF5B00"/>
<path d="M59.137 49.4168C59.6867 49.8387 59.6867 49.8194 59.6209 50.5781C59.2415 50.8529 58.8196 50.7058 58.3783 50.6632C57.6622 50.6013 56.9228 50.5161 56.2067 50.5781C55.088 50.7058 54.2441 51.5497 53.9693 52.6219C53.8222 53.2529 54.0738 53.7407 54.4957 54.1394C54.7899 54.4142 55.1499 54.6465 55.4673 54.8787C55.9319 55.2387 56.0983 55.6607 55.8467 56.1871C55.5099 56.9265 54.9835 57.4529 54.1396 57.6L48.8248 58.5484C47.6635 58.7574 46.5254 58.9897 45.3873 59.2026C44.2067 59.4348 43.1499 59.8994 42.3719 60.8671C42.1628 61.0994 41.8648 61.2697 41.5512 61.5213C41.3615 62.0284 41.1099 62.5742 40.9396 63.1471C40.7306 63.8632 40.8119 64.56 41.4041 65.0865C41.6131 65.2761 41.9112 65.4465 42.1861 65.489C42.9254 65.5742 43.6415 65.7213 44.4428 65.5742C45.2015 65.4039 46.0454 65.6594 46.8273 65.7213C48.4531 65.849 50.0751 66.0387 51.7202 66.0813C54.3138 66.1432 55.9164 67.3471 56.5086 69.96C55.897 70.9316 55.2854 71.9652 54.6544 72.9755C54.0854 73.9045 53.7254 74.8955 53.559 75.9716C53.3267 77.4271 53.3267 78.8826 53.497 80.3574C53.6673 81.6852 53.6867 83.0129 53.9189 84.3445C54.0041 84.809 53.9189 85.3355 53.9383 85.8194C54.0235 87.2323 54.1473 88.6258 54.1706 90.0155C54.1899 90.9445 54.066 91.8929 53.9615 92.7987C53.7912 94.1265 53.559 95.4349 53.3499 96.7432C53.3073 97.0374 53.2028 97.3123 53.0983 97.6723C52.7809 97.5019 52.5486 97.3781 52.3164 97.2503C51.4299 96.7665 50.5241 96.3871 49.5525 96.1548C48.3099 95.8374 47.2338 95.1832 46.3473 94.1923C45.6312 93.4103 44.8067 92.7368 43.9435 92.0826C43.3125 91.5987 42.7396 90.9213 42.0467 90.4994C41.0557 89.9071 40.2119 89.1716 39.4957 88.3045C38.737 87.3987 37.9783 86.4503 37.3435 85.4555C36.6273 84.3368 35.9731 83.1561 35.3809 81.9561C34.9396 81.0503 34.6222 80.0361 34.2196 79.0877C33.5886 77.4852 33.3757 75.7974 32.9964 74.1329C32.8919 73.7536 32.8686 73.351 32.8493 72.9523C32.7641 71.8761 32.7448 70.8 32.617 69.7471C32.5551 69.2632 32.3228 68.7987 32.1099 68.2065C32.4041 67.3626 32.1719 66.3716 32.0906 65.3574C31.9628 63.5652 32.2609 61.7923 32.5551 60.0232C32.8919 58.0607 33.039 56.0594 33.1473 54.0774C33.1667 53.4658 32.9151 52.8348 32.8299 52.2C32.6828 51.0387 32.5783 49.8813 32.4506 48.72C32.3228 47.6013 32.199 46.4826 32.0712 45.3445C32.0519 45.0077 32.0712 44.671 32.0712 44.3303C32.1138 43.6761 32.1564 43.0219 32.199 42.2439C32.559 41.6129 33.0002 40.831 33.4648 40.0723C33.5693 39.9252 33.7396 39.7974 33.9061 39.6929C34.2002 39.4839 34.4983 39.2903 34.7073 39.1432C35.257 39.6929 35.8028 40.2619 36.3719 40.7884C37.4673 41.76 38.5667 42.7277 39.7048 43.6568C40.3164 44.1639 41.0131 44.5858 41.6673 45.0503C42.8054 45.871 43.9241 46.7148 45.0622 47.5161C45.5461 47.8529 46.0531 48.1897 46.6028 48.4645C47.1525 48.7587 47.6983 48.5497 47.9731 47.8723C48.2673 47.1329 48.4996 46.3548 48.6893 45.5729C48.9409 44.4348 49.3009 43.3587 49.7654 42.2826C50.2919 41.1019 50.5861 39.8168 50.9886 38.5936C51.1783 37.9819 51.4106 37.3897 51.6196 36.8013C51.6815 36.6116 51.7241 36.3987 51.7473 36.209C51.937 33.4026 52.0841 30.6 51.8325 27.7936L52.2119 27.7742C52.4209 29.4619 53.4777 30.6 54.7009 31.6336C55.4596 32.2452 56.1989 32.8568 56.9151 33.5303C57.2093 33.7819 57.4415 34.1226 57.6312 34.4787C57.8828 34.9432 57.8828 35.4503 57.4841 35.8723C57.2519 36.1045 57.0002 36.3368 56.768 36.5884C55.8196 37.56 55.5873 39.0348 56.346 40.1729C56.6402 40.6142 57.1473 41.0168 57.6544 41.1871C58.5409 41.4813 58.8351 42.0736 58.9822 42.8748C59.0248 43.1071 59.0867 43.3394 59.1525 43.6336C58.9435 44.0129 58.7306 44.4155 58.4557 44.8142C57.6738 45.9948 57.6119 47.2607 58.2235 48.5265C58.4131 48.8865 58.8157 49.1381 59.1525 49.4129L59.137 49.4168ZM50.0673 51.1045V50.1987C49.8583 50.071 49.8157 50.009 49.7499 50.009C48.2519 50.009 46.7344 49.9897 45.2364 50.0284C44.8144 50.0477 44.3925 50.2374 43.9938 50.3652C43.5951 50.4929 43.3202 50.7445 43.1731 51.1471C43.5525 51.4839 43.9551 51.631 44.4157 51.5884C45.9138 51.5265 47.4119 51.4607 48.906 51.3794C49.2854 51.36 49.6648 51.1897 50.0673 51.1045Z" fill="#FF5B00"/>
<path d="M53.9692 4.11484H53.9498V4.15742L53.9692 4.11484ZM19.5717 14.5316C19.0453 14.3226 18.3485 14.3613 18.1395 14.6361C18.8363 14.8258 19.1305 14.8684 19.5717 14.5316ZM53.9072 8.70968L53.8647 8.75226H53.9072V8.70968ZM20.0788 14.5936C20.3305 14.7639 20.4814 14.489 20.6905 14.551C20.6285 15.2903 20.1834 15.3523 19.7846 15.3948H19.6995L19.6569 15.4142H19.595C19.5524 15.4336 19.4905 15.4336 19.4479 15.4336C19.3627 15.4529 19.2582 15.4336 19.1305 15.391C18.8363 15.3058 18.4995 15.2865 18.2672 15.3058C18.395 15.5148 18.5421 15.7277 18.6892 15.9368C18.8169 16.1265 18.964 16.2968 19.0685 16.4632C19.0685 16.4761 19.0892 16.511 19.1305 16.5677L19.2156 16.7574L19.4053 17.1794L19.7421 18C19.9743 18.569 20.2492 19.0955 20.6479 19.5832V19.6026C20.4388 19.7071 20.2453 19.8348 20.0556 19.9819C20.0556 19.9394 20.0363 19.92 20.013 19.8968C19.9705 19.8542 19.9085 19.8348 19.7188 19.7071C19.7614 19.8542 19.804 19.9819 19.8466 20.1097C19.4053 20.4039 18.9834 20.7019 18.5614 21.0387C18.2672 20.5123 17.9924 19.9626 17.6982 19.4361L17.0014 18.1703L16.115 16.5871L14.0905 12.8555H14.1756L14.2608 12.8361H14.4505L14.8105 12.8168L15.5498 12.7974L17.0246 12.7548L19.8737 12.6697L23.9846 12.5652L26.0285 12.5226L26.915 12.5032C27.1046 12.4839 27.2943 12.4839 27.484 12.4606C27.6737 12.4606 27.8634 12.3329 27.9253 12.1432C27.9872 11.9536 27.9872 11.7639 28.0105 11.5742L28.0298 11.28L28.0917 10.5213L28.2388 9.00387C28.3859 7.52904 28.4711 5.90323 28.6182 4.23871C29.1872 4.74581 29.7795 5.25291 30.3911 5.82194L33.4066 8.62839L34.1227 9.30194C34.2079 9.3871 34.2698 9.42968 34.4401 9.5342C34.6105 9.61936 34.8001 9.72387 34.9472 9.80904C35.0517 9.85162 35.1369 9.8942 35.2414 9.93678C35.4311 10.0219 35.6208 10.1071 35.8337 10.169C35.9188 10.1884 36.0427 10.231 36.1085 10.1071C36.1705 10.0219 36.1937 9.91742 36.2363 9.83226C36.3214 9.62323 36.3834 9.42968 36.4259 9.24C36.4453 9.17807 36.5305 8.90323 36.573 8.71355L36.7434 8.08258L37.0801 6.75484L37.6492 4.60258L38.2414 2.40775L38.5588 1.31226L38.7059 0.78581C38.7485 0.700648 38.7679 0.596132 38.7911 0.534197L38.8956 0.3871C39.3369 0.894197 39.8014 1.40129 40.2466 1.90452C40.8582 2.62065 41.4698 3.31742 42.0388 3.90968C42.6079 4.50194 43.324 5.13291 43.5795 5.36516C43.9395 5.68258 44.2956 5.99613 44.675 6.27097C44.8647 6.41807 45.0543 6.54581 45.244 6.67355C45.3717 6.75871 45.453 6.80129 45.5614 6.84387C45.6234 6.88646 45.6659 6.90581 45.7318 6.92904C45.8169 6.94839 45.8788 6.90968 45.9408 6.88646C46.0027 6.86323 46.0685 6.82452 46.1305 6.80129L46.3627 6.69678C46.9124 6.42194 47.4582 6.12775 48.0079 5.81033L48.8285 5.34581L49.924 4.71484C50.8298 4.18839 51.7589 3.63871 52.7305 3.05033C54.1434 2.1871 55.4943 1.50968 56.9072 0.689036C56.9266 0.816778 56.9498 0.921294 56.9692 1.02581V1.27742L56.9498 1.52904C56.9305 1.86581 56.9072 2.16 56.9305 2.45807C56.9305 3.40646 56.8027 4.62968 56.4466 6.04258C56.2763 6.73936 56.0672 7.45549 55.8969 8.19484C55.7924 8.55484 55.7072 8.91097 55.6453 9.29033C55.6027 9.48 55.5601 9.66968 55.5408 9.85936C55.5214 9.9871 55.5214 10.0684 55.5214 10.1768C55.5214 10.4942 55.4788 10.831 55.204 11.0206C55.1847 11.04 55.1421 11.0632 55.1188 11.0826C54.5924 11.0826 54.0853 11.1019 53.5782 11.1252C53.6827 10.6413 53.7679 10.1536 53.6208 9.6271C53.6014 10.1768 52.9898 10.5561 52.9666 11.1445C52.7963 11.1445 52.6066 11.1445 52.4401 11.1639C52.2311 10.7845 52.0182 10.4245 51.8711 10.0258C51.7008 9.58452 51.8711 9.54194 52.6724 9.66581L52.715 9.70839L52.6956 9.64645C52.653 9.47613 52.7382 9.30968 52.7382 9.16258C52.7576 9.05807 52.7382 8.99226 52.6763 8.95355C52.6143 8.89162 52.5059 8.82581 52.3395 8.78323C52.0879 8.72129 52.1072 8.65549 52.1498 8.59355C52.235 8.44646 52.2118 8.31871 52.2118 8.2142C52.2118 8.10968 52.2118 8.00516 52.444 7.77291C52.6143 7.60258 52.5059 7.52129 52.3821 7.54065C52.2118 7.54065 52.173 7.54065 52.5098 7.11871C52.7847 6.75871 52.9124 6.5071 52.9511 6.33678C52.9705 6.25162 52.9705 6.20904 52.9511 6.16645C52.8659 6.20904 52.7808 6.2942 52.6995 6.35613C52.4905 6.52645 52.2969 6.67355 52.2156 6.69291C52.1537 6.69291 51.964 6.94452 52.235 6.41807C52.2543 6.37549 52.2969 6.24775 52.3201 6.16645C52.3201 6.18581 52.3008 6.20904 52.2776 6.25162C51.875 6.94839 51.7511 7.13807 51.7085 7.15742C51.6659 7.15742 51.6659 7.02968 51.6234 7.01033C51.5808 6.99097 51.5382 7.05291 51.4763 7.21936C51.2866 7.70323 51.244 7.85033 51.2014 7.85033C51.1821 7.83097 51.1588 7.64129 51.1163 7.51355C51.0737 7.28129 50.9885 7.21936 50.9072 7.47097C50.8647 7.64129 50.8221 7.76516 50.8027 7.85033C50.8027 7.91226 50.7834 7.93549 50.7601 7.97807C50.7176 8.02065 50.6324 8.08258 50.5511 8.14839C50.2337 8.33807 49.835 8.46581 49.3705 8.50839C48.7163 8.57033 48.1666 9.10065 47.4505 9.37162C46.924 9.58065 46.3743 9.81291 45.8479 9.89807H45.6388C45.5769 9.89807 45.5111 9.87871 45.4492 9.85549H45.4298V9.89807H45.4105V9.87871H45.3911L45.3485 9.85936L45.244 9.84L45.0543 9.77807C44.8027 9.69291 44.5472 9.54581 44.2956 9.39871C44.1911 9.33678 44.0634 9.25162 43.9356 9.18968L43.6414 8.98065C43.4711 8.87613 43.324 8.74839 43.1769 8.62065C42.8827 8.36904 42.6272 8.11355 42.395 7.81936C42.2479 7.64904 42.0776 7.52516 41.8879 7.41678L41.613 7.26968L41.4659 7.18452L41.4466 7.16516L41.404 7.14581C41.3421 7.08387 41.2569 6.97549 41.4659 6.59613C41.6556 6.23613 41.6982 6.55355 41.8027 6.61549C41.8221 6.63484 41.8647 6.63484 41.9924 6.67742C42.0776 6.44516 42.1627 6.25549 42.1395 6.10839C42.1163 5.96129 41.9924 5.85678 41.7601 5.93807C41.7176 5.95742 41.6982 5.95742 41.675 5.95742C41.315 5.91484 41.0634 6.37936 40.9163 6.52645C40.8543 6.58839 40.7885 6.5071 40.7266 6.42194C40.6647 6.33678 40.5988 6.27484 40.5563 6.40258C40.5137 6.25549 40.4943 6.17033 40.4711 6.06581C40.2621 4.9471 39.964 4.12645 39.755 3.78968L39.6505 3.68516C39.6311 3.68516 39.6311 3.70452 39.6311 3.70452V3.95613C39.6505 4.20775 39.693 4.54839 39.7782 4.97033C39.9872 6.02323 40.0956 6.48775 40.1382 6.76258C40.1576 7.03742 40.1188 7.09936 40.0337 7.18452C39.9485 7.26968 39.8866 7.39355 39.844 7.52129V7.66839L39.8247 7.79613C39.8053 7.94323 39.7821 8.11355 39.7627 8.28C39.7627 8.29936 39.7821 8.34194 39.7821 8.36516C39.573 8.65936 39.6117 9.03871 39.4453 9.33678C39.2556 9.69678 38.6866 9.33678 38.284 9.39871C38.0324 9.44129 38.0092 9.56904 37.9898 9.73549L37.9279 9.75484H38.013C38.5627 9.75484 38.8337 9.7742 38.9421 9.88258C38.9847 9.92517 39.004 9.94452 39.004 9.9871C39.0234 10.049 39.004 10.1148 39.004 10.1961C38.9847 10.3665 38.9188 10.5987 38.8569 10.9123C38.6866 11.671 38.373 12.4297 37.8853 12.8942C37.2737 13.0219 36.6621 13.169 36.0505 13.2968C35.6479 13.2116 35.2492 13.0645 34.8466 12.8748C34.5292 12.7471 34.235 12.6 33.9408 12.4529L33.5614 12.2632L33.2672 12.1161C33.0969 12.0116 32.9305 11.9265 32.7176 11.7987C32.613 11.7136 32.4853 11.6516 32.4001 11.5665C32.3382 11.5239 32.2724 11.4813 32.2298 11.4194L32.1872 11.3768C32.0827 11.2916 31.9976 11.2065 31.893 11.1252C31.7227 10.9548 31.533 10.7652 31.3434 10.5136C31.1537 10.3045 30.9408 10.0297 30.6892 9.7742C30.6272 9.98323 30.5847 10.3432 30.6466 10.7226C30.7085 10.9742 30.6466 11.0594 30.5847 11.2065C30.5421 11.2916 30.5227 11.3768 30.4995 11.4581V12.24C30.4995 12.3677 30.395 12.4916 30.3524 12.6194C29.8879 12.3871 29.7601 11.9884 29.8879 11.7329C29.9305 11.671 29.9498 11.6052 29.973 11.5432C29.9963 11.4813 30.0156 11.4813 30.035 11.4581C30.0543 11.3961 30.0776 11.3536 30.0969 11.2877C30.1395 11.1832 30.1395 11.0787 30.1163 10.9703C30.0969 10.7187 30.0311 10.4206 30.0311 10.1265C30.0311 9.80904 30.093 9.55742 30.1163 9.28258C29.6324 8.67097 29.5666 9.05033 29.6092 9.47226C29.6517 9.91355 29.7988 10.3781 29.7563 10.6336C29.7137 10.7806 29.6943 10.9277 29.6711 11.0981L29.6285 11.3303L29.5859 11.6052C29.524 12.1123 29.5008 12.6194 29.3769 13.0606C29.2917 13.2929 29.1872 13.5252 28.9976 13.6916C28.8272 13.8387 28.595 13.9432 28.3666 13.9858C27.9021 14.0903 27.395 14.0903 26.8917 14.1136C26.6401 14.1329 26.4505 14.009 26.2182 13.9432C26.0479 13.9006 25.8388 13.7729 25.6685 13.8387C24.3408 14.3226 22.9705 14.28 21.5963 14.2181C21.3021 14.1987 20.9846 14.3458 20.7098 14.5548C20.4776 14.28 20.3072 14.3032 20.0982 14.5974L20.0788 14.5936ZM54.1821 7.31613H54.1627C54.1434 7.40129 53.8879 7.50581 54.035 7.54839L54.1821 7.31613ZM54.5847 5.58581C54.5421 5.54323 54.4995 5.48129 54.4376 5.45807L54.3524 5.52L54.4143 5.50065C54.5421 5.45807 54.2672 5.81807 54.5847 5.58581ZM52.7692 7.78065L52.8543 7.76129L52.835 7.74194L52.773 7.78452L52.7692 7.78065ZM50.8918 6.41033C50.9537 6.34839 50.9963 6.22065 51.0195 6.05033C50.9769 6.05033 50.9343 5.98839 50.8918 6.03097C50.8298 6.09291 50.7447 6.22065 50.7447 6.32516C50.7447 6.51484 50.8298 6.45291 50.8918 6.41033ZM50.3847 6.6C50.3847 6.58065 50.3847 6.51484 50.3653 6.49549C50.3653 6.47613 50.3227 6.49549 50.3034 6.49549C50.3034 6.53807 50.284 6.58065 50.284 6.6C50.3266 6.70452 50.3692 6.70452 50.3885 6.6H50.3847ZM47.5782 7.78065C47.3885 8.01291 47.284 8.3071 47.1988 8.6671C47.5782 8.28774 47.5588 8.28775 47.5782 7.78065ZM44.0982 7.90839C44.1176 7.86581 44.1176 7.76129 44.0982 7.71871C44.0788 7.6142 44.0363 7.6142 43.9705 7.69936C43.9511 7.76129 43.9511 7.8271 43.9511 7.88904C43.9705 7.9742 44.0556 7.99355 44.0982 7.90839ZM43.1924 7.21162C43.2543 7.12646 43.2543 7.06452 43.1924 7.06452C43.1305 7.08387 43.0647 7.12645 43.0027 7.19226C42.9408 7.25807 42.9408 7.33936 43.0027 7.32C43.0647 7.30065 43.1305 7.25807 43.1924 7.21549V7.21162ZM40.5563 4.8271C40.5988 4.8271 40.684 4.95484 40.6182 4.63742C40.6182 4.57549 40.533 4.44775 40.5137 4.44775C40.4711 4.44775 40.3859 4.36258 40.4285 4.63742C40.4285 4.69936 40.5137 4.76516 40.5563 4.8271ZM39.2711 6.3871C39.4414 6.44904 39.3756 6.30194 39.2905 6.11226C39.2285 5.92258 39.1627 5.77549 38.9963 5.18323C38.9769 5.54323 38.9537 5.6671 38.9537 5.8142C38.9537 5.94194 38.8492 6.04645 39.0814 6.25549C39.1434 6.31742 39.2285 6.36 39.2711 6.38323V6.3871ZM38.6401 7.42065C38.6401 7.37807 38.6208 7.35871 38.6208 7.31613C38.6014 7.33549 38.5588 7.33549 38.5356 7.35871C38.5124 7.38194 38.5163 7.42065 38.5163 7.44387C38.5588 7.50581 38.6014 7.50581 38.644 7.42452L38.6401 7.42065ZM38.4505 8.68645C38.555 8.74839 38.6827 8.68645 38.6827 8.58194C38.6634 8.47742 38.5782 8.39226 38.4311 8.34968C38.3692 8.39226 38.2608 8.41162 38.2608 8.43484C38.3034 8.53936 38.3459 8.64387 38.4505 8.68645ZM37.5214 11.0477L37.4788 10.9626L37.4595 11.0052L37.5214 11.0477ZM34.5485 12.0194C34.6105 12.0194 34.6956 11.8723 34.6956 11.8723C34.5253 11.64 34.3356 11.5781 34.1034 11.5355C34.1459 11.7871 34.2505 12.0426 34.5447 12.0194H34.5485ZM32.4621 10.5213L32.4814 10.4594H32.4388L32.4582 10.5213H32.4621ZM31.4905 9.59226V9.46452L31.0879 9.10452V9.23226L31.4905 9.59226ZM30.1821 8.47355C30.2672 8.53549 30.3292 8.53549 30.3911 8.51613C30.3059 8.49678 30.1821 8.24129 30.0117 8.00904C29.9498 8.00904 29.884 8.05162 29.9692 8.43097C30.1163 8.60129 30.1782 8.60129 30.1782 8.47355H30.1821ZM19.6376 19.3123L19.6569 19.2503L19.595 19.2697L19.6376 19.3123ZM19.4672 18.7432C19.1498 18.1123 18.8363 17.4774 18.5382 16.8658C18.3485 16.5058 18.1782 16.1497 17.9885 15.7897C17.9266 15.6426 17.7988 15.4955 17.4814 15.24C17.4388 15.0697 17.4388 14.9458 17.2298 14.6903L17.2105 14.671H17.2298V14.6516C17.2492 14.6516 17.2492 14.6323 17.2492 14.6323V14.5277C17.1446 14.5084 17.0788 14.4852 16.9976 14.4658L16.893 14.4465H16.8079V14.4658C16.8698 14.6555 17.1253 14.9497 17.4621 15.2477C17.3576 15.4181 17.6711 16.1342 18.0543 16.8077C18.1821 17.0168 18.2866 17.2103 18.4143 17.4194C18.5421 17.609 18.6659 17.8219 18.7937 17.9884C19.0453 18.3484 19.2776 18.6194 19.4672 18.7471V18.7432Z" fill="#62D9EB"/>
<path d="M55.107 11.0748C54.4334 11.6013 54.0928 12.2981 53.9689 12.9097C53.9689 12.9948 53.8412 13.08 53.547 13.08C53.485 12.9522 53.4425 12.8284 53.3999 12.7006C53.3805 12.5535 53.3573 12.4064 53.3573 12.2787C53.3767 11.9845 53.4192 11.7097 53.5044 11.4155C53.5238 11.311 53.547 11.2258 53.5663 11.1213C54.0734 11.1019 54.5805 11.0787 55.107 11.0787V11.0748Z" fill="#62D9EB"/>
<path d="M52.9546 11.1368V11.2839C52.9546 11.3032 52.85 11.3884 52.8075 11.3884C52.6797 11.369 52.5133 11.3032 52.4707 11.2413C52.4513 11.2219 52.4281 11.1794 52.4281 11.1561C52.5984 11.1368 52.7881 11.1368 52.9546 11.1368Z" fill="#62D9EB"/>
<path d="M50.0668 50.1948V51.1006C49.6642 51.1858 49.2849 51.3523 48.9055 51.3755C47.4074 51.4606 45.9094 51.5226 44.4152 51.5845C43.9507 51.6271 43.552 51.48 43.1726 51.1432C43.3197 50.7406 43.5945 50.489 43.9933 50.3613C44.392 50.2335 44.8139 50.0439 45.2358 50.0245C46.7339 49.9819 48.2513 50.0052 49.7494 50.0052C49.8113 50.0052 49.8539 50.0671 50.0668 50.1948Z" fill="#4D40CC"/>
<path d="M49.7072 28.9781C49.7265 30.0542 49.9162 31.1303 49.8775 32.1832C49.773 34.08 49.8156 35.9806 49.0569 37.7923C48.6156 38.8452 48.3601 39.9639 48.0233 41.04C47.9807 41.1677 47.9614 41.3148 47.8762 41.4194C47.0323 42.6852 46.9472 44.1832 46.653 45.6155C46.6104 45.7858 46.4633 45.9329 46.4014 46.0568C44.4194 44.5394 42.4569 43.1265 40.5601 41.6052C39.6543 40.889 38.8723 40.0026 38.0517 39.1781C37.1653 38.3148 36.2788 37.471 35.4349 36.5613C34.1072 35.0865 33.0311 33.4413 32.3149 31.5832C32.1446 31.1187 31.9549 30.6348 31.8504 30.151C31.3433 27.8942 32.1872 25.9742 33.3911 24.1394C34.2349 22.8735 35.3962 21.8632 36.6388 21.0619C37.5446 20.4503 38.6827 20.1329 39.782 19.8194C41.0246 19.4594 42.333 19.3974 43.6414 19.6103C44.2723 19.7148 44.8027 19.9897 45.3717 20.3265C47.1872 21.4645 48.093 23.2568 48.8323 25.0916C49.3394 26.2955 49.6762 27.6232 49.7188 28.9703L49.7072 28.9781ZM44.6865 31.889C45.5923 31.0877 46.2698 30.2439 46.1188 28.9587C46.0762 28.4323 46.1188 27.8826 46.0143 27.3561C45.8053 26.3032 45.1511 25.5406 44.3265 24.8477C43.293 23.9845 42.1317 23.6671 40.8891 23.8568C38.8646 24.151 37.1575 25.08 36.0582 26.8955C35.5317 27.7819 35.1949 28.7497 35.2375 29.849C35.2801 31.409 36.1433 32.5045 37.0917 33.6039C37.1536 33.7084 37.2814 33.7936 37.4091 33.8361C39.0117 34.4284 40.5949 34.5097 42.1549 33.6465C43.0607 33.1394 43.9046 32.5935 44.6865 31.8968V31.889Z" fill="#4D40CC"/>
<path d="M46.1228 28.9587C46.2699 30.2439 45.5964 31.0877 44.6906 31.889C43.9086 32.5858 43.0648 33.1316 42.159 33.6387C40.599 34.5019 39.0157 34.4206 37.4131 33.8284C37.2854 33.7858 37.1615 33.7006 37.0957 33.5961C36.1473 32.5006 35.2802 31.4013 35.2415 29.8413C35.199 28.7458 35.5357 27.7742 36.0622 26.8877C37.1577 25.0722 38.8686 24.1471 40.8931 23.849C42.1357 23.6593 43.297 23.9768 44.3306 24.84C45.1512 25.5368 45.8054 26.2955 46.0183 27.3484C46.1228 27.8748 46.0802 28.4245 46.1228 28.9509V28.9587ZM43.8041 30.9832C44.3964 30.2671 44.6906 29.5084 44.2454 28.5793C43.9706 27.9484 43.7809 27.2709 43.5293 26.5742C42.8751 26.1329 42.2209 25.6877 41.6325 25.289C40.7693 25.498 40.0919 25.7303 39.3951 25.7961C38.5744 25.858 38.0015 26.3226 37.5602 26.8916C36.2751 28.5174 36.8635 30.8129 38.7641 31.68C39.4609 31.9974 40.2196 32.1871 40.7886 32.3535C41.3151 32.2258 41.6751 32.1019 42.0312 32.0361C42.7706 31.9084 43.359 31.5522 43.8041 30.9832Z" fill="#4D40CC"/>
<path d="M44.2454 28.5793C44.6867 29.5084 44.3925 30.2671 43.8042 30.9832C43.3629 31.5522 42.7706 31.9122 42.0312 32.0361C41.6712 32.098 41.3151 32.2258 40.7887 32.3535C40.2196 32.1832 39.4609 31.9935 38.7641 31.68C36.8674 30.8168 36.2751 28.5174 37.5603 26.8916C38.0016 26.3226 38.5745 25.858 39.3951 25.7961C40.0919 25.7342 40.7654 25.5019 41.6325 25.289C42.2248 25.6916 42.8751 26.1329 43.5293 26.5742C43.7809 27.271 43.9706 27.9445 44.2454 28.5793Z" fill="#EDECFA"/>
<path d="M40.3239 5.75999C40.409 6.18192 40.409 6.3716 40.3858 6.35224C40.3729 6.35224 40.3664 6.34579 40.3664 6.33289C40.3471 6.33289 40.3239 6.29031 40.3045 6.24773L40.2426 6.05805C40.2 5.95353 40.1381 5.76386 40.0723 5.48902C40.0103 5.29934 39.9677 5.10966 39.9445 4.93934C39.9252 4.83482 39.9445 4.83482 39.9445 4.79224C39.9445 4.77289 39.9639 4.77289 39.9639 4.77289H39.9832C40.0877 4.98192 40.2155 5.21418 40.32 5.76386L40.3239 5.75999Z" fill="#62D9EB"/>
<path d="M37.8583 12.8865C37.5641 13.2465 37.1421 13.4362 36.6157 13.3936C36.426 13.3742 36.2363 13.351 36.0234 13.2891C36.6351 13.1613 37.2467 13.0142 37.8583 12.8865Z" fill="#62D9EB"/>
<path d="M29.8648 13.4168C30.0119 13.5213 30.1165 13.7535 30.0352 13.9239C29.8648 14.2839 29.5087 14.5974 29.1294 14.7252C28.7074 14.8723 28.2235 14.8297 27.759 14.7677C28.0958 14.4929 28.4132 14.4077 28.75 14.2606C29.0674 14.1561 29.4042 13.9239 29.5087 13.5445C29.5513 13.3974 29.6558 13.2929 29.8687 13.4168H29.8648Z" fill="#62D9EB"/>
<path d="M26.6785 14.6787C26.3417 15.0155 26.1288 14.9729 25.8772 14.7832C26.1714 14.3419 26.3611 14.6361 26.6785 14.6787Z" fill="#62D9EB"/>
<path d="M24.844 14.4697C24.9717 14.4697 25.0762 14.5548 25.0956 14.7639C25.0337 15.0387 24.8866 15.1239 24.693 15.1006C24.5885 15.1006 24.5227 14.9729 24.5459 14.849C24.5885 14.64 24.6737 14.4697 24.8401 14.4697H24.844Z" fill="#62D9EB"/>
<path d="M23.8104 33.3251C23.9807 33.4103 24.1704 33.4955 24.062 33.8322C23.9768 34.1071 23.7446 34.2116 23.5781 34.1497C22.7343 33.8129 21.7626 33.898 20.9226 33.5806C20.0168 33.2438 19.1072 32.8645 18.2246 32.5045C17.7833 32.3148 17.3381 32.1251 16.8736 31.9548C16.4943 31.8077 16.1575 31.68 15.7355 31.5329C14.8065 31.2387 13.9007 30.7935 13.0801 30.3716L12.4491 30.0348L12.1317 29.8645L11.9846 29.7793L11.8994 29.7368V29.7174H11.9188C12.3407 29.5703 12.7394 29.4232 13.0994 29.2529C13.9859 28.8503 15.1859 28.4322 16.4091 28.0103C17.0207 27.778 17.6323 27.569 18.2439 27.3368C18.5613 27.2322 18.8555 27.1045 19.1497 26.9768C19.4246 26.8722 19.6994 26.7445 19.9317 26.5974C20.0788 26.4929 20.2259 26.3651 20.3343 26.218C20.5046 25.9858 20.5859 25.7109 20.5665 25.4361C20.5472 25.1613 20.462 24.8864 20.3768 24.6542C20.2723 24.4026 20.1872 24.2129 20.0168 23.8955L19.5523 23.009C19.2155 22.3548 18.8981 21.7006 18.5613 21.0464C18.9833 20.7097 19.4052 20.4155 19.8465 20.1174C20.1833 21.0464 20.6672 21.7819 21.1123 22.5213C21.2401 22.7535 21.3446 22.9858 21.4723 23.218L21.6426 23.578C21.7046 23.7484 21.7704 23.8955 21.8323 24.0619C22.0839 24.7355 22.2736 25.4322 22.2736 26.2142C22.5484 25.4555 22.3588 24.5884 22.0414 23.8103C21.9794 23.6206 21.871 23.4077 21.8323 23.2839C21.7704 23.1561 21.7046 23.0322 21.662 22.9045C21.5768 22.6297 21.5149 22.3548 21.4917 22.0413C21.8091 22.169 22.0839 22.4826 22.3549 22.9045C22.4826 23.0748 22.7149 23.578 22.862 24.0658C23.0091 24.5729 23.0943 25.0993 23.0517 25.6258C23.0091 26.3419 22.7768 27.0813 22.3355 27.6929C22.0607 28.0529 21.7239 28.3897 21.3214 28.6219C20.8994 28.8968 20.4349 29.0632 19.951 29.1909C19.8233 29.2335 19.7807 29.2529 19.7188 29.2761L19.5717 29.338L19.2543 29.4658L18.6233 29.7832C18.4143 29.8684 18.182 29.9535 17.9497 29.9729C17.8452 29.9922 17.7175 29.9922 17.5897 29.9922H17.5046L17.4852 29.9497C17.4852 29.9303 17.4659 29.8877 17.4426 29.8645C17.4426 29.8451 17.4426 29.8219 17.462 29.8026L17.7136 29.698L18.2207 29.4658L19.2117 29.0438L19.7381 28.8116C20.0323 28.7071 20.3304 28.6026 20.582 28.4516C21.1317 28.2 21.5962 27.84 21.9097 27.3755C21.9717 27.2709 22.0143 27.1858 22.0568 27.0813C21.8672 27.0813 21.7626 27.1239 21.6543 27.1858C21.5072 27.3135 21.4646 27.5458 21.3175 27.6697C21.0233 27.9019 20.6865 28.0722 20.3033 28.2193C20.133 28.2813 19.9433 28.3471 19.7536 28.409L19.3317 28.5561L17.8994 29.0632L17.5201 29.1909C17.4155 29.2335 17.2452 29.2955 17.2452 29.2955L16.9704 29.4232L16.4865 29.6129L15.6852 29.9729L15.5807 30.0155L15.5381 30.0348C15.5381 30.0348 15.5807 30.0542 15.6001 30.0542L15.8323 30.1587L16.2968 30.3677C16.6336 30.538 17.0362 30.6426 17.311 30.7045C17.3536 30.7045 17.5007 30.7664 17.6052 30.809L18.0272 30.9561L18.8284 31.2735C19.3781 31.4632 19.9239 31.6761 20.4543 31.9045C21.573 32.3458 22.6684 32.8761 23.8065 33.3174L23.8104 33.3251Z" fill="#62D9EB"/>
<path d="M20.9614 14.9535C21.995 14.8258 23.0285 14.2142 24.1047 14.849C23.0517 15.058 22.0182 15.48 20.9614 14.9535Z" fill="#62D9EB"/>
<path d="M21.3836 21.0271C21.5926 21.1974 21.5732 21.4916 21.2365 21.6194C20.7719 21.809 20.9423 21.3871 20.8339 21.2168C20.7255 21.0465 20.3694 20.8994 20.7913 20.6671C21.2984 20.4155 21.2132 20.8761 21.3836 21.0271Z" fill="#62D9EB"/>
<path d="M20.6479 19.6142C20.8182 19.8232 20.7757 20.0555 20.4582 20.2065C20.1834 20.3342 20.1408 20.1213 20.0557 19.9974C20.2453 19.8503 20.435 19.7226 20.6479 19.6181V19.6142Z" fill="#62D9EB"/>
<path d="M20.5624 25.4361C20.5817 25.711 20.5005 25.9858 20.3301 26.2181C20.2256 26.3652 20.0785 26.4929 19.9275 26.5974C19.6953 26.7445 19.4205 26.8723 19.1456 26.9768C18.8514 27.1045 18.5534 27.2284 18.2398 27.3368C17.6282 27.569 17.0166 27.7781 16.405 28.0103C15.1817 28.4323 13.9779 28.8542 13.0953 29.2529C12.7353 29.4232 12.3366 29.5703 11.9146 29.7174H11.8953L10.6527 28.8116C12.8901 25.7961 15.5456 23.2026 18.5611 21.0503C18.8979 21.7045 19.2153 22.3587 19.5521 23.0129L20.0166 23.8994C20.1869 24.2168 20.2682 24.4065 20.3766 24.6581C20.4617 24.8903 20.5469 25.1652 20.5663 25.44L20.5624 25.4361Z" fill="#EDECFA"/>
<path d="M17.5241 30.1626C17.4621 30.12 17.377 30.0774 17.2725 30.0348C16.9976 29.8645 16.9783 29.7832 17.0208 29.76C17.0828 29.7406 17.2105 29.7793 17.2957 29.8451C17.4002 30.0348 17.4854 30.12 17.5279 30.1626H17.5241Z" fill="#62D9EB"/>
</svg>
